<?xml version="1.0" encoding="UTF-8" standalone="no"?><svg xmlns="http://www.w3.org/2000/svg" xmlns:xlink="http://www.w3.org/1999/xlink" contentScriptType="application/ecmascript" contentStyleType="text/css" height="521px" preserveAspectRatio="none" style="width:1919px;height:521px;background:#FFFFFF;" version="1.1" viewBox="0 0 1919 521" width="1919px" zoomAndPan="magnify"><defs><filter height="300%" id="f6wysri92bcrk" width="300%" x="-1" y="-1"><feGaussianBlur result="blurOut" stdDeviation="2.0"/><feColorMatrix in="blurOut" result="blurOut2" type="matrix" values="0 0 0 0 0 0 0 0 0 0 0 0 0 0 0 0 0 0 .4 0"/><feOffset dx="4.0" dy="4.0" in="blurOut2" result="blurOut3"/><feBlend in="SourceGraphic" in2="blurOut3" mode="normal"/></filter></defs><g><!--MD5=[ce135f397e71694d574a1221b16fe9d6]
class Klondike--><rect codeLine="1" fill="#FEFECE" filter="url(#f6wysri92bcrk)" height="48" id="Klondike" style="stroke:#A80036;stroke-width:1.5;" width="84" x="1263" y="7"/><ellipse cx="1278" cy="23" fill="#ADD1B2" rx="11" ry="11" style="stroke:#A80036;stroke-width:1.0;"/><path d="M1280.9688,28.6406 Q1280.3906,28.9375 1279.75,29.0781 Q1279.1094,29.2344 1278.4063,29.2344 Q1275.9063,29.2344 1274.5781,27.5938 Q1273.2656,25.9375 1273.2656,22.8125 Q1273.2656,19.6875 1274.5781,18.0313 Q1275.9063,16.375 1278.4063,16.375 Q1279.1094,16.375 1279.75,16.5313 Q1280.4063,16.6875 1280.9688,16.9844 L1280.9688,19.7031 Q1280.3438,19.125 1279.75,18.8594 Q1279.1563,18.5781 1278.5313,18.5781 Q1277.1875,18.5781 1276.5,19.6563 Q1275.8125,20.7188 1275.8125,22.8125 Q1275.8125,24.9063 1276.5,25.9844 Q1277.1875,27.0469 1278.5313,27.0469 Q1279.1563,27.0469 1279.75,26.7813 Q1280.3438,26.5 1280.9688,25.9219 L1280.9688,28.6406 Z " fill="#000000"/><text fill="#000000" font-family="sans-serif" font-size="12" lengthAdjust="spacing" textLength="52" x="1292" y="27.1543">Klondike</text><line style="stroke:#A80036;stroke-width:1.5;" x1="1264" x2="1346" y1="39" y2="39"/><line style="stroke:#A80036;stroke-width:1.5;" x1="1264" x2="1346" y1="47" y2="47"/><!--MD5=[2cb47ba637a0d19583e6199456f6ad0b]
class Player--><rect codeLine="2" fill="#FEFECE" filter="url(#f6wysri92bcrk)" height="48" id="Player" style="stroke:#A80036;stroke-width:1.5;" width="70" x="1270" y="115"/><ellipse cx="1285" cy="131" fill="#ADD1B2" rx="11" ry="11" style="stroke:#A80036;stroke-width:1.0;"/><path d="M1287.9688,136.6406 Q1287.3906,136.9375 1286.75,137.0781 Q1286.1094,137.2344 1285.4063,137.2344 Q1282.9063,137.2344 1281.5781,135.5938 Q1280.2656,133.9375 1280.2656,130.8125 Q1280.2656,127.6875 1281.5781,126.0313 Q1282.9063,124.375 1285.4063,124.375 Q1286.1094,124.375 1286.75,124.5313 Q1287.4063,124.6875 1287.9688,124.9844 L1287.9688,127.7031 Q1287.3438,127.125 1286.75,126.8594 Q1286.1563,126.5781 1285.5313,126.5781 Q1284.1875,126.5781 1283.5,127.6563 Q1282.8125,128.7188 1282.8125,130.8125 Q1282.8125,132.9063 1283.5,133.9844 Q1284.1875,135.0469 1285.5313,135.0469 Q1286.1563,135.0469 1286.75,134.7813 Q1287.3438,134.5 1287.9688,133.9219 L1287.9688,136.6406 Z " fill="#000000"/><text fill="#000000" font-family="sans-serif" font-size="12" lengthAdjust="spacing" textLength="38" x="1299" y="135.1543">Player</text><line style="stroke:#A80036;stroke-width:1.5;" x1="1271" x2="1339" y1="147" y2="147"/><line style="stroke:#A80036;stroke-width:1.5;" x1="1271" x2="1339" y1="155" y2="155"/><!--MD5=[9563755d011c5cec7ec66dc53565a59e]
class Board--><rect codeLine="3" fill="#FEFECE" filter="url(#f6wysri92bcrk)" height="48" id="Board" style="stroke:#A80036;stroke-width:1.5;" width="69" x="1685.5" y="223"/><ellipse cx="1700.5" cy="239" fill="#ADD1B2" rx="11" ry="11" style="stroke:#A80036;stroke-width:1.0;"/><path d="M1703.4688,244.6406 Q1702.8906,244.9375 1702.25,245.0781 Q1701.6094,245.2344 1700.9063,245.2344 Q1698.4063,245.2344 1697.0781,243.5938 Q1695.7656,241.9375 1695.7656,238.8125 Q1695.7656,235.6875 1697.0781,234.0313 Q1698.4063,232.375 1700.9063,232.375 Q1701.6094,232.375 1702.25,232.5313 Q1702.9063,232.6875 1703.4688,232.9844 L1703.4688,235.7031 Q1702.8438,235.125 1702.25,234.8594 Q1701.6563,234.5781 1701.0313,234.5781 Q1699.6875,234.5781 1699,235.6563 Q1698.3125,236.7188 1698.3125,238.8125 Q1698.3125,240.9063 1699,241.9844 Q1699.6875,243.0469 1701.0313,243.0469 Q1701.6563,243.0469 1702.25,242.7813 Q1702.8438,242.5 1703.4688,241.9219 L1703.4688,244.6406 Z " fill="#000000"/><text fill="#000000" font-family="sans-serif" font-size="12" lengthAdjust="spacing" textLength="37" x="1714.5" y="243.1543">Board</text><line style="stroke:#A80036;stroke-width:1.5;" x1="1686.5" x2="1753.5" y1="255" y2="255"/><line style="stroke:#A80036;stroke-width:1.5;" x1="1686.5" x2="1753.5" y1="263" y2="263"/><!--MD5=[5e305716458bbdabbd2d7f572ed2bae2]
class Card--><rect codeLine="4" fill="#FEFECE" filter="url(#f6wysri92bcrk)" height="48" id="Card" style="stroke:#A80036;stroke-width:1.5;" width="61" x="171.5" y="223"/><ellipse cx="186.5" cy="239" fill="#ADD1B2" rx="11" ry="11" style="stroke:#A80036;stroke-width:1.0;"/><path d="M189.4688,244.6406 Q188.8906,244.9375 188.25,245.0781 Q187.6094,245.2344 186.9063,245.2344 Q184.4063,245.2344 183.0781,243.5938 Q181.7656,241.9375 181.7656,238.8125 Q181.7656,235.6875 183.0781,234.0313 Q184.4063,232.375 186.9063,232.375 Q187.6094,232.375 188.25,232.5313 Q188.9063,232.6875 189.4688,232.9844 L189.4688,235.7031 Q188.8438,235.125 188.25,234.8594 Q187.6563,234.5781 187.0313,234.5781 Q185.6875,234.5781 185,235.6563 Q184.3125,236.7188 184.3125,238.8125 Q184.3125,240.9063 185,241.9844 Q185.6875,243.0469 187.0313,243.0469 Q187.6563,243.0469 188.25,242.7813 Q188.8438,242.5 189.4688,241.9219 L189.4688,244.6406 Z " fill="#000000"/><text fill="#000000" font-family="sans-serif" font-size="12" lengthAdjust="spacing" textLength="29" x="200.5" y="243.1543">Card</text><line style="stroke:#A80036;stroke-width:1.5;" x1="172.5" x2="231.5" y1="255" y2="255"/><line style="stroke:#A80036;stroke-width:1.5;" x1="172.5" x2="231.5" y1="263" y2="263"/><!--MD5=[e2e4935f9fee968477563fee16ed8d4a]
class FrenchDeck--><rect codeLine="5" fill="#FEFECE" filter="url(#f6wysri92bcrk)" height="48" id="FrenchDeck" style="stroke:#A80036;stroke-width:1.5;" width="106" x="705" y="115"/><ellipse cx="720" cy="131" fill="#ADD1B2" rx="11" ry="11" style="stroke:#A80036;stroke-width:1.0;"/><path d="M722.9688,136.6406 Q722.3906,136.9375 721.75,137.0781 Q721.1094,137.2344 720.4063,137.2344 Q717.9063,137.2344 716.5781,135.5938 Q715.2656,133.9375 715.2656,130.8125 Q715.2656,127.6875 716.5781,126.0313 Q717.9063,124.375 720.4063,124.375 Q721.1094,124.375 721.75,124.5313 Q722.4063,124.6875 722.9688,124.9844 L722.9688,127.7031 Q722.3438,127.125 721.75,126.8594 Q721.1563,126.5781 720.5313,126.5781 Q719.1875,126.5781 718.5,127.6563 Q717.8125,128.7188 717.8125,130.8125 Q717.8125,132.9063 718.5,133.9844 Q719.1875,135.0469 720.5313,135.0469 Q721.1563,135.0469 721.75,134.7813 Q722.3438,134.5 722.9688,133.9219 L722.9688,136.6406 Z " fill="#000000"/><text fill="#000000" font-family="sans-serif" font-size="12" lengthAdjust="spacing" textLength="74" x="734" y="135.1543">FrenchDeck</text><line style="stroke:#A80036;stroke-width:1.5;" x1="706" x2="810" y1="147" y2="147"/><line style="stroke:#A80036;stroke-width:1.5;" x1="706" x2="810" y1="155" y2="155"/><!--MD5=[8afaa0cc9be9ac1cdc24999fa1642fa3]
class Suit--><rect codeLine="6" fill="#FEFECE" filter="url(#f6wysri92bcrk)" height="48" id="Suit" style="stroke:#A80036;stroke-width:1.5;" width="56" x="11" y="341"/><ellipse cx="26" cy="357" fill="#ADD1B2" rx="11" ry="11" style="stroke:#A80036;stroke-width:1.0;"/><path d="M28.9688,362.6406 Q28.3906,362.9375 27.75,363.0781 Q27.1094,363.2344 26.4063,363.2344 Q23.9063,363.2344 22.5781,361.5938 Q21.2656,359.9375 21.2656,356.8125 Q21.2656,353.6875 22.5781,352.0313 Q23.9063,350.375 26.4063,350.375 Q27.1094,350.375 27.75,350.5313 Q28.4063,350.6875 28.9688,350.9844 L28.9688,353.7031 Q28.3438,353.125 27.75,352.8594 Q27.1563,352.5781 26.5313,352.5781 Q25.1875,352.5781 24.5,353.6563 Q23.8125,354.7188 23.8125,356.8125 Q23.8125,358.9063 24.5,359.9844 Q25.1875,361.0469 26.5313,361.0469 Q27.1563,361.0469 27.75,360.7813 Q28.3438,360.5 28.9688,359.9219 L28.9688,362.6406 Z " fill="#000000"/><text fill="#000000" font-family="sans-serif" font-size="12" lengthAdjust="spacing" textLength="24" x="40" y="361.1543">Suit</text><line style="stroke:#A80036;stroke-width:1.5;" x1="12" x2="66" y1="373" y2="373"/><line style="stroke:#A80036;stroke-width:1.5;" x1="12" x2="66" y1="381" y2="381"/><!--MD5=[435987a092acd998883c72f97c5c9408]
class Number--><rect codeLine="7" fill="#FEFECE" filter="url(#f6wysri92bcrk)" height="48" id="Number" style="stroke:#A80036;stroke-width:1.5;" width="81" x="102.5" y="341"/><ellipse cx="117.5" cy="357" fill="#ADD1B2" rx="11" ry="11" style="stroke:#A80036;stroke-width:1.0;"/><path d="M120.4688,362.6406 Q119.8906,362.9375 119.25,363.0781 Q118.6094,363.2344 117.9063,363.2344 Q115.4063,363.2344 114.0781,361.5938 Q112.7656,359.9375 112.7656,356.8125 Q112.7656,353.6875 114.0781,352.0313 Q115.4063,350.375 117.9063,350.375 Q118.6094,350.375 119.25,350.5313 Q119.9063,350.6875 120.4688,350.9844 L120.4688,353.7031 Q119.8438,353.125 119.25,352.8594 Q118.6563,352.5781 118.0313,352.5781 Q116.6875,352.5781 116,353.6563 Q115.3125,354.7188 115.3125,356.8125 Q115.3125,358.9063 116,359.9844 Q116.6875,361.0469 118.0313,361.0469 Q118.6563,361.0469 119.25,360.7813 Q119.8438,360.5 120.4688,359.9219 L120.4688,362.6406 Z " fill="#000000"/><text fill="#000000" font-family="sans-serif" font-size="12" lengthAdjust="spacing" textLength="49" x="131.5" y="361.1543">Number</text><line style="stroke:#A80036;stroke-width:1.5;" x1="103.5" x2="182.5" y1="373" y2="373"/><line style="stroke:#A80036;stroke-width:1.5;" x1="103.5" x2="182.5" y1="381" y2="381"/><!--MD5=[a64a835c3d62471a77f615251fdde58a]
class Position--><rect codeLine="8" fill="#FEFECE" filter="url(#f6wysri92bcrk)" height="48" id="Position" style="stroke:#A80036;stroke-width:1.5;" width="82" x="219" y="341"/><ellipse cx="234" cy="357" fill="#ADD1B2" rx="11" ry="11" style="stroke:#A80036;stroke-width:1.0;"/><path d="M236.9688,362.6406 Q236.3906,362.9375 235.75,363.0781 Q235.1094,363.2344 234.4063,363.2344 Q231.9063,363.2344 230.5781,361.5938 Q229.2656,359.9375 229.2656,356.8125 Q229.2656,353.6875 230.5781,352.0313 Q231.9063,350.375 234.4063,350.375 Q235.1094,350.375 235.75,350.5313 Q236.4063,350.6875 236.9688,350.9844 L236.9688,353.7031 Q236.3438,353.125 235.75,352.8594 Q235.1563,352.5781 234.5313,352.5781 Q233.1875,352.5781 232.5,353.6563 Q231.8125,354.7188 231.8125,356.8125 Q231.8125,358.9063 232.5,359.9844 Q233.1875,361.0469 234.5313,361.0469 Q235.1563,361.0469 235.75,360.7813 Q236.3438,360.5 236.9688,359.9219 L236.9688,362.6406 Z " fill="#000000"/><text fill="#000000" font-family="sans-serif" font-size="12" lengthAdjust="spacing" textLength="50" x="248" y="361.1543">Position</text><line style="stroke:#A80036;stroke-width:1.5;" x1="220" x2="300" y1="373" y2="373"/><line style="stroke:#A80036;stroke-width:1.5;" x1="220" x2="300" y1="381" y2="381"/><!--MD5=[18eee71c88ab61f27581b8cbdd3ef5ee]
class Color--><rect codeLine="9" fill="#FEFECE" filter="url(#f6wysri92bcrk)" height="48" id="Color" style="stroke:#A80036;stroke-width:1.5;" width="64" x="7" y="459"/><ellipse cx="22" cy="475" fill="#ADD1B2" rx="11" ry="11" style="stroke:#A80036;stroke-width:1.0;"/><path d="M24.9688,480.6406 Q24.3906,480.9375 23.75,481.0781 Q23.1094,481.2344 22.4063,481.2344 Q19.9063,481.2344 18.5781,479.5938 Q17.2656,477.9375 17.2656,474.8125 Q17.2656,471.6875 18.5781,470.0313 Q19.9063,468.375 22.4063,468.375 Q23.1094,468.375 23.75,468.5313 Q24.4063,468.6875 24.9688,468.9844 L24.9688,471.7031 Q24.3438,471.125 23.75,470.8594 Q23.1563,470.5781 22.5313,470.5781 Q21.1875,470.5781 20.5,471.6563 Q19.8125,472.7188 19.8125,474.8125 Q19.8125,476.9063 20.5,477.9844 Q21.1875,479.0469 22.5313,479.0469 Q23.1563,479.0469 23.75,478.7813 Q24.3438,478.5 24.9688,477.9219 L24.9688,480.6406 Z " fill="#000000"/><text fill="#000000" font-family="sans-serif" font-size="12" lengthAdjust="spacing" textLength="32" x="36" y="479.1543">Color</text><line style="stroke:#A80036;stroke-width:1.5;" x1="8" x2="70" y1="491" y2="491"/><line style="stroke:#A80036;stroke-width:1.5;" x1="8" x2="70" y1="499" y2="499"/><!--MD5=[bc87bf052131b9ca3b54b8ba84b5b110]
class Movement--><rect codeLine="10" fill="#FEFECE" filter="url(#f6wysri92bcrk)" height="48" id="Movement" style="stroke:#A80036;stroke-width:1.5;" width="96" x="915" y="223"/><ellipse cx="930" cy="239" fill="#ADD1B2" rx="11" ry="11" style="stroke:#A80036;stroke-width:1.0;"/><path d="M932.9688,244.6406 Q932.3906,244.9375 931.75,245.0781 Q931.1094,245.2344 930.4063,245.2344 Q927.9063,245.2344 926.5781,243.5938 Q925.2656,241.9375 925.2656,238.8125 Q925.2656,235.6875 926.5781,234.0313 Q927.9063,232.375 930.4063,232.375 Q931.1094,232.375 931.75,232.5313 Q932.4063,232.6875 932.9688,232.9844 L932.9688,235.7031 Q932.3438,235.125 931.75,234.8594 Q931.1563,234.5781 930.5313,234.5781 Q929.1875,234.5781 928.5,235.6563 Q927.8125,236.7188 927.8125,238.8125 Q927.8125,240.9063 928.5,241.9844 Q929.1875,243.0469 930.5313,243.0469 Q931.1563,243.0469 931.75,242.7813 Q932.3438,242.5 932.9688,241.9219 L932.9688,244.6406 Z " fill="#000000"/><text fill="#000000" font-family="sans-serif" font-size="12" lengthAdjust="spacing" textLength="64" x="944" y="243.1543">Movement</text><line style="stroke:#A80036;stroke-width:1.5;" x1="916" x2="1010" y1="255" y2="255"/><line style="stroke:#A80036;stroke-width:1.5;" x1="916" x2="1010" y1="263" y2="263"/><!--MD5=[ed59bb8f54e2c8af7c561b182d70ca56]
class Pack--><rect codeLine="11" fill="#FEFECE" filter="url(#f6wysri92bcrk)" height="48" id="Pack" style="stroke:#A80036;stroke-width:1.5;" width="62" x="1737" y="341"/><ellipse cx="1752" cy="357" fill="#ADD1B2" rx="11" ry="11" style="stroke:#A80036;stroke-width:1.0;"/><path d="M1754.9688,362.6406 Q1754.3906,362.9375 1753.75,363.0781 Q1753.1094,363.2344 1752.4063,363.2344 Q1749.9063,363.2344 1748.5781,361.5938 Q1747.2656,359.9375 1747.2656,356.8125 Q1747.2656,353.6875 1748.5781,352.0313 Q1749.9063,350.375 1752.4063,350.375 Q1753.1094,350.375 1753.75,350.5313 Q1754.4063,350.6875 1754.9688,350.9844 L1754.9688,353.7031 Q1754.3438,353.125 1753.75,352.8594 Q1753.1563,352.5781 1752.5313,352.5781 Q1751.1875,352.5781 1750.5,353.6563 Q1749.8125,354.7188 1749.8125,356.8125 Q1749.8125,358.9063 1750.5,359.9844 Q1751.1875,361.0469 1752.5313,361.0469 Q1753.1563,361.0469 1753.75,360.7813 Q1754.3438,360.5 1754.9688,359.9219 L1754.9688,362.6406 Z " fill="#000000"/><text fill="#000000" font-family="sans-serif" font-size="12" lengthAdjust="spacing" textLength="30" x="1766" y="361.1543">Pack</text><line style="stroke:#A80036;stroke-width:1.5;" x1="1738" x2="1798" y1="373" y2="373"/><line style="stroke:#A80036;stroke-width:1.5;" x1="1738" x2="1798" y1="381" y2="381"/><!--MD5=[9d65f55e1ae89a5b4cf38812aa4a03f3]
class Pile--><rect codeLine="12" fill="#FEFECE" filter="url(#f6wysri92bcrk)" height="48" id="Pile" style="stroke:#A80036;stroke-width:1.5;" width="54" x="1596" y="223"/><ellipse cx="1611" cy="239" fill="#ADD1B2" rx="11" ry="11" style="stroke:#A80036;stroke-width:1.0;"/><path d="M1613.9688,244.6406 Q1613.3906,244.9375 1612.75,245.0781 Q1612.1094,245.2344 1611.4063,245.2344 Q1608.9063,245.2344 1607.5781,243.5938 Q1606.2656,241.9375 1606.2656,238.8125 Q1606.2656,235.6875 1607.5781,234.0313 Q1608.9063,232.375 1611.4063,232.375 Q1612.1094,232.375 1612.75,232.5313 Q1613.4063,232.6875 1613.9688,232.9844 L1613.9688,235.7031 Q1613.3438,235.125 1612.75,234.8594 Q1612.1563,234.5781 1611.5313,234.5781 Q1610.1875,234.5781 1609.5,235.6563 Q1608.8125,236.7188 1608.8125,238.8125 Q1608.8125,240.9063 1609.5,241.9844 Q1610.1875,243.0469 1611.5313,243.0469 Q1612.1563,243.0469 1612.75,242.7813 Q1613.3438,242.5 1613.9688,241.9219 L1613.9688,244.6406 Z " fill="#000000"/><text fill="#000000" font-family="sans-serif" font-size="12" lengthAdjust="spacing" textLength="22" x="1625" y="243.1543">Pile</text><line style="stroke:#A80036;stroke-width:1.5;" x1="1597" x2="1649" y1="255" y2="255"/><line style="stroke:#A80036;stroke-width:1.5;" x1="1597" x2="1649" y1="263" y2="263"/><!--MD5=[c3c256aac7e3870d53c0042288b21bdc]
class Waste--><rect codeLine="13" fill="#FEFECE" filter="url(#f6wysri92bcrk)" height="48" id="Waste" style="stroke:#A80036;stroke-width:1.5;" width="71" x="1834.5" y="341"/><ellipse cx="1849.5" cy="357" fill="#ADD1B2" rx="11" ry="11" style="stroke:#A80036;stroke-width:1.0;"/><path d="M1852.4688,362.6406 Q1851.8906,362.9375 1851.25,363.0781 Q1850.6094,363.2344 1849.9063,363.2344 Q1847.4063,363.2344 1846.0781,361.5938 Q1844.7656,359.9375 1844.7656,356.8125 Q1844.7656,353.6875 1846.0781,352.0313 Q1847.4063,350.375 1849.9063,350.375 Q1850.6094,350.375 1851.25,350.5313 Q1851.9063,350.6875 1852.4688,350.9844 L1852.4688,353.7031 Q1851.8438,353.125 1851.25,352.8594 Q1850.6563,352.5781 1850.0313,352.5781 Q1848.6875,352.5781 1848,353.6563 Q1847.3125,354.7188 1847.3125,356.8125 Q1847.3125,358.9063 1848,359.9844 Q1848.6875,361.0469 1850.0313,361.0469 Q1850.6563,361.0469 1851.25,360.7813 Q1851.8438,360.5 1852.4688,359.9219 L1852.4688,362.6406 Z " fill="#000000"/><text fill="#000000" font-family="sans-serif" font-size="12" lengthAdjust="spacing" textLength="39" x="1863.5" y="361.1543">Waste</text><line style="stroke:#A80036;stroke-width:1.5;" x1="1835.5" x2="1904.5" y1="373" y2="373"/><line style="stroke:#A80036;stroke-width:1.5;" x1="1835.5" x2="1904.5" y1="381" y2="381"/><!--MD5=[daad9553d4cfc7a3356ebdfcccdbb1e3]
class Intermediate--><rect codeLine="14" fill="#FEFECE" filter="url(#f6wysri92bcrk)" height="48" id="Intermediate" style="stroke:#A80036;stroke-width:1.5;" width="112" x="1495" y="341"/><ellipse cx="1510" cy="357" fill="#ADD1B2" rx="11" ry="11" style="stroke:#A80036;stroke-width:1.0;"/><path d="M1512.9688,362.6406 Q1512.3906,362.9375 1511.75,363.0781 Q1511.1094,363.2344 1510.4063,363.2344 Q1507.9063,363.2344 1506.5781,361.5938 Q1505.2656,359.9375 1505.2656,356.8125 Q1505.2656,353.6875 1506.5781,352.0313 Q1507.9063,350.375 1510.4063,350.375 Q1511.1094,350.375 1511.75,350.5313 Q1512.4063,350.6875 1512.9688,350.9844 L1512.9688,353.7031 Q1512.3438,353.125 1511.75,352.8594 Q1511.1563,352.5781 1510.5313,352.5781 Q1509.1875,352.5781 1508.5,353.6563 Q1507.8125,354.7188 1507.8125,356.8125 Q1507.8125,358.9063 1508.5,359.9844 Q1509.1875,361.0469 1510.5313,361.0469 Q1511.1563,361.0469 1511.75,360.7813 Q1512.3438,360.5 1512.9688,359.9219 L1512.9688,362.6406 Z " fill="#000000"/><text fill="#000000" font-family="sans-serif" font-size="12" lengthAdjust="spacing" textLength="80" x="1524" y="361.1543">Intermediate</text><line style="stroke:#A80036;stroke-width:1.5;" x1="1496" x2="1606" y1="373" y2="373"/><line style="stroke:#A80036;stroke-width:1.5;" x1="1496" x2="1606" y1="381" y2="381"/><!--MD5=[0992d3fdc9d3d7c02b735131bb70871d]
class Goal--><rect codeLine="15" fill="#FEFECE" filter="url(#f6wysri92bcrk)" height="48" id="Goal" style="stroke:#A80036;stroke-width:1.5;" width="60" x="1642" y="341"/><ellipse cx="1657" cy="357" fill="#ADD1B2" rx="11" ry="11" style="stroke:#A80036;stroke-width:1.0;"/><path d="M1659.9688,362.6406 Q1659.3906,362.9375 1658.75,363.0781 Q1658.1094,363.2344 1657.4063,363.2344 Q1654.9063,363.2344 1653.5781,361.5938 Q1652.2656,359.9375 1652.2656,356.8125 Q1652.2656,353.6875 1653.5781,352.0313 Q1654.9063,350.375 1657.4063,350.375 Q1658.1094,350.375 1658.75,350.5313 Q1659.4063,350.6875 1659.9688,350.9844 L1659.9688,353.7031 Q1659.3438,353.125 1658.75,352.8594 Q1658.1563,352.5781 1657.5313,352.5781 Q1656.1875,352.5781 1655.5,353.6563 Q1654.8125,354.7188 1654.8125,356.8125 Q1654.8125,358.9063 1655.5,359.9844 Q1656.1875,361.0469 1657.5313,361.0469 Q1658.1563,361.0469 1658.75,360.7813 Q1659.3438,360.5 1659.9688,359.9219 L1659.9688,362.6406 Z " fill="#000000"/><text fill="#000000" font-family="sans-serif" font-size="12" lengthAdjust="spacing" textLength="28" x="1671" y="361.1543">Goal</text><line style="stroke:#A80036;stroke-width:1.5;" x1="1643" x2="1701" y1="373" y2="373"/><line style="stroke:#A80036;stroke-width:1.5;" x1="1643" x2="1701" y1="381" y2="381"/><!--MD5=[b27ec0cd227cfd93cc4b7e36a8dfdadd]
class Restart--><rect codeLine="16" fill="#FEFECE" filter="url(#f6wysri92bcrk)" height="48" id="Restart" style="stroke:#A80036;stroke-width:1.5;" width="78" x="1128" y="341"/><ellipse cx="1143" cy="357" fill="#ADD1B2" rx="11" ry="11" style="stroke:#A80036;stroke-width:1.0;"/><path d="M1145.9688,362.6406 Q1145.3906,362.9375 1144.75,363.0781 Q1144.1094,363.2344 1143.4063,363.2344 Q1140.9063,363.2344 1139.5781,361.5938 Q1138.2656,359.9375 1138.2656,356.8125 Q1138.2656,353.6875 1139.5781,352.0313 Q1140.9063,350.375 1143.4063,350.375 Q1144.1094,350.375 1144.75,350.5313 Q1145.4063,350.6875 1145.9688,350.9844 L1145.9688,353.7031 Q1145.3438,353.125 1144.75,352.8594 Q1144.1563,352.5781 1143.5313,352.5781 Q1142.1875,352.5781 1141.5,353.6563 Q1140.8125,354.7188 1140.8125,356.8125 Q1140.8125,358.9063 1141.5,359.9844 Q1142.1875,361.0469 1143.5313,361.0469 Q1144.1563,361.0469 1144.75,360.7813 Q1145.3438,360.5 1145.9688,359.9219 L1145.9688,362.6406 Z " fill="#000000"/><text fill="#000000" font-family="sans-serif" font-size="12" lengthAdjust="spacing" textLength="46" x="1157" y="361.1543">Restart</text><line style="stroke:#A80036;stroke-width:1.5;" x1="1129" x2="1205" y1="373" y2="373"/><line style="stroke:#A80036;stroke-width:1.5;" x1="1129" x2="1205" y1="381" y2="381"/><!--MD5=[36e47370280dd0d0db17b69e8fec29c9]
class Pack\nTo\nWaste--><rect codeLine="17" fill="#FEFECE" filter="url(#f6wysri92bcrk)" height="67.9063" id="Pack\nTo\nWaste" style="stroke:#A80036;stroke-width:1.5;" width="71" x="1241.5" y="331"/><ellipse cx="1256.5" cy="356.9531" fill="#ADD1B2" rx="11" ry="11" style="stroke:#A80036;stroke-width:1.0;"/><path d="M1259.4688,362.5938 Q1258.8906,362.8906 1258.25,363.0313 Q1257.6094,363.1875 1256.9063,363.1875 Q1254.4063,363.1875 1253.0781,361.5469 Q1251.7656,359.8906 1251.7656,356.7656 Q1251.7656,353.6406 1253.0781,351.9844 Q1254.4063,350.3281 1256.9063,350.3281 Q1257.6094,350.3281 1258.25,350.4844 Q1258.9063,350.6406 1259.4688,350.9375 L1259.4688,353.6563 Q1258.8438,353.0781 1258.25,352.8125 Q1257.6563,352.5313 1257.0313,352.5313 Q1255.6875,352.5313 1255,353.6094 Q1254.3125,354.6719 1254.3125,356.7656 Q1254.3125,358.8594 1255,359.9375 Q1255.6875,361 1257.0313,361 Q1257.6563,361 1258.25,360.7344 Q1258.8438,360.4531 1259.4688,359.875 L1259.4688,362.5938 Z " fill="#000000"/><text fill="#000000" font-family="sans-serif" font-size="12" lengthAdjust="spacing" textLength="30" x="1275" y="347.1387">Pack</text><text fill="#000000" font-family="sans-serif" font-size="12" lengthAdjust="spacing" textLength="15" x="1282.5" y="361.1074">To</text><text fill="#000000" font-family="sans-serif" font-size="12" lengthAdjust="spacing" textLength="39" x="1270.5" y="375.0762">Waste</text><line style="stroke:#A80036;stroke-width:1.5;" x1="1242.5" x2="1311.5" y1="382.9063" y2="382.9063"/><line style="stroke:#A80036;stroke-width:1.5;" x1="1242.5" x2="1311.5" y1="390.9063" y2="390.9063"/><!--MD5=[39433e244e25a24fec29e51b5b39b348]
class Pack\nTo\nIntermediate--><rect codeLine="18" fill="#FEFECE" filter="url(#f6wysri92bcrk)" height="67.9063" id="Pack\nTo\nIntermediate" style="stroke:#A80036;stroke-width:1.5;" width="112" x="1348" y="331"/><ellipse cx="1363" cy="356.9531" fill="#ADD1B2" rx="11" ry="11" style="stroke:#A80036;stroke-width:1.0;"/><path d="M1365.9688,362.5938 Q1365.3906,362.8906 1364.75,363.0313 Q1364.1094,363.1875 1363.4063,363.1875 Q1360.9063,363.1875 1359.5781,361.5469 Q1358.2656,359.8906 1358.2656,356.7656 Q1358.2656,353.6406 1359.5781,351.9844 Q1360.9063,350.3281 1363.4063,350.3281 Q1364.1094,350.3281 1364.75,350.4844 Q1365.4063,350.6406 1365.9688,350.9375 L1365.9688,353.6563 Q1365.3438,353.0781 1364.75,352.8125 Q1364.1563,352.5313 1363.5313,352.5313 Q1362.1875,352.5313 1361.5,353.6094 Q1360.8125,354.6719 1360.8125,356.7656 Q1360.8125,358.8594 1361.5,359.9375 Q1362.1875,361 1363.5313,361 Q1364.1563,361 1364.75,360.7344 Q1365.3438,360.4531 1365.9688,359.875 L1365.9688,362.5938 Z " fill="#000000"/><text fill="#000000" font-family="sans-serif" font-size="12" lengthAdjust="spacing" textLength="30" x="1402" y="347.1387">Pack</text><text fill="#000000" font-family="sans-serif" font-size="12" lengthAdjust="spacing" textLength="15" x="1409.5" y="361.1074">To</text><text fill="#000000" font-family="sans-serif" font-size="12" lengthAdjust="spacing" textLength="80" x="1377" y="375.0762">Intermediate</text><line style="stroke:#A80036;stroke-width:1.5;" x1="1349" x2="1459" y1="382.9063" y2="382.9063"/><line style="stroke:#A80036;stroke-width:1.5;" x1="1349" x2="1459" y1="390.9063" y2="390.9063"/><!--MD5=[14ee62f600bf90cb8e282596bfe0d670]
class Pack\nTo\nGoal--><rect codeLine="19" fill="#FEFECE" filter="url(#f6wysri92bcrk)" height="67.9063" id="Pack\nTo\nGoal" style="stroke:#A80036;stroke-width:1.5;" width="62" x="336" y="331"/><ellipse cx="351" cy="356.9531" fill="#ADD1B2" rx="11" ry="11" style="stroke:#A80036;stroke-width:1.0;"/><path d="M353.9688,362.5938 Q353.3906,362.8906 352.75,363.0313 Q352.1094,363.1875 351.4063,363.1875 Q348.9063,363.1875 347.5781,361.5469 Q346.2656,359.8906 346.2656,356.7656 Q346.2656,353.6406 347.5781,351.9844 Q348.9063,350.3281 351.4063,350.3281 Q352.1094,350.3281 352.75,350.4844 Q353.4063,350.6406 353.9688,350.9375 L353.9688,353.6563 Q353.3438,353.0781 352.75,352.8125 Q352.1563,352.5313 351.5313,352.5313 Q350.1875,352.5313 349.5,353.6094 Q348.8125,354.6719 348.8125,356.7656 Q348.8125,358.8594 349.5,359.9375 Q350.1875,361 351.5313,361 Q352.1563,361 352.75,360.7344 Q353.3438,360.4531 353.9688,359.875 L353.9688,362.5938 Z " fill="#000000"/><text fill="#000000" font-family="sans-serif" font-size="12" lengthAdjust="spacing" textLength="30" x="365" y="347.1387">Pack</text><text fill="#000000" font-family="sans-serif" font-size="12" lengthAdjust="spacing" textLength="15" x="372.5" y="361.1074">To</text><text fill="#000000" font-family="sans-serif" font-size="12" lengthAdjust="spacing" textLength="28" x="366" y="375.0762">Goal</text><line style="stroke:#A80036;stroke-width:1.5;" x1="337" x2="397" y1="382.9063" y2="382.9063"/><line style="stroke:#A80036;stroke-width:1.5;" x1="337" x2="397" y1="390.9063" y2="390.9063"/><!--MD5=[46774b848d1cd65a3432f9bf5e7c4543]
class Intermediate\nTo\nGoal--><rect codeLine="20" fill="#FEFECE" filter="url(#f6wysri92bcrk)" height="67.9063" id="Intermediate\nTo\nGoal" style="stroke:#A80036;stroke-width:1.5;" width="112" x="433" y="331"/><ellipse cx="448" cy="356.9531" fill="#ADD1B2" rx="11" ry="11" style="stroke:#A80036;stroke-width:1.0;"/><path d="M450.9688,362.5938 Q450.3906,362.8906 449.75,363.0313 Q449.1094,363.1875 448.4063,363.1875 Q445.9063,363.1875 444.5781,361.5469 Q443.2656,359.8906 443.2656,356.7656 Q443.2656,353.6406 444.5781,351.9844 Q445.9063,350.3281 448.4063,350.3281 Q449.1094,350.3281 449.75,350.4844 Q450.4063,350.6406 450.9688,350.9375 L450.9688,353.6563 Q450.3438,353.0781 449.75,352.8125 Q449.1563,352.5313 448.5313,352.5313 Q447.1875,352.5313 446.5,353.6094 Q445.8125,354.6719 445.8125,356.7656 Q445.8125,358.8594 446.5,359.9375 Q447.1875,361 448.5313,361 Q449.1563,361 449.75,360.7344 Q450.3438,360.4531 450.9688,359.875 L450.9688,362.5938 Z " fill="#000000"/><text fill="#000000" font-family="sans-serif" font-size="12" lengthAdjust="spacing" textLength="80" x="462" y="347.1387">Intermediate</text><text fill="#000000" font-family="sans-serif" font-size="12" lengthAdjust="spacing" textLength="15" x="494.5" y="361.1074">To</text><text fill="#000000" font-family="sans-serif" font-size="12" lengthAdjust="spacing" textLength="28" x="488" y="375.0762">Goal</text><line style="stroke:#A80036;stroke-width:1.5;" x1="434" x2="544" y1="382.9063" y2="382.9063"/><line style="stroke:#A80036;stroke-width:1.5;" x1="434" x2="544" y1="390.9063" y2="390.9063"/><!--MD5=[c62d6ed5ee51ba6ff3b95f7007d7ff51]
class Waste\nTo\nGoal--><rect codeLine="21" fill="#FEFECE" filter="url(#f6wysri92bcrk)" height="67.9063" id="Waste\nTo\nGoal" style="stroke:#A80036;stroke-width:1.5;" width="71" x="580.5" y="331"/><ellipse cx="595.5" cy="356.9531" fill="#ADD1B2" rx="11" ry="11" style="stroke:#A80036;stroke-width:1.0;"/><path d="M598.4688,362.5938 Q597.8906,362.8906 597.25,363.0313 Q596.6094,363.1875 595.9063,363.1875 Q593.4063,363.1875 592.0781,361.5469 Q590.7656,359.8906 590.7656,356.7656 Q590.7656,353.6406 592.0781,351.9844 Q593.4063,350.3281 595.9063,350.3281 Q596.6094,350.3281 597.25,350.4844 Q597.9063,350.6406 598.4688,350.9375 L598.4688,353.6563 Q597.8438,353.0781 597.25,352.8125 Q596.6563,352.5313 596.0313,352.5313 Q594.6875,352.5313 594,353.6094 Q593.3125,354.6719 593.3125,356.7656 Q593.3125,358.8594 594,359.9375 Q594.6875,361 596.0313,361 Q596.6563,361 597.25,360.7344 Q597.8438,360.4531 598.4688,359.875 L598.4688,362.5938 Z " fill="#000000"/><text fill="#000000" font-family="sans-serif" font-size="12" lengthAdjust="spacing" textLength="39" x="609.5" y="347.1387">Waste</text><text fill="#000000" font-family="sans-serif" font-size="12" lengthAdjust="spacing" textLength="15" x="621.5" y="361.1074">To</text><text fill="#000000" font-family="sans-serif" font-size="12" lengthAdjust="spacing" textLength="28" x="615" y="375.0762">Goal</text><line style="stroke:#A80036;stroke-width:1.5;" x1="581.5" x2="650.5" y1="382.9063" y2="382.9063"/><line style="stroke:#A80036;stroke-width:1.5;" x1="581.5" x2="650.5" y1="390.9063" y2="390.9063"/><!--MD5=[8c28707cb2e2978b21ccb3cf44057db4]
class Waste\nTo\nIntermediate--><rect codeLine="22" fill="#FEFECE" filter="url(#f6wysri92bcrk)" height="67.9063" id="Waste\nTo\nIntermediate" style="stroke:#A80036;stroke-width:1.5;" width="112" x="687" y="331"/><ellipse cx="702" cy="356.9531" fill="#ADD1B2" rx="11" ry="11" style="stroke:#A80036;stroke-width:1.0;"/><path d="M704.9688,362.5938 Q704.3906,362.8906 703.75,363.0313 Q703.1094,363.1875 702.4063,363.1875 Q699.9063,363.1875 698.5781,361.5469 Q697.2656,359.8906 697.2656,356.7656 Q697.2656,353.6406 698.5781,351.9844 Q699.9063,350.3281 702.4063,350.3281 Q703.1094,350.3281 703.75,350.4844 Q704.4063,350.6406 704.9688,350.9375 L704.9688,353.6563 Q704.3438,353.0781 703.75,352.8125 Q703.1563,352.5313 702.5313,352.5313 Q701.1875,352.5313 700.5,353.6094 Q699.8125,354.6719 699.8125,356.7656 Q699.8125,358.8594 700.5,359.9375 Q701.1875,361 702.5313,361 Q703.1563,361 703.75,360.7344 Q704.3438,360.4531 704.9688,359.875 L704.9688,362.5938 Z " fill="#000000"/><text fill="#000000" font-family="sans-serif" font-size="12" lengthAdjust="spacing" textLength="39" x="736.5" y="347.1387">Waste</text><text fill="#000000" font-family="sans-serif" font-size="12" lengthAdjust="spacing" textLength="15" x="748.5" y="361.1074">To</text><text fill="#000000" font-family="sans-serif" font-size="12" lengthAdjust="spacing" textLength="80" x="716" y="375.0762">Intermediate</text><line style="stroke:#A80036;stroke-width:1.5;" x1="688" x2="798" y1="382.9063" y2="382.9063"/><line style="stroke:#A80036;stroke-width:1.5;" x1="688" x2="798" y1="390.9063" y2="390.9063"/><!--MD5=[3cf3d293a5275fc42c6ab849ba944285]
class Goal\nTo\nIntermediate--><rect codeLine="23" fill="#FEFECE" filter="url(#f6wysri92bcrk)" height="67.9063" id="Goal\nTo\nIntermediate" style="stroke:#A80036;stroke-width:1.5;" width="112" x="834" y="331"/><ellipse cx="849" cy="356.9531" fill="#ADD1B2" rx="11" ry="11" style="stroke:#A80036;stroke-width:1.0;"/><path d="M851.9688,362.5938 Q851.3906,362.8906 850.75,363.0313 Q850.1094,363.1875 849.4063,363.1875 Q846.9063,363.1875 845.5781,361.5469 Q844.2656,359.8906 844.2656,356.7656 Q844.2656,353.6406 845.5781,351.9844 Q846.9063,350.3281 849.4063,350.3281 Q850.1094,350.3281 850.75,350.4844 Q851.4063,350.6406 851.9688,350.9375 L851.9688,353.6563 Q851.3438,353.0781 850.75,352.8125 Q850.1563,352.5313 849.5313,352.5313 Q848.1875,352.5313 847.5,353.6094 Q846.8125,354.6719 846.8125,356.7656 Q846.8125,358.8594 847.5,359.9375 Q848.1875,361 849.5313,361 Q850.1563,361 850.75,360.7344 Q851.3438,360.4531 851.9688,359.875 L851.9688,362.5938 Z " fill="#000000"/><text fill="#000000" font-family="sans-serif" font-size="12" lengthAdjust="spacing" textLength="28" x="889" y="347.1387">Goal</text><text fill="#000000" font-family="sans-serif" font-size="12" lengthAdjust="spacing" textLength="15" x="895.5" y="361.1074">To</text><text fill="#000000" font-family="sans-serif" font-size="12" lengthAdjust="spacing" textLength="80" x="863" y="375.0762">Intermediate</text><line style="stroke:#A80036;stroke-width:1.5;" x1="835" x2="945" y1="382.9063" y2="382.9063"/><line style="stroke:#A80036;stroke-width:1.5;" x1="835" x2="945" y1="390.9063" y2="390.9063"/><!--MD5=[81770a4a88ee703f04666ddf1207a8bd]
class Intermediate\nTo\nIntermediate--><rect codeLine="24" fill="#FEFECE" filter="url(#f6wysri92bcrk)" height="67.9063" id="Intermediate\nTo\nIntermediate" style="stroke:#A80036;stroke-width:1.5;" width="112" x="981" y="331"/><ellipse cx="996" cy="356.9531" fill="#ADD1B2" rx="11" ry="11" style="stroke:#A80036;stroke-width:1.0;"/><path d="M998.9688,362.5938 Q998.3906,362.8906 997.75,363.0313 Q997.1094,363.1875 996.4063,363.1875 Q993.9063,363.1875 992.5781,361.5469 Q991.2656,359.8906 991.2656,356.7656 Q991.2656,353.6406 992.5781,351.9844 Q993.9063,350.3281 996.4063,350.3281 Q997.1094,350.3281 997.75,350.4844 Q998.4063,350.6406 998.9688,350.9375 L998.9688,353.6563 Q998.3438,353.0781 997.75,352.8125 Q997.1563,352.5313 996.5313,352.5313 Q995.1875,352.5313 994.5,353.6094 Q993.8125,354.6719 993.8125,356.7656 Q993.8125,358.8594 994.5,359.9375 Q995.1875,361 996.5313,361 Q997.1563,361 997.75,360.7344 Q998.3438,360.4531 998.9688,359.875 L998.9688,362.5938 Z " fill="#000000"/><text fill="#000000" font-family="sans-serif" font-size="12" lengthAdjust="spacing" textLength="80" x="1010" y="347.1387">Intermediate</text><text fill="#000000" font-family="sans-serif" font-size="12" lengthAdjust="spacing" textLength="15" x="1042.5" y="361.1074">To</text><text fill="#000000" font-family="sans-serif" font-size="12" lengthAdjust="spacing" textLength="80" x="1010" y="375.0762">Intermediate</text><line style="stroke:#A80036;stroke-width:1.5;" x1="982" x2="1092" y1="382.9063" y2="382.9063"/><line style="stroke:#A80036;stroke-width:1.5;" x1="982" x2="1092" y1="390.9063" y2="390.9063"/><!--MD5=[2bea451defd5fc6f19f55dc15999e7a1]
reverse link Klondike to Player--><path codeLine="26" d="M1305,68.34 C1305,83.68 1305,101.1 1305,114.68 " fill="none" id="Klondike-backto-Player" style="stroke:#A80036;stroke-width:1.0;"/><polygon fill="#A80036" points="1305,55,1301,61,1305,67,1309,61,1305,55" style="stroke:#A80036;stroke-width:1.0;"/><!--MD5=[95d64a43580cec222c66ba27ef11a984]
reverse link Klondike to Board--><path codeLine="27" d="M1358.72,59.7 C1445.17,104.28 1612.8,190.72 1685.25,228.08 " fill="none" id="Klondike-backto-Board" style="stroke:#A80036;stroke-width:1.0;"/><polygon fill="#A80036" points="1347.08,53.7,1350.5805,60.0045,1357.7464,59.198,1354.2459,52.8935,1347.08,53.7" style="stroke:#A80036;stroke-width:1.0;"/><!--MD5=[1f0ef1aa599fd455074798df194f3d8c]
reverse link Klondike to FrenchDeck--><path codeLine="28" d="M1250.17,42.63 C1144.81,63.04 915.31,107.52 811.22,127.69 " fill="none" id="Klondike-backto-FrenchDeck" style="stroke:#A80036;stroke-width:1.0;"/><polygon fill="#A80036" points="1262.99,40.14,1256.3387,37.3542,1251.209,42.4223,1257.8603,45.2081,1262.99,40.14" style="stroke:#A80036;stroke-width:1.0;"/><!--MD5=[efe50e33e5e494ba91ff2359222e5361]
reverse link FrenchDeck to Card--><path codeLine="30" d="M691.94,152.59 C571.3,175.59 319.74,223.55 232.54,240.18 " fill="none" id="FrenchDeck-backto-Card" style="stroke:#A80036;stroke-width:1.0;"/><polygon fill="#FFFFFF" points="704.94,150.12,698.2984,147.3113,693.1512,152.3617,699.7929,155.1704,704.94,150.12" style="stroke:#A80036;stroke-width:1.0;"/><text fill="#000000" font-family="sans-serif" font-size="13" lengthAdjust="spacing" textLength="16" x="240.4889" y="234.3071">52</text><!--MD5=[331bab2ef9e32d426da935eb44d746a5]
reverse link Card to Suit--><path codeLine="31" d="M160.37,277.45 C138.01,293.29 109.98,313.18 85,331 C79.24,335.11 73.08,339.52 67.2,343.73 " fill="none" id="Card-backto-Suit" style="stroke:#A80036;stroke-width:1.0;"/><polygon fill="#A80036" points="171.18,269.8,163.9717,270.0021,161.3859,276.7336,168.5942,276.5315,171.18,269.8" style="stroke:#A80036;stroke-width:1.0;"/><text fill="#000000" font-family="sans-serif" font-size="13" lengthAdjust="spacing" textLength="8" x="75.0488" y="333.8004">4</text><!--MD5=[a1e51d57c28c935ec821cfb890c2faba]
reverse link Card to Number--><path codeLine="32" d="M184.27,282.87 C174.72,301.63 163.21,324.26 154.78,340.84 " fill="none" id="Card-backto-Number" style="stroke:#A80036;stroke-width:1.0;"/><polygon fill="#A80036" points="190.2,271.2,183.9128,274.7315,184.7545,281.8933,191.0417,278.3618,190.2,271.2" style="stroke:#A80036;stroke-width:1.0;"/><text fill="#000000" font-family="sans-serif" font-size="13" lengthAdjust="spacing" textLength="16" x="139.7486" y="329.811">10</text><!--MD5=[2485c2e0e9d81bf9b08f9530c2627c1a]
link Card to Position--><path codeLine="33" d="M213.6,271.2 C223.71,291.43 238.31,320.62 248.42,340.84 " fill="none" id="Card-Position" style="stroke:#A80036;stroke-width:1.0;"/><text fill="#000000" font-family="sans-serif" font-size="13" lengthAdjust="spacing" textLength="8" x="236.4276" y="329.811">2</text><!--MD5=[a5b050240b46bd905f5f930de83fbd40]
reverse link Suit to Color--><path codeLine="34" d="M39,402.21 C39,420.7 39,442.65 39,458.84 " fill="none" id="Suit-backto-Color" style="stroke:#A80036;stroke-width:1.0;"/><polygon fill="#A80036" points="39,389.2,35,395.2,39,401.2,43,395.2,39,389.2" style="stroke:#A80036;stroke-width:1.0;"/><text fill="#000000" font-family="sans-serif" font-size="13" lengthAdjust="spacing" textLength="8" x="29.975" y="447.811">2</text><!--MD5=[f8e359b6be596961b724ab441a323fdb]
link Player to Pile--><path codeLine="35" d="M1340.25,151.75 C1402.53,172.51 1531.13,215.38 1591.01,235.34 " fill="none" id="Player-to-Pile" style="stroke:#A80036;stroke-width:1.0;"/><polygon fill="#A80036" points="1595.9,236.97,1588.6328,230.3226,1591.158,235.3846,1586.0961,237.9098,1595.9,236.97" style="stroke:#A80036;stroke-width:1.0;"/><!--MD5=[1e5622e419e61827803d8907ecf40cdc]
link Player to Movement--><path codeLine="36" d="M1269.69,150.94 C1209.52,169.59 1086.81,207.63 1016.21,229.51 " fill="none" id="Player-to-Movement" style="stroke:#A80036;stroke-width:1.0;"/><polygon fill="#A80036" points="1011.22,231.06,1021.0013,232.2117,1015.9952,229.5776,1018.6294,224.5715,1011.22,231.06" style="stroke:#A80036;stroke-width:1.0;"/><text fill="#000000" font-family="sans-serif" font-size="13" lengthAdjust="spacing" textLength="24" x="1018.9357" y="225.1322">0..n</text><!--MD5=[714159c682854380ea356219713e45ac]
reverse link Pile to Pack--><path codeLine="38" d="M1666.01,282.41 C1689.6,301.28 1718.2,324.16 1739.11,340.89 " fill="none" id="Pile-backto-Pack" style="stroke:#A80036;stroke-width:1.0;"/><polygon fill="none" points="1661.52,287.78,1650.27,269.82,1670.26,276.85,1661.52,287.78" style="stroke:#A80036;stroke-width:1.0;"/><!--MD5=[0cc7312144b7b0e8e85651666602557e]
reverse link Pile to Waste--><path codeLine="39" d="M1668.67,270.74 C1736.41,300.52 1758.32,301.2 1817,331 C1822.9,333.99 1828.99,337.43 1834.86,340.94 " fill="none" id="Pile-backto-Waste" style="stroke:#A80036;stroke-width:1.0;"/><polygon fill="none" points="1665.77,277.11,1650.41,262.5,1671.52,264.34,1665.77,277.11" style="stroke:#A80036;stroke-width:1.0;"/><!--MD5=[3f2b975d8dec667f5f1c3e573642e941]
reverse link Pile to Intermediate--><path codeLine="40" d="M1597.97,288.32 C1587.07,305.89 1574.69,325.84 1565.37,340.84 " fill="none" id="Pile-backto-Intermediate" style="stroke:#A80036;stroke-width:1.0;"/><polygon fill="none" points="1592.11,284.5,1608.6,271.2,1604,291.88,1592.11,284.5" style="stroke:#A80036;stroke-width:1.0;"/><text fill="#000000" font-family="sans-serif" font-size="13" lengthAdjust="spacing" textLength="8" x="1560.0273" y="329.811">7</text><!--MD5=[8d081b17ce2c8d47a42c7fb031b2139b]
reverse link Pile to Goal--><path codeLine="41" d="M1640.62,289.72 C1647.89,306.93 1656.05,326.23 1662.22,340.84 " fill="none" id="Pile-backto-Goal" style="stroke:#A80036;stroke-width:1.0;"/><polygon fill="none" points="1634.13,292.34,1632.8,271.2,1647.03,286.9,1634.13,292.34" style="stroke:#A80036;stroke-width:1.0;"/><text fill="#000000" font-family="sans-serif" font-size="13" lengthAdjust="spacing" textLength="8" x="1650.6889" y="329.811">4</text><!--MD5=[a7b2bbced8ad516e4a03afd1e57f7fd9]
reverse link Board to Pack--><path codeLine="43" d="M1734.65,283.4 C1742.37,302.06 1751.62,324.42 1758.42,340.84 " fill="none" id="Board-backto-Pack" style="stroke:#A80036;stroke-width:1.0;"/><polygon fill="#A80036" points="1729.6,271.2,1728.198,278.2735,1734.1882,282.2882,1735.5902,275.2147,1729.6,271.2" style="stroke:#A80036;stroke-width:1.0;"/><!--MD5=[41fe2a859d1153396eefa9f2038f5fd5]
reverse link Board to Waste--><path codeLine="44" d="M1760.3,279.17 C1785.41,298.59 1817.18,323.15 1840.06,340.84 " fill="none" id="Board-backto-Waste" style="stroke:#A80036;stroke-width:1.0;"/><polygon fill="#A80036" points="1749.99,271.2,1752.2881,278.0351,1759.4814,278.5426,1757.1832,271.7075,1749.99,271.2" style="stroke:#A80036;stroke-width:1.0;"/><!--MD5=[aa63eda66bef4649603e9aaacdc3fd31]
reverse link Board to Intermediate--><path codeLine="45" d="M1675.35,278.65 C1646.94,298.15 1610.74,322.99 1584.73,340.84 " fill="none" id="Board-backto-Intermediate" style="stroke:#A80036;stroke-width:1.0;"/><polygon fill="#A80036" points="1686.21,271.2,1678.9996,271.2989,1676.3177,277.9927,1683.5281,277.8938,1686.21,271.2" style="stroke:#A80036;stroke-width:1.0;"/><text fill="#000000" font-family="sans-serif" font-size="13" lengthAdjust="spacing" textLength="8" x="1584.3483" y="329.811">7</text><!--MD5=[e57d952a9c9a3dab07963f8878e9f840]
reverse link Board to Goal--><path codeLine="46" d="M1705.35,283.4 C1697.63,302.06 1688.38,324.42 1681.58,340.84 " fill="none" id="Board-backto-Goal" style="stroke:#A80036;stroke-width:1.0;"/><polygon fill="#A80036" points="1710.4,271.2,1704.4098,275.2147,1705.8118,282.2882,1711.802,278.2735,1710.4,271.2" style="stroke:#A80036;stroke-width:1.0;"/><text fill="#000000" font-family="sans-serif" font-size="13" lengthAdjust="spacing" textLength="8" x="1675.0099" y="329.811">4</text><!--MD5=[8049271b81567495fb682261f05a51f8]
reverse link Movement to Restart--><path codeLine="48" d="M1021.92,281.07 C1048.81,296.22 1081.06,314.45 1110,331 C1115.76,334.29 1121.83,337.79 1127.78,341.22 " fill="none" id="Movement-backto-Restart" style="stroke:#A80036;stroke-width:1.0;"/><polygon fill="none" points="1018.25,287.04,1004.25,271.14,1025.12,274.84,1018.25,287.04" style="stroke:#A80036;stroke-width:1.0;"/><!--MD5=[0165c97d51cd41f2b66936475fca8731]
reverse link Movement to Pack\nTo\nWaste--><path codeLine="49" d="M1030.92,264.88 C1084.38,279.29 1160.09,302.24 1223,331 C1229.1,333.79 1235.35,337.12 1241.35,340.58 " fill="none" id="Movement-backto-Pack\nTo\nWaste" style="stroke:#A80036;stroke-width:1.0;"/><polygon fill="none" points="1028.8,271.56,1011.25,259.69,1032.37,258.02,1028.8,271.56" style="stroke:#A80036;stroke-width:1.0;"/><!--MD5=[70e526d3e9cba7f247e431c063f3953c]
reverse link Movement to Pack\nTo\nGoal--><path codeLine="50" d="M894.84,248.61 C788.64,251.67 578.85,266.26 415,331 C409.26,333.27 403.53,336.33 398.14,339.67 " fill="none" id="Movement-backto-Pack\nTo\nGoal" style="stroke:#A80036;stroke-width:1.0;"/><polygon fill="none" points="894.8,241.61,914.96,248.13,895.13,255.6,894.8,241.61" style="stroke:#A80036;stroke-width:1.0;"/><!--MD5=[f41d6667c54f3bd63ef2e21bd98536f8]
reverse link Movement to Intermediate\nTo\nGoal--><path codeLine="51" d="M894.8,257.57 C814.25,269.93 676.82,294.28 563,331 C557.11,332.9 551.06,335.12 545.07,337.5 " fill="none" id="Movement-backto-Intermediate\nTo\nGoal" style="stroke:#A80036;stroke-width:1.0;"/><polygon fill="none" points="893.91,250.63,914.73,254.59,895.99,264.47,893.91,250.63" style="stroke:#A80036;stroke-width:1.0;"/><!--MD5=[9ebc08d0a153896dd06d44e3199de0fb]
reverse link Movement to Pack\nTo\nIntermediate--><path codeLine="52" d="M1031.18,259.26 C1105.71,272.52 1228.09,297.12 1330,331 C1335.87,332.95 1341.91,335.21 1347.89,337.61 " fill="none" id="Movement-backto-Pack\nTo\nIntermediate" style="stroke:#A80036;stroke-width:1.0;"/><polygon fill="none" points="1029.53,266.08,1011.03,255.74,1031.94,252.29,1029.53,266.08" style="stroke:#A80036;stroke-width:1.0;"/><!--MD5=[bf9025b2f1a59ef25ebed83c1c4bebfe]
reverse link Movement to Waste\nTo\nGoal--><path codeLine="53" d="M895.19,261.43 C834.36,274.81 743.48,298.09 669,331 C663.25,333.54 657.38,336.62 651.75,339.87 " fill="none" id="Movement-backto-Waste\nTo\nGoal" style="stroke:#A80036;stroke-width:1.0;"/><polygon fill="none" points="893.96,254.54,914.98,257.2,896.89,268.23,893.96,254.54" style="stroke:#A80036;stroke-width:1.0;"/><!--MD5=[1d75a5b828c693a2589ba6e8c817fba1]
reverse link Movement to Waste\nTo\nIntermediate--><path codeLine="54" d="M901.3,280.53 C869.26,297.43 830.39,317.92 799.19,334.37 " fill="none" id="Movement-backto-Waste\nTo\nIntermediate" style="stroke:#A80036;stroke-width:1.0;"/><polygon fill="none" points="898.32,274.19,919.27,271.06,904.85,286.58,898.32,274.19" style="stroke:#A80036;stroke-width:1.0;"/><!--MD5=[9dc2eef99f41c9bcc62508a48887ab0b]
reverse link Movement to Goal\nTo\nIntermediate--><path codeLine="55" d="M937.66,288.26 C928.94,302.13 919.27,317.49 910.93,330.74 " fill="none" id="Movement-backto-Goal\nTo\nIntermediate" style="stroke:#A80036;stroke-width:1.0;"/><polygon fill="none" points="931.83,284.39,948.4,271.2,943.67,291.85,931.83,284.39" style="stroke:#A80036;stroke-width:1.0;"/><!--MD5=[deaeff11f7dc331ffd00a551aa4c42c5]
reverse link Movement to Intermediate\nTo\nIntermediate--><path codeLine="56" d="M988.68,288.26 C997.53,302.13 1007.33,317.49 1015.78,330.74 " fill="none" id="Movement-backto-Intermediate\nTo\nIntermediate" style="stroke:#A80036;stroke-width:1.0;"/><polygon fill="none" points="982.65,291.82,977.8,271.2,994.45,284.29,982.65,291.82" style="stroke:#A80036;stroke-width:1.0;"/><!--MD5=[ae451250fc9c04a0e0482476ecd89e37]
@startuml
Class Klondike
Class Player
Class Board
Class Card
Class FrenchDeck
Class Suit
Class Number
Class Position
Class Color
Class Movement
Class Pack
Class Pile
Class Waste
Class Intermediate
Class Goal
Class Restart
Class Pack\nTo\nWaste
Class Pack\nTo\nIntermediate
Class Pack\nTo\nGoal
Class Intermediate\nTo\nGoal
Class Waste\nTo\nGoal
Class Waste\nTo\nIntermediate
Class Goal\nTo\nIntermediate
Class Intermediate\nTo\nIntermediate

Klondike *-d- Player
Klondike *-d- Board
Klondike *-d- FrenchDeck

FrenchDeck o-d-"52" Card
Card *-d- "4" Suit
Card *-d- "10" Number
Card -d- "2" Position
Color "2" -u-* Suit
Player -d-> Pile
Player -d->"0..n" Movement

Pile <|-d- Pack
Pile <|-d- Waste
Pile <|-d- "7" Intermediate
Pile <|-d-"4" Goal

Board *-d-Pack
Board *-d- Waste
Board *-d- "7" Intermediate
Board *-d- "4" Goal

Movement <|-d-Restart
Movement <|-d-Pack\nTo\nWaste
Movement <|-d-Pack\nTo\nGoal
Movement <|-d-Intermediate\nTo\nGoal
Movement <|-d-Pack\nTo\nIntermediate
Movement <|-d-Waste\nTo\nGoal
Movement <|-d-Waste\nTo\nIntermediate
Movement <|-d-Goal\nTo\nIntermediate
Movement <|-d-Intermediate\nTo\nIntermediate
@enduml

PlantUML version 1.2021.16(Wed Dec 08 17:25:22 UTC 2021)
(GPL source distribution)
Java Runtime: OpenJDK Runtime Environment
JVM: OpenJDK 64-Bit Server VM
Default Encoding: UTF-8
Language: en
Country: null
--></g></svg>