<?xml version="1.0" encoding="UTF-8" standalone="no"?><svg xmlns="http://www.w3.org/2000/svg" xmlns:xlink="http://www.w3.org/1999/xlink" contentScriptType="application/ecmascript" contentStyleType="text/css" height="494px" preserveAspectRatio="none" style="width:1983px;height:494px;background:#FFFFFF;" version="1.1" viewBox="0 0 1983 494" width="1983px" zoomAndPan="magnify"><defs/><g><!--MD5=[ce135f397e71694d574a1221b16fe9d6]
class Klondike--><rect codeLine="1" fill="#F1F1F1" height="48" id="Klondike" rx="2.5" ry="2.5" style="stroke:#181818;stroke-width:0.5;" width="95" x="1546.5" y="7"/><ellipse cx="1561.5" cy="23" fill="#ADD1B2" rx="11" ry="11" style="stroke:#181818;stroke-width:1.0;"/><path d="M1563.8438,18.6719 C1562.9063,18.2344 1562.3125,18.0938 1561.4375,18.0938 C1558.8125,18.0938 1556.8125,20.1719 1556.8125,22.8906 L1556.8125,24.0156 C1556.8125,26.5938 1558.9219,28.4844 1561.8125,28.4844 C1563.0313,28.4844 1564.1875,28.1875 1564.9375,27.6406 C1565.5156,27.2344 1565.8438,26.7813 1565.8438,26.3906 C1565.8438,25.9375 1565.4531,25.5469 1564.9844,25.5469 C1564.7656,25.5469 1564.5625,25.625 1564.375,25.8125 C1563.9219,26.2969 1563.9219,26.2969 1563.7344,26.3906 C1563.3125,26.6563 1562.625,26.7813 1561.8594,26.7813 C1559.8125,26.7813 1558.5156,25.6875 1558.5156,23.9844 L1558.5156,22.8906 C1558.5156,21.1094 1559.7656,19.7969 1561.5,19.7969 C1562.0781,19.7969 1562.6875,19.9531 1563.1563,20.2031 C1563.6406,20.4844 1563.8125,20.7031 1563.9063,21.1094 C1563.9688,21.5156 1564,21.6406 1564.1406,21.7656 C1564.2813,21.9063 1564.5156,22.0156 1564.7344,22.0156 C1565,22.0156 1565.2656,21.875 1565.4375,21.6563 C1565.5469,21.5 1565.5781,21.3125 1565.5781,20.8906 L1565.5781,19.4688 C1565.5781,19.0313 1565.5625,18.9063 1565.4688,18.75 C1565.3125,18.4844 1565.0313,18.3438 1564.7344,18.3438 C1564.4375,18.3438 1564.2344,18.4375 1564.0156,18.75 L1563.8438,18.6719 Z " fill="#000000"/><text fill="#000000" font-family="sans-serif" font-size="14" lengthAdjust="spacing" textLength="63" x="1575.5" y="27.8467">Klondike</text><line style="stroke:#181818;stroke-width:0.5;" x1="1547.5" x2="1640.5" y1="39" y2="39"/><line style="stroke:#181818;stroke-width:0.5;" x1="1547.5" x2="1640.5" y1="47" y2="47"/><!--MD5=[9563755d011c5cec7ec66dc53565a59e]
class Board--><rect codeLine="2" fill="#F1F1F1" height="48" id="Board" rx="2.5" ry="2.5" style="stroke:#181818;stroke-width:0.5;" width="74" x="1557" y="331"/><ellipse cx="1572" cy="347" fill="#ADD1B2" rx="11" ry="11" style="stroke:#181818;stroke-width:1.0;"/><path d="M1574.3438,342.6719 C1573.4063,342.2344 1572.8125,342.0938 1571.9375,342.0938 C1569.3125,342.0938 1567.3125,344.1719 1567.3125,346.8906 L1567.3125,348.0156 C1567.3125,350.5938 1569.4219,352.4844 1572.3125,352.4844 C1573.5313,352.4844 1574.6875,352.1875 1575.4375,351.6406 C1576.0156,351.2344 1576.3438,350.7813 1576.3438,350.3906 C1576.3438,349.9375 1575.9531,349.5469 1575.4844,349.5469 C1575.2656,349.5469 1575.0625,349.625 1574.875,349.8125 C1574.4219,350.2969 1574.4219,350.2969 1574.2344,350.3906 C1573.8125,350.6563 1573.125,350.7813 1572.3594,350.7813 C1570.3125,350.7813 1569.0156,349.6875 1569.0156,347.9844 L1569.0156,346.8906 C1569.0156,345.1094 1570.2656,343.7969 1572,343.7969 C1572.5781,343.7969 1573.1875,343.9531 1573.6563,344.2031 C1574.1406,344.4844 1574.3125,344.7031 1574.4063,345.1094 C1574.4688,345.5156 1574.5,345.6406 1574.6406,345.7656 C1574.7813,345.9063 1575.0156,346.0156 1575.2344,346.0156 C1575.5,346.0156 1575.7656,345.875 1575.9375,345.6563 C1576.0469,345.5 1576.0781,345.3125 1576.0781,344.8906 L1576.0781,343.4688 C1576.0781,343.0313 1576.0625,342.9063 1575.9688,342.75 C1575.8125,342.4844 1575.5313,342.3438 1575.2344,342.3438 C1574.9375,342.3438 1574.7344,342.4375 1574.5156,342.75 L1574.3438,342.6719 Z " fill="#000000"/><text fill="#000000" font-family="sans-serif" font-size="14" lengthAdjust="spacing" textLength="42" x="1586" y="351.8467">Board</text><line style="stroke:#181818;stroke-width:0.5;" x1="1558" x2="1630" y1="363" y2="363"/><line style="stroke:#181818;stroke-width:0.5;" x1="1558" x2="1630" y1="371" y2="371"/><!--MD5=[e2e4935f9fee968477563fee16ed8d4a]
class FrenchDeck--><rect codeLine="3" fill="#F1F1F1" height="48" id="FrenchDeck" rx="2.5" ry="2.5" style="stroke:#181818;stroke-width:0.5;" width="118" x="1672" y="115"/><ellipse cx="1687" cy="131" fill="#ADD1B2" rx="11" ry="11" style="stroke:#181818;stroke-width:1.0;"/><path d="M1689.3438,126.6719 C1688.4063,126.2344 1687.8125,126.0938 1686.9375,126.0938 C1684.3125,126.0938 1682.3125,128.1719 1682.3125,130.8906 L1682.3125,132.0156 C1682.3125,134.5938 1684.4219,136.4844 1687.3125,136.4844 C1688.5313,136.4844 1689.6875,136.1875 1690.4375,135.6406 C1691.0156,135.2344 1691.3438,134.7813 1691.3438,134.3906 C1691.3438,133.9375 1690.9531,133.5469 1690.4844,133.5469 C1690.2656,133.5469 1690.0625,133.625 1689.875,133.8125 C1689.4219,134.2969 1689.4219,134.2969 1689.2344,134.3906 C1688.8125,134.6563 1688.125,134.7813 1687.3594,134.7813 C1685.3125,134.7813 1684.0156,133.6875 1684.0156,131.9844 L1684.0156,130.8906 C1684.0156,129.1094 1685.2656,127.7969 1687,127.7969 C1687.5781,127.7969 1688.1875,127.9531 1688.6563,128.2031 C1689.1406,128.4844 1689.3125,128.7031 1689.4063,129.1094 C1689.4688,129.5156 1689.5,129.6406 1689.6406,129.7656 C1689.7813,129.9063 1690.0156,130.0156 1690.2344,130.0156 C1690.5,130.0156 1690.7656,129.875 1690.9375,129.6563 C1691.0469,129.5 1691.0781,129.3125 1691.0781,128.8906 L1691.0781,127.4688 C1691.0781,127.0313 1691.0625,126.9063 1690.9688,126.75 C1690.8125,126.4844 1690.5313,126.3438 1690.2344,126.3438 C1689.9375,126.3438 1689.7344,126.4375 1689.5156,126.75 L1689.3438,126.6719 Z " fill="#000000"/><text fill="#000000" font-family="sans-serif" font-size="14" lengthAdjust="spacing" textLength="86" x="1701" y="135.8467">FrenchDeck</text><line style="stroke:#181818;stroke-width:0.5;" x1="1673" x2="1789" y1="147" y2="147"/><line style="stroke:#181818;stroke-width:0.5;" x1="1673" x2="1789" y1="155" y2="155"/><!--MD5=[2cb47ba637a0d19583e6199456f6ad0b]
class Player--><rect codeLine="4" fill="#F1F1F1" height="48" id="Player" rx="2.5" ry="2.5" style="stroke:#181818;stroke-width:0.5;" width="76" x="584" y="115"/><ellipse cx="599" cy="131" fill="#ADD1B2" rx="11" ry="11" style="stroke:#181818;stroke-width:1.0;"/><path d="M601.3438,126.6719 C600.4063,126.2344 599.8125,126.0938 598.9375,126.0938 C596.3125,126.0938 594.3125,128.1719 594.3125,130.8906 L594.3125,132.0156 C594.3125,134.5938 596.4219,136.4844 599.3125,136.4844 C600.5313,136.4844 601.6875,136.1875 602.4375,135.6406 C603.0156,135.2344 603.3438,134.7813 603.3438,134.3906 C603.3438,133.9375 602.9531,133.5469 602.4844,133.5469 C602.2656,133.5469 602.0625,133.625 601.875,133.8125 C601.4219,134.2969 601.4219,134.2969 601.2344,134.3906 C600.8125,134.6563 600.125,134.7813 599.3594,134.7813 C597.3125,134.7813 596.0156,133.6875 596.0156,131.9844 L596.0156,130.8906 C596.0156,129.1094 597.2656,127.7969 599,127.7969 C599.5781,127.7969 600.1875,127.9531 600.6563,128.2031 C601.1406,128.4844 601.3125,128.7031 601.4063,129.1094 C601.4688,129.5156 601.5,129.6406 601.6406,129.7656 C601.7813,129.9063 602.0156,130.0156 602.2344,130.0156 C602.5,130.0156 602.7656,129.875 602.9375,129.6563 C603.0469,129.5 603.0781,129.3125 603.0781,128.8906 L603.0781,127.4688 C603.0781,127.0313 603.0625,126.9063 602.9688,126.75 C602.8125,126.4844 602.5313,126.3438 602.2344,126.3438 C601.9375,126.3438 601.7344,126.4375 601.5156,126.75 L601.3438,126.6719 Z " fill="#000000"/><text fill="#000000" font-family="sans-serif" font-size="14" lengthAdjust="spacing" textLength="44" x="613" y="135.8467">Player</text><line style="stroke:#181818;stroke-width:0.5;" x1="585" x2="659" y1="147" y2="147"/><line style="stroke:#181818;stroke-width:0.5;" x1="585" x2="659" y1="155" y2="155"/><!--MD5=[5e305716458bbdabbd2d7f572ed2bae2]
class Card--><rect codeLine="5" fill="#F1F1F1" height="48" id="Card" rx="2.5" ry="2.5" style="stroke:#181818;stroke-width:0.5;" width="65" x="1748.5" y="223"/><ellipse cx="1763.5" cy="239" fill="#ADD1B2" rx="11" ry="11" style="stroke:#181818;stroke-width:1.0;"/><path d="M1765.8438,234.6719 C1764.9063,234.2344 1764.3125,234.0938 1763.4375,234.0938 C1760.8125,234.0938 1758.8125,236.1719 1758.8125,238.8906 L1758.8125,240.0156 C1758.8125,242.5938 1760.9219,244.4844 1763.8125,244.4844 C1765.0313,244.4844 1766.1875,244.1875 1766.9375,243.6406 C1767.5156,243.2344 1767.8438,242.7813 1767.8438,242.3906 C1767.8438,241.9375 1767.4531,241.5469 1766.9844,241.5469 C1766.7656,241.5469 1766.5625,241.625 1766.375,241.8125 C1765.9219,242.2969 1765.9219,242.2969 1765.7344,242.3906 C1765.3125,242.6563 1764.625,242.7813 1763.8594,242.7813 C1761.8125,242.7813 1760.5156,241.6875 1760.5156,239.9844 L1760.5156,238.8906 C1760.5156,237.1094 1761.7656,235.7969 1763.5,235.7969 C1764.0781,235.7969 1764.6875,235.9531 1765.1563,236.2031 C1765.6406,236.4844 1765.8125,236.7031 1765.9063,237.1094 C1765.9688,237.5156 1766,237.6406 1766.1406,237.7656 C1766.2813,237.9063 1766.5156,238.0156 1766.7344,238.0156 C1767,238.0156 1767.2656,237.875 1767.4375,237.6563 C1767.5469,237.5 1767.5781,237.3125 1767.5781,236.8906 L1767.5781,235.4688 C1767.5781,235.0313 1767.5625,234.9063 1767.4688,234.75 C1767.3125,234.4844 1767.0313,234.3438 1766.7344,234.3438 C1766.4375,234.3438 1766.2344,234.4375 1766.0156,234.75 L1765.8438,234.6719 Z " fill="#000000"/><text fill="#000000" font-family="sans-serif" font-size="14" lengthAdjust="spacing" textLength="33" x="1777.5" y="243.8467">Card</text><line style="stroke:#181818;stroke-width:0.5;" x1="1749.5" x2="1812.5" y1="255" y2="255"/><line style="stroke:#181818;stroke-width:0.5;" x1="1749.5" x2="1812.5" y1="263" y2="263"/><!--MD5=[9d65f55e1ae89a5b4cf38812aa4a03f3]
class Pile--><rect codeLine="6" fill="#F1F1F1" height="48" id="Pile" rx="2.5" ry="2.5" style="stroke:#181818;stroke-width:0.5;" width="58" x="7" y="331"/><ellipse cx="22" cy="347" fill="#ADD1B2" rx="11" ry="11" style="stroke:#181818;stroke-width:1.0;"/><path d="M24.3438,342.6719 C23.4063,342.2344 22.8125,342.0938 21.9375,342.0938 C19.3125,342.0938 17.3125,344.1719 17.3125,346.8906 L17.3125,348.0156 C17.3125,350.5938 19.4219,352.4844 22.3125,352.4844 C23.5313,352.4844 24.6875,352.1875 25.4375,351.6406 C26.0156,351.2344 26.3438,350.7813 26.3438,350.3906 C26.3438,349.9375 25.9531,349.5469 25.4844,349.5469 C25.2656,349.5469 25.0625,349.625 24.875,349.8125 C24.4219,350.2969 24.4219,350.2969 24.2344,350.3906 C23.8125,350.6563 23.125,350.7813 22.3594,350.7813 C20.3125,350.7813 19.0156,349.6875 19.0156,347.9844 L19.0156,346.8906 C19.0156,345.1094 20.2656,343.7969 22,343.7969 C22.5781,343.7969 23.1875,343.9531 23.6563,344.2031 C24.1406,344.4844 24.3125,344.7031 24.4063,345.1094 C24.4688,345.5156 24.5,345.6406 24.6406,345.7656 C24.7813,345.9063 25.0156,346.0156 25.2344,346.0156 C25.5,346.0156 25.7656,345.875 25.9375,345.6563 C26.0469,345.5 26.0781,345.3125 26.0781,344.8906 L26.0781,343.4688 C26.0781,343.0313 26.0625,342.9063 25.9688,342.75 C25.8125,342.4844 25.5313,342.3438 25.2344,342.3438 C24.9375,342.3438 24.7344,342.4375 24.5156,342.75 L24.3438,342.6719 Z " fill="#000000"/><text fill="#000000" font-family="sans-serif" font-size="14" lengthAdjust="spacing" textLength="26" x="36" y="351.8467">Pile</text><line style="stroke:#181818;stroke-width:0.5;" x1="8" x2="64" y1="363" y2="363"/><line style="stroke:#181818;stroke-width:0.5;" x1="8" x2="64" y1="371" y2="371"/><!--MD5=[8afaa0cc9be9ac1cdc24999fa1642fa3]
class Suit--><rect codeLine="7" fill="#F1F1F1" height="48" id="Suit" rx="2.5" ry="2.5" style="stroke:#181818;stroke-width:0.5;" width="60" x="1666" y="331"/><ellipse cx="1681" cy="347" fill="#ADD1B2" rx="11" ry="11" style="stroke:#181818;stroke-width:1.0;"/><path d="M1683.3438,342.6719 C1682.4063,342.2344 1681.8125,342.0938 1680.9375,342.0938 C1678.3125,342.0938 1676.3125,344.1719 1676.3125,346.8906 L1676.3125,348.0156 C1676.3125,350.5938 1678.4219,352.4844 1681.3125,352.4844 C1682.5313,352.4844 1683.6875,352.1875 1684.4375,351.6406 C1685.0156,351.2344 1685.3438,350.7813 1685.3438,350.3906 C1685.3438,349.9375 1684.9531,349.5469 1684.4844,349.5469 C1684.2656,349.5469 1684.0625,349.625 1683.875,349.8125 C1683.4219,350.2969 1683.4219,350.2969 1683.2344,350.3906 C1682.8125,350.6563 1682.125,350.7813 1681.3594,350.7813 C1679.3125,350.7813 1678.0156,349.6875 1678.0156,347.9844 L1678.0156,346.8906 C1678.0156,345.1094 1679.2656,343.7969 1681,343.7969 C1681.5781,343.7969 1682.1875,343.9531 1682.6563,344.2031 C1683.1406,344.4844 1683.3125,344.7031 1683.4063,345.1094 C1683.4688,345.5156 1683.5,345.6406 1683.6406,345.7656 C1683.7813,345.9063 1684.0156,346.0156 1684.2344,346.0156 C1684.5,346.0156 1684.7656,345.875 1684.9375,345.6563 C1685.0469,345.5 1685.0781,345.3125 1685.0781,344.8906 L1685.0781,343.4688 C1685.0781,343.0313 1685.0625,342.9063 1684.9688,342.75 C1684.8125,342.4844 1684.5313,342.3438 1684.2344,342.3438 C1683.9375,342.3438 1683.7344,342.4375 1683.5156,342.75 L1683.3438,342.6719 Z " fill="#000000"/><text fill="#000000" font-family="sans-serif" font-size="14" lengthAdjust="spacing" textLength="28" x="1695" y="351.8467">Suit</text><line style="stroke:#181818;stroke-width:0.5;" x1="1667" x2="1725" y1="363" y2="363"/><line style="stroke:#181818;stroke-width:0.5;" x1="1667" x2="1725" y1="371" y2="371"/><!--MD5=[435987a092acd998883c72f97c5c9408]
class Number--><rect codeLine="8" fill="#F1F1F1" height="48" id="Number" rx="2.5" ry="2.5" style="stroke:#181818;stroke-width:0.5;" width="89" x="1761.5" y="331"/><ellipse cx="1776.5" cy="347" fill="#ADD1B2" rx="11" ry="11" style="stroke:#181818;stroke-width:1.0;"/><path d="M1778.8438,342.6719 C1777.9063,342.2344 1777.3125,342.0938 1776.4375,342.0938 C1773.8125,342.0938 1771.8125,344.1719 1771.8125,346.8906 L1771.8125,348.0156 C1771.8125,350.5938 1773.9219,352.4844 1776.8125,352.4844 C1778.0313,352.4844 1779.1875,352.1875 1779.9375,351.6406 C1780.5156,351.2344 1780.8438,350.7813 1780.8438,350.3906 C1780.8438,349.9375 1780.4531,349.5469 1779.9844,349.5469 C1779.7656,349.5469 1779.5625,349.625 1779.375,349.8125 C1778.9219,350.2969 1778.9219,350.2969 1778.7344,350.3906 C1778.3125,350.6563 1777.625,350.7813 1776.8594,350.7813 C1774.8125,350.7813 1773.5156,349.6875 1773.5156,347.9844 L1773.5156,346.8906 C1773.5156,345.1094 1774.7656,343.7969 1776.5,343.7969 C1777.0781,343.7969 1777.6875,343.9531 1778.1563,344.2031 C1778.6406,344.4844 1778.8125,344.7031 1778.9063,345.1094 C1778.9688,345.5156 1779,345.6406 1779.1406,345.7656 C1779.2813,345.9063 1779.5156,346.0156 1779.7344,346.0156 C1780,346.0156 1780.2656,345.875 1780.4375,345.6563 C1780.5469,345.5 1780.5781,345.3125 1780.5781,344.8906 L1780.5781,343.4688 C1780.5781,343.0313 1780.5625,342.9063 1780.4688,342.75 C1780.3125,342.4844 1780.0313,342.3438 1779.7344,342.3438 C1779.4375,342.3438 1779.2344,342.4375 1779.0156,342.75 L1778.8438,342.6719 Z " fill="#000000"/><text fill="#000000" font-family="sans-serif" font-size="14" lengthAdjust="spacing" textLength="57" x="1790.5" y="351.8467">Number</text><line style="stroke:#181818;stroke-width:0.5;" x1="1762.5" x2="1849.5" y1="363" y2="363"/><line style="stroke:#181818;stroke-width:0.5;" x1="1762.5" x2="1849.5" y1="371" y2="371"/><!--MD5=[a64a835c3d62471a77f615251fdde58a]
class Position--><rect codeLine="9" fill="#F1F1F1" height="48" id="Position" rx="2.5" ry="2.5" style="stroke:#181818;stroke-width:0.5;" width="90" x="1886" y="331"/><ellipse cx="1901" cy="347" fill="#ADD1B2" rx="11" ry="11" style="stroke:#181818;stroke-width:1.0;"/><path d="M1903.3438,342.6719 C1902.4063,342.2344 1901.8125,342.0938 1900.9375,342.0938 C1898.3125,342.0938 1896.3125,344.1719 1896.3125,346.8906 L1896.3125,348.0156 C1896.3125,350.5938 1898.4219,352.4844 1901.3125,352.4844 C1902.5313,352.4844 1903.6875,352.1875 1904.4375,351.6406 C1905.0156,351.2344 1905.3438,350.7813 1905.3438,350.3906 C1905.3438,349.9375 1904.9531,349.5469 1904.4844,349.5469 C1904.2656,349.5469 1904.0625,349.625 1903.875,349.8125 C1903.4219,350.2969 1903.4219,350.2969 1903.2344,350.3906 C1902.8125,350.6563 1902.125,350.7813 1901.3594,350.7813 C1899.3125,350.7813 1898.0156,349.6875 1898.0156,347.9844 L1898.0156,346.8906 C1898.0156,345.1094 1899.2656,343.7969 1901,343.7969 C1901.5781,343.7969 1902.1875,343.9531 1902.6563,344.2031 C1903.1406,344.4844 1903.3125,344.7031 1903.4063,345.1094 C1903.4688,345.5156 1903.5,345.6406 1903.6406,345.7656 C1903.7813,345.9063 1904.0156,346.0156 1904.2344,346.0156 C1904.5,346.0156 1904.7656,345.875 1904.9375,345.6563 C1905.0469,345.5 1905.0781,345.3125 1905.0781,344.8906 L1905.0781,343.4688 C1905.0781,343.0313 1905.0625,342.9063 1904.9688,342.75 C1904.8125,342.4844 1904.5313,342.3438 1904.2344,342.3438 C1903.9375,342.3438 1903.7344,342.4375 1903.5156,342.75 L1903.3438,342.6719 Z " fill="#000000"/><text fill="#000000" font-family="sans-serif" font-size="14" lengthAdjust="spacing" textLength="58" x="1915" y="351.8467">Position</text><line style="stroke:#181818;stroke-width:0.5;" x1="1887" x2="1975" y1="363" y2="363"/><line style="stroke:#181818;stroke-width:0.5;" x1="1887" x2="1975" y1="371" y2="371"/><!--MD5=[18eee71c88ab61f27581b8cbdd3ef5ee]
class Color--><rect codeLine="10" fill="#F1F1F1" height="48" id="Color" rx="2.5" ry="2.5" style="stroke:#181818;stroke-width:0.5;" width="70" x="1661" y="439"/><ellipse cx="1676" cy="455" fill="#ADD1B2" rx="11" ry="11" style="stroke:#181818;stroke-width:1.0;"/><path d="M1678.3438,450.6719 C1677.4063,450.2344 1676.8125,450.0938 1675.9375,450.0938 C1673.3125,450.0938 1671.3125,452.1719 1671.3125,454.8906 L1671.3125,456.0156 C1671.3125,458.5938 1673.4219,460.4844 1676.3125,460.4844 C1677.5313,460.4844 1678.6875,460.1875 1679.4375,459.6406 C1680.0156,459.2344 1680.3438,458.7813 1680.3438,458.3906 C1680.3438,457.9375 1679.9531,457.5469 1679.4844,457.5469 C1679.2656,457.5469 1679.0625,457.625 1678.875,457.8125 C1678.4219,458.2969 1678.4219,458.2969 1678.2344,458.3906 C1677.8125,458.6563 1677.125,458.7813 1676.3594,458.7813 C1674.3125,458.7813 1673.0156,457.6875 1673.0156,455.9844 L1673.0156,454.8906 C1673.0156,453.1094 1674.2656,451.7969 1676,451.7969 C1676.5781,451.7969 1677.1875,451.9531 1677.6563,452.2031 C1678.1406,452.4844 1678.3125,452.7031 1678.4063,453.1094 C1678.4688,453.5156 1678.5,453.6406 1678.6406,453.7656 C1678.7813,453.9063 1679.0156,454.0156 1679.2344,454.0156 C1679.5,454.0156 1679.7656,453.875 1679.9375,453.6563 C1680.0469,453.5 1680.0781,453.3125 1680.0781,452.8906 L1680.0781,451.4688 C1680.0781,451.0313 1680.0625,450.9063 1679.9688,450.75 C1679.8125,450.4844 1679.5313,450.3438 1679.2344,450.3438 C1678.9375,450.3438 1678.7344,450.4375 1678.5156,450.75 L1678.3438,450.6719 Z " fill="#000000"/><text fill="#000000" font-family="sans-serif" font-size="14" lengthAdjust="spacing" textLength="38" x="1690" y="459.8467">Color</text><line style="stroke:#181818;stroke-width:0.5;" x1="1662" x2="1730" y1="471" y2="471"/><line style="stroke:#181818;stroke-width:0.5;" x1="1662" x2="1730" y1="479" y2="479"/><!--MD5=[ed59bb8f54e2c8af7c561b182d70ca56]
class Pack--><rect codeLine="11" fill="#F1F1F1" height="48" id="Pack" rx="2.5" ry="2.5" style="stroke:#181818;stroke-width:0.5;" width="66" x="1485" y="439"/><ellipse cx="1500" cy="455" fill="#ADD1B2" rx="11" ry="11" style="stroke:#181818;stroke-width:1.0;"/><path d="M1502.3438,450.6719 C1501.4063,450.2344 1500.8125,450.0938 1499.9375,450.0938 C1497.3125,450.0938 1495.3125,452.1719 1495.3125,454.8906 L1495.3125,456.0156 C1495.3125,458.5938 1497.4219,460.4844 1500.3125,460.4844 C1501.5313,460.4844 1502.6875,460.1875 1503.4375,459.6406 C1504.0156,459.2344 1504.3438,458.7813 1504.3438,458.3906 C1504.3438,457.9375 1503.9531,457.5469 1503.4844,457.5469 C1503.2656,457.5469 1503.0625,457.625 1502.875,457.8125 C1502.4219,458.2969 1502.4219,458.2969 1502.2344,458.3906 C1501.8125,458.6563 1501.125,458.7813 1500.3594,458.7813 C1498.3125,458.7813 1497.0156,457.6875 1497.0156,455.9844 L1497.0156,454.8906 C1497.0156,453.1094 1498.2656,451.7969 1500,451.7969 C1500.5781,451.7969 1501.1875,451.9531 1501.6563,452.2031 C1502.1406,452.4844 1502.3125,452.7031 1502.4063,453.1094 C1502.4688,453.5156 1502.5,453.6406 1502.6406,453.7656 C1502.7813,453.9063 1503.0156,454.0156 1503.2344,454.0156 C1503.5,454.0156 1503.7656,453.875 1503.9375,453.6563 C1504.0469,453.5 1504.0781,453.3125 1504.0781,452.8906 L1504.0781,451.4688 C1504.0781,451.0313 1504.0625,450.9063 1503.9688,450.75 C1503.8125,450.4844 1503.5313,450.3438 1503.2344,450.3438 C1502.9375,450.3438 1502.7344,450.4375 1502.5156,450.75 L1502.3438,450.6719 Z " fill="#000000"/><text fill="#000000" font-family="sans-serif" font-size="14" lengthAdjust="spacing" textLength="34" x="1514" y="459.8467">Pack</text><line style="stroke:#181818;stroke-width:0.5;" x1="1486" x2="1550" y1="471" y2="471"/><line style="stroke:#181818;stroke-width:0.5;" x1="1486" x2="1550" y1="479" y2="479"/><!--MD5=[c3c256aac7e3870d53c0042288b21bdc]
class Waste--><rect codeLine="12" fill="#F1F1F1" height="48" id="Waste" rx="2.5" ry="2.5" style="stroke:#181818;stroke-width:0.5;" width="77" x="71.5" y="439"/><ellipse cx="86.5" cy="455" fill="#ADD1B2" rx="11" ry="11" style="stroke:#181818;stroke-width:1.0;"/><path d="M88.8438,450.6719 C87.9063,450.2344 87.3125,450.0938 86.4375,450.0938 C83.8125,450.0938 81.8125,452.1719 81.8125,454.8906 L81.8125,456.0156 C81.8125,458.5938 83.9219,460.4844 86.8125,460.4844 C88.0313,460.4844 89.1875,460.1875 89.9375,459.6406 C90.5156,459.2344 90.8438,458.7813 90.8438,458.3906 C90.8438,457.9375 90.4531,457.5469 89.9844,457.5469 C89.7656,457.5469 89.5625,457.625 89.375,457.8125 C88.9219,458.2969 88.9219,458.2969 88.7344,458.3906 C88.3125,458.6563 87.625,458.7813 86.8594,458.7813 C84.8125,458.7813 83.5156,457.6875 83.5156,455.9844 L83.5156,454.8906 C83.5156,453.1094 84.7656,451.7969 86.5,451.7969 C87.0781,451.7969 87.6875,451.9531 88.1563,452.2031 C88.6406,452.4844 88.8125,452.7031 88.9063,453.1094 C88.9688,453.5156 89,453.6406 89.1406,453.7656 C89.2813,453.9063 89.5156,454.0156 89.7344,454.0156 C90,454.0156 90.2656,453.875 90.4375,453.6563 C90.5469,453.5 90.5781,453.3125 90.5781,452.8906 L90.5781,451.4688 C90.5781,451.0313 90.5625,450.9063 90.4688,450.75 C90.3125,450.4844 90.0313,450.3438 89.7344,450.3438 C89.4375,450.3438 89.2344,450.4375 89.0156,450.75 L88.8438,450.6719 Z " fill="#000000"/><text fill="#000000" font-family="sans-serif" font-size="14" lengthAdjust="spacing" textLength="45" x="100.5" y="459.8467">Waste</text><line style="stroke:#181818;stroke-width:0.5;" x1="72.5" x2="147.5" y1="471" y2="471"/><line style="stroke:#181818;stroke-width:0.5;" x1="72.5" x2="147.5" y1="479" y2="479"/><!--MD5=[daad9553d4cfc7a3356ebdfcccdbb1e3]
class Intermediate--><rect codeLine="13" fill="#F1F1F1" height="48" id="Intermediate" rx="2.5" ry="2.5" style="stroke:#181818;stroke-width:0.5;" width="127" x="332.5" y="439"/><ellipse cx="347.5" cy="455" fill="#ADD1B2" rx="11" ry="11" style="stroke:#181818;stroke-width:1.0;"/><path d="M349.8438,450.6719 C348.9063,450.2344 348.3125,450.0938 347.4375,450.0938 C344.8125,450.0938 342.8125,452.1719 342.8125,454.8906 L342.8125,456.0156 C342.8125,458.5938 344.9219,460.4844 347.8125,460.4844 C349.0313,460.4844 350.1875,460.1875 350.9375,459.6406 C351.5156,459.2344 351.8438,458.7813 351.8438,458.3906 C351.8438,457.9375 351.4531,457.5469 350.9844,457.5469 C350.7656,457.5469 350.5625,457.625 350.375,457.8125 C349.9219,458.2969 349.9219,458.2969 349.7344,458.3906 C349.3125,458.6563 348.625,458.7813 347.8594,458.7813 C345.8125,458.7813 344.5156,457.6875 344.5156,455.9844 L344.5156,454.8906 C344.5156,453.1094 345.7656,451.7969 347.5,451.7969 C348.0781,451.7969 348.6875,451.9531 349.1563,452.2031 C349.6406,452.4844 349.8125,452.7031 349.9063,453.1094 C349.9688,453.5156 350,453.6406 350.1406,453.7656 C350.2813,453.9063 350.5156,454.0156 350.7344,454.0156 C351,454.0156 351.2656,453.875 351.4375,453.6563 C351.5469,453.5 351.5781,453.3125 351.5781,452.8906 L351.5781,451.4688 C351.5781,451.0313 351.5625,450.9063 351.4688,450.75 C351.3125,450.4844 351.0313,450.3438 350.7344,450.3438 C350.4375,450.3438 350.2344,450.4375 350.0156,450.75 L349.8438,450.6719 Z " fill="#000000"/><text fill="#000000" font-family="sans-serif" font-size="14" lengthAdjust="spacing" textLength="95" x="361.5" y="459.8467">Intermediate</text><line style="stroke:#181818;stroke-width:0.5;" x1="333.5" x2="458.5" y1="471" y2="471"/><line style="stroke:#181818;stroke-width:0.5;" x1="333.5" x2="458.5" y1="479" y2="479"/><!--MD5=[0992d3fdc9d3d7c02b735131bb70871d]
class Goal--><rect codeLine="14" fill="#F1F1F1" height="48" id="Goal" rx="2.5" ry="2.5" style="stroke:#181818;stroke-width:0.5;" width="64" x="792" y="439"/><ellipse cx="807" cy="455" fill="#ADD1B2" rx="11" ry="11" style="stroke:#181818;stroke-width:1.0;"/><path d="M809.3438,450.6719 C808.4063,450.2344 807.8125,450.0938 806.9375,450.0938 C804.3125,450.0938 802.3125,452.1719 802.3125,454.8906 L802.3125,456.0156 C802.3125,458.5938 804.4219,460.4844 807.3125,460.4844 C808.5313,460.4844 809.6875,460.1875 810.4375,459.6406 C811.0156,459.2344 811.3438,458.7813 811.3438,458.3906 C811.3438,457.9375 810.9531,457.5469 810.4844,457.5469 C810.2656,457.5469 810.0625,457.625 809.875,457.8125 C809.4219,458.2969 809.4219,458.2969 809.2344,458.3906 C808.8125,458.6563 808.125,458.7813 807.3594,458.7813 C805.3125,458.7813 804.0156,457.6875 804.0156,455.9844 L804.0156,454.8906 C804.0156,453.1094 805.2656,451.7969 807,451.7969 C807.5781,451.7969 808.1875,451.9531 808.6563,452.2031 C809.1406,452.4844 809.3125,452.7031 809.4063,453.1094 C809.4688,453.5156 809.5,453.6406 809.6406,453.7656 C809.7813,453.9063 810.0156,454.0156 810.2344,454.0156 C810.5,454.0156 810.7656,453.875 810.9375,453.6563 C811.0469,453.5 811.0781,453.3125 811.0781,452.8906 L811.0781,451.4688 C811.0781,451.0313 811.0625,450.9063 810.9688,450.75 C810.8125,450.4844 810.5313,450.3438 810.2344,450.3438 C809.9375,450.3438 809.7344,450.4375 809.5156,450.75 L809.3438,450.6719 Z " fill="#000000"/><text fill="#000000" font-family="sans-serif" font-size="14" lengthAdjust="spacing" textLength="32" x="821" y="459.8467">Goal</text><line style="stroke:#181818;stroke-width:0.5;" x1="793" x2="855" y1="471" y2="471"/><line style="stroke:#181818;stroke-width:0.5;" x1="793" x2="855" y1="479" y2="479"/><!--MD5=[bc87bf052131b9ca3b54b8ba84b5b110]
class Movement--><rect codeLine="15" fill="#F1F1F1" height="48" id="Movement" rx="2.5" ry="2.5" style="stroke:#181818;stroke-width:0.5;" width="109" x="567.5" y="223"/><ellipse cx="582.5" cy="239" fill="#ADD1B2" rx="11" ry="11" style="stroke:#181818;stroke-width:1.0;"/><path d="M584.8438,234.6719 C583.9063,234.2344 583.3125,234.0938 582.4375,234.0938 C579.8125,234.0938 577.8125,236.1719 577.8125,238.8906 L577.8125,240.0156 C577.8125,242.5938 579.9219,244.4844 582.8125,244.4844 C584.0313,244.4844 585.1875,244.1875 585.9375,243.6406 C586.5156,243.2344 586.8438,242.7813 586.8438,242.3906 C586.8438,241.9375 586.4531,241.5469 585.9844,241.5469 C585.7656,241.5469 585.5625,241.625 585.375,241.8125 C584.9219,242.2969 584.9219,242.2969 584.7344,242.3906 C584.3125,242.6563 583.625,242.7813 582.8594,242.7813 C580.8125,242.7813 579.5156,241.6875 579.5156,239.9844 L579.5156,238.8906 C579.5156,237.1094 580.7656,235.7969 582.5,235.7969 C583.0781,235.7969 583.6875,235.9531 584.1563,236.2031 C584.6406,236.4844 584.8125,236.7031 584.9063,237.1094 C584.9688,237.5156 585,237.6406 585.1406,237.7656 C585.2813,237.9063 585.5156,238.0156 585.7344,238.0156 C586,238.0156 586.2656,237.875 586.4375,237.6563 C586.5469,237.5 586.5781,237.3125 586.5781,236.8906 L586.5781,235.4688 C586.5781,235.0313 586.5625,234.9063 586.4688,234.75 C586.3125,234.4844 586.0313,234.3438 585.7344,234.3438 C585.4375,234.3438 585.2344,234.4375 585.0156,234.75 L584.8438,234.6719 Z " fill="#000000"/><text fill="#000000" font-family="sans-serif" font-size="14" lengthAdjust="spacing" textLength="77" x="596.5" y="243.8467">Movement</text><line style="stroke:#181818;stroke-width:0.5;" x1="568.5" x2="675.5" y1="255" y2="255"/><line style="stroke:#181818;stroke-width:0.5;" x1="568.5" x2="675.5" y1="263" y2="263"/><!--MD5=[4e640aacf8f887f939e61ea070a0b66e]
class PacktoWaste--><rect fill="#F1F1F1" height="48" id="PacktoWaste" rx="2.5" ry="2.5" style="stroke:#181818;stroke-width:0.5;" width="127" x="221.5" y="331"/><ellipse cx="236.5" cy="347" fill="#ADD1B2" rx="11" ry="11" style="stroke:#181818;stroke-width:1.0;"/><path d="M238.8438,342.6719 C237.9063,342.2344 237.3125,342.0938 236.4375,342.0938 C233.8125,342.0938 231.8125,344.1719 231.8125,346.8906 L231.8125,348.0156 C231.8125,350.5938 233.9219,352.4844 236.8125,352.4844 C238.0313,352.4844 239.1875,352.1875 239.9375,351.6406 C240.5156,351.2344 240.8438,350.7813 240.8438,350.3906 C240.8438,349.9375 240.4531,349.5469 239.9844,349.5469 C239.7656,349.5469 239.5625,349.625 239.375,349.8125 C238.9219,350.2969 238.9219,350.2969 238.7344,350.3906 C238.3125,350.6563 237.625,350.7813 236.8594,350.7813 C234.8125,350.7813 233.5156,349.6875 233.5156,347.9844 L233.5156,346.8906 C233.5156,345.1094 234.7656,343.7969 236.5,343.7969 C237.0781,343.7969 237.6875,343.9531 238.1563,344.2031 C238.6406,344.4844 238.8125,344.7031 238.9063,345.1094 C238.9688,345.5156 239,345.6406 239.1406,345.7656 C239.2813,345.9063 239.5156,346.0156 239.7344,346.0156 C240,346.0156 240.2656,345.875 240.4375,345.6563 C240.5469,345.5 240.5781,345.3125 240.5781,344.8906 L240.5781,343.4688 C240.5781,343.0313 240.5625,342.9063 240.4688,342.75 C240.3125,342.4844 240.0313,342.3438 239.7344,342.3438 C239.4375,342.3438 239.2344,342.4375 239.0156,342.75 L238.8438,342.6719 Z " fill="#000000"/><text fill="#000000" font-family="sans-serif" font-size="14" lengthAdjust="spacing" textLength="95" x="250.5" y="351.8467">PacktoWaste</text><line style="stroke:#181818;stroke-width:0.5;" x1="222.5" x2="347.5" y1="363" y2="363"/><line style="stroke:#181818;stroke-width:0.5;" x1="222.5" x2="347.5" y1="371" y2="371"/><!--MD5=[d50be7f4866aa95e854cf930971a7dc2]
class PacktoGoal--><rect fill="#F1F1F1" height="48" id="PacktoGoal" rx="2.5" ry="2.5" style="stroke:#181818;stroke-width:0.5;" width="114" x="384" y="331"/><ellipse cx="399" cy="347" fill="#ADD1B2" rx="11" ry="11" style="stroke:#181818;stroke-width:1.0;"/><path d="M401.3438,342.6719 C400.4063,342.2344 399.8125,342.0938 398.9375,342.0938 C396.3125,342.0938 394.3125,344.1719 394.3125,346.8906 L394.3125,348.0156 C394.3125,350.5938 396.4219,352.4844 399.3125,352.4844 C400.5313,352.4844 401.6875,352.1875 402.4375,351.6406 C403.0156,351.2344 403.3438,350.7813 403.3438,350.3906 C403.3438,349.9375 402.9531,349.5469 402.4844,349.5469 C402.2656,349.5469 402.0625,349.625 401.875,349.8125 C401.4219,350.2969 401.4219,350.2969 401.2344,350.3906 C400.8125,350.6563 400.125,350.7813 399.3594,350.7813 C397.3125,350.7813 396.0156,349.6875 396.0156,347.9844 L396.0156,346.8906 C396.0156,345.1094 397.2656,343.7969 399,343.7969 C399.5781,343.7969 400.1875,343.9531 400.6563,344.2031 C401.1406,344.4844 401.3125,344.7031 401.4063,345.1094 C401.4688,345.5156 401.5,345.6406 401.6406,345.7656 C401.7813,345.9063 402.0156,346.0156 402.2344,346.0156 C402.5,346.0156 402.7656,345.875 402.9375,345.6563 C403.0469,345.5 403.0781,345.3125 403.0781,344.8906 L403.0781,343.4688 C403.0781,343.0313 403.0625,342.9063 402.9688,342.75 C402.8125,342.4844 402.5313,342.3438 402.2344,342.3438 C401.9375,342.3438 401.7344,342.4375 401.5156,342.75 L401.3438,342.6719 Z " fill="#000000"/><text fill="#000000" font-family="sans-serif" font-size="14" lengthAdjust="spacing" textLength="82" x="413" y="351.8467">PacktoGoal</text><line style="stroke:#181818;stroke-width:0.5;" x1="385" x2="497" y1="363" y2="363"/><line style="stroke:#181818;stroke-width:0.5;" x1="385" x2="497" y1="371" y2="371"/><!--MD5=[ca305dff30194f2ff96bc4baee67ee26]
class IntermediateToGoal--><rect fill="#F1F1F1" height="48" id="IntermediateToGoal" rx="2.5" ry="2.5" style="stroke:#181818;stroke-width:0.5;" width="177" x="533.5" y="331"/><ellipse cx="548.5" cy="347" fill="#ADD1B2" rx="11" ry="11" style="stroke:#181818;stroke-width:1.0;"/><path d="M550.8438,342.6719 C549.9063,342.2344 549.3125,342.0938 548.4375,342.0938 C545.8125,342.0938 543.8125,344.1719 543.8125,346.8906 L543.8125,348.0156 C543.8125,350.5938 545.9219,352.4844 548.8125,352.4844 C550.0313,352.4844 551.1875,352.1875 551.9375,351.6406 C552.5156,351.2344 552.8438,350.7813 552.8438,350.3906 C552.8438,349.9375 552.4531,349.5469 551.9844,349.5469 C551.7656,349.5469 551.5625,349.625 551.375,349.8125 C550.9219,350.2969 550.9219,350.2969 550.7344,350.3906 C550.3125,350.6563 549.625,350.7813 548.8594,350.7813 C546.8125,350.7813 545.5156,349.6875 545.5156,347.9844 L545.5156,346.8906 C545.5156,345.1094 546.7656,343.7969 548.5,343.7969 C549.0781,343.7969 549.6875,343.9531 550.1563,344.2031 C550.6406,344.4844 550.8125,344.7031 550.9063,345.1094 C550.9688,345.5156 551,345.6406 551.1406,345.7656 C551.2813,345.9063 551.5156,346.0156 551.7344,346.0156 C552,346.0156 552.2656,345.875 552.4375,345.6563 C552.5469,345.5 552.5781,345.3125 552.5781,344.8906 L552.5781,343.4688 C552.5781,343.0313 552.5625,342.9063 552.4688,342.75 C552.3125,342.4844 552.0313,342.3438 551.7344,342.3438 C551.4375,342.3438 551.2344,342.4375 551.0156,342.75 L550.8438,342.6719 Z " fill="#000000"/><text fill="#000000" font-family="sans-serif" font-size="14" lengthAdjust="spacing" textLength="145" x="562.5" y="351.8467">IntermediateToGoal</text><line style="stroke:#181818;stroke-width:0.5;" x1="534.5" x2="709.5" y1="363" y2="363"/><line style="stroke:#181818;stroke-width:0.5;" x1="534.5" x2="709.5" y1="371" y2="371"/><!--MD5=[e5de2cfe07584dd000501ecd48215c09]
class GoalToIntermediate--><rect fill="#F1F1F1" height="48" id="GoalToIntermediate" rx="2.5" ry="2.5" style="stroke:#181818;stroke-width:0.5;" width="177" x="745.5" y="331"/><ellipse cx="760.5" cy="347" fill="#ADD1B2" rx="11" ry="11" style="stroke:#181818;stroke-width:1.0;"/><path d="M762.8438,342.6719 C761.9063,342.2344 761.3125,342.0938 760.4375,342.0938 C757.8125,342.0938 755.8125,344.1719 755.8125,346.8906 L755.8125,348.0156 C755.8125,350.5938 757.9219,352.4844 760.8125,352.4844 C762.0313,352.4844 763.1875,352.1875 763.9375,351.6406 C764.5156,351.2344 764.8438,350.7813 764.8438,350.3906 C764.8438,349.9375 764.4531,349.5469 763.9844,349.5469 C763.7656,349.5469 763.5625,349.625 763.375,349.8125 C762.9219,350.2969 762.9219,350.2969 762.7344,350.3906 C762.3125,350.6563 761.625,350.7813 760.8594,350.7813 C758.8125,350.7813 757.5156,349.6875 757.5156,347.9844 L757.5156,346.8906 C757.5156,345.1094 758.7656,343.7969 760.5,343.7969 C761.0781,343.7969 761.6875,343.9531 762.1563,344.2031 C762.6406,344.4844 762.8125,344.7031 762.9063,345.1094 C762.9688,345.5156 763,345.6406 763.1406,345.7656 C763.2813,345.9063 763.5156,346.0156 763.7344,346.0156 C764,346.0156 764.2656,345.875 764.4375,345.6563 C764.5469,345.5 764.5781,345.3125 764.5781,344.8906 L764.5781,343.4688 C764.5781,343.0313 764.5625,342.9063 764.4688,342.75 C764.3125,342.4844 764.0313,342.3438 763.7344,342.3438 C763.4375,342.3438 763.2344,342.4375 763.0156,342.75 L762.8438,342.6719 Z " fill="#000000"/><text fill="#000000" font-family="sans-serif" font-size="14" lengthAdjust="spacing" textLength="145" x="774.5" y="351.8467">GoalToIntermediate</text><line style="stroke:#181818;stroke-width:0.5;" x1="746.5" x2="921.5" y1="363" y2="363"/><line style="stroke:#181818;stroke-width:0.5;" x1="746.5" x2="921.5" y1="371" y2="371"/><!--MD5=[dbd6e63a099f2ad41e3f74d39041051a]
class PacktoIntermediate--><rect fill="#F1F1F1" height="48" id="PacktoIntermediate" rx="2.5" ry="2.5" style="stroke:#181818;stroke-width:0.5;" width="177" x="957.5" y="331"/><ellipse cx="972.5" cy="347" fill="#ADD1B2" rx="11" ry="11" style="stroke:#181818;stroke-width:1.0;"/><path d="M974.8438,342.6719 C973.9063,342.2344 973.3125,342.0938 972.4375,342.0938 C969.8125,342.0938 967.8125,344.1719 967.8125,346.8906 L967.8125,348.0156 C967.8125,350.5938 969.9219,352.4844 972.8125,352.4844 C974.0313,352.4844 975.1875,352.1875 975.9375,351.6406 C976.5156,351.2344 976.8438,350.7813 976.8438,350.3906 C976.8438,349.9375 976.4531,349.5469 975.9844,349.5469 C975.7656,349.5469 975.5625,349.625 975.375,349.8125 C974.9219,350.2969 974.9219,350.2969 974.7344,350.3906 C974.3125,350.6563 973.625,350.7813 972.8594,350.7813 C970.8125,350.7813 969.5156,349.6875 969.5156,347.9844 L969.5156,346.8906 C969.5156,345.1094 970.7656,343.7969 972.5,343.7969 C973.0781,343.7969 973.6875,343.9531 974.1563,344.2031 C974.6406,344.4844 974.8125,344.7031 974.9063,345.1094 C974.9688,345.5156 975,345.6406 975.1406,345.7656 C975.2813,345.9063 975.5156,346.0156 975.7344,346.0156 C976,346.0156 976.2656,345.875 976.4375,345.6563 C976.5469,345.5 976.5781,345.3125 976.5781,344.8906 L976.5781,343.4688 C976.5781,343.0313 976.5625,342.9063 976.4688,342.75 C976.3125,342.4844 976.0313,342.3438 975.7344,342.3438 C975.4375,342.3438 975.2344,342.4375 975.0156,342.75 L974.8438,342.6719 Z " fill="#000000"/><text fill="#000000" font-family="sans-serif" font-size="14" lengthAdjust="spacing" textLength="145" x="986.5" y="351.8467">PacktoIntermediate</text><line style="stroke:#181818;stroke-width:0.5;" x1="958.5" x2="1133.5" y1="363" y2="363"/><line style="stroke:#181818;stroke-width:0.5;" x1="958.5" x2="1133.5" y1="371" y2="371"/><!--MD5=[ba1501569b0e6cfbddea7c0ddff3be7c]
class WasteToGoal--><rect fill="#F1F1F1" height="48" id="WasteToGoal" rx="2.5" ry="2.5" style="stroke:#181818;stroke-width:0.5;" width="127" x="1169.5" y="331"/><ellipse cx="1184.5" cy="347" fill="#ADD1B2" rx="11" ry="11" style="stroke:#181818;stroke-width:1.0;"/><path d="M1186.8438,342.6719 C1185.9063,342.2344 1185.3125,342.0938 1184.4375,342.0938 C1181.8125,342.0938 1179.8125,344.1719 1179.8125,346.8906 L1179.8125,348.0156 C1179.8125,350.5938 1181.9219,352.4844 1184.8125,352.4844 C1186.0313,352.4844 1187.1875,352.1875 1187.9375,351.6406 C1188.5156,351.2344 1188.8438,350.7813 1188.8438,350.3906 C1188.8438,349.9375 1188.4531,349.5469 1187.9844,349.5469 C1187.7656,349.5469 1187.5625,349.625 1187.375,349.8125 C1186.9219,350.2969 1186.9219,350.2969 1186.7344,350.3906 C1186.3125,350.6563 1185.625,350.7813 1184.8594,350.7813 C1182.8125,350.7813 1181.5156,349.6875 1181.5156,347.9844 L1181.5156,346.8906 C1181.5156,345.1094 1182.7656,343.7969 1184.5,343.7969 C1185.0781,343.7969 1185.6875,343.9531 1186.1563,344.2031 C1186.6406,344.4844 1186.8125,344.7031 1186.9063,345.1094 C1186.9688,345.5156 1187,345.6406 1187.1406,345.7656 C1187.2813,345.9063 1187.5156,346.0156 1187.7344,346.0156 C1188,346.0156 1188.2656,345.875 1188.4375,345.6563 C1188.5469,345.5 1188.5781,345.3125 1188.5781,344.8906 L1188.5781,343.4688 C1188.5781,343.0313 1188.5625,342.9063 1188.4688,342.75 C1188.3125,342.4844 1188.0313,342.3438 1187.7344,342.3438 C1187.4375,342.3438 1187.2344,342.4375 1187.0156,342.75 L1186.8438,342.6719 Z " fill="#000000"/><text fill="#000000" font-family="sans-serif" font-size="14" lengthAdjust="spacing" textLength="95" x="1198.5" y="351.8467">WasteToGoal</text><line style="stroke:#181818;stroke-width:0.5;" x1="1170.5" x2="1295.5" y1="363" y2="363"/><line style="stroke:#181818;stroke-width:0.5;" x1="1170.5" x2="1295.5" y1="371" y2="371"/><!--MD5=[16e0f52445b93aad6245eaf8d0ef3ecd]
class WasteToIntermediate--><rect fill="#F1F1F1" height="48" id="WasteToIntermediate" rx="2.5" ry="2.5" style="stroke:#181818;stroke-width:0.5;" width="190" x="1332" y="331"/><ellipse cx="1347" cy="347" fill="#ADD1B2" rx="11" ry="11" style="stroke:#181818;stroke-width:1.0;"/><path d="M1349.3438,342.6719 C1348.4063,342.2344 1347.8125,342.0938 1346.9375,342.0938 C1344.3125,342.0938 1342.3125,344.1719 1342.3125,346.8906 L1342.3125,348.0156 C1342.3125,350.5938 1344.4219,352.4844 1347.3125,352.4844 C1348.5313,352.4844 1349.6875,352.1875 1350.4375,351.6406 C1351.0156,351.2344 1351.3438,350.7813 1351.3438,350.3906 C1351.3438,349.9375 1350.9531,349.5469 1350.4844,349.5469 C1350.2656,349.5469 1350.0625,349.625 1349.875,349.8125 C1349.4219,350.2969 1349.4219,350.2969 1349.2344,350.3906 C1348.8125,350.6563 1348.125,350.7813 1347.3594,350.7813 C1345.3125,350.7813 1344.0156,349.6875 1344.0156,347.9844 L1344.0156,346.8906 C1344.0156,345.1094 1345.2656,343.7969 1347,343.7969 C1347.5781,343.7969 1348.1875,343.9531 1348.6563,344.2031 C1349.1406,344.4844 1349.3125,344.7031 1349.4063,345.1094 C1349.4688,345.5156 1349.5,345.6406 1349.6406,345.7656 C1349.7813,345.9063 1350.0156,346.0156 1350.2344,346.0156 C1350.5,346.0156 1350.7656,345.875 1350.9375,345.6563 C1351.0469,345.5 1351.0781,345.3125 1351.0781,344.8906 L1351.0781,343.4688 C1351.0781,343.0313 1351.0625,342.9063 1350.9688,342.75 C1350.8125,342.4844 1350.5313,342.3438 1350.2344,342.3438 C1349.9375,342.3438 1349.7344,342.4375 1349.5156,342.75 L1349.3438,342.6719 Z " fill="#000000"/><text fill="#000000" font-family="sans-serif" font-size="14" lengthAdjust="spacing" textLength="158" x="1361" y="351.8467">WasteToIntermediate</text><line style="stroke:#181818;stroke-width:0.5;" x1="1333" x2="1521" y1="363" y2="363"/><line style="stroke:#181818;stroke-width:0.5;" x1="1333" x2="1521" y1="371" y2="371"/><!--MD5=[b27ec0cd227cfd93cc4b7e36a8dfdadd]
class Restart--><rect fill="#F1F1F1" height="48" id="Restart" rx="2.5" ry="2.5" style="stroke:#181818;stroke-width:0.5;" width="86" x="100" y="331"/><ellipse cx="115" cy="347" fill="#ADD1B2" rx="11" ry="11" style="stroke:#181818;stroke-width:1.0;"/><path d="M117.3438,342.6719 C116.4063,342.2344 115.8125,342.0938 114.9375,342.0938 C112.3125,342.0938 110.3125,344.1719 110.3125,346.8906 L110.3125,348.0156 C110.3125,350.5938 112.4219,352.4844 115.3125,352.4844 C116.5313,352.4844 117.6875,352.1875 118.4375,351.6406 C119.0156,351.2344 119.3438,350.7813 119.3438,350.3906 C119.3438,349.9375 118.9531,349.5469 118.4844,349.5469 C118.2656,349.5469 118.0625,349.625 117.875,349.8125 C117.4219,350.2969 117.4219,350.2969 117.2344,350.3906 C116.8125,350.6563 116.125,350.7813 115.3594,350.7813 C113.3125,350.7813 112.0156,349.6875 112.0156,347.9844 L112.0156,346.8906 C112.0156,345.1094 113.2656,343.7969 115,343.7969 C115.5781,343.7969 116.1875,343.9531 116.6563,344.2031 C117.1406,344.4844 117.3125,344.7031 117.4063,345.1094 C117.4688,345.5156 117.5,345.6406 117.6406,345.7656 C117.7813,345.9063 118.0156,346.0156 118.2344,346.0156 C118.5,346.0156 118.7656,345.875 118.9375,345.6563 C119.0469,345.5 119.0781,345.3125 119.0781,344.8906 L119.0781,343.4688 C119.0781,343.0313 119.0625,342.9063 118.9688,342.75 C118.8125,342.4844 118.5313,342.3438 118.2344,342.3438 C117.9375,342.3438 117.7344,342.4375 117.5156,342.75 L117.3438,342.6719 Z " fill="#000000"/><text fill="#000000" font-family="sans-serif" font-size="14" lengthAdjust="spacing" textLength="54" x="129" y="351.8467">Restart</text><line style="stroke:#181818;stroke-width:0.5;" x1="101" x2="185" y1="363" y2="363"/><line style="stroke:#181818;stroke-width:0.5;" x1="101" x2="185" y1="371" y2="371"/><!--MD5=[a7b2bbced8ad516e4a03afd1e57f7fd9]
reverse link Board to Pack--><path codeLine="16" d="M1569.62,390.0069 C1558.23,405.894 1544.95,424.4052 1534.72,438.6784 " fill="none" id="Board-backto-Pack" style="stroke:#181818;stroke-width:1.0;"/><polygon fill="#181818" points="1577.51,379,1570.7621,381.5429,1570.5141,388.7497,1577.2619,386.2068,1577.51,379" style="stroke:#181818;stroke-width:1.0;"/><!--MD5=[41fe2a859d1153396eefa9f2038f5fd5]
reverse link Board to Waste--><path codeLine="17" d="M1544.62,377.571 C1542.74,378.099 1540.86,378.579 1539,379 C1273.39,439.1022 586.448,417.141 315,439 C256.991,443.6713 190.026,451.6796 148.848,456.9062 " fill="none" id="Board-backto-Waste" style="stroke:#181818;stroke-width:1.0;"/><polygon fill="#181818" points="1557,373.504,1550.0513,371.5764,1545.5994,377.2492,1552.5481,379.1768,1557,373.504" style="stroke:#181818;stroke-width:1.0;"/><!--MD5=[aa63eda66bef4649603e9aaacdc3fd31]
reverse link Board to Intermediate--><path codeLine="18" d="M1544.61,377.515 C1542.73,378.059 1540.86,378.557 1539,379 C1486.2,391.6007 692.671,443.0425 459.789,457.9398 " fill="none" id="Board-backto-Intermediate" style="stroke:#181818;stroke-width:1.0;"/><polygon fill="#181818" points="1556.97,373.38,1550.0123,371.4853,1545.5873,377.1791,1552.545,379.0738,1556.97,373.38" style="stroke:#181818;stroke-width:1.0;"/><text fill="#000000" font-family="sans-serif" font-size="13" lengthAdjust="spacing" textLength="8" x="467.6271" y="453.5621">7</text><!--MD5=[e57d952a9c9a3dab07963f8878e9f840]
reverse link Board to Goal--><path codeLine="19" d="M1544.58,377.412 C1542.71,377.985 1540.85,378.517 1539,379 C1281.79,446.275 958.275,459.0557 856.304,461.454 " fill="none" id="Board-backto-Goal" style="stroke:#181818;stroke-width:1.0;"/><polygon fill="#181818" points="1556.91,373.153,1549.933,371.3305,1545.5672,377.0698,1552.5442,378.8923,1556.91,373.153" style="stroke:#181818;stroke-width:1.0;"/><text fill="#000000" font-family="sans-serif" font-size="13" lengthAdjust="spacing" textLength="8" x="863.7917" y="456.6689">4</text><!--MD5=[2bea451defd5fc6f19f55dc15999e7a1]
reverse link Klondike to Player--><path codeLine="21" d="M1533.44,38.605 C1350.82,58.52 808.994,117.608 660.185,133.836 " fill="none" id="Klondike-backto-Player" style="stroke:#181818;stroke-width:1.0;"/><polygon fill="#181818" points="1546.46,37.184,1540.0604,33.8605,1534.5312,38.4895,1540.9308,41.813,1546.46,37.184" style="stroke:#181818;stroke-width:1.0;"/><!--MD5=[95d64a43580cec222c66ba27ef11a984]
reverse link Klondike to Board--><path codeLine="22" d="M1594,68.196 C1594,134.806 1594,275.061 1594,330.62 " fill="none" id="Klondike-backto-Board" style="stroke:#181818;stroke-width:1.0;"/><polygon fill="#181818" points="1594,55.157,1590,61.157,1594,67.157,1598,61.157,1594,55.157" style="stroke:#181818;stroke-width:1.0;"/><!--MD5=[1f0ef1aa599fd455074798df194f3d8c]
reverse link Klondike to FrenchDeck--><path codeLine="23" d="M1634.11,63.032 C1655.44,79.541 1681.25,99.504 1700.86,114.678 " fill="none" id="Klondike-backto-FrenchDeck" style="stroke:#181818;stroke-width:1.0;"/><polygon fill="#181818" points="1623.73,55,1626.0268,61.8356,1633.2199,62.3445,1630.9231,55.509,1623.73,55" style="stroke:#181818;stroke-width:1.0;"/><!--MD5=[efe50e33e5e494ba91ff2359222e5361]
reverse link FrenchDeck to Card--><path codeLine="25" d="M1747.48,174.935 C1754.87,190.611 1763.4,208.682 1770,222.678 " fill="none" id="FrenchDeck-backto-Card" style="stroke:#181818;stroke-width:1.0;"/><polygon fill="none" points="1741.85,163,1740.7919,170.1331,1746.9693,173.8532,1748.0274,166.7202,1741.85,163" style="stroke:#181818;stroke-width:1.0;"/><text fill="#000000" font-family="sans-serif" font-size="13" lengthAdjust="spacing" textLength="16" x="1749.3688" y="212.0045">52</text><!--MD5=[331bab2ef9e32d426da935eb44d746a5]
reverse link Card to Suit--><path codeLine="26" d="M1754.1,281.545 C1741.28,297.534 1726.26,316.267 1714.7,330.678 " fill="none" id="Card-backto-Suit" style="stroke:#181818;stroke-width:1.0;"/><polygon fill="#181818" points="1762.56,271,1755.6859,273.1788,1755.0532,280.3621,1761.9273,278.1833,1762.56,271" style="stroke:#181818;stroke-width:1.0;"/><text fill="#000000" font-family="sans-serif" font-size="13" lengthAdjust="spacing" textLength="8" x="1710.2831" y="320.0045">4</text><!--MD5=[a1e51d57c28c935ec821cfb890c2faba]
reverse link Card to Number--><path codeLine="27" d="M1789.46,283.869 C1793.11,299.325 1797.26,316.959 1800.5,330.678 " fill="none" id="Card-backto-Number" style="stroke:#181818;stroke-width:1.0;"/><polygon fill="#181818" points="1786.42,271,1783.9037,277.7578,1789.1738,282.6797,1791.6902,275.9219,1786.42,271" style="stroke:#181818;stroke-width:1.0;"/><text fill="#000000" font-family="sans-serif" font-size="13" lengthAdjust="spacing" textLength="16" x="1781.2094" y="320.0045">10</text><!--MD5=[3d2f0e7981c75766d0ffd21c33717472]
reverse link Card to Position--><path codeLine="28" d="M1824.31,278.608 C1847.88,295.264 1876.57,315.536 1898.26,330.862 " fill="none" id="Card-backto-Position" style="stroke:#181818;stroke-width:1.0;"/><polygon fill="#181818" points="1813.55,271,1816.1427,277.7289,1823.3512,277.9236,1820.7585,271.1947,1813.55,271" style="stroke:#181818;stroke-width:1.0;"/><text fill="#000000" font-family="sans-serif" font-size="13" lengthAdjust="spacing" textLength="8" x="1880.8454" y="319.8387">2</text><!--MD5=[a5b050240b46bd905f5f930de83fbd40]
reverse link Suit to Color--><path codeLine="29" d="M1696,392.3383 C1696,407.6813 1696,425.098 1696,438.6784 " fill="none" id="Suit-backto-Color" style="stroke:#181818;stroke-width:1.0;"/><polygon fill="#181818" points="1696,379,1692,385,1696,391,1700,385,1696,379" style="stroke:#181818;stroke-width:1.0;"/><text fill="#000000" font-family="sans-serif" font-size="13" lengthAdjust="spacing" textLength="8" x="1687.025" y="428.005">2</text><!--MD5=[f8e359b6be596961b724ab441a323fdb]
link Player to Pile--><path codeLine="33" d="M583.741,151.732 C494.506,179.484 266.187,252.734 82,331 C78.1018,332.656 74.0687,334.489 70.0847,336.375 " fill="none" id="Player-to-Pile" style="stroke:#181818;stroke-width:1.0;"/><polygon fill="#181818" points="65.4413,338.606,75.2858,338.3132,69.948,336.4404,71.8208,331.1025,65.4413,338.606" style="stroke:#181818;stroke-width:1.0;"/><!--MD5=[08d919769a497c9b194409ae2bcef7ba]
link Movement to Pile--><path codeLine="34" d="M567.464,250.784 C468.568,257.052 253.958,276.281 82,331 C77.9638,332.284 73.844,333.882 69.8101,335.634 " fill="none" id="Movement-to-Pile" style="stroke:#181818;stroke-width:1.0;"/><polygon fill="#181818" points="65.1242,337.751,74.9729,337.6913,69.6809,335.6926,71.6795,330.4006,65.1242,337.751" style="stroke:#181818;stroke-width:1.0;"/><!--MD5=[1e5622e419e61827803d8907ecf40cdc]
link Player to Movement--><path codeLine="35" d="M622,163 C622,179.003 622,200.446 622,217.528 " fill="none" id="Player-to-Movement" style="stroke:#181818;stroke-width:1.0;"/><polygon fill="#181818" points="622,222.678,626,213.678,622,217.678,618,213.678,622,222.678" style="stroke:#181818;stroke-width:1.0;"/><!--MD5=[714159c682854380ea356219713e45ac]
reverse link Pile to Pack--><path codeLine="37" d="M85.2438,377.469 C295.209,418.8678 1290.12,454.2457 1484.9,460.8885 " fill="none" id="Pile-backto-Pack" style="stroke:#181818;stroke-width:1.0;"/><polygon fill="none" points="83.414,384.231,65.4953,372.921,86.5561,370.588,83.414,384.231" style="stroke:#181818;stroke-width:1.0;"/><!--MD5=[0cc7312144b7b0e8e85651666602557e]
reverse link Pile to Waste--><path codeLine="38" d="M63.6841,395.6557 C73.8027,410.1498 84.9154,426.0681 93.7189,438.6784 " fill="none" id="Pile-backto-Waste" style="stroke:#181818;stroke-width:1.0;"/><polygon fill="none" points="57.7657,399.4066,52.0569,379,69.2451,391.3926,57.7657,399.4066" style="stroke:#181818;stroke-width:1.0;"/><!--MD5=[3f2b975d8dec667f5f1c3e573642e941]
reverse link Pile to Intermediate--><path codeLine="39" d="M84.2474,378.924 C178.951,413.8842 271.976,436.1897 332.255,449.1829 " fill="none" id="Pile-backto-Intermediate" style="stroke:#181818;stroke-width:1.0;"/><polygon fill="none" points="81.5283,385.38,65.2936,371.762,86.4768,372.283,81.5283,385.38" style="stroke:#181818;stroke-width:1.0;"/><!--MD5=[8d081b17ce2c8d47a42c7fb031b2139b]
reverse link Pile to Goal--><path codeLine="40" d="M84.3701,377.874 C253.147,421.8677 672.278,451.921 791.795,459.9081 " fill="none" id="Pile-backto-Goal" style="stroke:#181818;stroke-width:1.0;"/><polygon fill="none" points="82.4208,384.598,65.0655,372.44,86.214,371.121,82.4208,384.598" style="stroke:#181818;stroke-width:1.0;"/><!--MD5=[8cbfefa3523cf0c95d71c3d641cde0b7]
reverse link Movement to PacktoWaste--><path codeLine="44" d="M548.217,271.208 C488.55,289.975 405.413,316.125 348.639,333.983 " fill="none" id="Movement-backto-PacktoWaste" style="stroke:#181818;stroke-width:1.0;"/><polygon fill="none" points="546.302,264.472,567.481,265.149,550.502,277.827,546.302,264.472" style="stroke:#181818;stroke-width:1.0;"/><!--MD5=[98c235f3969dff742be7d9bba1f953b2]
reverse link Movement to PacktoGoal--><path codeLine="45" d="M565.445,281.121 C537.869,297.27 505.377,316.298 480.51,330.862 " fill="none" id="Movement-backto-PacktoGoal" style="stroke:#181818;stroke-width:1.0;"/><polygon fill="none" points="561.93,275.067,582.726,271,569.005,287.148,561.93,275.067" style="stroke:#181818;stroke-width:1.0;"/><!--MD5=[c2b10786e8a75d8d4e5c317161ab4921]
reverse link Movement to IntermediateToGoal--><path codeLine="46" d="M622,291.024 C622,304.579 622,319.038 622,330.678 " fill="none" id="Movement-backto-IntermediateToGoal" style="stroke:#181818;stroke-width:1.0;"/><polygon fill="none" points="615,291,622,271,629,291,615,291" style="stroke:#181818;stroke-width:1.0;"/><!--MD5=[dc6123994bc540e27aac227f22858cf6]
reverse link Movement to GoalToIntermediate--><path codeLine="47" d="M685.945,279.972 C718.722,296.361 757.903,315.952 787.723,330.862 " fill="none" id="Movement-backto-GoalToIntermediate" style="stroke:#181818;stroke-width:1.0;"/><polygon fill="none" points="682.759,286.206,668.001,271,689.02,273.684,682.759,286.206" style="stroke:#181818;stroke-width:1.0;"/><!--MD5=[20e0e834596214ab6ee015c5049fd74b]
reverse link Movement to PacktoIntermediate--><path codeLine="48" d="M696.007,266.502 C768.764,284.691 879.863,312.466 957.308,331.827 " fill="none" id="Movement-backto-PacktoIntermediate" style="stroke:#181818;stroke-width:1.0;"/><polygon fill="none" points="694.268,273.282,676.563,261.641,697.663,259.7,694.268,273.282" style="stroke:#181818;stroke-width:1.0;"/><!--MD5=[8f4ce26ae76dd49338e584e59afadf60]
reverse link Movement to WasteToGoal--><path codeLine="49" d="M696.581,256.779 C799.652,269.57 991.147,295.704 1152,331 C1157.57,332.222 1163.32,333.605 1169.07,335.073 " fill="none" id="Movement-backto-WasteToGoal" style="stroke:#181818;stroke-width:1.0;"/><polygon fill="none" points="695.576,263.709,676.576,254.327,697.279,249.813,695.576,263.709" style="stroke:#181818;stroke-width:1.0;"/><!--MD5=[13818cca9457e39387108aa459448de2]
reverse link Movement to WasteToIntermediate--><path codeLine="50" d="M696.859,254.961 C824.103,267.245 1090.52,294.916 1314,331 C1319.83,331.941 1325.82,332.971 1331.85,334.057 " fill="none" id="Movement-backto-WasteToIntermediate" style="stroke:#181818;stroke-width:1.0;"/><polygon fill="none" points="696.176,261.928,676.934,253.054,697.51,247.992,696.176,261.928" style="stroke:#181818;stroke-width:1.0;"/><!--MD5=[8049271b81567495fb682261f05a51f8]
reverse link Movement to Restart--><path codeLine="51" d="M547.296,259.025 C462.982,272.344 322.173,297.238 204,331 C198.123,332.679 192.012,334.673 186.026,336.774 " fill="none" id="Movement-backto-Restart" style="stroke:#181818;stroke-width:1.0;"/><polygon fill="none" points="546.372,252.085,567.21,255.929,548.523,265.918,546.372,252.085" style="stroke:#181818;stroke-width:1.0;"/><!--MD5=[a8a9e0d37c4f0ca9bb75ca3f462dcb5d]
@startuml
Class Klondike
Class Board
Class FrenchDeck
Class Player
Class Card
Class Pile
Class Suit
Class Number
Class Position
Class Color
Class Pack
Class Waste
Class Intermediate
Class Goal
Class Movement
Board *- - Pack
Board *- - Waste
Board *- - "7" Intermediate
Board *- - "4" Goal

Klondike *- - Player
Klondike *- - Board
Klondike *- - FrenchDeck

FrenchDeck o- - "52" Card
Card *- - "4" Suit
Card *- - "10" Number
Card *- - "2" Position
Suit *- - "2" Color



Player - -> Pile
Movement - -> Pile
Player - -> Movement

Pile <|- -Pack
Pile <|- -Waste
Pile <|- - Intermediate
Pile <|- - Goal



Movement <|- - PacktoWaste
Movement <|- - PacktoGoal
Movement <|- - IntermediateToGoal
Movement <|- - GoalToIntermediate
Movement <|- - PacktoIntermediate
Movement <|- - WasteToGoal
Movement <|- - WasteToIntermediate
Movement <|- - Restart
@enduml

PlantUML version 1.2022.2beta5(Unknown compile time)
(GPL source distribution)
Java Runtime: Java(TM) SE Runtime Environment
JVM: Java HotSpot(TM) 64-Bit Server VM
Default Encoding: UTF-8
Language: en
Country: US
--></g></svg>