<?xml version="1.0" encoding="UTF-8" standalone="no"?><svg xmlns="http://www.w3.org/2000/svg" xmlns:xlink="http://www.w3.org/1999/xlink" contentScriptType="application/ecmascript" contentStyleType="text/css" height="717px" preserveAspectRatio="none" style="width:671px;height:717px;background:#FFFFFF;" version="1.1" viewBox="0 0 671 717" width="671px" zoomAndPan="magnify"><defs><filter height="300%" id="f1duti4fqbtera" width="300%" x="-1" y="-1"><feGaussianBlur result="blurOut" stdDeviation="2.0"/><feColorMatrix in="blurOut" result="blurOut2" type="matrix" values="0 0 0 0 0 0 0 0 0 0 0 0 0 0 0 0 0 0 .4 0"/><feOffset dx="4.0" dy="4.0" in="blurOut2" result="blurOut3"/><feBlend in="SourceGraphic" in2="blurOut3" mode="normal"/></filter></defs><g><!--MD5=[7283a9eed84464550b6d5ebf39c68b05]
class Mastermind--><rect codeLine="1" fill="#FEFECE" filter="url(#f1duti4fqbtera)" height="48" id="Mastermind" style="stroke:#A80036;stroke-width:1.5;" width="105" x="307.5" y="7"/><ellipse cx="322.5" cy="23" fill="#ADD1B2" rx="11" ry="11" style="stroke:#A80036;stroke-width:1.0;"/><path d="M325.4688,28.6406 Q324.8906,28.9375 324.25,29.0781 Q323.6094,29.2344 322.9063,29.2344 Q320.4063,29.2344 319.0781,27.5938 Q317.7656,25.9375 317.7656,22.8125 Q317.7656,19.6875 319.0781,18.0313 Q320.4063,16.375 322.9063,16.375 Q323.6094,16.375 324.25,16.5313 Q324.9063,16.6875 325.4688,16.9844 L325.4688,19.7031 Q324.8438,19.125 324.25,18.8594 Q323.6563,18.5781 323.0313,18.5781 Q321.6875,18.5781 321,19.6563 Q320.3125,20.7188 320.3125,22.8125 Q320.3125,24.9063 321,25.9844 Q321.6875,27.0469 323.0313,27.0469 Q323.6563,27.0469 324.25,26.7813 Q324.8438,26.5 325.4688,25.9219 L325.4688,28.6406 Z " fill="#000000"/><text fill="#000000" font-family="sans-serif" font-size="12" lengthAdjust="spacing" textLength="73" x="336.5" y="27.1543">Mastermind</text><line style="stroke:#A80036;stroke-width:1.5;" x1="308.5" x2="411.5" y1="39" y2="39"/><line style="stroke:#A80036;stroke-width:1.5;" x1="308.5" x2="411.5" y1="47" y2="47"/><!--MD5=[dd91eae41778c45e12552e5329e240e8]
class Turn--><rect codeLine="2" fill="#FEFECE" filter="url(#f1duti4fqbtera)" height="48" id="Turn" style="stroke:#A80036;stroke-width:1.5;" width="60" x="330" y="115"/><ellipse cx="345" cy="131" fill="#ADD1B2" rx="11" ry="11" style="stroke:#A80036;stroke-width:1.0;"/><path d="M347.9688,136.6406 Q347.3906,136.9375 346.75,137.0781 Q346.1094,137.2344 345.4063,137.2344 Q342.9063,137.2344 341.5781,135.5938 Q340.2656,133.9375 340.2656,130.8125 Q340.2656,127.6875 341.5781,126.0313 Q342.9063,124.375 345.4063,124.375 Q346.1094,124.375 346.75,124.5313 Q347.4063,124.6875 347.9688,124.9844 L347.9688,127.7031 Q347.3438,127.125 346.75,126.8594 Q346.1563,126.5781 345.5313,126.5781 Q344.1875,126.5781 343.5,127.6563 Q342.8125,128.7188 342.8125,130.8125 Q342.8125,132.9063 343.5,133.9844 Q344.1875,135.0469 345.5313,135.0469 Q346.1563,135.0469 346.75,134.7813 Q347.3438,134.5 347.9688,133.9219 L347.9688,136.6406 Z " fill="#000000"/><text fill="#000000" font-family="sans-serif" font-size="12" lengthAdjust="spacing" textLength="28" x="359" y="135.1543">Turn</text><line style="stroke:#A80036;stroke-width:1.5;" x1="331" x2="389" y1="147" y2="147"/><line style="stroke:#A80036;stroke-width:1.5;" x1="331" x2="389" y1="155" y2="155"/><!--MD5=[2cb47ba637a0d19583e6199456f6ad0b]
class Player--><rect codeLine="3" fill="#FEFECE" filter="url(#f1duti4fqbtera)" height="48" id="Player" style="stroke:#A80036;stroke-width:1.5;" width="70" x="350" y="223"/><ellipse cx="365" cy="239" fill="#ADD1B2" rx="11" ry="11" style="stroke:#A80036;stroke-width:1.0;"/><path d="M367.9688,244.6406 Q367.3906,244.9375 366.75,245.0781 Q366.1094,245.2344 365.4063,245.2344 Q362.9063,245.2344 361.5781,243.5938 Q360.2656,241.9375 360.2656,238.8125 Q360.2656,235.6875 361.5781,234.0313 Q362.9063,232.375 365.4063,232.375 Q366.1094,232.375 366.75,232.5313 Q367.4063,232.6875 367.9688,232.9844 L367.9688,235.7031 Q367.3438,235.125 366.75,234.8594 Q366.1563,234.5781 365.5313,234.5781 Q364.1875,234.5781 363.5,235.6563 Q362.8125,236.7188 362.8125,238.8125 Q362.8125,240.9063 363.5,241.9844 Q364.1875,243.0469 365.5313,243.0469 Q366.1563,243.0469 366.75,242.7813 Q367.3438,242.5 367.9688,241.9219 L367.9688,244.6406 Z " fill="#000000"/><text fill="#000000" font-family="sans-serif" font-size="12" lengthAdjust="spacing" textLength="38" x="379" y="243.1543">Player</text><line style="stroke:#A80036;stroke-width:1.5;" x1="351" x2="419" y1="255" y2="255"/><line style="stroke:#A80036;stroke-width:1.5;" x1="351" x2="419" y1="263" y2="263"/><!--MD5=[28491d17d5ee38c9c116625a5ffc259a]
class Combination--><rect codeLine="4" fill="#FEFECE" filter="url(#f1duti4fqbtera)" height="48" id="Combination" style="stroke:#A80036;stroke-width:1.5;" width="110" x="501" y="331"/><ellipse cx="516" cy="347" fill="#ADD1B2" rx="11" ry="11" style="stroke:#A80036;stroke-width:1.0;"/><path d="M518.9688,352.6406 Q518.3906,352.9375 517.75,353.0781 Q517.1094,353.2344 516.4063,353.2344 Q513.9063,353.2344 512.5781,351.5938 Q511.2656,349.9375 511.2656,346.8125 Q511.2656,343.6875 512.5781,342.0313 Q513.9063,340.375 516.4063,340.375 Q517.1094,340.375 517.75,340.5313 Q518.4063,340.6875 518.9688,340.9844 L518.9688,343.7031 Q518.3438,343.125 517.75,342.8594 Q517.1563,342.5781 516.5313,342.5781 Q515.1875,342.5781 514.5,343.6563 Q513.8125,344.7188 513.8125,346.8125 Q513.8125,348.9063 514.5,349.9844 Q515.1875,351.0469 516.5313,351.0469 Q517.1563,351.0469 517.75,350.7813 Q518.3438,350.5 518.9688,349.9219 L518.9688,352.6406 Z " fill="#000000"/><text fill="#000000" font-family="sans-serif" font-size="12" lengthAdjust="spacing" textLength="78" x="530" y="351.1543">Combination</text><line style="stroke:#A80036;stroke-width:1.5;" x1="502" x2="610" y1="363" y2="363"/><line style="stroke:#A80036;stroke-width:1.5;" x1="502" x2="610" y1="371" y2="371"/><!--MD5=[9563755d011c5cec7ec66dc53565a59e]
class Board--><rect codeLine="5" fill="#FEFECE" filter="url(#f1duti4fqbtera)" height="48" id="Board" style="stroke:#A80036;stroke-width:1.5;" width="69" x="242.5" y="331"/><ellipse cx="257.5" cy="347" fill="#ADD1B2" rx="11" ry="11" style="stroke:#A80036;stroke-width:1.0;"/><path d="M260.4688,352.6406 Q259.8906,352.9375 259.25,353.0781 Q258.6094,353.2344 257.9063,353.2344 Q255.4063,353.2344 254.0781,351.5938 Q252.7656,349.9375 252.7656,346.8125 Q252.7656,343.6875 254.0781,342.0313 Q255.4063,340.375 257.9063,340.375 Q258.6094,340.375 259.25,340.5313 Q259.9063,340.6875 260.4688,340.9844 L260.4688,343.7031 Q259.8438,343.125 259.25,342.8594 Q258.6563,342.5781 258.0313,342.5781 Q256.6875,342.5781 256,343.6563 Q255.3125,344.7188 255.3125,346.8125 Q255.3125,348.9063 256,349.9844 Q256.6875,351.0469 258.0313,351.0469 Q258.6563,351.0469 259.25,350.7813 Q259.8438,350.5 260.4688,349.9219 L260.4688,352.6406 Z " fill="#000000"/><text fill="#000000" font-family="sans-serif" font-size="12" lengthAdjust="spacing" textLength="37" x="271.5" y="351.1543">Board</text><line style="stroke:#A80036;stroke-width:1.5;" x1="243.5" x2="310.5" y1="363" y2="363"/><line style="stroke:#A80036;stroke-width:1.5;" x1="243.5" x2="310.5" y1="371" y2="371"/><!--MD5=[f988dfb2c51f82beb248a68b00ebb2ba]
class MakerPlayer--><rect codeLine="6" fill="#FEFECE" filter="url(#f1duti4fqbtera)" height="48" id="MakerPlayer" style="stroke:#A80036;stroke-width:1.5;" width="108" x="99" y="331"/><ellipse cx="114" cy="347" fill="#ADD1B2" rx="11" ry="11" style="stroke:#A80036;stroke-width:1.0;"/><path d="M116.9688,352.6406 Q116.3906,352.9375 115.75,353.0781 Q115.1094,353.2344 114.4063,353.2344 Q111.9063,353.2344 110.5781,351.5938 Q109.2656,349.9375 109.2656,346.8125 Q109.2656,343.6875 110.5781,342.0313 Q111.9063,340.375 114.4063,340.375 Q115.1094,340.375 115.75,340.5313 Q116.4063,340.6875 116.9688,340.9844 L116.9688,343.7031 Q116.3438,343.125 115.75,342.8594 Q115.1563,342.5781 114.5313,342.5781 Q113.1875,342.5781 112.5,343.6563 Q111.8125,344.7188 111.8125,346.8125 Q111.8125,348.9063 112.5,349.9844 Q113.1875,351.0469 114.5313,351.0469 Q115.1563,351.0469 115.75,350.7813 Q116.3438,350.5 116.9688,349.9219 L116.9688,352.6406 Z " fill="#000000"/><text fill="#000000" font-family="sans-serif" font-size="12" lengthAdjust="spacing" textLength="76" x="128" y="351.1543">MakerPlayer</text><line style="stroke:#A80036;stroke-width:1.5;" x1="100" x2="206" y1="363" y2="363"/><line style="stroke:#A80036;stroke-width:1.5;" x1="100" x2="206" y1="371" y2="371"/><!--MD5=[d35e1b11918d6cec274121250b83576e]
class BreakerPlayer--><rect codeLine="7" fill="#FEFECE" filter="url(#f1duti4fqbtera)" height="48" id="BreakerPlayer" style="stroke:#A80036;stroke-width:1.5;" width="119" x="346.5" y="331"/><ellipse cx="361.5" cy="347" fill="#ADD1B2" rx="11" ry="11" style="stroke:#A80036;stroke-width:1.0;"/><path d="M364.4688,352.6406 Q363.8906,352.9375 363.25,353.0781 Q362.6094,353.2344 361.9063,353.2344 Q359.4063,353.2344 358.0781,351.5938 Q356.7656,349.9375 356.7656,346.8125 Q356.7656,343.6875 358.0781,342.0313 Q359.4063,340.375 361.9063,340.375 Q362.6094,340.375 363.25,340.5313 Q363.9063,340.6875 364.4688,340.9844 L364.4688,343.7031 Q363.8438,343.125 363.25,342.8594 Q362.6563,342.5781 362.0313,342.5781 Q360.6875,342.5781 360,343.6563 Q359.3125,344.7188 359.3125,346.8125 Q359.3125,348.9063 360,349.9844 Q360.6875,351.0469 362.0313,351.0469 Q362.6563,351.0469 363.25,350.7813 Q363.8438,350.5 364.4688,349.9219 L364.4688,352.6406 Z " fill="#000000"/><text fill="#000000" font-family="sans-serif" font-size="12" lengthAdjust="spacing" textLength="87" x="375.5" y="351.1543">BreakerPlayer</text><line style="stroke:#A80036;stroke-width:1.5;" x1="347.5" x2="464.5" y1="363" y2="363"/><line style="stroke:#A80036;stroke-width:1.5;" x1="347.5" x2="464.5" y1="371" y2="371"/><!--MD5=[18eee71c88ab61f27581b8cbdd3ef5ee]
class Color--><rect codeLine="8" fill="#FEFECE" filter="url(#f1duti4fqbtera)" height="48" id="Color" style="stroke:#A80036;stroke-width:1.5;" width="64" x="593" y="439"/><ellipse cx="608" cy="455" fill="#ADD1B2" rx="11" ry="11" style="stroke:#A80036;stroke-width:1.0;"/><path d="M610.9688,460.6406 Q610.3906,460.9375 609.75,461.0781 Q609.1094,461.2344 608.4063,461.2344 Q605.9063,461.2344 604.5781,459.5938 Q603.2656,457.9375 603.2656,454.8125 Q603.2656,451.6875 604.5781,450.0313 Q605.9063,448.375 608.4063,448.375 Q609.1094,448.375 609.75,448.5313 Q610.4063,448.6875 610.9688,448.9844 L610.9688,451.7031 Q610.3438,451.125 609.75,450.8594 Q609.1563,450.5781 608.5313,450.5781 Q607.1875,450.5781 606.5,451.6563 Q605.8125,452.7188 605.8125,454.8125 Q605.8125,456.9063 606.5,457.9844 Q607.1875,459.0469 608.5313,459.0469 Q609.1563,459.0469 609.75,458.7813 Q610.3438,458.5 610.9688,457.9219 L610.9688,460.6406 Z " fill="#000000"/><text fill="#000000" font-family="sans-serif" font-size="12" lengthAdjust="spacing" textLength="32" x="622" y="459.1543">Color</text><line style="stroke:#A80036;stroke-width:1.5;" x1="594" x2="656" y1="471" y2="471"/><line style="stroke:#A80036;stroke-width:1.5;" x1="594" x2="656" y1="479" y2="479"/><!--MD5=[cf489b19c51ee25e76ddca093e62e620]
class ProposedCombination--><rect codeLine="9" fill="#FEFECE" filter="url(#f1duti4fqbtera)" height="48" id="ProposedCombination" style="stroke:#A80036;stroke-width:1.5;" width="170" x="388" y="439"/><ellipse cx="403" cy="455" fill="#ADD1B2" rx="11" ry="11" style="stroke:#A80036;stroke-width:1.0;"/><path d="M405.9688,460.6406 Q405.3906,460.9375 404.75,461.0781 Q404.1094,461.2344 403.4063,461.2344 Q400.9063,461.2344 399.5781,459.5938 Q398.2656,457.9375 398.2656,454.8125 Q398.2656,451.6875 399.5781,450.0313 Q400.9063,448.375 403.4063,448.375 Q404.1094,448.375 404.75,448.5313 Q405.4063,448.6875 405.9688,448.9844 L405.9688,451.7031 Q405.3438,451.125 404.75,450.8594 Q404.1563,450.5781 403.5313,450.5781 Q402.1875,450.5781 401.5,451.6563 Q400.8125,452.7188 400.8125,454.8125 Q400.8125,456.9063 401.5,457.9844 Q402.1875,459.0469 403.5313,459.0469 Q404.1563,459.0469 404.75,458.7813 Q405.3438,458.5 405.9688,457.9219 L405.9688,460.6406 Z " fill="#000000"/><text fill="#000000" font-family="sans-serif" font-size="12" lengthAdjust="spacing" textLength="138" x="417" y="459.1543">ProposedCombination</text><line style="stroke:#A80036;stroke-width:1.5;" x1="389" x2="557" y1="471" y2="471"/><line style="stroke:#A80036;stroke-width:1.5;" x1="389" x2="557" y1="479" y2="479"/><!--MD5=[e370ee5c0c15ce04544d5f5a73174d72]
class SecretCombination--><rect codeLine="10" fill="#FEFECE" filter="url(#f1duti4fqbtera)" height="48" id="SecretCombination" style="stroke:#A80036;stroke-width:1.5;" width="151" x="201.5" y="439"/><ellipse cx="216.5" cy="455" fill="#ADD1B2" rx="11" ry="11" style="stroke:#A80036;stroke-width:1.0;"/><path d="M219.4688,460.6406 Q218.8906,460.9375 218.25,461.0781 Q217.6094,461.2344 216.9063,461.2344 Q214.4063,461.2344 213.0781,459.5938 Q211.7656,457.9375 211.7656,454.8125 Q211.7656,451.6875 213.0781,450.0313 Q214.4063,448.375 216.9063,448.375 Q217.6094,448.375 218.25,448.5313 Q218.9063,448.6875 219.4688,448.9844 L219.4688,451.7031 Q218.8438,451.125 218.25,450.8594 Q217.6563,450.5781 217.0313,450.5781 Q215.6875,450.5781 215,451.6563 Q214.3125,452.7188 214.3125,454.8125 Q214.3125,456.9063 215,457.9844 Q215.6875,459.0469 217.0313,459.0469 Q217.6563,459.0469 218.25,458.7813 Q218.8438,458.5 219.4688,457.9219 L219.4688,460.6406 Z " fill="#000000"/><text fill="#000000" font-family="sans-serif" font-size="12" lengthAdjust="spacing" textLength="119" x="230.5" y="459.1543">SecretCombination</text><line style="stroke:#A80036;stroke-width:1.5;" x1="202.5" x2="351.5" y1="471" y2="471"/><line style="stroke:#A80036;stroke-width:1.5;" x1="202.5" x2="351.5" y1="479" y2="479"/><!--MD5=[2741598bdf59a7d7e0d5c97658fd3022]
class Result--><rect codeLine="11" fill="#FEFECE" filter="url(#f1duti4fqbtera)" height="48" id="Result" style="stroke:#A80036;stroke-width:1.5;" width="71" x="95.5" y="439"/><ellipse cx="110.5" cy="455" fill="#ADD1B2" rx="11" ry="11" style="stroke:#A80036;stroke-width:1.0;"/><path d="M113.4688,460.6406 Q112.8906,460.9375 112.25,461.0781 Q111.6094,461.2344 110.9063,461.2344 Q108.4063,461.2344 107.0781,459.5938 Q105.7656,457.9375 105.7656,454.8125 Q105.7656,451.6875 107.0781,450.0313 Q108.4063,448.375 110.9063,448.375 Q111.6094,448.375 112.25,448.5313 Q112.9063,448.6875 113.4688,448.9844 L113.4688,451.7031 Q112.8438,451.125 112.25,450.8594 Q111.6563,450.5781 111.0313,450.5781 Q109.6875,450.5781 109,451.6563 Q108.3125,452.7188 108.3125,454.8125 Q108.3125,456.9063 109,457.9844 Q109.6875,459.0469 111.0313,459.0469 Q111.6563,459.0469 112.25,458.7813 Q112.8438,458.5 113.4688,457.9219 L113.4688,460.6406 Z " fill="#000000"/><text fill="#000000" font-family="sans-serif" font-size="12" lengthAdjust="spacing" textLength="39" x="124.5" y="459.1543">Result</text><line style="stroke:#A80036;stroke-width:1.5;" x1="96.5" x2="165.5" y1="471" y2="471"/><line style="stroke:#A80036;stroke-width:1.5;" x1="96.5" x2="165.5" y1="479" y2="479"/><!--MD5=[4ed713a1bbe23a946f17d07c51bf0ba1]
class WinnerResult--><rect codeLine="12" fill="#FEFECE" filter="url(#f1duti4fqbtera)" height="48" id="WinnerResult" style="stroke:#A80036;stroke-width:1.5;" width="114" x="146" y="547"/><ellipse cx="161" cy="563" fill="#ADD1B2" rx="11" ry="11" style="stroke:#A80036;stroke-width:1.0;"/><path d="M163.9688,568.6406 Q163.3906,568.9375 162.75,569.0781 Q162.1094,569.2344 161.4063,569.2344 Q158.9063,569.2344 157.5781,567.5938 Q156.2656,565.9375 156.2656,562.8125 Q156.2656,559.6875 157.5781,558.0313 Q158.9063,556.375 161.4063,556.375 Q162.1094,556.375 162.75,556.5313 Q163.4063,556.6875 163.9688,556.9844 L163.9688,559.7031 Q163.3438,559.125 162.75,558.8594 Q162.1563,558.5781 161.5313,558.5781 Q160.1875,558.5781 159.5,559.6563 Q158.8125,560.7188 158.8125,562.8125 Q158.8125,564.9063 159.5,565.9844 Q160.1875,567.0469 161.5313,567.0469 Q162.1563,567.0469 162.75,566.7813 Q163.3438,566.5 163.9688,565.9219 L163.9688,568.6406 Z " fill="#000000"/><text fill="#000000" font-family="sans-serif" font-size="12" lengthAdjust="spacing" textLength="82" x="175" y="567.1543">WinnerResult</text><line style="stroke:#A80036;stroke-width:1.5;" x1="147" x2="259" y1="579" y2="579"/><line style="stroke:#A80036;stroke-width:1.5;" x1="147" x2="259" y1="587" y2="587"/><!--MD5=[4679dc49df6bd6484c154963ab7b1cb0]
class GoodResult--><rect codeLine="13" fill="#FEFECE" filter="url(#f1duti4fqbtera)" height="48" id="GoodResult" style="stroke:#A80036;stroke-width:1.5;" width="104" x="7" y="547"/><ellipse cx="22" cy="563" fill="#ADD1B2" rx="11" ry="11" style="stroke:#A80036;stroke-width:1.0;"/><path d="M24.9688,568.6406 Q24.3906,568.9375 23.75,569.0781 Q23.1094,569.2344 22.4063,569.2344 Q19.9063,569.2344 18.5781,567.5938 Q17.2656,565.9375 17.2656,562.8125 Q17.2656,559.6875 18.5781,558.0313 Q19.9063,556.375 22.4063,556.375 Q23.1094,556.375 23.75,556.5313 Q24.4063,556.6875 24.9688,556.9844 L24.9688,559.7031 Q24.3438,559.125 23.75,558.8594 Q23.1563,558.5781 22.5313,558.5781 Q21.1875,558.5781 20.5,559.6563 Q19.8125,560.7188 19.8125,562.8125 Q19.8125,564.9063 20.5,565.9844 Q21.1875,567.0469 22.5313,567.0469 Q23.1563,567.0469 23.75,566.7813 Q24.3438,566.5 24.9688,565.9219 L24.9688,568.6406 Z " fill="#000000"/><text fill="#000000" font-family="sans-serif" font-size="12" lengthAdjust="spacing" textLength="72" x="36" y="567.1543">GoodResult</text><line style="stroke:#A80036;stroke-width:1.5;" x1="8" x2="110" y1="579" y2="579"/><line style="stroke:#A80036;stroke-width:1.5;" x1="8" x2="110" y1="587" y2="587"/><!--MD5=[602b15352a41052f4d1a7dc34102cb35]
class White--><rect codeLine="14" fill="#FEFECE" filter="url(#f1duti4fqbtera)" height="48" id="White" style="stroke:#A80036;stroke-width:1.5;" width="67" x="25.5" y="655"/><ellipse cx="40.5" cy="671" fill="#ADD1B2" rx="11" ry="11" style="stroke:#A80036;stroke-width:1.0;"/><path d="M43.4688,676.6406 Q42.8906,676.9375 42.25,677.0781 Q41.6094,677.2344 40.9063,677.2344 Q38.4063,677.2344 37.0781,675.5938 Q35.7656,673.9375 35.7656,670.8125 Q35.7656,667.6875 37.0781,666.0313 Q38.4063,664.375 40.9063,664.375 Q41.6094,664.375 42.25,664.5313 Q42.9063,664.6875 43.4688,664.9844 L43.4688,667.7031 Q42.8438,667.125 42.25,666.8594 Q41.6563,666.5781 41.0313,666.5781 Q39.6875,666.5781 39,667.6563 Q38.3125,668.7188 38.3125,670.8125 Q38.3125,672.9063 39,673.9844 Q39.6875,675.0469 41.0313,675.0469 Q41.6563,675.0469 42.25,674.7813 Q42.8438,674.5 43.4688,673.9219 L43.4688,676.6406 Z " fill="#000000"/><text fill="#000000" font-family="sans-serif" font-size="12" lengthAdjust="spacing" textLength="35" x="54.5" y="675.1543">White</text><line style="stroke:#A80036;stroke-width:1.5;" x1="26.5" x2="91.5" y1="687" y2="687"/><line style="stroke:#A80036;stroke-width:1.5;" x1="26.5" x2="91.5" y1="695" y2="695"/><!--MD5=[365150d8163e865a226452c70cc7ad9f]
class Black--><rect codeLine="15" fill="#FEFECE" filter="url(#f1duti4fqbtera)" height="48" id="Black" style="stroke:#A80036;stroke-width:1.5;" width="65" x="148.5" y="655"/><ellipse cx="163.5" cy="671" fill="#ADD1B2" rx="11" ry="11" style="stroke:#A80036;stroke-width:1.0;"/><path d="M166.4688,676.6406 Q165.8906,676.9375 165.25,677.0781 Q164.6094,677.2344 163.9063,677.2344 Q161.4063,677.2344 160.0781,675.5938 Q158.7656,673.9375 158.7656,670.8125 Q158.7656,667.6875 160.0781,666.0313 Q161.4063,664.375 163.9063,664.375 Q164.6094,664.375 165.25,664.5313 Q165.9063,664.6875 166.4688,664.9844 L166.4688,667.7031 Q165.8438,667.125 165.25,666.8594 Q164.6563,666.5781 164.0313,666.5781 Q162.6875,666.5781 162,667.6563 Q161.3125,668.7188 161.3125,670.8125 Q161.3125,672.9063 162,673.9844 Q162.6875,675.0469 164.0313,675.0469 Q164.6563,675.0469 165.25,674.7813 Q165.8438,674.5 166.4688,673.9219 L166.4688,676.6406 Z " fill="#000000"/><text fill="#000000" font-family="sans-serif" font-size="12" lengthAdjust="spacing" textLength="33" x="177.5" y="675.1543">Black</text><line style="stroke:#A80036;stroke-width:1.5;" x1="149.5" x2="212.5" y1="687" y2="687"/><line style="stroke:#A80036;stroke-width:1.5;" x1="149.5" x2="212.5" y1="695" y2="695"/><!--MD5=[eb39d952cb9f8a93964759a40c3a7c9a]
reverse link Mastermind to Board--><path codeLine="17" d="M336.1,66.51 C327.2,80.91 317.86,98.17 312,115 C285.54,191.04 279.08,287.46 277.51,330.91 " fill="none" id="Mastermind-backto-Board" style="stroke:#A80036;stroke-width:1.0;"/><polygon fill="#A80036" points="343.39,55.17,336.7819,58.0567,336.9049,65.2667,343.513,62.3801,343.39,55.17" style="stroke:#A80036;stroke-width:1.0;"/><!--MD5=[793a7fc1781f83df3c82d6bfb51bae46]
reverse link Mastermind to Player--><path codeLine="18" d="M385.35,66.44 C394.37,80.72 403.42,97.92 408,115 C417.93,152.02 405.31,196.11 395.21,222.54 " fill="none" id="Mastermind-backto-Player" style="stroke:#A80036;stroke-width:1.0;"/><polygon fill="#A80036" points="377.89,55.2,377.8812,62.4111,384.5342,65.1927,384.543,57.9816,377.89,55.2" style="stroke:#A80036;stroke-width:1.0;"/><text fill="#000000" font-family="sans-serif" font-size="13" lengthAdjust="spacing" textLength="8" x="388.7237" y="211.8328">2</text><!--MD5=[3fe3232f3bdb84703bf2484a8c34bb74]
reverse link Mastermind to Turn--><path codeLine="19" d="M360,68.34 C360,83.68 360,101.1 360,114.68 " fill="none" id="Mastermind-backto-Turn" style="stroke:#A80036;stroke-width:1.0;"/><polygon fill="#A80036" points="360,55,356,61,360,67,364,61,360,55" style="stroke:#A80036;stroke-width:1.0;"/><!--MD5=[c6b41680f949d949cbe7e94f69664b17]
reverse link Turn to Player--><path codeLine="20" d="M368.46,175.87 C372.11,191.33 376.26,208.96 379.5,222.68 " fill="none" id="Turn-backto-Player" style="stroke:#A80036;stroke-width:1.0;"/><polygon fill="#A80036" points="365.42,163,362.9044,169.7581,368.1751,174.6794,370.6907,167.9214,365.42,163" style="stroke:#A80036;stroke-width:1.0;"/><text fill="#000000" font-family="sans-serif" font-size="13" lengthAdjust="spacing" textLength="8" x="369.1844" y="212.007">2</text><!--MD5=[38b091ad0e7663b1475f5ae6aa4e536c]
reverse link Player to BreakerPlayer--><path codeLine="22" d="M393.52,291.02 C396.21,304.58 399.07,319.04 401.38,330.68 " fill="none" id="Player-backto-BreakerPlayer" style="stroke:#A80036;stroke-width:1.0;"/><polygon fill="none" points="386.58,291.98,389.56,271,400.31,289.26,386.58,291.98" style="stroke:#A80036;stroke-width:1.0;"/><!--MD5=[b705679762bcdc77b2fe4a6d7b34f9c2]
reverse link Player to MakerPlayer--><path codeLine="23" d="M331.51,272.44 C293.03,290.02 241.47,313.58 203.66,330.86 " fill="none" id="Player-backto-MakerPlayer" style="stroke:#A80036;stroke-width:1.0;"/><polygon fill="none" points="328.66,266.04,349.76,264.1,334.48,278.78,328.66,266.04" style="stroke:#A80036;stroke-width:1.0;"/><!--MD5=[d9249be97a352e3fe01bfc6aa6a6cdec]
reverse link Combination to Color--><path codeLine="25" d="M578.14,390.01 C588.48,405.89 600.53,424.41 609.82,438.68 " fill="none" id="Combination-backto-Color" style="stroke:#A80036;stroke-width:1.0;"/><polygon fill="#FFFFFF" points="570.97,379,570.8931,386.2107,577.5196,389.055,577.5965,381.8443,570.97,379" style="stroke:#A80036;stroke-width:1.0;"/><text fill="#000000" font-family="sans-serif" font-size="13" lengthAdjust="spacing" textLength="8" x="597.1449" y="428.007">4</text><!--MD5=[2f10888865b2f559cc24db01ac34cee3]
reverse link Combination to ProposedCombination--><path codeLine="26" d="M525.32,395.18 C513.87,409.8 501.24,425.93 491.26,438.68 " fill="none" id="Combination-backto-ProposedCombination" style="stroke:#A80036;stroke-width:1.0;"/><polygon fill="none" points="520.15,390.43,537.99,379,531.17,399.06,520.15,390.43" style="stroke:#A80036;stroke-width:1.0;"/><!--MD5=[ed81d3472c9069d2de3c2f5cd308846f]
reverse link Combination to SecretCombination--><path codeLine="27" d="M482.07,384.09 C437.04,401.2 380.22,422.78 337.82,438.89 " fill="none" id="Combination-backto-SecretCombination" style="stroke:#A80036;stroke-width:1.0;"/><polygon fill="none" points="479.7,377.5,500.88,376.94,484.67,390.59,479.7,377.5" style="stroke:#A80036;stroke-width:1.0;"/><!--MD5=[18b13c26e1d2c193878da5bba7416a2f]
link MakerPlayer to SecretCombination--><path codeLine="29" d="M179.91,379 C199.27,395.55 225.45,417.93 245.74,435.28 " fill="none" id="MakerPlayer-to-SecretCombination" style="stroke:#A80036;stroke-width:1.0;"/><polygon fill="#A80036" points="249.72,438.68,245.4706,429.7951,245.9167,435.4343,240.2774,435.8804,249.72,438.68" style="stroke:#A80036;stroke-width:1.0;"/><!--MD5=[b80df01695e05b8bb04c2472d8ebb237]
link BreakerPlayer to ProposedCombination--><path codeLine="30" d="M420.54,379 C430.83,395.28 444.67,417.19 455.56,434.41 " fill="none" id="BreakerPlayer-to-ProposedCombination" style="stroke:#A80036;stroke-width:1.0;"/><polygon fill="#A80036" points="458.26,438.68,456.8348,428.9348,455.5895,434.4529,450.0714,433.2076,458.26,438.68" style="stroke:#A80036;stroke-width:1.0;"/><text fill="#000000" font-family="sans-serif" font-size="13" lengthAdjust="spacing" textLength="32" x="458.5671" y="428.007">0..10</text><!--MD5=[d79584d24769080fb5f6ee0d7dabf061]
reverse link Board to SecretCombination--><path codeLine="32" d="M277,392.34 C277,407.68 277,425.1 277,438.68 " fill="none" id="Board-backto-SecretCombination" style="stroke:#A80036;stroke-width:1.0;"/><polygon fill="#A80036" points="277,379,273,385,277,391,281,385,277,379" style="stroke:#A80036;stroke-width:1.0;"/><!--MD5=[85b5ad542f0f64533f99924734ff9981]
reverse link Board to ProposedCombination--><path codeLine="33" d="M323.44,381.11 C355.81,398.62 398.67,421.8 430.21,438.86 " fill="none" id="Board-backto-ProposedCombination" style="stroke:#A80036;stroke-width:1.0;"/><polygon fill="#FFFFFF" points="311.59,374.71,314.9627,381.0838,322.1433,380.422,318.7707,374.0482,311.59,374.71" style="stroke:#A80036;stroke-width:1.0;"/><text fill="#000000" font-family="sans-serif" font-size="13" lengthAdjust="spacing" textLength="32" x="383.1451" y="427.8362">0..10</text><!--MD5=[8dd95aff79c51151a18c835e3410b3cd]
link Board to Result--><path codeLine="34" d="M245.32,379 C222.25,395.75 190.97,418.46 166.96,435.89 " fill="none" id="Board-to-Result" style="stroke:#A80036;stroke-width:1.0;"/><polygon fill="#A80036" points="162.87,438.86,172.5052,436.8196,166.9192,435.9268,167.8121,430.3409,162.87,438.86" style="stroke:#A80036;stroke-width:1.0;"/><text fill="#000000" font-family="sans-serif" font-size="13" lengthAdjust="spacing" textLength="32" x="134.9367" y="427.8362">0..10</text><!--MD5=[da9ad8fb5fd564fe8f50205ad94d24cc]
reverse link Result to WinnerResult--><path codeLine="36" d="M157.94,503.66 C167.78,518.15 178.59,534.07 187.16,546.68 " fill="none" id="Result-backto-WinnerResult" style="stroke:#A80036;stroke-width:1.0;"/><polygon fill="none" points="152.07,507.48,146.62,487,163.65,499.61,152.07,507.48" style="stroke:#A80036;stroke-width:1.0;"/><!--MD5=[a7ac14b573b51ac52b64ab7c9a98a373]
link WinnerResult to Black--><path codeLine="37" d="M198.23,595 C195.39,608.66 191.73,626.28 188.52,641.77 " fill="none" id="WinnerResult-to-Black" style="stroke:#A80036;stroke-width:1.0;"/><polygon fill="#A80036" points="185.84,654.68,190.9708,649.613,188.2669,642.928,183.1361,647.995,185.84,654.68" style="stroke:#A80036;stroke-width:1.0;"/><text fill="#000000" font-family="sans-serif" font-size="13" lengthAdjust="spacing" textLength="8" x="178.0448" y="644.007">4</text><!--MD5=[6dc8a986d5911ad40cc7e46bd8e64ccd]
reverse link Result to GoodResult--><path codeLine="39" d="M104.06,503.66 C94.22,518.15 83.41,534.07 74.84,546.68 " fill="none" id="Result-backto-GoodResult" style="stroke:#A80036;stroke-width:1.0;"/><polygon fill="none" points="98.35,499.61,115.38,487,109.93,507.48,98.35,499.61" style="stroke:#A80036;stroke-width:1.0;"/><!--MD5=[0ab997ed8d3849a1072786323b16c725]
reverse link GoodResult to White--><path codeLine="40" d="M59,615.02 C59,628.58 59,643.04 59,654.68 " fill="none" id="GoodResult-backto-White" style="stroke:#A80036;stroke-width:1.0;"/><polygon fill="none" points="52,615,59,595,66,615,52,615" style="stroke:#A80036;stroke-width:1.0;"/><!--MD5=[edfcb74b936aac15599cff4d032367fb]
reverse link GoodResult to Black--><path codeLine="41" d="M100.82,608.34 C118.48,623.68 138.53,641.1 154.16,654.68 " fill="none" id="GoodResult-backto-Black" style="stroke:#A80036;stroke-width:1.0;"/><polygon fill="none" points="95.98,613.4,85.47,595,105.16,602.83,95.98,613.4" style="stroke:#A80036;stroke-width:1.0;"/><!--MD5=[dc1324cba4978b6ab506016644917d9f]
link MakerPlayer to Result--><path codeLine="43" d="M148.23,379 C144.91,395 140.45,416.45 136.91,433.53 " fill="none" id="MakerPlayer-to-Result" style="stroke:#A80036;stroke-width:1.0;"/><polygon fill="#A80036" points="135.84,438.68,141.5813,430.6776,136.8535,433.7838,133.7473,429.056,135.84,438.68" style="stroke:#A80036;stroke-width:1.0;"/><!--MD5=[b014d4eb9ce9ffdedb527ee5000fe7d9]
@startuml
Class Mastermind
Class Turn
Class Player
Class Combination
Class Board
Class MakerPlayer
Class BreakerPlayer
Class Color
Class ProposedCombination
Class SecretCombination
Class Result
Class WinnerResult
Class GoodResult
Class White
Class Black

Mastermind *-d- Board
Mastermind *-d- "2" Player
Mastermind *-d- Turn
Turn *-d- "2" Player

BreakerPlayer -u-|> Player
MakerPlayer -u-|> Player

Color "4" -u-o  Combination
Combination <|-d- ProposedCombination
Combination <|-d- SecretCombination

MakerPlayer -d-> SecretCombination
BreakerPlayer -d-> "0..10" ProposedCombination

Board *-d- SecretCombination
Board o-d- "0..10" ProposedCombination
Board -d-> "0..10" Result

Result <|-d- WinnerResult
Black "4" *-u- WinnerResult

GoodResult -u-|> Result
White -u-|> GoodResult
Black -u-|> GoodResult

MakerPlayer -d-> Result
@enduml

PlantUML version 1.2021.16(Wed Dec 08 17:25:22 UTC 2021)
(GPL source distribution)
Java Runtime: OpenJDK Runtime Environment
JVM: OpenJDK 64-Bit Server VM
Default Encoding: UTF-8
Language: en
Country: null
--></g></svg>