<?xml version="1.0" encoding="UTF-8" standalone="no"?><svg xmlns="http://www.w3.org/2000/svg" xmlns:xlink="http://www.w3.org/1999/xlink" contentScriptType="application/ecmascript" contentStyleType="text/css" height="721px" preserveAspectRatio="none" style="width:538px;height:721px;background:#777777;" version="1.1" viewBox="0 0 538 721" width="538px" zoomAndPan="magnify"><defs><filter height="300%" id="ff25fygv0j51u" width="300%" x="-1" y="-1"><feGaussianBlur result="blurOut" stdDeviation="2.0"/><feColorMatrix in="blurOut" result="blurOut2" type="matrix" values="0 0 0 0 0 0 0 0 0 0 0 0 0 0 0 0 0 0 .4 0"/><feOffset dx="4.0" dy="4.0" in="blurOut2" result="blurOut3"/><feBlend in="SourceGraphic" in2="blurOut3" mode="normal"/></filter></defs><g><text fill="#000000" font-family="sans-serif" font-size="18" lengthAdjust="spacing" textLength="244" x="140.64" y="16.708">CONECTA4 - Class Diagram</text><!--MD5=[098beadbf69e9cfe04b4f8d619d193b2]
class Conecta4--><rect codeLine="6" fill="#2E2E2E" filter="url(#ff25fygv0j51u)" height="42" id="Conecta4" style="stroke:#1B1B1B;stroke-width:1.5;" width="79" x="93.5" y="27.9531"/><ellipse cx="105.5" cy="40.9531" fill="#1A66C2" rx="8" ry="8" style="stroke:#1B1B1B;stroke-width:1.0;"/><path d="M107.625,44.5156 Q107.0469,44.8125 106.4219,44.9531 Q105.8125,45.1094 105.1406,45.1094 Q103.1406,45.1094 101.9688,44 Q100.7969,42.875 100.7969,40.9531 Q100.7969,39.0313 101.9688,37.9063 Q103.1406,36.7813 105.1406,36.7813 Q105.8125,36.7813 106.4219,36.9375 Q107.0469,37.0938 107.625,37.3906 L107.625,39.0469 Q107.0469,38.6563 106.4844,38.4688 Q105.9219,38.2813 105.3125,38.2813 Q104.2031,38.2813 103.5625,39 Q102.9375,39.7031 102.9375,40.9531 Q102.9375,42.1875 103.5625,42.9063 Q104.2031,43.6094 105.3125,43.6094 Q105.9219,43.6094 106.4844,43.4375 Q107.0469,43.25 107.625,42.8594 L107.625,44.5156 Z " fill="#000000"/><text fill="#FFFFFF" font-family="Verdana" font-size="11" lengthAdjust="spacing" textLength="53" x="116.5" y="44.7612">Conecta4</text><line style="stroke:#1B1B1B;stroke-width:1.5;" x1="94.5" x2="171.5" y1="53.9531" y2="53.9531"/><line style="stroke:#1B1B1B;stroke-width:1.5;" x1="94.5" x2="171.5" y1="61.9531" y2="61.9531"/><!--MD5=[2cb47ba637a0d19583e6199456f6ad0b]
class Player--><rect codeLine="7" fill="#2E2E2E" filter="url(#ff25fygv0j51u)" height="42" id="Player" style="stroke:#1B1B1B;stroke-width:1.5;" width="61" x="102.5" y="129.9531"/><ellipse cx="114.5" cy="142.9531" fill="#1A66C2" rx="8" ry="8" style="stroke:#1B1B1B;stroke-width:1.0;"/><path d="M116.625,146.5156 Q116.0469,146.8125 115.4219,146.9531 Q114.8125,147.1094 114.1406,147.1094 Q112.1406,147.1094 110.9688,146 Q109.7969,144.875 109.7969,142.9531 Q109.7969,141.0313 110.9688,139.9063 Q112.1406,138.7813 114.1406,138.7813 Q114.8125,138.7813 115.4219,138.9375 Q116.0469,139.0938 116.625,139.3906 L116.625,141.0469 Q116.0469,140.6563 115.4844,140.4688 Q114.9219,140.2813 114.3125,140.2813 Q113.2031,140.2813 112.5625,141 Q111.9375,141.7031 111.9375,142.9531 Q111.9375,144.1875 112.5625,144.9063 Q113.2031,145.6094 114.3125,145.6094 Q114.9219,145.6094 115.4844,145.4375 Q116.0469,145.25 116.625,144.8594 L116.625,146.5156 Z " fill="#000000"/><text fill="#FFFFFF" font-family="Verdana" font-size="11" lengthAdjust="spacing" textLength="35" x="125.5" y="146.7612">Player</text><line style="stroke:#1B1B1B;stroke-width:1.5;" x1="103.5" x2="162.5" y1="155.9531" y2="155.9531"/><line style="stroke:#1B1B1B;stroke-width:1.5;" x1="103.5" x2="162.5" y1="163.9531" y2="163.9531"/><!--MD5=[dd91eae41778c45e12552e5329e240e8]
class Turn--><rect codeLine="8" fill="#2E2E2E" filter="url(#ff25fygv0j51u)" height="42" id="Turn" style="stroke:#1B1B1B;stroke-width:1.5;" width="52" x="199" y="129.9531"/><ellipse cx="211" cy="142.9531" fill="#A9DCDF" rx="8" ry="8" style="stroke:#1B1B1B;stroke-width:1.0;"/><path d="M212.875,144.7344 L209.6406,144.7344 L209.125,146.2031 L207.0469,146.2031 L210.0313,138.1875 L212.4844,138.1875 L215.4531,146.2031 L213.375,146.2031 L212.875,144.7344 Z M210.1563,143.25 L212.3594,143.25 L211.2656,140.0625 L210.1563,143.25 Z " fill="#000000"/><text fill="#FFFFFF" font-family="Verdana" font-size="11" font-style="italic" lengthAdjust="spacing" textLength="26" x="222" y="146.7612">Turn</text><line style="stroke:#1B1B1B;stroke-width:1.5;" x1="200" x2="250" y1="155.9531" y2="155.9531"/><line style="stroke:#1B1B1B;stroke-width:1.5;" x1="200" x2="250" y1="163.9531" y2="163.9531"/><!--MD5=[0992d3fdc9d3d7c02b735131bb70871d]
class Goal--><rect codeLine="9" fill="#2E2E2E" filter="url(#ff25fygv0j51u)" height="42" id="Goal" style="stroke:#1B1B1B;stroke-width:1.5;" width="52" x="217" y="231.9531"/><ellipse cx="229" cy="244.9531" fill="#A9DCDF" rx="8" ry="8" style="stroke:#1B1B1B;stroke-width:1.0;"/><path d="M230.875,246.7344 L227.6406,246.7344 L227.125,248.2031 L225.0469,248.2031 L228.0313,240.1875 L230.4844,240.1875 L233.4531,248.2031 L231.375,248.2031 L230.875,246.7344 Z M228.1563,245.25 L230.3594,245.25 L229.2656,242.0625 L228.1563,245.25 Z " fill="#000000"/><text fill="#FFFFFF" font-family="Verdana" font-size="11" font-style="italic" lengthAdjust="spacing" textLength="26" x="240" y="248.7612">Goal</text><line style="stroke:#1B1B1B;stroke-width:1.5;" x1="218" x2="268" y1="257.9531" y2="257.9531"/><line style="stroke:#1B1B1B;stroke-width:1.5;" x1="218" x2="268" y1="265.9531" y2="265.9531"/><!--MD5=[9563755d011c5cec7ec66dc53565a59e]
class Board--><rect codeLine="10" fill="#2E2E2E" filter="url(#ff25fygv0j51u)" height="42" id="Board" style="stroke:#1B1B1B;stroke-width:1.5;" width="60" x="7" y="129.9531"/><ellipse cx="19" cy="142.9531" fill="#1A66C2" rx="8" ry="8" style="stroke:#1B1B1B;stroke-width:1.0;"/><path d="M21.125,146.5156 Q20.5469,146.8125 19.9219,146.9531 Q19.3125,147.1094 18.6406,147.1094 Q16.6406,147.1094 15.4688,146 Q14.2969,144.875 14.2969,142.9531 Q14.2969,141.0313 15.4688,139.9063 Q16.6406,138.7813 18.6406,138.7813 Q19.3125,138.7813 19.9219,138.9375 Q20.5469,139.0938 21.125,139.3906 L21.125,141.0469 Q20.5469,140.6563 19.9844,140.4688 Q19.4219,140.2813 18.8125,140.2813 Q17.7031,140.2813 17.0625,141 Q16.4375,141.7031 16.4375,142.9531 Q16.4375,144.1875 17.0625,144.9063 Q17.7031,145.6094 18.8125,145.6094 Q19.4219,145.6094 19.9844,145.4375 Q20.5469,145.25 21.125,144.8594 L21.125,146.5156 Z " fill="#000000"/><text fill="#FFFFFF" font-family="Verdana" font-size="11" lengthAdjust="spacing" textLength="34" x="30" y="146.7612">Board</text><line style="stroke:#1B1B1B;stroke-width:1.5;" x1="8" x2="66" y1="155.9531" y2="155.9531"/><line style="stroke:#1B1B1B;stroke-width:1.5;" x1="8" x2="66" y1="163.9531" y2="163.9531"/><!--MD5=[bc87bf052131b9ca3b54b8ba84b5b110]
class Movement--><rect codeLine="11" fill="#2E2E2E" filter="url(#ff25fygv0j51u)" height="42" id="Movement" style="stroke:#1B1B1B;stroke-width:1.5;" width="84" x="35" y="333.9531"/><ellipse cx="47" cy="346.9531" fill="#1A66C2" rx="8" ry="8" style="stroke:#1B1B1B;stroke-width:1.0;"/><path d="M49.125,350.5156 Q48.5469,350.8125 47.9219,350.9531 Q47.3125,351.1094 46.6406,351.1094 Q44.6406,351.1094 43.4688,350 Q42.2969,348.875 42.2969,346.9531 Q42.2969,345.0313 43.4688,343.9063 Q44.6406,342.7813 46.6406,342.7813 Q47.3125,342.7813 47.9219,342.9375 Q48.5469,343.0938 49.125,343.3906 L49.125,345.0469 Q48.5469,344.6563 47.9844,344.4688 Q47.4219,344.2813 46.8125,344.2813 Q45.7031,344.2813 45.0625,345 Q44.4375,345.7031 44.4375,346.9531 Q44.4375,348.1875 45.0625,348.9063 Q45.7031,349.6094 46.8125,349.6094 Q47.4219,349.6094 47.9844,349.4375 Q48.5469,349.25 49.125,348.8594 L49.125,350.5156 Z " fill="#000000"/><text fill="#FFFFFF" font-family="Verdana" font-size="11" lengthAdjust="spacing" textLength="58" x="58" y="350.7612">Movement</text><line style="stroke:#1B1B1B;stroke-width:1.5;" x1="36" x2="118" y1="359.9531" y2="359.9531"/><line style="stroke:#1B1B1B;stroke-width:1.5;" x1="36" x2="118" y1="367.9531" y2="367.9531"/><!--MD5=[9ddfc9bd1e3a4b04466623ab197feef8]
class Vertical--><rect codeLine="12" fill="#2E2E2E" filter="url(#ff25fygv0j51u)" height="42" id="Vertical" style="stroke:#1B1B1B;stroke-width:1.5;" width="68" x="154" y="333.9531"/><ellipse cx="166" cy="346.9531" fill="#1A66C2" rx="8" ry="8" style="stroke:#1B1B1B;stroke-width:1.0;"/><path d="M168.125,350.5156 Q167.5469,350.8125 166.9219,350.9531 Q166.3125,351.1094 165.6406,351.1094 Q163.6406,351.1094 162.4688,350 Q161.2969,348.875 161.2969,346.9531 Q161.2969,345.0313 162.4688,343.9063 Q163.6406,342.7813 165.6406,342.7813 Q166.3125,342.7813 166.9219,342.9375 Q167.5469,343.0938 168.125,343.3906 L168.125,345.0469 Q167.5469,344.6563 166.9844,344.4688 Q166.4219,344.2813 165.8125,344.2813 Q164.7031,344.2813 164.0625,345 Q163.4375,345.7031 163.4375,346.9531 Q163.4375,348.1875 164.0625,348.9063 Q164.7031,349.6094 165.8125,349.6094 Q166.4219,349.6094 166.9844,349.4375 Q167.5469,349.25 168.125,348.8594 L168.125,350.5156 Z " fill="#000000"/><text fill="#FFFFFF" font-family="Verdana" font-size="11" lengthAdjust="spacing" textLength="42" x="177" y="350.7612">Vertical</text><line style="stroke:#1B1B1B;stroke-width:1.5;" x1="155" x2="221" y1="359.9531" y2="359.9531"/><line style="stroke:#1B1B1B;stroke-width:1.5;" x1="155" x2="221" y1="367.9531" y2="367.9531"/><!--MD5=[2808de09be71fab9caf2df132bae0681]
class Horizontal--><rect codeLine="13" fill="#2E2E2E" filter="url(#ff25fygv0j51u)" height="42" id="Horizontal" style="stroke:#1B1B1B;stroke-width:1.5;" width="82" x="257" y="333.9531"/><ellipse cx="269" cy="346.9531" fill="#1A66C2" rx="8" ry="8" style="stroke:#1B1B1B;stroke-width:1.0;"/><path d="M271.125,350.5156 Q270.5469,350.8125 269.9219,350.9531 Q269.3125,351.1094 268.6406,351.1094 Q266.6406,351.1094 265.4688,350 Q264.2969,348.875 264.2969,346.9531 Q264.2969,345.0313 265.4688,343.9063 Q266.6406,342.7813 268.6406,342.7813 Q269.3125,342.7813 269.9219,342.9375 Q270.5469,343.0938 271.125,343.3906 L271.125,345.0469 Q270.5469,344.6563 269.9844,344.4688 Q269.4219,344.2813 268.8125,344.2813 Q267.7031,344.2813 267.0625,345 Q266.4375,345.7031 266.4375,346.9531 Q266.4375,348.1875 267.0625,348.9063 Q267.7031,349.6094 268.8125,349.6094 Q269.4219,349.6094 269.9844,349.4375 Q270.5469,349.25 271.125,348.8594 L271.125,350.5156 Z " fill="#000000"/><text fill="#FFFFFF" font-family="Verdana" font-size="11" lengthAdjust="spacing" textLength="56" x="280" y="350.7612">Horizontal</text><line style="stroke:#1B1B1B;stroke-width:1.5;" x1="258" x2="338" y1="359.9531" y2="359.9531"/><line style="stroke:#1B1B1B;stroke-width:1.5;" x1="258" x2="338" y1="367.9531" y2="367.9531"/><!--MD5=[a135607b44036ad87f368405615013d9]
class Diagonal--><rect codeLine="14" fill="#2E2E2E" filter="url(#ff25fygv0j51u)" height="42" id="Diagonal" style="stroke:#1B1B1B;stroke-width:1.5;" width="75" x="374.5" y="333.9531"/><ellipse cx="386.5" cy="346.9531" fill="#1A66C2" rx="8" ry="8" style="stroke:#1B1B1B;stroke-width:1.0;"/><path d="M388.625,350.5156 Q388.0469,350.8125 387.4219,350.9531 Q386.8125,351.1094 386.1406,351.1094 Q384.1406,351.1094 382.9688,350 Q381.7969,348.875 381.7969,346.9531 Q381.7969,345.0313 382.9688,343.9063 Q384.1406,342.7813 386.1406,342.7813 Q386.8125,342.7813 387.4219,342.9375 Q388.0469,343.0938 388.625,343.3906 L388.625,345.0469 Q388.0469,344.6563 387.4844,344.4688 Q386.9219,344.2813 386.3125,344.2813 Q385.2031,344.2813 384.5625,345 Q383.9375,345.7031 383.9375,346.9531 Q383.9375,348.1875 384.5625,348.9063 Q385.2031,349.6094 386.3125,349.6094 Q386.9219,349.6094 387.4844,349.4375 Q388.0469,349.25 388.625,348.8594 L388.625,350.5156 Z " fill="#000000"/><text fill="#FFFFFF" font-family="Verdana" font-size="11" lengthAdjust="spacing" textLength="49" x="397.5" y="350.7612">Diagonal</text><line style="stroke:#1B1B1B;stroke-width:1.5;" x1="375.5" x2="448.5" y1="359.9531" y2="359.9531"/><line style="stroke:#1B1B1B;stroke-width:1.5;" x1="375.5" x2="448.5" y1="367.9531" y2="367.9531"/><!--MD5=[f61cd60923250dc151bbd3a2055c850f]
class Hole--><rect codeLine="15" fill="#2E2E2E" filter="url(#ff25fygv0j51u)" height="42" id="Hole" style="stroke:#1B1B1B;stroke-width:1.5;" width="51" x="51.5" y="550.9531"/><ellipse cx="63.5" cy="563.9531" fill="#1A66C2" rx="8" ry="8" style="stroke:#1B1B1B;stroke-width:1.0;"/><path d="M65.625,567.5156 Q65.0469,567.8125 64.4219,567.9531 Q63.8125,568.1094 63.1406,568.1094 Q61.1406,568.1094 59.9688,567 Q58.7969,565.875 58.7969,563.9531 Q58.7969,562.0313 59.9688,560.9063 Q61.1406,559.7813 63.1406,559.7813 Q63.8125,559.7813 64.4219,559.9375 Q65.0469,560.0938 65.625,560.3906 L65.625,562.0469 Q65.0469,561.6563 64.4844,561.4688 Q63.9219,561.2813 63.3125,561.2813 Q62.2031,561.2813 61.5625,562 Q60.9375,562.7031 60.9375,563.9531 Q60.9375,565.1875 61.5625,565.9063 Q62.2031,566.6094 63.3125,566.6094 Q63.9219,566.6094 64.4844,566.4375 Q65.0469,566.25 65.625,565.8594 L65.625,567.5156 Z " fill="#000000"/><text fill="#FFFFFF" font-family="Verdana" font-size="11" lengthAdjust="spacing" textLength="25" x="74.5" y="567.7612">Hole</text><line style="stroke:#1B1B1B;stroke-width:1.5;" x1="52.5" x2="101.5" y1="576.9531" y2="576.9531"/><line style="stroke:#1B1B1B;stroke-width:1.5;" x1="52.5" x2="101.5" y1="584.9531" y2="584.9531"/><!--MD5=[e05bacf3ff4416a0580578814d41bbf6]
class Piece--><rect codeLine="16" fill="#2E2E2E" filter="url(#ff25fygv0j51u)" height="42" id="Piece" style="stroke:#1B1B1B;stroke-width:1.5;" width="56" x="306" y="435.9531"/><ellipse cx="318" cy="448.9531" fill="#1A66C2" rx="8" ry="8" style="stroke:#1B1B1B;stroke-width:1.0;"/><path d="M320.125,452.5156 Q319.5469,452.8125 318.9219,452.9531 Q318.3125,453.1094 317.6406,453.1094 Q315.6406,453.1094 314.4688,452 Q313.2969,450.875 313.2969,448.9531 Q313.2969,447.0313 314.4688,445.9063 Q315.6406,444.7813 317.6406,444.7813 Q318.3125,444.7813 318.9219,444.9375 Q319.5469,445.0938 320.125,445.3906 L320.125,447.0469 Q319.5469,446.6563 318.9844,446.4688 Q318.4219,446.2813 317.8125,446.2813 Q316.7031,446.2813 316.0625,447 Q315.4375,447.7031 315.4375,448.9531 Q315.4375,450.1875 316.0625,450.9063 Q316.7031,451.6094 317.8125,451.6094 Q318.4219,451.6094 318.9844,451.4375 Q319.5469,451.25 320.125,450.8594 L320.125,452.5156 Z " fill="#000000"/><text fill="#FFFFFF" font-family="Verdana" font-size="11" lengthAdjust="spacing" textLength="30" x="329" y="452.7612">Piece</text><line style="stroke:#1B1B1B;stroke-width:1.5;" x1="307" x2="361" y1="461.9531" y2="461.9531"/><line style="stroke:#1B1B1B;stroke-width:1.5;" x1="307" x2="361" y1="469.9531" y2="469.9531"/><!--MD5=[8c7d7abc12e214c3cc12c9ab70edee11]
class Coordinate--><rect codeLine="17" fill="#2E2E2E" filter="url(#ff25fygv0j51u)" height="42" id="Coordinate" style="stroke:#1B1B1B;stroke-width:1.5;" width="88" x="33" y="665.9531"/><ellipse cx="45" cy="678.9531" fill="#1A66C2" rx="8" ry="8" style="stroke:#1B1B1B;stroke-width:1.0;"/><path d="M47.125,682.5156 Q46.5469,682.8125 45.9219,682.9531 Q45.3125,683.1094 44.6406,683.1094 Q42.6406,683.1094 41.4688,682 Q40.2969,680.875 40.2969,678.9531 Q40.2969,677.0313 41.4688,675.9063 Q42.6406,674.7813 44.6406,674.7813 Q45.3125,674.7813 45.9219,674.9375 Q46.5469,675.0938 47.125,675.3906 L47.125,677.0469 Q46.5469,676.6563 45.9844,676.4688 Q45.4219,676.2813 44.8125,676.2813 Q43.7031,676.2813 43.0625,677 Q42.4375,677.7031 42.4375,678.9531 Q42.4375,680.1875 43.0625,680.9063 Q43.7031,681.6094 44.8125,681.6094 Q45.4219,681.6094 45.9844,681.4375 Q46.5469,681.25 47.125,680.8594 L47.125,682.5156 Z " fill="#000000"/><text fill="#FFFFFF" font-family="Verdana" font-size="11" lengthAdjust="spacing" textLength="62" x="56" y="682.7612">Coordinate</text><line style="stroke:#1B1B1B;stroke-width:1.5;" x1="34" x2="120" y1="691.9531" y2="691.9531"/><line style="stroke:#1B1B1B;stroke-width:1.5;" x1="34" x2="120" y1="699.9531" y2="699.9531"/><!--MD5=[18eee71c88ab61f27581b8cbdd3ef5ee]
class Color--><rect codeLine="18" fill="#2E2E2E" filter="url(#ff25fygv0j51u)" height="67.6094" id="Color" style="stroke:#1B1B1B;stroke-width:1.5;" width="56" x="306" y="537.9531"/><ellipse cx="318" cy="550.9531" fill="#EB937F" rx="8" ry="8" style="stroke:#1B1B1B;stroke-width:1.0;"/><path d="M315.0156,546.9375 L320.5938,546.9375 L320.5938,548.5 L317.0781,548.5 L317.0781,549.9844 L320.375,549.9844 L320.375,551.5469 L317.0781,551.5469 L317.0781,553.3906 L320.7031,553.3906 L320.7031,554.9531 L315.0156,554.9531 L315.0156,546.9375 Z " fill="#000000"/><text fill="#FFFFFF" font-family="Verdana" font-size="11" lengthAdjust="spacing" textLength="30" x="329" y="554.7612">Color</text><line style="stroke:#1B1B1B;stroke-width:1.5;" x1="307" x2="361" y1="563.9531" y2="563.9531"/><text fill="#AAAAAA" font-family="sans-serif" font-size="11" lengthAdjust="spacing" textLength="36" x="312" y="578.1636">Yellow</text><text fill="#AAAAAA" font-family="sans-serif" font-size="11" lengthAdjust="spacing" textLength="21" x="312" y="590.9683">Red</text><line style="stroke:#1B1B1B;stroke-width:1.5;" x1="307" x2="361" y1="597.5625" y2="597.5625"/><!--MD5=[d1b33a06e11883aa1e2def855c8d24d4]
link Conecta4 to Turn--><path codeLine="24" d="M159.7418,79.0269 C159.7418,79.0269 185.97,107.5331 197.58,120.1431 " fill="none" id="Conecta4-Turn" style="stroke:#FFFFFF;stroke-width:1.0;"/><polygon fill="#FFFFFF" points="206.41,129.7431,203.2632,120.4105,203.0259,126.0624,197.374,125.825,206.41,129.7431" style="stroke:#FFFFFF;stroke-width:1.0;"/><line style="stroke:#FFFFFF;stroke-width:1.0;" x1="203.0259" x2="197.61" y1="126.0624" y2="120.1831"/><polygon fill="#FFFFFF" points="151.62,70.1931,152.7363,77.3173,159.7418,79.0269,158.6255,71.9028,151.62,70.1931" style="stroke:#FFFFFF;stroke-width:1.0;"/><!--MD5=[e018ed0913258b803264571def57fa62]
link Conecta4 to Board--><path codeLine="25" d="M105.2511,78.8416 C105.2511,78.8416 77.95,107.3031 65.71,120.0531 " fill="none" id="Conecta4-Board" style="stroke:#FFFFFF;stroke-width:1.0;"/><polygon fill="#FFFFFF" points="56.4,129.7431,65.522,126.0297,59.8662,126.1396,59.7563,120.4838,56.4,129.7431" style="stroke:#FFFFFF;stroke-width:1.0;"/><line style="stroke:#FFFFFF;stroke-width:1.0;" x1="59.8662" x2="65.4" y1="126.1396" y2="120.3681"/><polygon fill="#FFFFFF" points="113.57,70.1931,106.5277,71.7444,105.2511,78.8416,112.2934,77.2903,113.57,70.1931" style="stroke:#FFFFFF;stroke-width:1.0;"/><!--MD5=[25c3150e50da74dcc810ca1839027bfc]
link Conecta4 to Player--><path codeLine="26" d="M133,82.1931 C133,82.1931 133,105.9131 133,116.5731 " fill="none" id="Conecta4-Player" style="stroke:#FFFFFF;stroke-width:1.0;"/><polygon fill="#FFFFFF" points="133,129.7431,137,120.7431,133,124.7431,129,120.7431,133,129.7431" style="stroke:#FFFFFF;stroke-width:1.0;"/><line style="stroke:#FFFFFF;stroke-width:1.0;" x1="133" x2="133" y1="124.7431" y2="116.7431"/><polygon fill="#FFFFFF" points="133,70.1931,129,76.1931,133,82.1931,137,76.1931,133,70.1931" style="stroke:#FFFFFF;stroke-width:1.0;"/><text fill="#BBBBBB" font-family="Verdana" font-size="11" lengthAdjust="spacing" textLength="7" x="124.8844" y="119.4086">2</text><!--MD5=[3ada97fffb5bcc4da390db27b64fa26e]
link Player to Piece--><path codeLine="28" d="M163.56,165.0631 C247.5,201.3831 476.67,302.6431 496,333.9531 C531.28,391.1031 424.05,430.8131 367.09,447.3531 " fill="none" id="Player-to-Piece" style="stroke:#FFFFFF;stroke-width:1.0;"/><polygon fill="#FFFFFF" points="362.07,448.7831,371.8226,450.1567,366.8776,447.4095,369.6248,442.4645,362.07,448.7831" style="stroke:#FFFFFF;stroke-width:1.0;"/><text fill="#BBBBBB" font-family="Verdana" font-size="11" lengthAdjust="spacing" textLength="27" x="369.9943" y="444.3691">2x21</text><!--MD5=[f73b2d5a1a61bc04ce3c4d32233c4c8d]
reverse link Player to Turn--><path codeLine="29" d="M168.75,150.9531 C178.7,150.9531 188.65,150.9531 198.59,150.9531 " fill="none" id="Player-backto-Turn" style="stroke:#FFFFFF;stroke-width:1.0;"/><polygon fill="#FFFFFF" points="163.55,150.9531,172.55,154.9531,168.55,150.9531,172.55,146.9531,163.55,150.9531" style="stroke:#FFFFFF;stroke-width:1.0;"/><!--MD5=[1571e4e0b7cdbae74b04c97a95677c54]
link Player to Goal--><path codeLine="30" d="M155.26,172.1931 C173,188.3231 197.89,210.9431 216.63,227.9831 " fill="none" id="Player-to-Goal" style="stroke:#FFFFFF;stroke-width:1.0;"/><polygon fill="#FFFFFF" points="220.77,231.7431,216.7926,222.7331,217.0671,228.3833,211.4169,228.6578,220.77,231.7431" style="stroke:#FFFFFF;stroke-width:1.0;"/><!--MD5=[1e5622e419e61827803d8907ecf40cdc]
link Player to Movement--><path codeLine="31" d="M127.43,172.0631 C117.15,209.1131 95.26,288.0931 84,328.6931 " fill="none" id="Player-to-Movement" style="stroke:#FFFFFF;stroke-width:1.0;stroke-dasharray:7.0,7.0;"/><polygon fill="#FFFFFF" points="82.55,333.9231,88.8001,326.3115,83.8801,329.1033,81.0883,324.1833,82.55,333.9231" style="stroke:#FFFFFF;stroke-width:1.0;"/><text fill="#BBBBBB" font-family="Verdana" font-size="11" lengthAdjust="spacing" textLength="29" x="50.5853" y="323.3132">1..42</text><!--MD5=[1c0f42efa468144b5e315b77cd6e1914]
link Board to Hole--><path codeLine="32" d="M29.4164,183.8517 C29.4164,183.8517 6.86,308.5431 17,375.9531 C25.86,434.8631 48.97,500.5231 63.79,538.6431 " fill="none" id="Board-Hole" style="stroke:#FFFFFF;stroke-width:1.0;"/><polygon fill="#FFFFFF" points="68.64,550.9231,69.0455,541.0826,66.7992,546.2743,61.6075,544.028,68.64,550.9231" style="stroke:#FFFFFF;stroke-width:1.0;"/><line style="stroke:#FFFFFF;stroke-width:1.0;" x1="66.7992" x2="63.86" y1="546.2743" y2="538.8381"/><polygon fill="#FFFFFF" points="32,172.1331,26.802,177.1312,29.4164,183.8517,34.6144,178.8536,32,172.1331" style="stroke:#FFFFFF;stroke-width:1.0;"/><text fill="#BBBBBB" font-family="Verdana" font-size="11" lengthAdjust="spacing" textLength="20" x="42.5583" y="540.3132">6x7</text><!--MD5=[315e95465f4a3d375be890562acf140f]
link Hole to Coordinate--><path codeLine="33" d="M77,605.1531 C77,605.1531 77,638.1831 77,652.8231 " fill="none" id="Hole-Coordinate" style="stroke:#FFFFFF;stroke-width:1.0;"/><polygon fill="#FFFFFF" points="77,665.9231,81,656.9231,77,660.9231,73,656.9231,77,665.9231" style="stroke:#FFFFFF;stroke-width:1.0;"/><line style="stroke:#FFFFFF;stroke-width:1.0;" x1="77" x2="77" y1="660.9231" y2="652.9231"/><polygon fill="#FFFFFF" points="77,593.1531,73,599.1531,77,605.1531,81,599.1531,77,593.1531" style="stroke:#FFFFFF;stroke-width:1.0;"/><!--MD5=[3e26d6834a71a9527f7b0beabb13c375]
reverse link Goal to Vertical--><path codeLine="34" d="M222.23,291.7131 C214.38,305.9931 205.75,321.6931 199.11,333.7431 " fill="none" id="Goal-backto-Vertical" style="stroke:#FFFFFF;stroke-width:1.0;"/><polygon fill="none" points="216.1,288.3431,231.87,274.1931,228.37,295.0831,216.1,288.3431" style="stroke:#FFFFFF;stroke-width:1.0;"/><!--MD5=[9c078bc154f9dba995e32f4ec3d43872]
reverse link Goal to Horizontal--><path codeLine="35" d="M263.77,291.7131 C271.62,305.9931 280.25,321.6931 286.89,333.7431 " fill="none" id="Goal-backto-Horizontal" style="stroke:#FFFFFF;stroke-width:1.0;"/><polygon fill="none" points="257.63,295.0831,254.13,274.1931,269.9,288.3431,257.63,295.0831" style="stroke:#FFFFFF;stroke-width:1.0;"/><!--MD5=[5a16bdf27515cf253385e973d6fbc781]
reverse link Goal to Diagonal--><path codeLine="36" d="M286.39,279.6231 C314.9,296.5031 351.67,318.2531 378.05,333.8631 " fill="none" id="Goal-backto-Diagonal" style="stroke:#FFFFFF;stroke-width:1.0;"/><polygon fill="none" points="282.68,285.5731,269.04,269.3631,289.81,273.5231,282.68,285.5731" style="stroke:#FFFFFF;stroke-width:1.0;"/><!--MD5=[6bdcbefd6fc954f1dd07b7047369783b]
reverse link Board to Player--><path codeLine="38" d="M72.24,150.9531 C82.27,150.9531 92.29,150.9531 102.32,150.9531 " fill="none" id="Board-backto-Player" style="stroke:#FFFFFF;stroke-width:1.0;"/><polygon fill="#FFFFFF" points="67,150.9531,76,154.9531,72,150.9531,76,146.9531,67,150.9531" style="stroke:#FFFFFF;stroke-width:1.0;"/><!--MD5=[2f378bb2f56593d68624f1790be1dbac]
link Piece to Color--><path codeLine="40" d="M334,478.1531 C334,493.2431 334,514.3131 334,532.5731 " fill="none" id="Piece-to-Color" style="stroke:#FFFFFF;stroke-width:1.0;"/><polygon fill="#FFFFFF" points="334,537.6331,338,528.6331,334,532.6331,330,528.6331,334,537.6331" style="stroke:#FFFFFF;stroke-width:1.0;"/><!--MD5=[5409cfb9ef738458e1953dbab7ffe2da]
link Movement to Piece--><path codeLine="42" d="M119.15,372.3531 C169.99,392.1331 254.38,424.9731 300.82,443.0431 " fill="none" id="Movement-to-Piece" style="stroke:#FFFFFF;stroke-width:1.0;stroke-dasharray:7.0,7.0;"/><polygon fill="#FFFFFF" points="305.75,444.9631,298.8159,437.969,301.0911,443.1481,295.9119,445.4233,305.75,444.9631" style="stroke:#FFFFFF;stroke-width:1.0;"/><!--MD5=[88218256c7b0eb5bcc1489b9f2d75fe9]
link Piece to Hole--><path codeLine="43" d="M293.44,475.7831 C244.29,497.3931 113.5263,554.896 113.5263,554.896 " fill="none" id="Piece-Hole" style="stroke:#FFFFFF;stroke-width:1.0;"/><polygon fill="none" points="102.54,559.7231,109.6422,560.9717,113.5263,554.896,106.4241,553.6475,102.54,559.7231" style="stroke:#FFFFFF;stroke-width:1.0;"/><polygon fill="#FFFFFF" points="305.51,470.4731,295.6612,470.4413,300.9344,472.489,298.8866,477.7622,305.51,470.4731" style="stroke:#FFFFFF;stroke-width:1.0;"/><line style="stroke:#FFFFFF;stroke-width:1.0;" x1="300.9344" x2="293.615" y1="472.489" y2="475.7081"/><text fill="#BBBBBB" font-family="Verdana" font-size="11" lengthAdjust="spacing" textLength="22" x="275.9822" y="470.1938">0..1</text><!--MD5=[2c51a97d0e9eae92451b06f90d6c7e25]
link Piece to Goal--><path codeLine="44" d="M362.04,445.8131 C410.47,426.7031 501.47,382.8731 467,333.9531 C422.73,271.1331 324.44,257.3731 274.07,254.5431 " fill="none" id="Piece-to-Goal" style="stroke:#FFFFFF;stroke-width:1.0;"/><polygon fill="#FFFFFF" points="269.06,254.2831,277.842,258.7414,274.0534,254.5407,278.2541,250.752,269.06,254.2831" style="stroke:#FFFFFF;stroke-width:1.0;"/><!--MD5=[6f0e35d630b37a2b252a80596e3d8aa4]
link Goal to Movement--><path codeLine="46" d="M206.4252,276.0023 C206.4252,276.0023 147.76,311.3231 121.51,327.1431 " fill="none" id="Goal-Movement" style="stroke:#FFFFFF;stroke-width:1.0;"/><polygon fill="#FFFFFF" points="110.34,333.8731,120.1143,332.6634,114.625,331.2966,115.9919,325.8074,110.34,333.8731" style="stroke:#FFFFFF;stroke-width:1.0;"/><line style="stroke:#FFFFFF;stroke-width:1.0;" x1="114.625" x2="121.475" y1="331.2966" y2="327.1631"/><polygon fill="none" points="216.7,269.8031,209.4962,269.4778,206.4252,276.0023,213.629,276.3276,216.7,269.8031" style="stroke:#FFFFFF;stroke-width:1.0;"/><!--MD5=[d163195dc91874c4fb7ca691590e6328]
link Movement to Hole--><path codeLine="47" d="M77,376.1831 C77,415.6531 77,502.8631 77,545.9131 " fill="none" id="Movement-to-Hole" style="stroke:#FFFFFF;stroke-width:1.0;"/><polygon fill="#FFFFFF" points="77,550.9331,81,541.9331,77,545.9331,73,541.9331,77,550.9331" style="stroke:#FFFFFF;stroke-width:1.0;"/><!--MD5=[64c6091d3c5ffd584cb9d7852426205a]
@startuml
!define DARKBLUE
!includeurl https://raw.githubusercontent.com/Drakemor/RedDress-PlantUML/master/style.puml

title CONECTA4 - Class Diagram

class Conecta4
class Player
abstract class Turn
abstract class Goal
class Board
class Movement
class Vertical
class Horizontal
class Diagonal
class Hole
class Piece
class Coordinate
enum Color {
Yellow
Red
}


Conecta4 *- ->Turn
Conecta4 *- ->Board
Conecta4 *- ->"2" Player

Player - ->"2x21" Piece
Player <-r- Turn
Player - -> Goal
Player ..>"1..42" Movement
Board *- ->"6x7" Hole
Hole *- -> Coordinate
Goal <|-d-Vertical
Goal<|-d-Horizontal
Goal<|-d-Diagonal

Player -l->Board

Piece - -> Color

Movement .d.>Piece
Piece "0..1"<- -o Hole
Piece - ->Goal

Goal o- -> Movement
Movement-d->Hole
@enduml

@startuml



skinparam backgroundColor 777
skinparam stereotypeCBackgroundColor 1a66c2









skinparam backgroundColor 777







skinparam circledCharacter {
  radius 8
  fontSize 11
  fontName Verdana
}

skinparam class {
    backgroundColor 2e2e2e
  borderColor 1b1b1b
    fontColor fff
  fontName Verdana
  fontSize 11
  stereotypeFontColor aaa
  stereotypeFontSize 11
    arrowColor fff
  arrowFontName Verdana
  arrowFontColor bbb
  arrowFontSize 11

  attributeFontColor aaa
  attributeFontSize 11
  attributeIconSize 11
}


skinparam actor {
    backgroundColor 1a66c2
  borderColor 002642
    fontColor fff
  fontName Verdana
  fontSize 11
  stereotypeFontColor aaa
  stereotypeFontSize 11
}

skinparam participant {
    backgroundColor 2e2e2e
  borderColor 1b1b1b
    fontColor fff
  fontName Verdana
  fontSize 11
  stereotypeFontColor aaa
  stereotypeFontSize 11
}

skinparam collections {
    backgroundColor 2e2e2e
  borderColor 1b1b1b
    fontColor fff
  fontName Verdana
  fontSize 11
  stereotypeFontColor aaa
  stereotypeFontSize 11
}

skinparam SequenceBox{
    backgroundColor 575757
  borderColor 767676
    fontColor fff
  fontName Verdana
  fontSize 11
  stereotypeFontColor aaa
  stereotypeFontSize 11
}


skinparam interface {
    backgroundColor 1a66c2
  borderColor 002642
    fontColor fff
  fontName Verdana
  fontSize 11
  stereotypeFontColor aaa
  stereotypeFontSize 11
}

skinparam component {
    backgroundColor 2e2e2e
  borderColor 1b1b1b
    fontColor fff
  fontName Verdana
  fontSize 11
  stereotypeFontColor aaa
  stereotypeFontSize 11
}

skinparam node {
    backgroundColor 2e2e2e
  borderColor 1b1b1b
    fontColor fff
  fontName Verdana
  fontSize 11
  stereotypeFontColor aaa
  stereotypeFontSize 11
}

skinparam database {
    backgroundColor 2e2e2e
  borderColor 1b1b1b
    fontColor fff
  fontName Verdana
  fontSize 11
  stereotypeFontColor aaa
  stereotypeFontSize 11
}

skinparam queue {
    backgroundColor 2e2e2e
  borderColor 1b1b1b
    fontColor fff
  fontName Verdana
  fontSize 11
  stereotypeFontColor aaa
  stereotypeFontSize 11
}


skinparam usecase {
    backgroundColor 2e2e2e
  borderColor 1b1b1b
    fontColor fff
  fontName Verdana
  fontSize 11
  stereotypeFontColor aaa
  stereotypeFontSize 11
    arrowColor fff
  arrowFontName Verdana
  arrowFontColor bbb
  arrowFontSize 11
}

skinparam activity {
    backgroundColor 2e2e2e
  borderColor 1b1b1b
    fontColor fff
  fontName Verdana
  fontSize 11
  stereotypeFontColor aaa
  stereotypeFontSize 11
    arrowColor fff
  arrowFontName Verdana
  arrowFontColor bbb
  arrowFontSize 11
}

skinparam sequence {
    fontColor fff
  fontName Verdana
  fontSize 11
  stereotypeFontColor aaa
  stereotypeFontSize 11
    arrowColor fff
  arrowFontName Verdana
  arrowFontColor bbb
  arrowFontSize 11

  lifeLineBorderColor 1a66c2
  lifeLineBackgroundColor 575757
}

skinparam boundary {
    backgroundColor 1a66c2
  borderColor 002642
    fontColor fff
  fontName Verdana
  fontSize 11
  stereotypeFontColor aaa
  stereotypeFontSize 11
}

skinparam control {
    backgroundColor 1a66c2
  borderColor 002642
    fontColor fff
  fontName Verdana
  fontSize 11
  stereotypeFontColor aaa
  stereotypeFontSize 11
}

skinparam entity {
    backgroundColor 1a66c2
  borderColor 002642
    fontColor fff
  fontName Verdana
  fontSize 11
  stereotypeFontColor aaa
  stereotypeFontSize 11
}


skinparam state {
    backgroundColor 2e2e2e
  borderColor 1b1b1b
    fontColor fff
  fontName Verdana
  fontSize 11
  stereotypeFontColor aaa
  stereotypeFontSize 11
    arrowColor fff
  arrowFontName Verdana
  arrowFontColor bbb
  arrowFontSize 11
  startColor 1a66c2
  endColor 002642
}


skinparam object {
    backgroundColor 2e2e2e
  borderColor 1b1b1b
    fontColor fff
  fontName Verdana
  fontSize 11
  stereotypeFontColor aaa
  stereotypeFontSize 11
    arrowColor fff
  arrowFontName Verdana
  arrowFontColor bbb
  arrowFontSize 11
}


skinparam note {
    backgroundColor 1a66c2
  borderColor 002642
    fontColor fff
  fontName Verdana
  fontSize 11
  stereotypeFontColor aaa
  stereotypeFontSize 11
}

skinparam cloud {
    backgroundColor 2e2e2e
  borderColor 1b1b1b
    fontColor fff
  fontName Verdana
  fontSize 11
  stereotypeFontColor aaa
  stereotypeFontSize 11
    arrowColor fff
  arrowFontName Verdana
  arrowFontColor bbb
  arrowFontSize 11
}

skinparam rectangle {
    backgroundColor 2e2e2e
  borderColor 1b1b1b
    fontColor fff
  fontName Verdana
  fontSize 11
  stereotypeFontColor aaa
  stereotypeFontSize 11
}

skinparam storage {
    backgroundColor 2e2e2e
  borderColor 1b1b1b
    fontColor fff
  fontName Verdana
  fontSize 11
  stereotypeFontColor aaa
  stereotypeFontSize 11
}


title CONECTA4 - Class Diagram

class Conecta4
class Player
abstract class Turn
abstract class Goal
class Board
class Movement
class Vertical
class Horizontal
class Diagonal
class Hole
class Piece
class Coordinate
enum Color {
Yellow
Red
}


Conecta4 *- ->Turn
Conecta4 *- ->Board
Conecta4 *- ->"2" Player

Player - ->"2x21" Piece
Player <-r- Turn
Player - -> Goal
Player ..>"1..42" Movement
Board *- ->"6x7" Hole
Hole *- -> Coordinate
Goal <|-d-Vertical
Goal<|-d-Horizontal
Goal<|-d-Diagonal

Player -l->Board

Piece - -> Color

Movement .d.>Piece
Piece "0..1"<- -o Hole
Piece - ->Goal

Goal o- -> Movement
Movement-d->Hole
@enduml

PlantUML version 1.2022.1(Tue Feb 01 18:19:58 UTC 2022)
(GPL source distribution)
Java Runtime: OpenJDK Runtime Environment
JVM: OpenJDK 64-Bit Server VM
Default Encoding: UTF-8
Language: en
Country: null
--></g></svg>