<?xml version="1.0" encoding="UTF-8" standalone="no"?><svg xmlns="http://www.w3.org/2000/svg" xmlns:xlink="http://www.w3.org/1999/xlink" contentScriptType="application/ecmascript" contentStyleType="text/css" height="593px" preserveAspectRatio="none" style="width:595px;height:593px;background:#777777;" version="1.1" viewBox="0 0 595 593" width="595px" zoomAndPan="magnify"><defs><filter height="300%" id="fex7fmmzkswfv" width="300%" x="-1" y="-1"><feGaussianBlur result="blurOut" stdDeviation="2.0"/><feColorMatrix in="blurOut" result="blurOut2" type="matrix" values="0 0 0 0 0 0 0 0 0 0 0 0 0 0 0 0 0 0 .4 0"/><feOffset dx="4.0" dy="4.0" in="blurOut2" result="blurOut3"/><feBlend in="SourceGraphic" in2="blurOut3" mode="normal"/></filter></defs><g><text fill="#000000" font-family="sans-serif" font-size="18" lengthAdjust="spacing" textLength="227" x="177.5" y="16.708">Conecta4 - Class Diagram</text><!--MD5=[098beadbf69e9cfe04b4f8d619d193b2]
class Conecta4--><rect codeLine="7" fill="#2E2E2E" filter="url(#fex7fmmzkswfv)" height="42" id="Conecta4" style="stroke:#1B1B1B;stroke-width:1.5;" width="79" x="344.5" y="27.9531"/><ellipse cx="356.5" cy="40.9531" fill="#880000" rx="8" ry="8" style="stroke:#1B1B1B;stroke-width:1.0;"/><path d="M358.625,44.5156 Q358.0469,44.8125 357.4219,44.9531 Q356.8125,45.1094 356.1406,45.1094 Q354.1406,45.1094 352.9688,44 Q351.7969,42.875 351.7969,40.9531 Q351.7969,39.0313 352.9688,37.9063 Q354.1406,36.7813 356.1406,36.7813 Q356.8125,36.7813 357.4219,36.9375 Q358.0469,37.0938 358.625,37.3906 L358.625,39.0469 Q358.0469,38.6563 357.4844,38.4688 Q356.9219,38.2813 356.3125,38.2813 Q355.2031,38.2813 354.5625,39 Q353.9375,39.7031 353.9375,40.9531 Q353.9375,42.1875 354.5625,42.9063 Q355.2031,43.6094 356.3125,43.6094 Q356.9219,43.6094 357.4844,43.4375 Q358.0469,43.25 358.625,42.8594 L358.625,44.5156 Z " fill="#000000"/><text fill="#FFFFFF" font-family="Verdana" font-size="11" lengthAdjust="spacing" textLength="53" x="367.5" y="44.7612">Conecta4</text><line style="stroke:#1B1B1B;stroke-width:1.5;" x1="345.5" x2="422.5" y1="53.9531" y2="53.9531"/><line style="stroke:#1B1B1B;stroke-width:1.5;" x1="345.5" x2="422.5" y1="61.9531" y2="61.9531"/><!--MD5=[1f24f7b92150e3316908f7910ce81742]
class Grid--><rect codeLine="8" fill="#2E2E2E" filter="url(#fex7fmmzkswfv)" height="42" id="Grid" style="stroke:#1B1B1B;stroke-width:1.5;" width="50" x="528" y="231.9531"/><ellipse cx="540" cy="244.9531" fill="#880000" rx="8" ry="8" style="stroke:#1B1B1B;stroke-width:1.0;"/><path d="M542.125,248.5156 Q541.5469,248.8125 540.9219,248.9531 Q540.3125,249.1094 539.6406,249.1094 Q537.6406,249.1094 536.4688,248 Q535.2969,246.875 535.2969,244.9531 Q535.2969,243.0313 536.4688,241.9063 Q537.6406,240.7813 539.6406,240.7813 Q540.3125,240.7813 540.9219,240.9375 Q541.5469,241.0938 542.125,241.3906 L542.125,243.0469 Q541.5469,242.6563 540.9844,242.4688 Q540.4219,242.2813 539.8125,242.2813 Q538.7031,242.2813 538.0625,243 Q537.4375,243.7031 537.4375,244.9531 Q537.4375,246.1875 538.0625,246.9063 Q538.7031,247.6094 539.8125,247.6094 Q540.4219,247.6094 540.9844,247.4375 Q541.5469,247.25 542.125,246.8594 L542.125,248.5156 Z " fill="#000000"/><text fill="#FFFFFF" font-family="Verdana" font-size="11" lengthAdjust="spacing" textLength="24" x="551" y="248.7612">Grid</text><line style="stroke:#1B1B1B;stroke-width:1.5;" x1="529" x2="577" y1="257.9531" y2="257.9531"/><line style="stroke:#1B1B1B;stroke-width:1.5;" x1="529" x2="577" y1="265.9531" y2="265.9531"/><!--MD5=[2cb47ba637a0d19583e6199456f6ad0b]
class Player--><rect codeLine="9" fill="#2E2E2E" filter="url(#fex7fmmzkswfv)" height="42" id="Player" style="stroke:#1B1B1B;stroke-width:1.5;" width="61" x="353.5" y="129.9531"/><ellipse cx="365.5" cy="142.9531" fill="#880000" rx="8" ry="8" style="stroke:#1B1B1B;stroke-width:1.0;"/><path d="M367.625,146.5156 Q367.0469,146.8125 366.4219,146.9531 Q365.8125,147.1094 365.1406,147.1094 Q363.1406,147.1094 361.9688,146 Q360.7969,144.875 360.7969,142.9531 Q360.7969,141.0313 361.9688,139.9063 Q363.1406,138.7813 365.1406,138.7813 Q365.8125,138.7813 366.4219,138.9375 Q367.0469,139.0938 367.625,139.3906 L367.625,141.0469 Q367.0469,140.6563 366.4844,140.4688 Q365.9219,140.2813 365.3125,140.2813 Q364.2031,140.2813 363.5625,141 Q362.9375,141.7031 362.9375,142.9531 Q362.9375,144.1875 363.5625,144.9063 Q364.2031,145.6094 365.3125,145.6094 Q365.9219,145.6094 366.4844,145.4375 Q367.0469,145.25 367.625,144.8594 L367.625,146.5156 Z " fill="#000000"/><text fill="#FFFFFF" font-family="Verdana" font-size="11" lengthAdjust="spacing" textLength="35" x="376.5" y="146.7612">Player</text><line style="stroke:#1B1B1B;stroke-width:1.5;" x1="354.5" x2="413.5" y1="155.9531" y2="155.9531"/><line style="stroke:#1B1B1B;stroke-width:1.5;" x1="354.5" x2="413.5" y1="163.9531" y2="163.9531"/><!--MD5=[dd91eae41778c45e12552e5329e240e8]
class Turn--><rect codeLine="10" fill="#2E2E2E" filter="url(#fex7fmmzkswfv)" height="42" id="Turn" style="stroke:#1B1B1B;stroke-width:1.5;" width="52" x="266" y="129.9531"/><ellipse cx="278" cy="142.9531" fill="#880000" rx="8" ry="8" style="stroke:#1B1B1B;stroke-width:1.0;"/><path d="M280.125,146.5156 Q279.5469,146.8125 278.9219,146.9531 Q278.3125,147.1094 277.6406,147.1094 Q275.6406,147.1094 274.4688,146 Q273.2969,144.875 273.2969,142.9531 Q273.2969,141.0313 274.4688,139.9063 Q275.6406,138.7813 277.6406,138.7813 Q278.3125,138.7813 278.9219,138.9375 Q279.5469,139.0938 280.125,139.3906 L280.125,141.0469 Q279.5469,140.6563 278.9844,140.4688 Q278.4219,140.2813 277.8125,140.2813 Q276.7031,140.2813 276.0625,141 Q275.4375,141.7031 275.4375,142.9531 Q275.4375,144.1875 276.0625,144.9063 Q276.7031,145.6094 277.8125,145.6094 Q278.4219,145.6094 278.9844,145.4375 Q279.5469,145.25 280.125,144.8594 L280.125,146.5156 Z " fill="#000000"/><text fill="#FFFFFF" font-family="Verdana" font-size="11" lengthAdjust="spacing" textLength="26" x="289" y="146.7612">Turn</text><line style="stroke:#1B1B1B;stroke-width:1.5;" x1="267" x2="317" y1="155.9531" y2="155.9531"/><line style="stroke:#1B1B1B;stroke-width:1.5;" x1="267" x2="317" y1="163.9531" y2="163.9531"/><!--MD5=[7a4037d31e56bba5d295acfbed0b3608]
class 4inLine--><rect codeLine="11" fill="#2E2E2E" filter="url(#fex7fmmzkswfv)" height="42" id="4inLine" style="stroke:#1B1B1B;stroke-width:1.5;" width="66" x="232" y="231.9531"/><ellipse cx="244" cy="244.9531" fill="#880000" rx="8" ry="8" style="stroke:#1B1B1B;stroke-width:1.0;"/><path d="M246.125,248.5156 Q245.5469,248.8125 244.9219,248.9531 Q244.3125,249.1094 243.6406,249.1094 Q241.6406,249.1094 240.4688,248 Q239.2969,246.875 239.2969,244.9531 Q239.2969,243.0313 240.4688,241.9063 Q241.6406,240.7813 243.6406,240.7813 Q244.3125,240.7813 244.9219,240.9375 Q245.5469,241.0938 246.125,241.3906 L246.125,243.0469 Q245.5469,242.6563 244.9844,242.4688 Q244.4219,242.2813 243.8125,242.2813 Q242.7031,242.2813 242.0625,243 Q241.4375,243.7031 241.4375,244.9531 Q241.4375,246.1875 242.0625,246.9063 Q242.7031,247.6094 243.8125,247.6094 Q244.4219,247.6094 244.9844,247.4375 Q245.5469,247.25 246.125,246.8594 L246.125,248.5156 Z " fill="#000000"/><text fill="#FFFFFF" font-family="Verdana" font-size="11" lengthAdjust="spacing" textLength="40" x="255" y="248.7612">4inLine</text><line style="stroke:#1B1B1B;stroke-width:1.5;" x1="233" x2="297" y1="257.9531" y2="257.9531"/><line style="stroke:#1B1B1B;stroke-width:1.5;" x1="233" x2="297" y1="265.9531" y2="265.9531"/><!--MD5=[bc87bf052131b9ca3b54b8ba84b5b110]
class Movement--><rect codeLine="12" fill="#2E2E2E" filter="url(#fex7fmmzkswfv)" height="42" id="Movement" style="stroke:#1B1B1B;stroke-width:1.5;" width="84" x="409" y="231.9531"/><ellipse cx="421" cy="244.9531" fill="#880000" rx="8" ry="8" style="stroke:#1B1B1B;stroke-width:1.0;"/><path d="M423.125,248.5156 Q422.5469,248.8125 421.9219,248.9531 Q421.3125,249.1094 420.6406,249.1094 Q418.6406,249.1094 417.4688,248 Q416.2969,246.875 416.2969,244.9531 Q416.2969,243.0313 417.4688,241.9063 Q418.6406,240.7813 420.6406,240.7813 Q421.3125,240.7813 421.9219,240.9375 Q422.5469,241.0938 423.125,241.3906 L423.125,243.0469 Q422.5469,242.6563 421.9844,242.4688 Q421.4219,242.2813 420.8125,242.2813 Q419.7031,242.2813 419.0625,243 Q418.4375,243.7031 418.4375,244.9531 Q418.4375,246.1875 419.0625,246.9063 Q419.7031,247.6094 420.8125,247.6094 Q421.4219,247.6094 421.9844,247.4375 Q422.5469,247.25 423.125,246.8594 L423.125,248.5156 Z " fill="#000000"/><text fill="#FFFFFF" font-family="Verdana" font-size="11" lengthAdjust="spacing" textLength="58" x="432" y="248.7612">Movement</text><line style="stroke:#1B1B1B;stroke-width:1.5;" x1="410" x2="492" y1="257.9531" y2="257.9531"/><line style="stroke:#1B1B1B;stroke-width:1.5;" x1="410" x2="492" y1="265.9531" y2="265.9531"/><!--MD5=[2808de09be71fab9caf2df132bae0681]
class Horizontal--><rect codeLine="13" fill="#2E2E2E" filter="url(#fex7fmmzkswfv)" height="42" id="Horizontal" style="stroke:#1B1B1B;stroke-width:1.5;" width="82" x="7" y="333.9531"/><ellipse cx="19" cy="346.9531" fill="#880000" rx="8" ry="8" style="stroke:#1B1B1B;stroke-width:1.0;"/><path d="M21.125,350.5156 Q20.5469,350.8125 19.9219,350.9531 Q19.3125,351.1094 18.6406,351.1094 Q16.6406,351.1094 15.4688,350 Q14.2969,348.875 14.2969,346.9531 Q14.2969,345.0313 15.4688,343.9063 Q16.6406,342.7813 18.6406,342.7813 Q19.3125,342.7813 19.9219,342.9375 Q20.5469,343.0938 21.125,343.3906 L21.125,345.0469 Q20.5469,344.6563 19.9844,344.4688 Q19.4219,344.2813 18.8125,344.2813 Q17.7031,344.2813 17.0625,345 Q16.4375,345.7031 16.4375,346.9531 Q16.4375,348.1875 17.0625,348.9063 Q17.7031,349.6094 18.8125,349.6094 Q19.4219,349.6094 19.9844,349.4375 Q20.5469,349.25 21.125,348.8594 L21.125,350.5156 Z " fill="#000000"/><text fill="#FFFFFF" font-family="Verdana" font-size="11" lengthAdjust="spacing" textLength="56" x="30" y="350.7612">Horizontal</text><line style="stroke:#1B1B1B;stroke-width:1.5;" x1="8" x2="88" y1="359.9531" y2="359.9531"/><line style="stroke:#1B1B1B;stroke-width:1.5;" x1="8" x2="88" y1="367.9531" y2="367.9531"/><!--MD5=[9ddfc9bd1e3a4b04466623ab197feef8]
class Vertical--><rect codeLine="14" fill="#2E2E2E" filter="url(#fex7fmmzkswfv)" height="42" id="Vertical" style="stroke:#1B1B1B;stroke-width:1.5;" width="68" x="124" y="333.9531"/><ellipse cx="136" cy="346.9531" fill="#880000" rx="8" ry="8" style="stroke:#1B1B1B;stroke-width:1.0;"/><path d="M138.125,350.5156 Q137.5469,350.8125 136.9219,350.9531 Q136.3125,351.1094 135.6406,351.1094 Q133.6406,351.1094 132.4688,350 Q131.2969,348.875 131.2969,346.9531 Q131.2969,345.0313 132.4688,343.9063 Q133.6406,342.7813 135.6406,342.7813 Q136.3125,342.7813 136.9219,342.9375 Q137.5469,343.0938 138.125,343.3906 L138.125,345.0469 Q137.5469,344.6563 136.9844,344.4688 Q136.4219,344.2813 135.8125,344.2813 Q134.7031,344.2813 134.0625,345 Q133.4375,345.7031 133.4375,346.9531 Q133.4375,348.1875 134.0625,348.9063 Q134.7031,349.6094 135.8125,349.6094 Q136.4219,349.6094 136.9844,349.4375 Q137.5469,349.25 138.125,348.8594 L138.125,350.5156 Z " fill="#000000"/><text fill="#FFFFFF" font-family="Verdana" font-size="11" lengthAdjust="spacing" textLength="42" x="147" y="350.7612">Vertical</text><line style="stroke:#1B1B1B;stroke-width:1.5;" x1="125" x2="191" y1="359.9531" y2="359.9531"/><line style="stroke:#1B1B1B;stroke-width:1.5;" x1="125" x2="191" y1="367.9531" y2="367.9531"/><!--MD5=[a135607b44036ad87f368405615013d9]
class Diagonal--><rect codeLine="15" fill="#2E2E2E" filter="url(#fex7fmmzkswfv)" height="42" id="Diagonal" style="stroke:#1B1B1B;stroke-width:1.5;" width="75" x="227.5" y="333.9531"/><ellipse cx="239.5" cy="346.9531" fill="#880000" rx="8" ry="8" style="stroke:#1B1B1B;stroke-width:1.0;"/><path d="M241.625,350.5156 Q241.0469,350.8125 240.4219,350.9531 Q239.8125,351.1094 239.1406,351.1094 Q237.1406,351.1094 235.9688,350 Q234.7969,348.875 234.7969,346.9531 Q234.7969,345.0313 235.9688,343.9063 Q237.1406,342.7813 239.1406,342.7813 Q239.8125,342.7813 240.4219,342.9375 Q241.0469,343.0938 241.625,343.3906 L241.625,345.0469 Q241.0469,344.6563 240.4844,344.4688 Q239.9219,344.2813 239.3125,344.2813 Q238.2031,344.2813 237.5625,345 Q236.9375,345.7031 236.9375,346.9531 Q236.9375,348.1875 237.5625,348.9063 Q238.2031,349.6094 239.3125,349.6094 Q239.9219,349.6094 240.4844,349.4375 Q241.0469,349.25 241.625,348.8594 L241.625,350.5156 Z " fill="#000000"/><text fill="#FFFFFF" font-family="Verdana" font-size="11" lengthAdjust="spacing" textLength="49" x="250.5" y="350.7612">Diagonal</text><line style="stroke:#1B1B1B;stroke-width:1.5;" x1="228.5" x2="301.5" y1="359.9531" y2="359.9531"/><line style="stroke:#1B1B1B;stroke-width:1.5;" x1="228.5" x2="301.5" y1="367.9531" y2="367.9531"/><!--MD5=[e05bacf3ff4416a0580578814d41bbf6]
class Piece--><rect codeLine="16" fill="#2E2E2E" filter="url(#fex7fmmzkswfv)" height="42" id="Piece" style="stroke:#1B1B1B;stroke-width:1.5;" width="56" x="402" y="435.9531"/><ellipse cx="414" cy="448.9531" fill="#880000" rx="8" ry="8" style="stroke:#1B1B1B;stroke-width:1.0;"/><path d="M416.125,452.5156 Q415.5469,452.8125 414.9219,452.9531 Q414.3125,453.1094 413.6406,453.1094 Q411.6406,453.1094 410.4688,452 Q409.2969,450.875 409.2969,448.9531 Q409.2969,447.0313 410.4688,445.9063 Q411.6406,444.7813 413.6406,444.7813 Q414.3125,444.7813 414.9219,444.9375 Q415.5469,445.0938 416.125,445.3906 L416.125,447.0469 Q415.5469,446.6563 414.9844,446.4688 Q414.4219,446.2813 413.8125,446.2813 Q412.7031,446.2813 412.0625,447 Q411.4375,447.7031 411.4375,448.9531 Q411.4375,450.1875 412.0625,450.9063 Q412.7031,451.6094 413.8125,451.6094 Q414.4219,451.6094 414.9844,451.4375 Q415.5469,451.25 416.125,450.8594 L416.125,452.5156 Z " fill="#000000"/><text fill="#FFFFFF" font-family="Verdana" font-size="11" lengthAdjust="spacing" textLength="30" x="425" y="452.7612">Piece</text><line style="stroke:#1B1B1B;stroke-width:1.5;" x1="403" x2="457" y1="461.9531" y2="461.9531"/><line style="stroke:#1B1B1B;stroke-width:1.5;" x1="403" x2="457" y1="469.9531" y2="469.9531"/><!--MD5=[f61cd60923250dc151bbd3a2055c850f]
class Hole--><rect codeLine="17" fill="#2E2E2E" filter="url(#fex7fmmzkswfv)" height="42" id="Hole" style="stroke:#1B1B1B;stroke-width:1.5;" width="51" x="503.5" y="333.9531"/><ellipse cx="515.5" cy="346.9531" fill="#880000" rx="8" ry="8" style="stroke:#1B1B1B;stroke-width:1.0;"/><path d="M517.625,350.5156 Q517.0469,350.8125 516.4219,350.9531 Q515.8125,351.1094 515.1406,351.1094 Q513.1406,351.1094 511.9688,350 Q510.7969,348.875 510.7969,346.9531 Q510.7969,345.0313 511.9688,343.9063 Q513.1406,342.7813 515.1406,342.7813 Q515.8125,342.7813 516.4219,342.9375 Q517.0469,343.0938 517.625,343.3906 L517.625,345.0469 Q517.0469,344.6563 516.4844,344.4688 Q515.9219,344.2813 515.3125,344.2813 Q514.2031,344.2813 513.5625,345 Q512.9375,345.7031 512.9375,346.9531 Q512.9375,348.1875 513.5625,348.9063 Q514.2031,349.6094 515.3125,349.6094 Q515.9219,349.6094 516.4844,349.4375 Q517.0469,349.25 517.625,348.8594 L517.625,350.5156 Z " fill="#000000"/><text fill="#FFFFFF" font-family="Verdana" font-size="11" lengthAdjust="spacing" textLength="25" x="526.5" y="350.7612">Hole</text><line style="stroke:#1B1B1B;stroke-width:1.5;" x1="504.5" x2="553.5" y1="359.9531" y2="359.9531"/><line style="stroke:#1B1B1B;stroke-width:1.5;" x1="504.5" x2="553.5" y1="367.9531" y2="367.9531"/><!--MD5=[8c7d7abc12e214c3cc12c9ab70edee11]
class Coordinate--><rect codeLine="18" fill="#2E2E2E" filter="url(#fex7fmmzkswfv)" height="42" id="Coordinate" style="stroke:#1B1B1B;stroke-width:1.5;" width="88" x="493" y="435.9531"/><ellipse cx="505" cy="448.9531" fill="#880000" rx="8" ry="8" style="stroke:#1B1B1B;stroke-width:1.0;"/><path d="M507.125,452.5156 Q506.5469,452.8125 505.9219,452.9531 Q505.3125,453.1094 504.6406,453.1094 Q502.6406,453.1094 501.4688,452 Q500.2969,450.875 500.2969,448.9531 Q500.2969,447.0313 501.4688,445.9063 Q502.6406,444.7813 504.6406,444.7813 Q505.3125,444.7813 505.9219,444.9375 Q506.5469,445.0938 507.125,445.3906 L507.125,447.0469 Q506.5469,446.6563 505.9844,446.4688 Q505.4219,446.2813 504.8125,446.2813 Q503.7031,446.2813 503.0625,447 Q502.4375,447.7031 502.4375,448.9531 Q502.4375,450.1875 503.0625,450.9063 Q503.7031,451.6094 504.8125,451.6094 Q505.4219,451.6094 505.9844,451.4375 Q506.5469,451.25 507.125,450.8594 L507.125,452.5156 Z " fill="#000000"/><text fill="#FFFFFF" font-family="Verdana" font-size="11" lengthAdjust="spacing" textLength="62" x="516" y="452.7612">Coordinate</text><line style="stroke:#1B1B1B;stroke-width:1.5;" x1="494" x2="580" y1="461.9531" y2="461.9531"/><line style="stroke:#1B1B1B;stroke-width:1.5;" x1="494" x2="580" y1="469.9531" y2="469.9531"/><!--MD5=[08be530975453a47bdc5b5370100f2fc]
class Red--><rect codeLine="19" fill="#2E2E2E" filter="url(#fex7fmmzkswfv)" height="42" id="Red" style="stroke:#1B1B1B;stroke-width:1.5;" width="47" x="361.5" y="537.9531"/><ellipse cx="373.5" cy="550.9531" fill="#880000" rx="8" ry="8" style="stroke:#1B1B1B;stroke-width:1.0;"/><path d="M375.625,554.5156 Q375.0469,554.8125 374.4219,554.9531 Q373.8125,555.1094 373.1406,555.1094 Q371.1406,555.1094 369.9688,554 Q368.7969,552.875 368.7969,550.9531 Q368.7969,549.0313 369.9688,547.9063 Q371.1406,546.7813 373.1406,546.7813 Q373.8125,546.7813 374.4219,546.9375 Q375.0469,547.0938 375.625,547.3906 L375.625,549.0469 Q375.0469,548.6563 374.4844,548.4688 Q373.9219,548.2813 373.3125,548.2813 Q372.2031,548.2813 371.5625,549 Q370.9375,549.7031 370.9375,550.9531 Q370.9375,552.1875 371.5625,552.9063 Q372.2031,553.6094 373.3125,553.6094 Q373.9219,553.6094 374.4844,553.4375 Q375.0469,553.25 375.625,552.8594 L375.625,554.5156 Z " fill="#000000"/><text fill="#FFFFFF" font-family="Verdana" font-size="11" lengthAdjust="spacing" textLength="21" x="384.5" y="554.7612">Red</text><line style="stroke:#1B1B1B;stroke-width:1.5;" x1="362.5" x2="407.5" y1="563.9531" y2="563.9531"/><line style="stroke:#1B1B1B;stroke-width:1.5;" x1="362.5" x2="407.5" y1="571.9531" y2="571.9531"/><!--MD5=[59a197a4e33151d5112197f2c5528c04]
class Yellow--><rect codeLine="20" fill="#2E2E2E" filter="url(#fex7fmmzkswfv)" height="42" id="Yellow" style="stroke:#1B1B1B;stroke-width:1.5;" width="62" x="444" y="537.9531"/><ellipse cx="456" cy="550.9531" fill="#880000" rx="8" ry="8" style="stroke:#1B1B1B;stroke-width:1.0;"/><path d="M458.125,554.5156 Q457.5469,554.8125 456.9219,554.9531 Q456.3125,555.1094 455.6406,555.1094 Q453.6406,555.1094 452.4688,554 Q451.2969,552.875 451.2969,550.9531 Q451.2969,549.0313 452.4688,547.9063 Q453.6406,546.7813 455.6406,546.7813 Q456.3125,546.7813 456.9219,546.9375 Q457.5469,547.0938 458.125,547.3906 L458.125,549.0469 Q457.5469,548.6563 456.9844,548.4688 Q456.4219,548.2813 455.8125,548.2813 Q454.7031,548.2813 454.0625,549 Q453.4375,549.7031 453.4375,550.9531 Q453.4375,552.1875 454.0625,552.9063 Q454.7031,553.6094 455.8125,553.6094 Q456.4219,553.6094 456.9844,553.4375 Q457.5469,553.25 458.125,552.8594 L458.125,554.5156 Z " fill="#000000"/><text fill="#FFFFFF" font-family="Verdana" font-size="11" lengthAdjust="spacing" textLength="36" x="467" y="554.7612">Yellow</text><line style="stroke:#1B1B1B;stroke-width:1.5;" x1="445" x2="505" y1="563.9531" y2="563.9531"/><line style="stroke:#1B1B1B;stroke-width:1.5;" x1="445" x2="505" y1="571.9531" y2="571.9531"/><!--MD5=[bae388f1eb154d3ebbd074262b8cc54d]
link Conecta4 to Grid--><path codeLine="23" d="M408.5204,79.2666 C408.5204,79.2666 496.01,183.8331 527.89,221.9431 " fill="none" id="Conecta4-Grid" style="stroke:#FFFFFF;stroke-width:1.0;"/><polygon fill="#FFFFFF" points="536.25,231.9231,533.5426,222.4537,533.0415,228.0883,527.4069,227.5873,536.25,231.9231" style="stroke:#FFFFFF;stroke-width:1.0;"/><line style="stroke:#FFFFFF;stroke-width:1.0;" x1="533.0415" x2="527.9" y1="228.0883" y2="221.9531"/><polygon fill="#FFFFFF" points="400.82,70.0631,401.6023,77.2317,408.5204,79.2666,407.738,72.0981,400.82,70.0631" style="stroke:#FFFFFF;stroke-width:1.0;"/><!--MD5=[d1b33a06e11883aa1e2def855c8d24d4]
link Conecta4 to Turn--><path codeLine="24" d="M357.2582,79.0269 C357.2582,79.0269 331.03,107.5331 319.42,120.1431 " fill="none" id="Conecta4-Turn" style="stroke:#FFFFFF;stroke-width:1.0;"/><polygon fill="#FFFFFF" points="310.59,129.7431,319.626,125.825,313.9741,126.0624,313.7368,120.4105,310.59,129.7431" style="stroke:#FFFFFF;stroke-width:1.0;"/><line style="stroke:#FFFFFF;stroke-width:1.0;" x1="313.9741" x2="319.39" y1="126.0624" y2="120.1831"/><polygon fill="#FFFFFF" points="365.38,70.1931,358.3745,71.9028,357.2582,79.0269,364.2637,77.3173,365.38,70.1931" style="stroke:#FFFFFF;stroke-width:1.0;"/><!--MD5=[25c3150e50da74dcc810ca1839027bfc]
link Conecta4 to Player--><path codeLine="25" d="M384,82.1931 C384,82.1931 384,105.9131 384,116.5731 " fill="none" id="Conecta4-Player" style="stroke:#FFFFFF;stroke-width:1.0;"/><polygon fill="#FFFFFF" points="384,129.7431,388,120.7431,384,124.7431,380,120.7431,384,129.7431" style="stroke:#FFFFFF;stroke-width:1.0;"/><line style="stroke:#FFFFFF;stroke-width:1.0;" x1="384" x2="384" y1="124.7431" y2="116.7431"/><polygon fill="#FFFFFF" points="384,70.1931,380,76.1931,384,82.1931,388,76.1931,384,70.1931" style="stroke:#FFFFFF;stroke-width:1.0;"/><text fill="#BBBBBB" font-family="Verdana" font-size="11" lengthAdjust="spacing" textLength="7" x="375.8844" y="119.4086">2</text><!--MD5=[6c22eb5547b7b1bad61dc27baa21eef8]
link Player to 4inLine--><path codeLine="27" d="M359.92,172.1931 C340.56,188.4531 313.35,211.3231 293.02,228.4131 " fill="none" id="Player-to-4inLine" style="stroke:#FFFFFF;stroke-width:1.0;"/><polygon fill="#FFFFFF" points="289.05,231.7431,298.5148,229.0197,292.8794,228.5282,293.3709,222.8927,289.05,231.7431" style="stroke:#FFFFFF;stroke-width:1.0;"/><!--MD5=[2ded54bb5efc3b178d6920f1c668d54c]
link Grid to Hole--><path codeLine="28" d="M545.3445,285.863 C545.3445,285.863 539.57,309.9131 536.96,320.7931 " fill="none" id="Grid-Hole" style="stroke:#FFFFFF;stroke-width:1.0;"/><polygon fill="#FFFFFF" points="533.85,333.7431,539.8366,325.9226,535.0148,328.8807,532.0567,324.0589,533.85,333.7431" style="stroke:#FFFFFF;stroke-width:1.0;"/><line style="stroke:#FFFFFF;stroke-width:1.0;" x1="535.0148" x2="536.885" y1="328.8807" y2="321.1031"/><polygon fill="#FFFFFF" points="548.14,274.1931,542.8523,279.0962,545.3445,285.863,550.6322,280.9599,548.14,274.1931" style="stroke:#FFFFFF;stroke-width:1.0;"/><text fill="#BBBBBB" font-family="Verdana" font-size="11" lengthAdjust="spacing" textLength="20" x="512.2084" y="323.4086">6x7</text><!--MD5=[315e95465f4a3d375be890562acf140f]
link Hole to Coordinate--><path codeLine="29" d="M531.5827,388.1544 C531.5827,388.1544 533.48,411.9131 534.33,422.5731 " fill="none" id="Hole-Coordinate" style="stroke:#FFFFFF;stroke-width:1.0;"/><polygon fill="#FFFFFF" points="535.38,435.7431,538.6451,426.4512,534.9789,430.7592,530.6709,427.093,535.38,435.7431" style="stroke:#FFFFFF;stroke-width:1.0;"/><line style="stroke:#FFFFFF;stroke-width:1.0;" x1="534.9789" x2="534.345" y1="430.7592" y2="422.7881"/><polygon fill="#FFFFFF" points="530.62,376.1931,527.1142,382.4947,531.5827,388.1544,535.0885,381.8529,530.62,376.1931" style="stroke:#FFFFFF;stroke-width:1.0;"/><!--MD5=[d163195dc91874c4fb7ca691590e6328]
link Movement to Hole--><path codeLine="30" d="M466.78,274.1931 C479.26,290.1831 496.72,312.5631 509.97,329.5531 " fill="none" id="Movement-to-Hole" style="stroke:#FFFFFF;stroke-width:1.0;stroke-dasharray:7.0,7.0;"/><polygon fill="#FFFFFF" points="513.24,333.7431,510.8432,324.1903,510.1585,329.8056,504.5432,329.1208,513.24,333.7431" style="stroke:#FFFFFF;stroke-width:1.0;"/><!--MD5=[d81713d91ad05be3b975338c4816ee0b]
link Turn to Player--><path codeLine="31" d="M318.23,150.9531 C328.22,150.9531 338.21,150.9531 348.21,150.9531 " fill="none" id="Turn-to-Player" style="stroke:#FFFFFF;stroke-width:1.0;"/><polygon fill="#FFFFFF" points="353.43,150.9531,344.43,146.9531,348.43,150.9531,344.43,154.9531,353.43,150.9531" style="stroke:#FFFFFF;stroke-width:1.0;"/><!--MD5=[3ada97fffb5bcc4da390db27b64fa26e]
link Player to Piece--><path codeLine="32" d="M384.21,172.3331 C384.69,196.6331 386.2,238.4231 391,273.9531 C398.67,330.7231 414.42,396.1431 423.38,431.0131 " fill="none" id="Player-to-Piece" style="stroke:#FFFFFF;stroke-width:1.0;"/><polygon fill="#FFFFFF" points="424.65,435.9331,426.2603,426.2168,423.3937,431.0935,418.517,428.2269,424.65,435.9331" style="stroke:#FFFFFF;stroke-width:1.0;"/><text fill="#BBBBBB" font-family="Verdana" font-size="11" lengthAdjust="spacing" textLength="14" x="406.5591" y="425.3265">21</text><!--MD5=[1e5622e419e61827803d8907ecf40cdc]
link Player to Movement--><path codeLine="33" d="M397.56,172.1931 C408.27,188.1831 423.27,210.5631 434.65,227.5531 " fill="none" id="Player-to-Movement" style="stroke:#FFFFFF;stroke-width:1.0;stroke-dasharray:7.0,7.0;"/><polygon fill="#FFFFFF" points="437.46,231.7431,435.7959,222.0359,434.6865,227.5829,429.1395,226.4735,437.46,231.7431" style="stroke:#FFFFFF;stroke-width:1.0;"/><!--MD5=[955a32f0e6aff1b8980feaba861a8423]
reverse link Piece to Movement--><path codeLine="34" d="M432.63,430.6931 C436.85,390.0931 445.06,311.1131 448.91,274.0631 " fill="none" id="Piece-backto-Movement" style="stroke:#FFFFFF;stroke-width:1.0;"/><polygon fill="#FFFFFF" points="432.08,435.9231,436.9849,427.3825,432.5945,430.9497,429.0273,426.5593,432.08,435.9231" style="stroke:#FFFFFF;stroke-width:1.0;"/><!--MD5=[90efee60098f1e2b7fadace63b7c677a]
reverse link Hole to Piece--><path codeLine="35" d="M499.53,385.7231 C483.55,401.8631 464.22,421.3831 450,435.7431 " fill="none" id="Hole-backto-Piece" style="stroke:#FFFFFF;stroke-width:1.0;"/><polygon fill="none" points="508.97,376.1931,501.9045,377.6348,500.5177,384.7113,507.5833,383.2696,508.97,376.1931" style="stroke:#FFFFFF;stroke-width:1.0;"/><!--MD5=[f1e8e048395d544f29b6d40c3019186f]
reverse link 4inLine to Movement--><path codeLine="36" d="M303.25,252.9531 C338.46,252.9531 373.67,252.9531 408.88,252.9531 " fill="none" id="4inLine-backto-Movement" style="stroke:#FFFFFF;stroke-width:1.0;"/><polygon fill="#FFFFFF" points="298.06,252.9531,307.06,256.9531,303.06,252.9531,307.06,248.9531,298.06,252.9531" style="stroke:#FFFFFF;stroke-width:1.0;"/><!--MD5=[bd6cfc2ff2158cad77fdf5646e8d9473]
reverse link 4inLine to Horizontal--><path codeLine="39" d="M213.32,277.7731 C175.37,295.2631 124.5,318.7031 89.26,334.9431 " fill="none" id="4inLine-backto-Horizontal" style="stroke:#FFFFFF;stroke-width:1.0;"/><polygon fill="none" points="210.48,271.3731,231.57,269.3631,216.33,284.0831,210.48,271.3731" style="stroke:#FFFFFF;stroke-width:1.0;"/><!--MD5=[80b6fa704349e1c51aae2bae4c206b62]
reverse link 4inLine to Vertical--><path codeLine="40" d="M228.67,287.9031 C212.37,303.1431 193.68,320.6031 179.62,333.7431 " fill="none" id="4inLine-backto-Vertical" style="stroke:#FFFFFF;stroke-width:1.0;"/><polygon fill="none" points="223.96,282.7331,243.35,274.1931,233.51,292.9631,223.96,282.7331" style="stroke:#FFFFFF;stroke-width:1.0;"/><!--MD5=[12e7649103ce72e810247196181b4128]
reverse link 4inLine to Diagonal--><path codeLine="41" d="M265,294.6231 C265,308.0931 265,322.5031 265,333.7431 " fill="none" id="4inLine-backto-Diagonal" style="stroke:#FFFFFF;stroke-width:1.0;"/><polygon fill="none" points="258,294.1931,265,274.1931,272,294.1931,258,294.1931" style="stroke:#FFFFFF;stroke-width:1.0;"/><!--MD5=[0358e383b94cdd36a6840bcda7ef3af4]
reverse link Piece to Red--><path codeLine="43" d="M412.57,496.6831 C406.27,510.6931 399.4,525.9631 394.09,537.7431 " fill="none" id="Piece-backto-Red" style="stroke:#FFFFFF;stroke-width:1.0;"/><polygon fill="none" points="406.3,493.5531,420.89,478.1931,419.07,499.3031,406.3,493.5531" style="stroke:#FFFFFF;stroke-width:1.0;"/><!--MD5=[893fc4f09a7266db669cb6191559e64a]
reverse link Piece to Yellow--><path codeLine="44" d="M447.43,496.6831 C453.73,510.6931 460.6,525.9631 465.91,537.7431 " fill="none" id="Piece-backto-Yellow" style="stroke:#FFFFFF;stroke-width:1.0;"/><polygon fill="none" points="440.93,499.3031,439.11,478.1931,453.7,493.5531,440.93,499.3031" style="stroke:#FFFFFF;stroke-width:1.0;"/><!--MD5=[85c57a8499d0b3ee92c5689854796212]
@startuml
!define DARKRED
!includeurl https://raw.githubusercontent.com/Drakemor/RedDress-PlantUML/master/style.puml

title Conecta4 - Class Diagram


class Conecta4 
class Grid
class Player
class Turn
class 4inLine
class Movement
class Horizontal
class Vertical
class Diagonal
class Piece
class Hole
class Coordinate
class Red
class Yellow


Conecta4 *-d-> Grid
Conecta4 *-d-> Turn
Conecta4 *-d-> "2" Player

Player -d-> 4inLine
Grid *-d->"6x7" Hole
Hole *-d-> Coordinate
Movement .d.> Hole
Turn -r-> Player
Player -d->"21" Piece
Player .d.>Movement
Movement -l-> Piece
Hole o-d-Piece
Movement -l-> 4inLine


Horizontal -u-|> 4inLine 
Vertical -u-|> 4inLine 
Diagonal -u-|> 4inLine 

Piece <|-d-Red
Piece <|-d-Yellow
@enduml

@startuml





skinparam stereotypeCBackgroundColor 880000







skinparam backgroundColor 777







skinparam circledCharacter {
  radius 8
  fontSize 11
  fontName Verdana
}

skinparam class {
    backgroundColor 2e2e2e
  borderColor 1b1b1b
    fontColor fff
  fontName Verdana
  fontSize 11
  stereotypeFontColor aaa
  stereotypeFontSize 11
    arrowColor fff
  arrowFontName Verdana
  arrowFontColor bbb
  arrowFontSize 11

  attributeFontColor aaa
  attributeFontSize 11
  attributeIconSize 11
}


skinparam actor {
    backgroundColor 880000
  borderColor 330000
    fontColor fff
  fontName Verdana
  fontSize 11
  stereotypeFontColor aaa
  stereotypeFontSize 11
}

skinparam participant {
    backgroundColor 2e2e2e
  borderColor 1b1b1b
    fontColor fff
  fontName Verdana
  fontSize 11
  stereotypeFontColor aaa
  stereotypeFontSize 11
}

skinparam collections {
    backgroundColor 2e2e2e
  borderColor 1b1b1b
    fontColor fff
  fontName Verdana
  fontSize 11
  stereotypeFontColor aaa
  stereotypeFontSize 11
}

skinparam SequenceBox{
    backgroundColor 575757
  borderColor 767676
    fontColor fff
  fontName Verdana
  fontSize 11
  stereotypeFontColor aaa
  stereotypeFontSize 11
}


skinparam interface {
    backgroundColor 880000
  borderColor 330000
    fontColor fff
  fontName Verdana
  fontSize 11
  stereotypeFontColor aaa
  stereotypeFontSize 11
}

skinparam component {
    backgroundColor 2e2e2e
  borderColor 1b1b1b
    fontColor fff
  fontName Verdana
  fontSize 11
  stereotypeFontColor aaa
  stereotypeFontSize 11
}

skinparam node {
    backgroundColor 2e2e2e
  borderColor 1b1b1b
    fontColor fff
  fontName Verdana
  fontSize 11
  stereotypeFontColor aaa
  stereotypeFontSize 11
}

skinparam database {
    backgroundColor 2e2e2e
  borderColor 1b1b1b
    fontColor fff
  fontName Verdana
  fontSize 11
  stereotypeFontColor aaa
  stereotypeFontSize 11
}

skinparam queue {
    backgroundColor 2e2e2e
  borderColor 1b1b1b
    fontColor fff
  fontName Verdana
  fontSize 11
  stereotypeFontColor aaa
  stereotypeFontSize 11
}


skinparam usecase {
    backgroundColor 2e2e2e
  borderColor 1b1b1b
    fontColor fff
  fontName Verdana
  fontSize 11
  stereotypeFontColor aaa
  stereotypeFontSize 11
    arrowColor fff
  arrowFontName Verdana
  arrowFontColor bbb
  arrowFontSize 11
}

skinparam activity {
    backgroundColor 2e2e2e
  borderColor 1b1b1b
    fontColor fff
  fontName Verdana
  fontSize 11
  stereotypeFontColor aaa
  stereotypeFontSize 11
    arrowColor fff
  arrowFontName Verdana
  arrowFontColor bbb
  arrowFontSize 11
}

skinparam sequence {
    fontColor fff
  fontName Verdana
  fontSize 11
  stereotypeFontColor aaa
  stereotypeFontSize 11
    arrowColor fff
  arrowFontName Verdana
  arrowFontColor bbb
  arrowFontSize 11

  lifeLineBorderColor 880000
  lifeLineBackgroundColor 575757
}

skinparam boundary {
    backgroundColor 880000
  borderColor 330000
    fontColor fff
  fontName Verdana
  fontSize 11
  stereotypeFontColor aaa
  stereotypeFontSize 11
}

skinparam control {
    backgroundColor 880000
  borderColor 330000
    fontColor fff
  fontName Verdana
  fontSize 11
  stereotypeFontColor aaa
  stereotypeFontSize 11
}

skinparam entity {
    backgroundColor 880000
  borderColor 330000
    fontColor fff
  fontName Verdana
  fontSize 11
  stereotypeFontColor aaa
  stereotypeFontSize 11
}


skinparam state {
    backgroundColor 2e2e2e
  borderColor 1b1b1b
    fontColor fff
  fontName Verdana
  fontSize 11
  stereotypeFontColor aaa
  stereotypeFontSize 11
    arrowColor fff
  arrowFontName Verdana
  arrowFontColor bbb
  arrowFontSize 11
  startColor 880000
  endColor 330000
}


skinparam object {
    backgroundColor 2e2e2e
  borderColor 1b1b1b
    fontColor fff
  fontName Verdana
  fontSize 11
  stereotypeFontColor aaa
  stereotypeFontSize 11
    arrowColor fff
  arrowFontName Verdana
  arrowFontColor bbb
  arrowFontSize 11
}


skinparam note {
    backgroundColor 880000
  borderColor 330000
    fontColor fff
  fontName Verdana
  fontSize 11
  stereotypeFontColor aaa
  stereotypeFontSize 11
}

skinparam cloud {
    backgroundColor 2e2e2e
  borderColor 1b1b1b
    fontColor fff
  fontName Verdana
  fontSize 11
  stereotypeFontColor aaa
  stereotypeFontSize 11
    arrowColor fff
  arrowFontName Verdana
  arrowFontColor bbb
  arrowFontSize 11
}

skinparam rectangle {
    backgroundColor 2e2e2e
  borderColor 1b1b1b
    fontColor fff
  fontName Verdana
  fontSize 11
  stereotypeFontColor aaa
  stereotypeFontSize 11
}

skinparam storage {
    backgroundColor 2e2e2e
  borderColor 1b1b1b
    fontColor fff
  fontName Verdana
  fontSize 11
  stereotypeFontColor aaa
  stereotypeFontSize 11
}


title Conecta4 - Class Diagram


class Conecta4 
class Grid
class Player
class Turn
class 4inLine
class Movement
class Horizontal
class Vertical
class Diagonal
class Piece
class Hole
class Coordinate
class Red
class Yellow


Conecta4 *-d-> Grid
Conecta4 *-d-> Turn
Conecta4 *-d-> "2" Player

Player -d-> 4inLine
Grid *-d->"6x7" Hole
Hole *-d-> Coordinate
Movement .d.> Hole
Turn -r-> Player
Player -d->"21" Piece
Player .d.>Movement
Movement -l-> Piece
Hole o-d-Piece
Movement -l-> 4inLine


Horizontal -u-|> 4inLine 
Vertical -u-|> 4inLine 
Diagonal -u-|> 4inLine 

Piece <|-d-Red
Piece <|-d-Yellow
@enduml

PlantUML version 1.2022.1(Tue Feb 01 18:19:58 UTC 2022)
(GPL source distribution)
Java Runtime: OpenJDK Runtime Environment
JVM: OpenJDK 64-Bit Server VM
Default Encoding: UTF-8
Language: en
Country: null
--></g></svg>