<?xml version="1.0" encoding="UTF-8" standalone="no"?><svg xmlns="http://www.w3.org/2000/svg" xmlns:xlink="http://www.w3.org/1999/xlink" contentScriptType="application/ecmascript" contentStyleType="text/css" height="501px" preserveAspectRatio="none" style="width:539px;height:501px;background:#FFFFFF;" version="1.1" viewBox="0 0 539 501" width="539px" zoomAndPan="magnify"><defs><filter height="300%" id="f84y0li6tsasf" width="300%" x="-1" y="-1"><feGaussianBlur result="blurOut" stdDeviation="2.0"/><feColorMatrix in="blurOut" result="blurOut2" type="matrix" values="0 0 0 0 0 0 0 0 0 0 0 0 0 0 0 0 0 0 .4 0"/><feOffset dx="4.0" dy="4.0" in="blurOut2" result="blurOut3"/><feBlend in="SourceGraphic" in2="blurOut3" mode="normal"/></filter></defs><g><!--MD5=[098beadbf69e9cfe04b4f8d619d193b2]
class Conecta4--><rect codeLine="1" fill="#FEFECE" filter="url(#f84y0li6tsasf)" height="48" id="Conecta4" style="stroke:#A80036;stroke-width:1.5;" width="92" x="230.5" y="7"/><ellipse cx="245.5" cy="23" fill="#ADD1B2" rx="11" ry="11" style="stroke:#A80036;stroke-width:1.0;"/><path d="M248.4688,28.6406 Q247.8906,28.9375 247.25,29.0781 Q246.6094,29.2344 245.9063,29.2344 Q243.4063,29.2344 242.0781,27.5938 Q240.7656,25.9375 240.7656,22.8125 Q240.7656,19.6875 242.0781,18.0313 Q243.4063,16.375 245.9063,16.375 Q246.6094,16.375 247.25,16.5313 Q247.9063,16.6875 248.4688,16.9844 L248.4688,19.7031 Q247.8438,19.125 247.25,18.8594 Q246.6563,18.5781 246.0313,18.5781 Q244.6875,18.5781 244,19.6563 Q243.3125,20.7188 243.3125,22.8125 Q243.3125,24.9063 244,25.9844 Q244.6875,27.0469 246.0313,27.0469 Q246.6563,27.0469 247.25,26.7813 Q247.8438,26.5 248.4688,25.9219 L248.4688,28.6406 Z " fill="#000000"/><text fill="#000000" font-family="sans-serif" font-size="12" lengthAdjust="spacing" textLength="60" x="259.5" y="27.1543">Conecta4</text><line style="stroke:#A80036;stroke-width:1.5;" x1="231.5" x2="321.5" y1="39" y2="39"/><line style="stroke:#A80036;stroke-width:1.5;" x1="231.5" x2="321.5" y1="47" y2="47"/><!--MD5=[dd91eae41778c45e12552e5329e240e8]
class Turn--><rect codeLine="2" fill="#FEFECE" filter="url(#f84y0li6tsasf)" height="48" id="Turn" style="stroke:#A80036;stroke-width:1.5;" width="60" x="146.5" y="115"/><ellipse cx="161.5" cy="131" fill="#ADD1B2" rx="11" ry="11" style="stroke:#A80036;stroke-width:1.0;"/><path d="M164.4688,136.6406 Q163.8906,136.9375 163.25,137.0781 Q162.6094,137.2344 161.9063,137.2344 Q159.4063,137.2344 158.0781,135.5938 Q156.7656,133.9375 156.7656,130.8125 Q156.7656,127.6875 158.0781,126.0313 Q159.4063,124.375 161.9063,124.375 Q162.6094,124.375 163.25,124.5313 Q163.9063,124.6875 164.4688,124.9844 L164.4688,127.7031 Q163.8438,127.125 163.25,126.8594 Q162.6563,126.5781 162.0313,126.5781 Q160.6875,126.5781 160,127.6563 Q159.3125,128.7188 159.3125,130.8125 Q159.3125,132.9063 160,133.9844 Q160.6875,135.0469 162.0313,135.0469 Q162.6563,135.0469 163.25,134.7813 Q163.8438,134.5 164.4688,133.9219 L164.4688,136.6406 Z " fill="#000000"/><text fill="#000000" font-family="sans-serif" font-size="12" lengthAdjust="spacing" textLength="28" x="175.5" y="135.1543">Turn</text><line style="stroke:#A80036;stroke-width:1.5;" x1="147.5" x2="205.5" y1="147" y2="147"/><line style="stroke:#A80036;stroke-width:1.5;" x1="147.5" x2="205.5" y1="155" y2="155"/><!--MD5=[2cb47ba637a0d19583e6199456f6ad0b]
class Player--><rect codeLine="3" fill="#FEFECE" filter="url(#f84y0li6tsasf)" height="48" id="Player" style="stroke:#A80036;stroke-width:1.5;" width="70" x="241.5" y="115"/><ellipse cx="256.5" cy="131" fill="#ADD1B2" rx="11" ry="11" style="stroke:#A80036;stroke-width:1.0;"/><path d="M259.4688,136.6406 Q258.8906,136.9375 258.25,137.0781 Q257.6094,137.2344 256.9063,137.2344 Q254.4063,137.2344 253.0781,135.5938 Q251.7656,133.9375 251.7656,130.8125 Q251.7656,127.6875 253.0781,126.0313 Q254.4063,124.375 256.9063,124.375 Q257.6094,124.375 258.25,124.5313 Q258.9063,124.6875 259.4688,124.9844 L259.4688,127.7031 Q258.8438,127.125 258.25,126.8594 Q257.6563,126.5781 257.0313,126.5781 Q255.6875,126.5781 255,127.6563 Q254.3125,128.7188 254.3125,130.8125 Q254.3125,132.9063 255,133.9844 Q255.6875,135.0469 257.0313,135.0469 Q257.6563,135.0469 258.25,134.7813 Q258.8438,134.5 259.4688,133.9219 L259.4688,136.6406 Z " fill="#000000"/><text fill="#000000" font-family="sans-serif" font-size="12" lengthAdjust="spacing" textLength="38" x="270.5" y="135.1543">Player</text><line style="stroke:#A80036;stroke-width:1.5;" x1="242.5" x2="310.5" y1="147" y2="147"/><line style="stroke:#A80036;stroke-width:1.5;" x1="242.5" x2="310.5" y1="155" y2="155"/><!--MD5=[1f24f7b92150e3316908f7910ce81742]
class Grid--><rect codeLine="4" fill="#FEFECE" filter="url(#f84y0li6tsasf)" height="48" id="Grid" style="stroke:#A80036;stroke-width:1.5;" width="57" x="347" y="115"/><ellipse cx="362" cy="131" fill="#ADD1B2" rx="11" ry="11" style="stroke:#A80036;stroke-width:1.0;"/><path d="M364.9688,136.6406 Q364.3906,136.9375 363.75,137.0781 Q363.1094,137.2344 362.4063,137.2344 Q359.9063,137.2344 358.5781,135.5938 Q357.2656,133.9375 357.2656,130.8125 Q357.2656,127.6875 358.5781,126.0313 Q359.9063,124.375 362.4063,124.375 Q363.1094,124.375 363.75,124.5313 Q364.4063,124.6875 364.9688,124.9844 L364.9688,127.7031 Q364.3438,127.125 363.75,126.8594 Q363.1563,126.5781 362.5313,126.5781 Q361.1875,126.5781 360.5,127.6563 Q359.8125,128.7188 359.8125,130.8125 Q359.8125,132.9063 360.5,133.9844 Q361.1875,135.0469 362.5313,135.0469 Q363.1563,135.0469 363.75,134.7813 Q364.3438,134.5 364.9688,133.9219 L364.9688,136.6406 Z " fill="#000000"/><text fill="#000000" font-family="sans-serif" font-size="12" lengthAdjust="spacing" textLength="25" x="376" y="135.1543">Grid</text><line style="stroke:#A80036;stroke-width:1.5;" x1="348" x2="403" y1="147" y2="147"/><line style="stroke:#A80036;stroke-width:1.5;" x1="348" x2="403" y1="155" y2="155"/><!--MD5=[f61cd60923250dc151bbd3a2055c850f]
class Hole--><rect codeLine="5" fill="#FEFECE" filter="url(#f84y0li6tsasf)" height="48" id="Hole" style="stroke:#A80036;stroke-width:1.5;" width="60" x="444.5" y="331"/><ellipse cx="459.5" cy="347" fill="#ADD1B2" rx="11" ry="11" style="stroke:#A80036;stroke-width:1.0;"/><path d="M462.4688,352.6406 Q461.8906,352.9375 461.25,353.0781 Q460.6094,353.2344 459.9063,353.2344 Q457.4063,353.2344 456.0781,351.5938 Q454.7656,349.9375 454.7656,346.8125 Q454.7656,343.6875 456.0781,342.0313 Q457.4063,340.375 459.9063,340.375 Q460.6094,340.375 461.25,340.5313 Q461.9063,340.6875 462.4688,340.9844 L462.4688,343.7031 Q461.8438,343.125 461.25,342.8594 Q460.6563,342.5781 460.0313,342.5781 Q458.6875,342.5781 458,343.6563 Q457.3125,344.7188 457.3125,346.8125 Q457.3125,348.9063 458,349.9844 Q458.6875,351.0469 460.0313,351.0469 Q460.6563,351.0469 461.25,350.7813 Q461.8438,350.5 462.4688,349.9219 L462.4688,352.6406 Z " fill="#000000"/><text fill="#000000" font-family="sans-serif" font-size="12" lengthAdjust="spacing" textLength="28" x="473.5" y="351.1543">Hole</text><line style="stroke:#A80036;stroke-width:1.5;" x1="445.5" x2="503.5" y1="363" y2="363"/><line style="stroke:#A80036;stroke-width:1.5;" x1="445.5" x2="503.5" y1="371" y2="371"/><!--MD5=[8c7d7abc12e214c3cc12c9ab70edee11]
class Coordinate--><rect codeLine="6" fill="#FEFECE" filter="url(#f84y0li6tsasf)" height="48" id="Coordinate" style="stroke:#A80036;stroke-width:1.5;" width="101" x="424" y="439"/><ellipse cx="439" cy="455" fill="#ADD1B2" rx="11" ry="11" style="stroke:#A80036;stroke-width:1.0;"/><path d="M441.9688,460.6406 Q441.3906,460.9375 440.75,461.0781 Q440.1094,461.2344 439.4063,461.2344 Q436.9063,461.2344 435.5781,459.5938 Q434.2656,457.9375 434.2656,454.8125 Q434.2656,451.6875 435.5781,450.0313 Q436.9063,448.375 439.4063,448.375 Q440.1094,448.375 440.75,448.5313 Q441.4063,448.6875 441.9688,448.9844 L441.9688,451.7031 Q441.3438,451.125 440.75,450.8594 Q440.1563,450.5781 439.5313,450.5781 Q438.1875,450.5781 437.5,451.6563 Q436.8125,452.7188 436.8125,454.8125 Q436.8125,456.9063 437.5,457.9844 Q438.1875,459.0469 439.5313,459.0469 Q440.1563,459.0469 440.75,458.7813 Q441.3438,458.5 441.9688,457.9219 L441.9688,460.6406 Z " fill="#000000"/><text fill="#000000" font-family="sans-serif" font-size="12" lengthAdjust="spacing" textLength="69" x="453" y="459.1543">Coordinate</text><line style="stroke:#A80036;stroke-width:1.5;" x1="425" x2="524" y1="471" y2="471"/><line style="stroke:#A80036;stroke-width:1.5;" x1="425" x2="524" y1="479" y2="479"/><!--MD5=[e05bacf3ff4416a0580578814d41bbf6]
class Piece--><rect codeLine="7" fill="#FEFECE" filter="url(#f84y0li6tsasf)" height="48" id="Piece" style="stroke:#A80036;stroke-width:1.5;" width="66" x="326.5" y="223"/><ellipse cx="341.5" cy="239" fill="#ADD1B2" rx="11" ry="11" style="stroke:#A80036;stroke-width:1.0;"/><path d="M344.4688,244.6406 Q343.8906,244.9375 343.25,245.0781 Q342.6094,245.2344 341.9063,245.2344 Q339.4063,245.2344 338.0781,243.5938 Q336.7656,241.9375 336.7656,238.8125 Q336.7656,235.6875 338.0781,234.0313 Q339.4063,232.375 341.9063,232.375 Q342.6094,232.375 343.25,232.5313 Q343.9063,232.6875 344.4688,232.9844 L344.4688,235.7031 Q343.8438,235.125 343.25,234.8594 Q342.6563,234.5781 342.0313,234.5781 Q340.6875,234.5781 340,235.6563 Q339.3125,236.7188 339.3125,238.8125 Q339.3125,240.9063 340,241.9844 Q340.6875,243.0469 342.0313,243.0469 Q342.6563,243.0469 343.25,242.7813 Q343.8438,242.5 344.4688,241.9219 L344.4688,244.6406 Z " fill="#000000"/><text fill="#000000" font-family="sans-serif" font-size="12" lengthAdjust="spacing" textLength="34" x="355.5" y="243.1543">Piece</text><line style="stroke:#A80036;stroke-width:1.5;" x1="327.5" x2="391.5" y1="255" y2="255"/><line style="stroke:#A80036;stroke-width:1.5;" x1="327.5" x2="391.5" y1="263" y2="263"/><!--MD5=[59a197a4e33151d5112197f2c5528c04]
class Yellow--><rect codeLine="8" fill="#FEFECE" filter="url(#f84y0li6tsasf)" height="48" id="Yellow" style="stroke:#A80036;stroke-width:1.5;" width="70" x="248.5" y="331"/><ellipse cx="263.5" cy="347" fill="#ADD1B2" rx="11" ry="11" style="stroke:#A80036;stroke-width:1.0;"/><path d="M266.4688,352.6406 Q265.8906,352.9375 265.25,353.0781 Q264.6094,353.2344 263.9063,353.2344 Q261.4063,353.2344 260.0781,351.5938 Q258.7656,349.9375 258.7656,346.8125 Q258.7656,343.6875 260.0781,342.0313 Q261.4063,340.375 263.9063,340.375 Q264.6094,340.375 265.25,340.5313 Q265.9063,340.6875 266.4688,340.9844 L266.4688,343.7031 Q265.8438,343.125 265.25,342.8594 Q264.6563,342.5781 264.0313,342.5781 Q262.6875,342.5781 262,343.6563 Q261.3125,344.7188 261.3125,346.8125 Q261.3125,348.9063 262,349.9844 Q262.6875,351.0469 264.0313,351.0469 Q264.6563,351.0469 265.25,350.7813 Q265.8438,350.5 266.4688,349.9219 L266.4688,352.6406 Z " fill="#000000"/><text fill="#000000" font-family="sans-serif" font-size="12" lengthAdjust="spacing" textLength="38" x="277.5" y="351.1543">Yellow</text><line style="stroke:#A80036;stroke-width:1.5;" x1="249.5" x2="317.5" y1="363" y2="363"/><line style="stroke:#A80036;stroke-width:1.5;" x1="249.5" x2="317.5" y1="371" y2="371"/><!--MD5=[08be530975453a47bdc5b5370100f2fc]
class Red--><rect codeLine="9" fill="#FEFECE" filter="url(#f84y0li6tsasf)" height="48" id="Red" style="stroke:#A80036;stroke-width:1.5;" width="56" x="353.5" y="331"/><ellipse cx="368.5" cy="347" fill="#ADD1B2" rx="11" ry="11" style="stroke:#A80036;stroke-width:1.0;"/><path d="M371.4688,352.6406 Q370.8906,352.9375 370.25,353.0781 Q369.6094,353.2344 368.9063,353.2344 Q366.4063,353.2344 365.0781,351.5938 Q363.7656,349.9375 363.7656,346.8125 Q363.7656,343.6875 365.0781,342.0313 Q366.4063,340.375 368.9063,340.375 Q369.6094,340.375 370.25,340.5313 Q370.9063,340.6875 371.4688,340.9844 L371.4688,343.7031 Q370.8438,343.125 370.25,342.8594 Q369.6563,342.5781 369.0313,342.5781 Q367.6875,342.5781 367,343.6563 Q366.3125,344.7188 366.3125,346.8125 Q366.3125,348.9063 367,349.9844 Q367.6875,351.0469 369.0313,351.0469 Q369.6563,351.0469 370.25,350.7813 Q370.8438,350.5 371.4688,349.9219 L371.4688,352.6406 Z " fill="#000000"/><text fill="#000000" font-family="sans-serif" font-size="12" lengthAdjust="spacing" textLength="24" x="382.5" y="351.1543">Red</text><line style="stroke:#A80036;stroke-width:1.5;" x1="354.5" x2="408.5" y1="363" y2="363"/><line style="stroke:#A80036;stroke-width:1.5;" x1="354.5" x2="408.5" y1="371" y2="371"/><!--MD5=[f04eddc513368489aea0358c3d51bf6a]
class Insertion--><rect codeLine="10" fill="#FEFECE" filter="url(#f84y0li6tsasf)" height="48" id="Insertion" style="stroke:#A80036;stroke-width:1.5;" width="87" x="133" y="223"/><ellipse cx="148" cy="239" fill="#ADD1B2" rx="11" ry="11" style="stroke:#A80036;stroke-width:1.0;"/><path d="M150.9688,244.6406 Q150.3906,244.9375 149.75,245.0781 Q149.1094,245.2344 148.4063,245.2344 Q145.9063,245.2344 144.5781,243.5938 Q143.2656,241.9375 143.2656,238.8125 Q143.2656,235.6875 144.5781,234.0313 Q145.9063,232.375 148.4063,232.375 Q149.1094,232.375 149.75,232.5313 Q150.4063,232.6875 150.9688,232.9844 L150.9688,235.7031 Q150.3438,235.125 149.75,234.8594 Q149.1563,234.5781 148.5313,234.5781 Q147.1875,234.5781 146.5,235.6563 Q145.8125,236.7188 145.8125,238.8125 Q145.8125,240.9063 146.5,241.9844 Q147.1875,243.0469 148.5313,243.0469 Q149.1563,243.0469 149.75,242.7813 Q150.3438,242.5 150.9688,241.9219 L150.9688,244.6406 Z " fill="#000000"/><text fill="#000000" font-family="sans-serif" font-size="12" lengthAdjust="spacing" textLength="55" x="162" y="243.1543">Insertion</text><line style="stroke:#A80036;stroke-width:1.5;" x1="134" x2="219" y1="255" y2="255"/><line style="stroke:#A80036;stroke-width:1.5;" x1="134" x2="219" y1="263" y2="263"/><!--MD5=[92fd46334eeec49de05be1c2389c0c70]
class 4inline--><rect codeLine="11" fill="#FEFECE" filter="url(#f84y0li6tsasf)" height="48" id="4inline" style="stroke:#A80036;stroke-width:1.5;" width="73" x="140" y="331"/><ellipse cx="155" cy="347" fill="#ADD1B2" rx="11" ry="11" style="stroke:#A80036;stroke-width:1.0;"/><path d="M157.9688,352.6406 Q157.3906,352.9375 156.75,353.0781 Q156.1094,353.2344 155.4063,353.2344 Q152.9063,353.2344 151.5781,351.5938 Q150.2656,349.9375 150.2656,346.8125 Q150.2656,343.6875 151.5781,342.0313 Q152.9063,340.375 155.4063,340.375 Q156.1094,340.375 156.75,340.5313 Q157.4063,340.6875 157.9688,340.9844 L157.9688,343.7031 Q157.3438,343.125 156.75,342.8594 Q156.1563,342.5781 155.5313,342.5781 Q154.1875,342.5781 153.5,343.6563 Q152.8125,344.7188 152.8125,346.8125 Q152.8125,348.9063 153.5,349.9844 Q154.1875,351.0469 155.5313,351.0469 Q156.1563,351.0469 156.75,350.7813 Q157.3438,350.5 157.9688,349.9219 L157.9688,352.6406 Z " fill="#000000"/><text fill="#000000" font-family="sans-serif" font-size="12" lengthAdjust="spacing" textLength="41" x="169" y="351.1543">4inline</text><line style="stroke:#A80036;stroke-width:1.5;" x1="141" x2="212" y1="363" y2="363"/><line style="stroke:#A80036;stroke-width:1.5;" x1="141" x2="212" y1="371" y2="371"/><!--MD5=[2808de09be71fab9caf2df132bae0681]
class Horizontal--><rect codeLine="12" fill="#FEFECE" filter="url(#f84y0li6tsasf)" height="48" id="Horizontal" style="stroke:#A80036;stroke-width:1.5;" width="94" x="129.5" y="439"/><ellipse cx="144.5" cy="455" fill="#ADD1B2" rx="11" ry="11" style="stroke:#A80036;stroke-width:1.0;"/><path d="M147.4688,460.6406 Q146.8906,460.9375 146.25,461.0781 Q145.6094,461.2344 144.9063,461.2344 Q142.4063,461.2344 141.0781,459.5938 Q139.7656,457.9375 139.7656,454.8125 Q139.7656,451.6875 141.0781,450.0313 Q142.4063,448.375 144.9063,448.375 Q145.6094,448.375 146.25,448.5313 Q146.9063,448.6875 147.4688,448.9844 L147.4688,451.7031 Q146.8438,451.125 146.25,450.8594 Q145.6563,450.5781 145.0313,450.5781 Q143.6875,450.5781 143,451.6563 Q142.3125,452.7188 142.3125,454.8125 Q142.3125,456.9063 143,457.9844 Q143.6875,459.0469 145.0313,459.0469 Q145.6563,459.0469 146.25,458.7813 Q146.8438,458.5 147.4688,457.9219 L147.4688,460.6406 Z " fill="#000000"/><text fill="#000000" font-family="sans-serif" font-size="12" lengthAdjust="spacing" textLength="62" x="158.5" y="459.1543">Horizontal</text><line style="stroke:#A80036;stroke-width:1.5;" x1="130.5" x2="222.5" y1="471" y2="471"/><line style="stroke:#A80036;stroke-width:1.5;" x1="130.5" x2="222.5" y1="479" y2="479"/><!--MD5=[9ddfc9bd1e3a4b04466623ab197feef8]
class Vertical--><rect codeLine="13" fill="#FEFECE" filter="url(#f84y0li6tsasf)" height="48" id="Vertical" style="stroke:#A80036;stroke-width:1.5;" width="79" x="259" y="439"/><ellipse cx="274" cy="455" fill="#ADD1B2" rx="11" ry="11" style="stroke:#A80036;stroke-width:1.0;"/><path d="M276.9688,460.6406 Q276.3906,460.9375 275.75,461.0781 Q275.1094,461.2344 274.4063,461.2344 Q271.9063,461.2344 270.5781,459.5938 Q269.2656,457.9375 269.2656,454.8125 Q269.2656,451.6875 270.5781,450.0313 Q271.9063,448.375 274.4063,448.375 Q275.1094,448.375 275.75,448.5313 Q276.4063,448.6875 276.9688,448.9844 L276.9688,451.7031 Q276.3438,451.125 275.75,450.8594 Q275.1563,450.5781 274.5313,450.5781 Q273.1875,450.5781 272.5,451.6563 Q271.8125,452.7188 271.8125,454.8125 Q271.8125,456.9063 272.5,457.9844 Q273.1875,459.0469 274.5313,459.0469 Q275.1563,459.0469 275.75,458.7813 Q276.3438,458.5 276.9688,457.9219 L276.9688,460.6406 Z " fill="#000000"/><text fill="#000000" font-family="sans-serif" font-size="12" lengthAdjust="spacing" textLength="47" x="288" y="459.1543">Vertical</text><line style="stroke:#A80036;stroke-width:1.5;" x1="260" x2="337" y1="471" y2="471"/><line style="stroke:#A80036;stroke-width:1.5;" x1="260" x2="337" y1="479" y2="479"/><!--MD5=[a135607b44036ad87f368405615013d9]
class Diagonal--><rect codeLine="14" fill="#FEFECE" filter="url(#f84y0li6tsasf)" height="48" id="Diagonal" style="stroke:#A80036;stroke-width:1.5;" width="87" x="7" y="439"/><ellipse cx="22" cy="455" fill="#ADD1B2" rx="11" ry="11" style="stroke:#A80036;stroke-width:1.0;"/><path d="M24.9688,460.6406 Q24.3906,460.9375 23.75,461.0781 Q23.1094,461.2344 22.4063,461.2344 Q19.9063,461.2344 18.5781,459.5938 Q17.2656,457.9375 17.2656,454.8125 Q17.2656,451.6875 18.5781,450.0313 Q19.9063,448.375 22.4063,448.375 Q23.1094,448.375 23.75,448.5313 Q24.4063,448.6875 24.9688,448.9844 L24.9688,451.7031 Q24.3438,451.125 23.75,450.8594 Q23.1563,450.5781 22.5313,450.5781 Q21.1875,450.5781 20.5,451.6563 Q19.8125,452.7188 19.8125,454.8125 Q19.8125,456.9063 20.5,457.9844 Q21.1875,459.0469 22.5313,459.0469 Q23.1563,459.0469 23.75,458.7813 Q24.3438,458.5 24.9688,457.9219 L24.9688,460.6406 Z " fill="#000000"/><text fill="#000000" font-family="sans-serif" font-size="12" lengthAdjust="spacing" textLength="55" x="36" y="459.1543">Diagonal</text><line style="stroke:#A80036;stroke-width:1.5;" x1="8" x2="93" y1="471" y2="471"/><line style="stroke:#A80036;stroke-width:1.5;" x1="8" x2="93" y1="479" y2="479"/><!--MD5=[19e6be48f5e011906ea3829511cd0b39]
reverse link Conecta4 to Turn--><path codeLine="16" d="M245.72,64.63 C230.45,80.81 212.36,99.99 198.5,114.68 " fill="none" id="Conecta4-backto-Turn" style="stroke:#A80036;stroke-width:1.0;"/><polygon fill="#A80036" points="254.8,55,247.7725,56.6168,246.5621,63.7256,253.5896,62.1088,254.8,55" style="stroke:#A80036;stroke-width:1.0;"/><!--MD5=[4248da84ba852c405319b614eeedd885]
reverse link Conecta4 to Player--><path codeLine="17" d="M276.5,68.34 C276.5,83.68 276.5,101.1 276.5,114.68 " fill="none" id="Conecta4-backto-Player" style="stroke:#A80036;stroke-width:1.0;"/><polygon fill="#A80036" points="276.5,55,272.5,61,276.5,67,280.5,61,276.5,55" style="stroke:#A80036;stroke-width:1.0;"/><text fill="#000000" font-family="sans-serif" font-size="13" lengthAdjust="spacing" textLength="8" x="267.525" y="104.007">2</text><!--MD5=[fdef410e15c6ecfd782a98dce8273687]
reverse link Conecta4 to Grid--><path codeLine="18" d="M306.97,64.63 C322.09,80.81 340,99.99 353.72,114.68 " fill="none" id="Conecta4-backto-Grid" style="stroke:#A80036;stroke-width:1.0;"/><polygon fill="#A80036" points="297.98,55,299.1516,62.1153,306.1702,63.7705,304.9986,56.6552,297.98,55" style="stroke:#A80036;stroke-width:1.0;"/><!--MD5=[d81713d91ad05be3b975338c4816ee0b]
link Turn to Player--><path codeLine="19" d="M206.58,139 C216.42,139 226.27,139 236.12,139 " fill="none" id="Turn-to-Player" style="stroke:#A80036;stroke-width:1.0;"/><polygon fill="#A80036" points="241.27,139,232.27,135,236.27,139,232.27,143,241.27,139" style="stroke:#A80036;stroke-width:1.0;"/><!--MD5=[7bb762d18462f0af16144f4412d331d8]
link Player to Insertion--><path codeLine="20" d="M254.8,163 C239.31,179.42 218.43,201.56 202.12,218.84 " fill="none" id="Player-to-Insertion" style="stroke:#A80036;stroke-width:1.0;"/><polygon fill="#A80036" points="198.5,222.68,207.5811,218.8677,201.9268,219.039,201.7555,213.3847,198.5,222.68" style="stroke:#A80036;stroke-width:1.0;"/><!--MD5=[20695e5569ad41affee96011785c1091]
reverse link Grid to Hole--><path codeLine="21" d="M391.75,175.12 C412.09,219.09 446.37,293.19 463.73,330.72 " fill="none" id="Grid-backto-Hole" style="stroke:#A80036;stroke-width:1.0;"/><polygon fill="#A80036" points="386.28,163.31,385.168,170.4348,391.3171,174.2017,392.4291,167.0768,386.28,163.31" style="stroke:#A80036;stroke-width:1.0;"/><text fill="#000000" font-family="sans-serif" font-size="13" lengthAdjust="spacing" textLength="23" x="435.3017" y="320.0567">6x7</text><!--MD5=[8544cf784961c6c015e0676f009bb209]
reverse link Hole to Coordinate--><path codeLine="22" d="M474.5,392.34 C474.5,407.68 474.5,425.1 474.5,438.68 " fill="none" id="Hole-backto-Coordinate" style="stroke:#A80036;stroke-width:1.0;"/><polygon fill="#A80036" points="474.5,379,470.5,385,474.5,391,478.5,385,474.5,379" style="stroke:#A80036;stroke-width:1.0;"/><!--MD5=[3ada97fffb5bcc4da390db27b64fa26e]
link Player to Piece--><path codeLine="23" d="M294.51,163 C307.26,179.28 324.41,201.19 337.89,218.41 " fill="none" id="Player-to-Piece" style="stroke:#A80036;stroke-width:1.0;"/><polygon fill="#A80036" points="341.24,222.68,338.8264,213.1315,338.1515,218.7479,332.5351,218.073,341.24,222.68" style="stroke:#A80036;stroke-width:1.0;"/><text fill="#000000" font-family="sans-serif" font-size="13" lengthAdjust="spacing" textLength="32" x="300.8891" y="212.007">0..21</text><!--MD5=[fdc5a7fdebb3774e6f5427d2bbfa7777]
link Player to 4inline--><path codeLine="24" d="M272.14,163.14 C266.5,190.04 255.25,235.31 237.5,271 C227.6,290.9 212.93,311.05 200.46,326.51 " fill="none" id="Player-to-4inline" style="stroke:#A80036;stroke-width:1.0;"/><polygon fill="#A80036" points="197,330.74,205.7878,326.2932,200.16,326.8651,199.588,321.2373,197,330.74" style="stroke:#A80036;stroke-width:1.0;"/><!--MD5=[be1c79c315e1d398a16167186080cb83]
reverse link 4inline to Vertical--><path codeLine="26" d="M218.32,392.34 C235.98,407.68 256.03,425.1 271.66,438.68 " fill="none" id="4inline-backto-Vertical" style="stroke:#A80036;stroke-width:1.0;"/><polygon fill="none" points="213.48,397.4,202.97,379,222.66,386.83,213.48,397.4" style="stroke:#A80036;stroke-width:1.0;"/><!--MD5=[c7a3f79fe60cdbd480a3dc88a0d2516a]
reverse link 4inline to Diagonal--><path codeLine="27" d="M133.58,392.1 C115.28,407.5 94.45,425.03 78.22,438.68 " fill="none" id="4inline-backto-Diagonal" style="stroke:#A80036;stroke-width:1.0;"/><polygon fill="none" points="129.35,386.52,149.16,379,138.36,397.23,129.35,386.52" style="stroke:#A80036;stroke-width:1.0;"/><!--MD5=[0d5bb60a95cfb7ab0730d9de93c65ef6]
reverse link 4inline to Horizontal--><path codeLine="28" d="M176.5,399.02 C176.5,412.58 176.5,427.04 176.5,438.68 " fill="none" id="4inline-backto-Horizontal" style="stroke:#A80036;stroke-width:1.0;"/><polygon fill="none" points="169.5,399,176.5,379,183.5,399,169.5,399" style="stroke:#A80036;stroke-width:1.0;"/><!--MD5=[893fc4f09a7266db669cb6191559e64a]
reverse link Piece to Yellow--><path codeLine="30" d="M331.07,287.66 C320.68,302.15 309.26,318.07 300.22,330.68 " fill="none" id="Piece-backto-Yellow" style="stroke:#A80036;stroke-width:1.0;"/><polygon fill="none" points="325.67,283.18,343.01,271,337.04,291.33,325.67,283.18" style="stroke:#A80036;stroke-width:1.0;"/><!--MD5=[0358e383b94cdd36a6840bcda7ef3af4]
reverse link Piece to Red--><path codeLine="31" d="M368.43,291.02 C371.24,304.58 374.24,319.04 376.66,330.68 " fill="none" id="Piece-backto-Red" style="stroke:#A80036;stroke-width:1.0;"/><polygon fill="none" points="361.48,292.01,364.27,271,375.19,289.16,361.48,292.01" style="stroke:#A80036;stroke-width:1.0;"/><!--MD5=[7fb003a12207d37ea6e33707f90bb071]
link Piece to 4inline--><path codeLine="32" d="M326.36,267.2 C295.8,284.9 250.34,311.23 217.51,330.25 " fill="none" id="Piece-to-4inline" style="stroke:#A80036;stroke-width:1.0;"/><polygon fill="#A80036" points="213.16,332.76,222.9515,331.6984,217.4835,330.2486,218.9333,324.7807,213.16,332.76" style="stroke:#A80036;stroke-width:1.0;"/><!--MD5=[555ed49f706020eda47ffa0579fb2f05]
link Player to Grid--><path codeLine="34" d="M311.69,139 C321.6,139 331.5,139 341.41,139 " fill="none" id="Player-to-Grid" style="stroke:#A80036;stroke-width:1.0;"/><polygon fill="#A80036" points="346.59,139,337.59,135,341.59,139,337.59,143,346.59,139" style="stroke:#A80036;stroke-width:1.0;"/><!--MD5=[a75a04296d00ad78bb7aa073f792a836]
link Insertion to Piece--><path codeLine="35" d="M220.11,247 C253.7,247 287.3,247 320.89,247 " fill="none" id="Insertion-to-Piece" style="stroke:#A80036;stroke-width:1.0;stroke-dasharray:7.0,7.0;"/><polygon fill="#A80036" points="326.28,247,317.28,243,321.28,247,317.28,251,326.28,247" style="stroke:#A80036;stroke-width:1.0;"/><!--MD5=[59aa7c63b406d7b604560263930384b4]
link Turn to Insertion--><path codeLine="37" d="M176.5,163 C176.5,179 176.5,200.45 176.5,217.53 " fill="none" id="Turn-to-Insertion" style="stroke:#A80036;stroke-width:1.0;"/><polygon fill="#A80036" points="176.5,222.68,180.5,213.68,176.5,217.68,172.5,213.68,176.5,222.68" style="stroke:#A80036;stroke-width:1.0;"/><!--MD5=[b2279620936ab8c73ad82b6a6cb12f85]
reverse link Insertion to 4inline--><path codeLine="38" d="M176.5,276.13 C176.5,293.15 176.5,314.6 176.5,330.68 " fill="none" id="Insertion-backto-4inline" style="stroke:#A80036;stroke-width:1.0;stroke-dasharray:7.0,7.0;"/><polygon fill="#A80036" points="176.5,271,172.5,280,176.5,276,180.5,280,176.5,271" style="stroke:#A80036;stroke-width:1.0;"/><text fill="#000000" font-family="sans-serif" font-size="13" lengthAdjust="spacing" textLength="32" x="140.4" y="291.1558">4..21</text><!--MD5=[dc8bddcf1c3ac39e430943ae1c03dc69]
link Insertion to Hole--><path codeLine="39" d="M220.23,260.49 C270.83,275.4 356.31,301.97 427.5,331 C431.49,332.63 435.62,334.44 439.69,336.32 " fill="none" id="Insertion-to-Hole" style="stroke:#A80036;stroke-width:1.0;stroke-dasharray:7.0,7.0;"/><polygon fill="#A80036" points="444.44,338.54,437.9772,331.1082,439.9094,336.4248,434.5928,338.3571,444.44,338.54" style="stroke:#A80036;stroke-width:1.0;"/><!--MD5=[8586c06e86c4397716797fc991d66a7b]
@startuml
class Conecta4
class Turn
class Player
class Grid
class Hole
class Coordinate
class Piece
class Yellow
class Red
class Insertion
class 4inline
class Horizontal
class Vertical
class Diagonal

Conecta4 *-d- Turn
Conecta4 *-d- "2" Player
Conecta4 *-d- Grid
Player <-l- Turn
Player -d-> Insertion
Grid *-d- "6x7" Hole
Coordinate -up-* Hole
Player -d-> "0..21" Piece
Player -d-> 4inline

4inline <|-d- Vertical
4inline <|-d- Diagonal
4inline <|-d- Horizontal

Piece <|-d- Yellow
Piece <|-d- Red
Piece -r-> 4inline

Player -r-> Grid
Insertion .r.> Piece

Turn -d-> Insertion
Insertion "4..21" <.. 4inline
Insertion ..> Hole
@enduml

PlantUML version 1.2021.16(Wed Dec 08 17:25:22 UTC 2021)
(GPL source distribution)
Java Runtime: OpenJDK Runtime Environment
JVM: OpenJDK 64-Bit Server VM
Default Encoding: UTF-8
Language: en
Country: null
--></g></svg>