<?xml version="1.0" encoding="UTF-8" standalone="no"?><svg xmlns="http://www.w3.org/2000/svg" xmlns:xlink="http://www.w3.org/1999/xlink" contentScriptType="application/ecmascript" contentStyleType="text/css" height="818px" preserveAspectRatio="none" style="width:689px;height:818px;background:#FFFFFF;" version="1.1" viewBox="0 0 689 818" width="689px" zoomAndPan="magnify"><defs/><g><!--MD5=[098beadbf69e9cfe04b4f8d619d193b2]
class Conecta4--><rect codeLine="1" fill="#F1F1F1" height="48" id="Conecta4" rx="2.5" ry="2.5" style="stroke:#181818;stroke-width:0.5;" width="100" x="63" y="7"/><ellipse cx="78" cy="23" fill="#ADD1B2" rx="11" ry="11" style="stroke:#181818;stroke-width:1.0;"/><path d="M80.3438,18.6719 C79.4063,18.2344 78.8125,18.0938 77.9375,18.0938 C75.3125,18.0938 73.3125,20.1719 73.3125,22.8906 L73.3125,24.0156 C73.3125,26.5938 75.4219,28.4844 78.3125,28.4844 C79.5313,28.4844 80.6875,28.1875 81.4375,27.6406 C82.0156,27.2344 82.3438,26.7813 82.3438,26.3906 C82.3438,25.9375 81.9531,25.5469 81.4844,25.5469 C81.2656,25.5469 81.0625,25.625 80.875,25.8125 C80.4219,26.2969 80.4219,26.2969 80.2344,26.3906 C79.8125,26.6563 79.125,26.7813 78.3594,26.7813 C76.3125,26.7813 75.0156,25.6875 75.0156,23.9844 L75.0156,22.8906 C75.0156,21.1094 76.2656,19.7969 78,19.7969 C78.5781,19.7969 79.1875,19.9531 79.6563,20.2031 C80.1406,20.4844 80.3125,20.7031 80.4063,21.1094 C80.4688,21.5156 80.5,21.6406 80.6406,21.7656 C80.7813,21.9063 81.0156,22.0156 81.2344,22.0156 C81.5,22.0156 81.7656,21.875 81.9375,21.6563 C82.0469,21.5 82.0781,21.3125 82.0781,20.8906 L82.0781,19.4688 C82.0781,19.0313 82.0625,18.9063 81.9688,18.75 C81.8125,18.4844 81.5313,18.3438 81.2344,18.3438 C80.9375,18.3438 80.7344,18.4375 80.5156,18.75 L80.3438,18.6719 Z " fill="#000000"/><text fill="#000000" font-family="sans-serif" font-size="14" lengthAdjust="spacing" textLength="68" x="92" y="27.8467">Conecta4</text><line style="stroke:#181818;stroke-width:0.5;" x1="64" x2="162" y1="39" y2="39"/><line style="stroke:#181818;stroke-width:0.5;" x1="64" x2="162" y1="47" y2="47"/><!--MD5=[dd91eae41778c45e12552e5329e240e8]
class Turn--><rect codeLine="2" fill="#F1F1F1" height="48" id="Turn" rx="2.5" ry="2.5" style="stroke:#181818;stroke-width:0.5;" width="64" x="81" y="115"/><ellipse cx="96" cy="131" fill="#ADD1B2" rx="11" ry="11" style="stroke:#181818;stroke-width:1.0;"/><path d="M98.3438,126.6719 C97.4063,126.2344 96.8125,126.0938 95.9375,126.0938 C93.3125,126.0938 91.3125,128.1719 91.3125,130.8906 L91.3125,132.0156 C91.3125,134.5938 93.4219,136.4844 96.3125,136.4844 C97.5313,136.4844 98.6875,136.1875 99.4375,135.6406 C100.0156,135.2344 100.3438,134.7813 100.3438,134.3906 C100.3438,133.9375 99.9531,133.5469 99.4844,133.5469 C99.2656,133.5469 99.0625,133.625 98.875,133.8125 C98.4219,134.2969 98.4219,134.2969 98.2344,134.3906 C97.8125,134.6563 97.125,134.7813 96.3594,134.7813 C94.3125,134.7813 93.0156,133.6875 93.0156,131.9844 L93.0156,130.8906 C93.0156,129.1094 94.2656,127.7969 96,127.7969 C96.5781,127.7969 97.1875,127.9531 97.6563,128.2031 C98.1406,128.4844 98.3125,128.7031 98.4063,129.1094 C98.4688,129.5156 98.5,129.6406 98.6406,129.7656 C98.7813,129.9063 99.0156,130.0156 99.2344,130.0156 C99.5,130.0156 99.7656,129.875 99.9375,129.6563 C100.0469,129.5 100.0781,129.3125 100.0781,128.8906 L100.0781,127.4688 C100.0781,127.0313 100.0625,126.9063 99.9688,126.75 C99.8125,126.4844 99.5313,126.3438 99.2344,126.3438 C98.9375,126.3438 98.7344,126.4375 98.5156,126.75 L98.3438,126.6719 Z " fill="#000000"/><text fill="#000000" font-family="sans-serif" font-size="14" lengthAdjust="spacing" textLength="32" x="110" y="135.8467">Turn</text><line style="stroke:#181818;stroke-width:0.5;" x1="82" x2="144" y1="147" y2="147"/><line style="stroke:#181818;stroke-width:0.5;" x1="82" x2="144" y1="155" y2="155"/><!--MD5=[2cb47ba637a0d19583e6199456f6ad0b]
class Player--><rect codeLine="3" fill="#F1F1F1" height="48" id="Player" rx="2.5" ry="2.5" style="stroke:#181818;stroke-width:0.5;" width="76" x="160" y="223"/><ellipse cx="175" cy="239" fill="#ADD1B2" rx="11" ry="11" style="stroke:#181818;stroke-width:1.0;"/><path d="M177.3438,234.6719 C176.4063,234.2344 175.8125,234.0938 174.9375,234.0938 C172.3125,234.0938 170.3125,236.1719 170.3125,238.8906 L170.3125,240.0156 C170.3125,242.5938 172.4219,244.4844 175.3125,244.4844 C176.5313,244.4844 177.6875,244.1875 178.4375,243.6406 C179.0156,243.2344 179.3438,242.7813 179.3438,242.3906 C179.3438,241.9375 178.9531,241.5469 178.4844,241.5469 C178.2656,241.5469 178.0625,241.625 177.875,241.8125 C177.4219,242.2969 177.4219,242.2969 177.2344,242.3906 C176.8125,242.6563 176.125,242.7813 175.3594,242.7813 C173.3125,242.7813 172.0156,241.6875 172.0156,239.9844 L172.0156,238.8906 C172.0156,237.1094 173.2656,235.7969 175,235.7969 C175.5781,235.7969 176.1875,235.9531 176.6563,236.2031 C177.1406,236.4844 177.3125,236.7031 177.4063,237.1094 C177.4688,237.5156 177.5,237.6406 177.6406,237.7656 C177.7813,237.9063 178.0156,238.0156 178.2344,238.0156 C178.5,238.0156 178.7656,237.875 178.9375,237.6563 C179.0469,237.5 179.0781,237.3125 179.0781,236.8906 L179.0781,235.4688 C179.0781,235.0313 179.0625,234.9063 178.9688,234.75 C178.8125,234.4844 178.5313,234.3438 178.2344,234.3438 C177.9375,234.3438 177.7344,234.4375 177.5156,234.75 L177.3438,234.6719 Z " fill="#000000"/><text fill="#000000" font-family="sans-serif" font-size="14" lengthAdjust="spacing" textLength="44" x="189" y="243.8467">Player</text><line style="stroke:#181818;stroke-width:0.5;" x1="161" x2="235" y1="255" y2="255"/><line style="stroke:#181818;stroke-width:0.5;" x1="161" x2="235" y1="263" y2="263"/><!--MD5=[1f24f7b92150e3316908f7910ce81742]
class Grid--><rect codeLine="4" fill="#F1F1F1" height="48" id="Grid" rx="2.5" ry="2.5" style="stroke:#181818;stroke-width:0.5;" width="62" x="34" y="547"/><ellipse cx="49" cy="563" fill="#ADD1B2" rx="11" ry="11" style="stroke:#181818;stroke-width:1.0;"/><path d="M51.3438,558.6719 C50.4063,558.2344 49.8125,558.0938 48.9375,558.0938 C46.3125,558.0938 44.3125,560.1719 44.3125,562.8906 L44.3125,564.0156 C44.3125,566.5938 46.4219,568.4844 49.3125,568.4844 C50.5313,568.4844 51.6875,568.1875 52.4375,567.6406 C53.0156,567.2344 53.3438,566.7813 53.3438,566.3906 C53.3438,565.9375 52.9531,565.5469 52.4844,565.5469 C52.2656,565.5469 52.0625,565.625 51.875,565.8125 C51.4219,566.2969 51.4219,566.2969 51.2344,566.3906 C50.8125,566.6563 50.125,566.7813 49.3594,566.7813 C47.3125,566.7813 46.0156,565.6875 46.0156,563.9844 L46.0156,562.8906 C46.0156,561.1094 47.2656,559.7969 49,559.7969 C49.5781,559.7969 50.1875,559.9531 50.6563,560.2031 C51.1406,560.4844 51.3125,560.7031 51.4063,561.1094 C51.4688,561.5156 51.5,561.6406 51.6406,561.7656 C51.7813,561.9063 52.0156,562.0156 52.2344,562.0156 C52.5,562.0156 52.7656,561.875 52.9375,561.6563 C53.0469,561.5 53.0781,561.3125 53.0781,560.8906 L53.0781,559.4688 C53.0781,559.0313 53.0625,558.9063 52.9688,558.75 C52.8125,558.4844 52.5313,558.3438 52.2344,558.3438 C51.9375,558.3438 51.7344,558.4375 51.5156,558.75 L51.3438,558.6719 Z " fill="#000000"/><text fill="#000000" font-family="sans-serif" font-size="14" lengthAdjust="spacing" textLength="30" x="63" y="567.8467">Grid</text><line style="stroke:#181818;stroke-width:0.5;" x1="35" x2="95" y1="579" y2="579"/><line style="stroke:#181818;stroke-width:0.5;" x1="35" x2="95" y1="587" y2="587"/><!--MD5=[f04eddc513368489aea0358c3d51bf6a]
class Insertion--><rect codeLine="5" fill="#F1F1F1" height="48" id="Insertion" rx="2.5" ry="2.5" style="stroke:#181818;stroke-width:0.5;" width="96" x="59" y="439"/><ellipse cx="74" cy="455" fill="#ADD1B2" rx="11" ry="11" style="stroke:#181818;stroke-width:1.0;"/><path d="M76.3438,450.6719 C75.4063,450.2344 74.8125,450.0938 73.9375,450.0938 C71.3125,450.0938 69.3125,452.1719 69.3125,454.8906 L69.3125,456.0156 C69.3125,458.5938 71.4219,460.4844 74.3125,460.4844 C75.5313,460.4844 76.6875,460.1875 77.4375,459.6406 C78.0156,459.2344 78.3438,458.7813 78.3438,458.3906 C78.3438,457.9375 77.9531,457.5469 77.4844,457.5469 C77.2656,457.5469 77.0625,457.625 76.875,457.8125 C76.4219,458.2969 76.4219,458.2969 76.2344,458.3906 C75.8125,458.6563 75.125,458.7813 74.3594,458.7813 C72.3125,458.7813 71.0156,457.6875 71.0156,455.9844 L71.0156,454.8906 C71.0156,453.1094 72.2656,451.7969 74,451.7969 C74.5781,451.7969 75.1875,451.9531 75.6563,452.2031 C76.1406,452.4844 76.3125,452.7031 76.4063,453.1094 C76.4688,453.5156 76.5,453.6406 76.6406,453.7656 C76.7813,453.9063 77.0156,454.0156 77.2344,454.0156 C77.5,454.0156 77.7656,453.875 77.9375,453.6563 C78.0469,453.5 78.0781,453.3125 78.0781,452.8906 L78.0781,451.4688 C78.0781,451.0313 78.0625,450.9063 77.9688,450.75 C77.8125,450.4844 77.5313,450.3438 77.2344,450.3438 C76.9375,450.3438 76.7344,450.4375 76.5156,450.75 L76.3438,450.6719 Z " fill="#000000"/><text fill="#000000" font-family="sans-serif" font-size="14" lengthAdjust="spacing" textLength="64" x="88" y="459.8467">Insertion</text><line style="stroke:#181818;stroke-width:0.5;" x1="60" x2="154" y1="471" y2="471"/><line style="stroke:#181818;stroke-width:0.5;" x1="60" x2="154" y1="479" y2="479"/><!--MD5=[a64a835c3d62471a77f615251fdde58a]
class Position--><rect codeLine="6" fill="#F1F1F1" height="48" id="Position" rx="2.5" ry="2.5" style="stroke:#181818;stroke-width:0.5;" width="90" x="104" y="655"/><ellipse cx="119" cy="671" fill="#ADD1B2" rx="11" ry="11" style="stroke:#181818;stroke-width:1.0;"/><path d="M121.3438,666.6719 C120.4063,666.2344 119.8125,666.0938 118.9375,666.0938 C116.3125,666.0938 114.3125,668.1719 114.3125,670.8906 L114.3125,672.0156 C114.3125,674.5938 116.4219,676.4844 119.3125,676.4844 C120.5313,676.4844 121.6875,676.1875 122.4375,675.6406 C123.0156,675.2344 123.3438,674.7813 123.3438,674.3906 C123.3438,673.9375 122.9531,673.5469 122.4844,673.5469 C122.2656,673.5469 122.0625,673.625 121.875,673.8125 C121.4219,674.2969 121.4219,674.2969 121.2344,674.3906 C120.8125,674.6563 120.125,674.7813 119.3594,674.7813 C117.3125,674.7813 116.0156,673.6875 116.0156,671.9844 L116.0156,670.8906 C116.0156,669.1094 117.2656,667.7969 119,667.7969 C119.5781,667.7969 120.1875,667.9531 120.6563,668.2031 C121.1406,668.4844 121.3125,668.7031 121.4063,669.1094 C121.4688,669.5156 121.5,669.6406 121.6406,669.7656 C121.7813,669.9063 122.0156,670.0156 122.2344,670.0156 C122.5,670.0156 122.7656,669.875 122.9375,669.6563 C123.0469,669.5 123.0781,669.3125 123.0781,668.8906 L123.0781,667.4688 C123.0781,667.0313 123.0625,666.9063 122.9688,666.75 C122.8125,666.4844 122.5313,666.3438 122.2344,666.3438 C121.9375,666.3438 121.7344,666.4375 121.5156,666.75 L121.3438,666.6719 Z " fill="#000000"/><text fill="#000000" font-family="sans-serif" font-size="14" lengthAdjust="spacing" textLength="58" x="133" y="675.8467">Position</text><line style="stroke:#181818;stroke-width:0.5;" x1="105" x2="193" y1="687" y2="687"/><line style="stroke:#181818;stroke-width:0.5;" x1="105" x2="193" y1="695" y2="695"/><!--MD5=[8c7d7abc12e214c3cc12c9ab70edee11]
class Coordinate--><rect codeLine="7" fill="#F1F1F1" height="48" id="Coordinate" rx="2.5" ry="2.5" style="stroke:#181818;stroke-width:0.5;" width="112" x="93" y="763"/><ellipse cx="108" cy="779" fill="#ADD1B2" rx="11" ry="11" style="stroke:#181818;stroke-width:1.0;"/><path d="M110.3438,774.6719 C109.4063,774.2344 108.8125,774.0938 107.9375,774.0938 C105.3125,774.0938 103.3125,776.1719 103.3125,778.8906 L103.3125,780.0156 C103.3125,782.5938 105.4219,784.4844 108.3125,784.4844 C109.5313,784.4844 110.6875,784.1875 111.4375,783.6406 C112.0156,783.2344 112.3438,782.7813 112.3438,782.3906 C112.3438,781.9375 111.9531,781.5469 111.4844,781.5469 C111.2656,781.5469 111.0625,781.625 110.875,781.8125 C110.4219,782.2969 110.4219,782.2969 110.2344,782.3906 C109.8125,782.6563 109.125,782.7813 108.3594,782.7813 C106.3125,782.7813 105.0156,781.6875 105.0156,779.9844 L105.0156,778.8906 C105.0156,777.1094 106.2656,775.7969 108,775.7969 C108.5781,775.7969 109.1875,775.9531 109.6563,776.2031 C110.1406,776.4844 110.3125,776.7031 110.4063,777.1094 C110.4688,777.5156 110.5,777.6406 110.6406,777.7656 C110.7813,777.9063 111.0156,778.0156 111.2344,778.0156 C111.5,778.0156 111.7656,777.875 111.9375,777.6563 C112.0469,777.5 112.0781,777.3125 112.0781,776.8906 L112.0781,775.4688 C112.0781,775.0313 112.0625,774.9063 111.9688,774.75 C111.8125,774.4844 111.5313,774.3438 111.2344,774.3438 C110.9375,774.3438 110.7344,774.4375 110.5156,774.75 L110.3438,774.6719 Z " fill="#000000"/><text fill="#000000" font-family="sans-serif" font-size="14" lengthAdjust="spacing" textLength="80" x="122" y="783.8467">Coordinate</text><line style="stroke:#181818;stroke-width:0.5;" x1="94" x2="204" y1="795" y2="795"/><line style="stroke:#181818;stroke-width:0.5;" x1="94" x2="204" y1="803" y2="803"/><!--MD5=[e05bacf3ff4416a0580578814d41bbf6]
class Piece--><rect codeLine="8" fill="#F1F1F1" height="48" id="Piece" rx="2.5" ry="2.5" style="stroke:#181818;stroke-width:0.5;" width="71" x="184.5" y="331"/><ellipse cx="199.5" cy="347" fill="#ADD1B2" rx="11" ry="11" style="stroke:#181818;stroke-width:1.0;"/><path d="M201.8438,342.6719 C200.9063,342.2344 200.3125,342.0938 199.4375,342.0938 C196.8125,342.0938 194.8125,344.1719 194.8125,346.8906 L194.8125,348.0156 C194.8125,350.5938 196.9219,352.4844 199.8125,352.4844 C201.0313,352.4844 202.1875,352.1875 202.9375,351.6406 C203.5156,351.2344 203.8438,350.7813 203.8438,350.3906 C203.8438,349.9375 203.4531,349.5469 202.9844,349.5469 C202.7656,349.5469 202.5625,349.625 202.375,349.8125 C201.9219,350.2969 201.9219,350.2969 201.7344,350.3906 C201.3125,350.6563 200.625,350.7813 199.8594,350.7813 C197.8125,350.7813 196.5156,349.6875 196.5156,347.9844 L196.5156,346.8906 C196.5156,345.1094 197.7656,343.7969 199.5,343.7969 C200.0781,343.7969 200.6875,343.9531 201.1563,344.2031 C201.6406,344.4844 201.8125,344.7031 201.9063,345.1094 C201.9688,345.5156 202,345.6406 202.1406,345.7656 C202.2813,345.9063 202.5156,346.0156 202.7344,346.0156 C203,346.0156 203.2656,345.875 203.4375,345.6563 C203.5469,345.5 203.5781,345.3125 203.5781,344.8906 L203.5781,343.4688 C203.5781,343.0313 203.5625,342.9063 203.4688,342.75 C203.3125,342.4844 203.0313,342.3438 202.7344,342.3438 C202.4375,342.3438 202.2344,342.4375 202.0156,342.75 L201.8438,342.6719 Z " fill="#000000"/><text fill="#000000" font-family="sans-serif" font-size="14" lengthAdjust="spacing" textLength="39" x="213.5" y="351.8467">Piece</text><line style="stroke:#181818;stroke-width:0.5;" x1="185.5" x2="254.5" y1="363" y2="363"/><line style="stroke:#181818;stroke-width:0.5;" x1="185.5" x2="254.5" y1="371" y2="371"/><!--MD5=[59a197a4e33151d5112197f2c5528c04]
class Yellow--><rect codeLine="9" fill="#F1F1F1" height="48" id="Yellow" rx="2.5" ry="2.5" style="stroke:#181818;stroke-width:0.5;" width="78" x="285" y="439"/><ellipse cx="300" cy="455" fill="#ADD1B2" rx="11" ry="11" style="stroke:#181818;stroke-width:1.0;"/><path d="M302.3438,450.6719 C301.4063,450.2344 300.8125,450.0938 299.9375,450.0938 C297.3125,450.0938 295.3125,452.1719 295.3125,454.8906 L295.3125,456.0156 C295.3125,458.5938 297.4219,460.4844 300.3125,460.4844 C301.5313,460.4844 302.6875,460.1875 303.4375,459.6406 C304.0156,459.2344 304.3438,458.7813 304.3438,458.3906 C304.3438,457.9375 303.9531,457.5469 303.4844,457.5469 C303.2656,457.5469 303.0625,457.625 302.875,457.8125 C302.4219,458.2969 302.4219,458.2969 302.2344,458.3906 C301.8125,458.6563 301.125,458.7813 300.3594,458.7813 C298.3125,458.7813 297.0156,457.6875 297.0156,455.9844 L297.0156,454.8906 C297.0156,453.1094 298.2656,451.7969 300,451.7969 C300.5781,451.7969 301.1875,451.9531 301.6563,452.2031 C302.1406,452.4844 302.3125,452.7031 302.4063,453.1094 C302.4688,453.5156 302.5,453.6406 302.6406,453.7656 C302.7813,453.9063 303.0156,454.0156 303.2344,454.0156 C303.5,454.0156 303.7656,453.875 303.9375,453.6563 C304.0469,453.5 304.0781,453.3125 304.0781,452.8906 L304.0781,451.4688 C304.0781,451.0313 304.0625,450.9063 303.9688,450.75 C303.8125,450.4844 303.5313,450.3438 303.2344,450.3438 C302.9375,450.3438 302.7344,450.4375 302.5156,450.75 L302.3438,450.6719 Z " fill="#000000"/><text fill="#000000" font-family="sans-serif" font-size="14" lengthAdjust="spacing" textLength="46" x="314" y="459.8467">Yellow</text><line style="stroke:#181818;stroke-width:0.5;" x1="286" x2="362" y1="471" y2="471"/><line style="stroke:#181818;stroke-width:0.5;" x1="286" x2="362" y1="479" y2="479"/><!--MD5=[08be530975453a47bdc5b5370100f2fc]
class Red--><rect codeLine="10" fill="#F1F1F1" height="48" id="Red" rx="2.5" ry="2.5" style="stroke:#181818;stroke-width:0.5;" width="60" x="190" y="439"/><ellipse cx="205" cy="455" fill="#ADD1B2" rx="11" ry="11" style="stroke:#181818;stroke-width:1.0;"/><path d="M207.3438,450.6719 C206.4063,450.2344 205.8125,450.0938 204.9375,450.0938 C202.3125,450.0938 200.3125,452.1719 200.3125,454.8906 L200.3125,456.0156 C200.3125,458.5938 202.4219,460.4844 205.3125,460.4844 C206.5313,460.4844 207.6875,460.1875 208.4375,459.6406 C209.0156,459.2344 209.3438,458.7813 209.3438,458.3906 C209.3438,457.9375 208.9531,457.5469 208.4844,457.5469 C208.2656,457.5469 208.0625,457.625 207.875,457.8125 C207.4219,458.2969 207.4219,458.2969 207.2344,458.3906 C206.8125,458.6563 206.125,458.7813 205.3594,458.7813 C203.3125,458.7813 202.0156,457.6875 202.0156,455.9844 L202.0156,454.8906 C202.0156,453.1094 203.2656,451.7969 205,451.7969 C205.5781,451.7969 206.1875,451.9531 206.6563,452.2031 C207.1406,452.4844 207.3125,452.7031 207.4063,453.1094 C207.4688,453.5156 207.5,453.6406 207.6406,453.7656 C207.7813,453.9063 208.0156,454.0156 208.2344,454.0156 C208.5,454.0156 208.7656,453.875 208.9375,453.6563 C209.0469,453.5 209.0781,453.3125 209.0781,452.8906 L209.0781,451.4688 C209.0781,451.0313 209.0625,450.9063 208.9688,450.75 C208.8125,450.4844 208.5313,450.3438 208.2344,450.3438 C207.9375,450.3438 207.7344,450.4375 207.5156,450.75 L207.3438,450.6719 Z " fill="#000000"/><text fill="#000000" font-family="sans-serif" font-size="14" lengthAdjust="spacing" textLength="28" x="219" y="459.8467">Red</text><line style="stroke:#181818;stroke-width:0.5;" x1="191" x2="249" y1="471" y2="471"/><line style="stroke:#181818;stroke-width:0.5;" x1="191" x2="249" y1="479" y2="479"/><!--MD5=[92fd46334eeec49de05be1c2389c0c70]
class 4inline--><rect codeLine="11" fill="#F1F1F1" height="48" id="4inline" rx="2.5" ry="2.5" style="stroke:#181818;stroke-width:0.5;" width="79" x="469.5" y="547"/><ellipse cx="484.5" cy="563" fill="#ADD1B2" rx="11" ry="11" style="stroke:#181818;stroke-width:1.0;"/><path d="M486.8438,558.6719 C485.9063,558.2344 485.3125,558.0938 484.4375,558.0938 C481.8125,558.0938 479.8125,560.1719 479.8125,562.8906 L479.8125,564.0156 C479.8125,566.5938 481.9219,568.4844 484.8125,568.4844 C486.0313,568.4844 487.1875,568.1875 487.9375,567.6406 C488.5156,567.2344 488.8438,566.7813 488.8438,566.3906 C488.8438,565.9375 488.4531,565.5469 487.9844,565.5469 C487.7656,565.5469 487.5625,565.625 487.375,565.8125 C486.9219,566.2969 486.9219,566.2969 486.7344,566.3906 C486.3125,566.6563 485.625,566.7813 484.8594,566.7813 C482.8125,566.7813 481.5156,565.6875 481.5156,563.9844 L481.5156,562.8906 C481.5156,561.1094 482.7656,559.7969 484.5,559.7969 C485.0781,559.7969 485.6875,559.9531 486.1563,560.2031 C486.6406,560.4844 486.8125,560.7031 486.9063,561.1094 C486.9688,561.5156 487,561.6406 487.1406,561.7656 C487.2813,561.9063 487.5156,562.0156 487.7344,562.0156 C488,562.0156 488.2656,561.875 488.4375,561.6563 C488.5469,561.5 488.5781,561.3125 488.5781,560.8906 L488.5781,559.4688 C488.5781,559.0313 488.5625,558.9063 488.4688,558.75 C488.3125,558.4844 488.0313,558.3438 487.7344,558.3438 C487.4375,558.3438 487.2344,558.4375 487.0156,558.75 L486.8438,558.6719 Z " fill="#000000"/><text fill="#000000" font-family="sans-serif" font-size="14" lengthAdjust="spacing" textLength="47" x="498.5" y="567.8467">4inline</text><line style="stroke:#181818;stroke-width:0.5;" x1="470.5" x2="547.5" y1="579" y2="579"/><line style="stroke:#181818;stroke-width:0.5;" x1="470.5" x2="547.5" y1="587" y2="587"/><!--MD5=[2808de09be71fab9caf2df132bae0681]
class Horizontal--><rect codeLine="12" fill="#F1F1F1" height="48" id="Horizontal" rx="2.5" ry="2.5" style="stroke:#181818;stroke-width:0.5;" width="106" x="324" y="655"/><ellipse cx="339" cy="671" fill="#ADD1B2" rx="11" ry="11" style="stroke:#181818;stroke-width:1.0;"/><path d="M341.3438,666.6719 C340.4063,666.2344 339.8125,666.0938 338.9375,666.0938 C336.3125,666.0938 334.3125,668.1719 334.3125,670.8906 L334.3125,672.0156 C334.3125,674.5938 336.4219,676.4844 339.3125,676.4844 C340.5313,676.4844 341.6875,676.1875 342.4375,675.6406 C343.0156,675.2344 343.3438,674.7813 343.3438,674.3906 C343.3438,673.9375 342.9531,673.5469 342.4844,673.5469 C342.2656,673.5469 342.0625,673.625 341.875,673.8125 C341.4219,674.2969 341.4219,674.2969 341.2344,674.3906 C340.8125,674.6563 340.125,674.7813 339.3594,674.7813 C337.3125,674.7813 336.0156,673.6875 336.0156,671.9844 L336.0156,670.8906 C336.0156,669.1094 337.2656,667.7969 339,667.7969 C339.5781,667.7969 340.1875,667.9531 340.6563,668.2031 C341.1406,668.4844 341.3125,668.7031 341.4063,669.1094 C341.4688,669.5156 341.5,669.6406 341.6406,669.7656 C341.7813,669.9063 342.0156,670.0156 342.2344,670.0156 C342.5,670.0156 342.7656,669.875 342.9375,669.6563 C343.0469,669.5 343.0781,669.3125 343.0781,668.8906 L343.0781,667.4688 C343.0781,667.0313 343.0625,666.9063 342.9688,666.75 C342.8125,666.4844 342.5313,666.3438 342.2344,666.3438 C341.9375,666.3438 341.7344,666.4375 341.5156,666.75 L341.3438,666.6719 Z " fill="#000000"/><text fill="#000000" font-family="sans-serif" font-size="14" lengthAdjust="spacing" textLength="74" x="353" y="675.8467">Horizontal</text><line style="stroke:#181818;stroke-width:0.5;" x1="325" x2="429" y1="687" y2="687"/><line style="stroke:#181818;stroke-width:0.5;" x1="325" x2="429" y1="695" y2="695"/><!--MD5=[9ddfc9bd1e3a4b04466623ab197feef8]
class Vertical--><rect codeLine="13" fill="#F1F1F1" height="48" id="Vertical" rx="2.5" ry="2.5" style="stroke:#181818;stroke-width:0.5;" width="88" x="465" y="655"/><ellipse cx="480" cy="671" fill="#ADD1B2" rx="11" ry="11" style="stroke:#181818;stroke-width:1.0;"/><path d="M482.3438,666.6719 C481.4063,666.2344 480.8125,666.0938 479.9375,666.0938 C477.3125,666.0938 475.3125,668.1719 475.3125,670.8906 L475.3125,672.0156 C475.3125,674.5938 477.4219,676.4844 480.3125,676.4844 C481.5313,676.4844 482.6875,676.1875 483.4375,675.6406 C484.0156,675.2344 484.3438,674.7813 484.3438,674.3906 C484.3438,673.9375 483.9531,673.5469 483.4844,673.5469 C483.2656,673.5469 483.0625,673.625 482.875,673.8125 C482.4219,674.2969 482.4219,674.2969 482.2344,674.3906 C481.8125,674.6563 481.125,674.7813 480.3594,674.7813 C478.3125,674.7813 477.0156,673.6875 477.0156,671.9844 L477.0156,670.8906 C477.0156,669.1094 478.2656,667.7969 480,667.7969 C480.5781,667.7969 481.1875,667.9531 481.6563,668.2031 C482.1406,668.4844 482.3125,668.7031 482.4063,669.1094 C482.4688,669.5156 482.5,669.6406 482.6406,669.7656 C482.7813,669.9063 483.0156,670.0156 483.2344,670.0156 C483.5,670.0156 483.7656,669.875 483.9375,669.6563 C484.0469,669.5 484.0781,669.3125 484.0781,668.8906 L484.0781,667.4688 C484.0781,667.0313 484.0625,666.9063 483.9688,666.75 C483.8125,666.4844 483.5313,666.3438 483.2344,666.3438 C482.9375,666.3438 482.7344,666.4375 482.5156,666.75 L482.3438,666.6719 Z " fill="#000000"/><text fill="#000000" font-family="sans-serif" font-size="14" lengthAdjust="spacing" textLength="56" x="494" y="675.8467">Vertical</text><line style="stroke:#181818;stroke-width:0.5;" x1="466" x2="552" y1="687" y2="687"/><line style="stroke:#181818;stroke-width:0.5;" x1="466" x2="552" y1="695" y2="695"/><!--MD5=[a135607b44036ad87f368405615013d9]
class Diagonal--><rect codeLine="14" fill="#F1F1F1" height="48" id="Diagonal" rx="2.5" ry="2.5" style="stroke:#181818;stroke-width:0.5;" width="94" x="588" y="655"/><ellipse cx="603" cy="671" fill="#ADD1B2" rx="11" ry="11" style="stroke:#181818;stroke-width:1.0;"/><path d="M605.3438,666.6719 C604.4063,666.2344 603.8125,666.0938 602.9375,666.0938 C600.3125,666.0938 598.3125,668.1719 598.3125,670.8906 L598.3125,672.0156 C598.3125,674.5938 600.4219,676.4844 603.3125,676.4844 C604.5313,676.4844 605.6875,676.1875 606.4375,675.6406 C607.0156,675.2344 607.3438,674.7813 607.3438,674.3906 C607.3438,673.9375 606.9531,673.5469 606.4844,673.5469 C606.2656,673.5469 606.0625,673.625 605.875,673.8125 C605.4219,674.2969 605.4219,674.2969 605.2344,674.3906 C604.8125,674.6563 604.125,674.7813 603.3594,674.7813 C601.3125,674.7813 600.0156,673.6875 600.0156,671.9844 L600.0156,670.8906 C600.0156,669.1094 601.2656,667.7969 603,667.7969 C603.5781,667.7969 604.1875,667.9531 604.6563,668.2031 C605.1406,668.4844 605.3125,668.7031 605.4063,669.1094 C605.4688,669.5156 605.5,669.6406 605.6406,669.7656 C605.7813,669.9063 606.0156,670.0156 606.2344,670.0156 C606.5,670.0156 606.7656,669.875 606.9375,669.6563 C607.0469,669.5 607.0781,669.3125 607.0781,668.8906 L607.0781,667.4688 C607.0781,667.0313 607.0625,666.9063 606.9688,666.75 C606.8125,666.4844 606.5313,666.3438 606.2344,666.3438 C605.9375,666.3438 605.7344,666.4375 605.5156,666.75 L605.3438,666.6719 Z " fill="#000000"/><text fill="#000000" font-family="sans-serif" font-size="14" lengthAdjust="spacing" textLength="62" x="617" y="675.8467">Diagonal</text><line style="stroke:#181818;stroke-width:0.5;" x1="589" x2="681" y1="687" y2="687"/><line style="stroke:#181818;stroke-width:0.5;" x1="589" x2="681" y1="695" y2="695"/><!--MD5=[fdef410e15c6ecfd782a98dce8273687]
reverse link Conecta4 to Grid--><path codeLine="18" d="M84.0707,65.348 C52.3815,105.403 6,175.989 6,246 C6,246 6,246 6,356 C6,427.682 37.1457,508.17 54.1785,546.828 " fill="none" id="Conecta4-backto-Grid" style="stroke:#181818;stroke-width:1.0;"/><polygon fill="#181818" points="92.3693,55.124,85.4823,57.2616,84.8066,64.441,91.6936,62.3034,92.3693,55.124" style="stroke:#181818;stroke-width:1.0;"/><!--MD5=[19e6be48f5e011906ea3829511cd0b39]
reverse link Conecta4 to Turn--><path codeLine="19" d="M113,68.338 C113,83.681 113,101.098 113,114.678 " fill="none" id="Conecta4-backto-Turn" style="stroke:#181818;stroke-width:1.0;"/><polygon fill="#181818" points="113,55,109,61,113,67,117,61,113,55" style="stroke:#181818;stroke-width:1.0;"/><!--MD5=[4248da84ba852c405319b614eeedd885]
reverse link Conecta4 to Player--><path codeLine="20" d="M135.904,66.104 C144.965,80.701 154.892,98.223 162,115 C177.366,151.268 188.004,195.965 193.544,222.66 " fill="none" id="Conecta4-backto-Player" style="stroke:#181818;stroke-width:1.0;"/><polygon fill="#181818" points="128.893,55.094,128.7418,62.3035,135.3386,65.216,135.4898,58.0065,128.893,55.094" style="stroke:#181818;stroke-width:1.0;"/><text fill="#000000" font-family="sans-serif" font-size="13" lengthAdjust="spacing" textLength="8" x="183.4829" y="211.9821">2</text><!--MD5=[d81713d91ad05be3b975338c4816ee0b]
link Turn to Player--><path codeLine="22" d="M131.444,163 C144.497,179.279 162.065,201.187 175.874,218.408 " fill="none" id="Turn-to-Player" style="stroke:#181818;stroke-width:1.0;"/><polygon fill="#181818" points="179.299,222.678,176.7913,213.1537,176.1719,218.7766,170.549,218.1572,179.299,222.678" style="stroke:#181818;stroke-width:1.0;"/><!--MD5=[7bb762d18462f0af16144f4412d331d8]
link Player to Insertion--><path codeLine="23" d="M188.088,271.309 C171.233,310.946 137.056,391.32 118.923,433.962 " fill="none" id="Player-to-Insertion" style="stroke:#181818;stroke-width:1.0;stroke-dasharray:7.0,7.0;"/><polygon fill="#181818" points="116.9,438.72,124.1017,432.0017,118.8558,434.1184,116.7391,428.8725,116.9,438.72" style="stroke:#181818;stroke-width:1.0;"/><!--MD5=[3ada97fffb5bcc4da390db27b64fa26e]
link Player to Piece--><path codeLine="25" d="M202.774,271 C206.095,287.003 210.545,308.446 214.091,325.528 " fill="none" id="Player-to-Piece" style="stroke:#181818;stroke-width:1.0;"/><polygon fill="#181818" points="215.16,330.678,217.2483,321.0531,214.1443,325.7823,209.4151,322.6782,215.16,330.678" style="stroke:#181818;stroke-width:1.0;"/><text fill="#000000" font-family="sans-serif" font-size="13" lengthAdjust="spacing" textLength="16" x="196.0303" y="320.0045">21</text><!--MD5=[fdc5a7fdebb3774e6f5427d2bbfa7777]
link Player to 4inline--><path codeLine="26" d="M227.022,271.132 C269.399,305.556 349.721,373.288 410,439 C440.73,472.5 471.591,515.097 490.495,542.458 " fill="none" id="Player-to-4inline" style="stroke:#181818;stroke-width:1.0;"/><polygon fill="#181818" points="493.424,546.714,491.6147,537.0328,490.5885,542.5958,485.0255,541.5695,493.424,546.714" style="stroke:#181818;stroke-width:1.0;"/><!--MD5=[0d5bb60a95cfb7ab0730d9de93c65ef6]
reverse link 4inline to Horizontal--><path codeLine="28" d="M464.624,607.635 C445.307,623.147 423.212,640.89 406.042,654.678 " fill="none" id="4inline-backto-Horizontal" style="stroke:#181818;stroke-width:1.0;"/><polygon fill="none" points="460.381,602.065,480.358,595,469.147,612.981,460.381,602.065" style="stroke:#181818;stroke-width:1.0;"/><!--MD5=[be1c79c315e1d398a16167186080cb83]
reverse link 4inline to Vertical--><path codeLine="29" d="M509,615.024 C509,628.579 509,643.038 509,654.678 " fill="none" id="4inline-backto-Vertical" style="stroke:#181818;stroke-width:1.0;"/><polygon fill="none" points="502,615,509,595,516,615,502,615" style="stroke:#181818;stroke-width:1.0;"/><!--MD5=[c7a3f79fe60cdbd480a3dc88a0d2516a]
reverse link 4inline to Diagonal--><path codeLine="30" d="M551.916,608.104 C570.221,623.503 591.053,641.029 607.278,654.678 " fill="none" id="4inline-backto-Diagonal" style="stroke:#181818;stroke-width:1.0;"/><polygon fill="none" points="547.138,613.232,536.34,595,556.151,602.519,547.138,613.232" style="stroke:#181818;stroke-width:1.0;"/><!--MD5=[0358e383b94cdd36a6840bcda7ef3af4]
reverse link Piece to Red--><path codeLine="32" d="M220,399.024 C220,412.579 220,427.038 220,438.678 " fill="none" id="Piece-backto-Red" style="stroke:#181818;stroke-width:1.0;"/><polygon fill="none" points="213,399,220,379,227,399,213,399" style="stroke:#181818;stroke-width:1.0;"/><!--MD5=[893fc4f09a7266db669cb6191559e64a]
reverse link Piece to Yellow--><path codeLine="33" d="M256.577,393.28 C271.402,408.391 288.066,425.375 301.118,438.678 " fill="none" id="Piece-backto-Yellow" style="stroke:#181818;stroke-width:1.0;"/><polygon fill="none" points="251.577,398.179,242.566,379,261.57,388.374,251.577,398.179" style="stroke:#181818;stroke-width:1.0;"/><!--MD5=[4ab0925973eeb7b1eb0dc6783fc2f723]
reverse link Grid to Position--><path codeLine="37" d="M91.5827,605.545 C104.2535,621.534 119.098,640.267 130.519,654.678 " fill="none" id="Grid-backto-Position" style="stroke:#181818;stroke-width:1.0;"/><polygon fill="#181818" points="83.2267,595,83.8183,602.1868,90.6798,604.4049,90.0882,597.2181,83.2267,595" style="stroke:#181818;stroke-width:1.0;"/><text fill="#000000" font-family="sans-serif" font-size="13" lengthAdjust="spacing" textLength="24" x="99.0893" y="644.0045">6x7</text><!--MD5=[2e8829afd0ed8a1ed80094ab78373320]
reverse link Position to Coordinate--><path codeLine="38" d="M149,716.3383 C149,731.6813 149,749.098 149,762.6784 " fill="none" id="Position-backto-Coordinate" style="stroke:#181818;stroke-width:1.0;"/><polygon fill="#181818" points="149,703,145,709,149,715,153,709,149,703" style="stroke:#181818;stroke-width:1.0;"/><!--MD5=[62ea41e95c4692cb948df2194eb6bb4a]
link Piece to Position--><path codeLine="40" d="M255.631,363.035 C294.2,372.76 353.83,394.426 381,439 C392.103,457.216 390.106,467.708 381,487 C343.527,566.389 255.081,623.934 198.862,654.051 " fill="none" id="Piece-to-Position" style="stroke:#181818;stroke-width:1.0;stroke-dasharray:7.0,7.0;"/><polygon fill="#181818" points="194.199,656.526,204.0239,655.8401,198.6155,654.182,200.2736,648.7736,194.199,656.526" style="stroke:#181818;stroke-width:1.0;"/><!--MD5=[d6b414d5a69df32319d61a0dc18c9707]
link Insertion to 4inline--><path codeLine="41" d="M155.1,481.615 C160.77,483.514 166.495,485.353 172,487 C275.659,518.022 399.71,546.362 464.541,560.519 " fill="none" id="Insertion-to-4inline" style="stroke:#181818;stroke-width:1.0;"/><polygon fill="#181818" points="469.486,561.596,461.5452,555.7698,464.6009,560.5304,459.8403,563.586,469.486,561.596" style="stroke:#181818;stroke-width:1.0;"/><!--MD5=[e21bdebf778da3ed06f4cff208cec337]
link Insertion to Position--><path codeLine="42" d="M111.575,487.309 C119.338,526.866 135.064,606.994 143.446,649.702 " fill="none" id="Insertion-to-Position" style="stroke:#181818;stroke-width:1.0;stroke-dasharray:7.0,7.0;"/><polygon fill="#181818" points="144.431,654.72,146.6227,645.1181,143.468,649.8136,138.7725,646.6589,144.431,654.72" style="stroke:#181818;stroke-width:1.0;"/><!--MD5=[9b04ac0f3a98142d8dba8e6a8ea90d15]
link Piece to Insertion--><path codeLine="43" d="M195.481,379 C177.98,395.417 154.376,417.559 135.949,434.844 " fill="none" id="Piece-to-Insertion" style="stroke:#181818;stroke-width:1.0;"/><polygon fill="#181818" points="131.862,438.678,141.1625,435.4376,135.5086,435.2571,135.6891,429.6031,131.862,438.678" style="stroke:#181818;stroke-width:1.0;"/><!--MD5=[91f2baf6c6c7b9d43b5f2e867e295ad3]
link Insertion to Grid--><path codeLine="44" d="M97.8866,487 C91.4913,503.141 82.903,524.816 76.1067,541.969 " fill="none" id="Insertion-to-Grid" style="stroke:#181818;stroke-width:1.0;"/><polygon fill="#181818" points="74.2406,546.678,81.2759,539.7857,76.0833,542.0299,73.839,536.8373,74.2406,546.678" style="stroke:#181818;stroke-width:1.0;"/><!--MD5=[fec835d5a5b9b96a058faaafe0d158ac]
@startuml
Class Conecta4
Class Turn
Class Player
Class Grid
Class Insertion
Class Position
Class Coordinate
Class Piece
Class Yellow
Class Red
Class 4inline
Class Horizontal
Class Vertical
Class Diagonal



Conecta4 *- - Grid
Conecta4 *- - Turn
Conecta4 *- - "2" Player

Turn - -> Player
Player ..> Insertion

Player - -> "21" Piece
Player - -> 4inline

4inline <|- - Horizontal
4inline <|- - Vertical
4inline <|- - Diagonal

Piece <|- - Red
Piece <|- - Yellow



Grid *- -"6x7" Position
Position *- - Coordinate

Piece ..> Position
Insertion - -> 4inline
Insertion ..> Position
Piece - -> Insertion
Insertion - -> Grid
@enduml

PlantUML version 1.2022.2beta5(Unknown compile time)
(GPL source distribution)
Java Runtime: Java(TM) SE Runtime Environment
JVM: Java HotSpot(TM) 64-Bit Server VM
Default Encoding: UTF-8
Language: en
Country: US
--></g></svg>