<svg version="1.1" xmlns="http://www.w3.org/2000/svg" xmlns:xlink="http://www.w3.org/1999/xlink" width="556" height="693"><defs/><g><text fill="#eeeeee" stroke="none" font-family="Arial" font-size="24px" font-style="normal" font-weight="normal" text-decoration="none" x="0" y="0">UNREGISTERED</text><text fill="#eeeeee" stroke="none" font-family="Arial" font-size="24px" font-style="normal" font-weight="normal" text-decoration="none" x="0" y="30">UNREGISTERED</text><text fill="#eeeeee" stroke="none" font-family="Arial" font-size="24px" font-style="normal" font-weight="normal" text-decoration="none" x="0" y="60">UNREGISTERED</text><text fill="#eeeeee" stroke="none" font-family="Arial" font-size="24px" font-style="normal" font-weight="normal" text-decoration="none" x="0" y="90">UNREGISTERED</text><text fill="#eeeeee" stroke="none" font-family="Arial" font-size="24px" font-style="normal" font-weight="normal" text-decoration="none" x="0" y="120">UNREGISTERED</text><text fill="#eeeeee" stroke="none" font-family="Arial" font-size="24px" font-style="normal" font-weight="normal" text-decoration="none" x="0" y="150">UNREGISTERED</text><text fill="#eeeeee" stroke="none" font-family="Arial" font-size="24px" font-style="normal" font-weight="normal" text-decoration="none" x="0" y="180">UNREGISTERED</text><text fill="#eeeeee" stroke="none" font-family="Arial" font-size="24px" font-style="normal" font-weight="normal" text-decoration="none" x="0" y="210">UNREGISTERED</text><text fill="#eeeeee" stroke="none" font-family="Arial" font-size="24px" font-style="normal" font-weight="normal" text-decoration="none" x="0" y="240">UNREGISTERED</text><text fill="#eeeeee" stroke="none" font-family="Arial" font-size="24px" font-style="normal" font-weight="normal" text-decoration="none" x="0" y="270">UNREGISTERED</text><text fill="#eeeeee" stroke="none" font-family="Arial" font-size="24px" font-style="normal" font-weight="normal" text-decoration="none" x="0" y="300">UNREGISTERED</text><text fill="#eeeeee" stroke="none" font-family="Arial" font-size="24px" font-style="normal" font-weight="normal" text-decoration="none" x="0" y="330">UNREGISTERED</text><text fill="#eeeeee" stroke="none" font-family="Arial" font-size="24px" font-style="normal" font-weight="normal" text-decoration="none" x="0" y="360">UNREGISTERED</text><text fill="#eeeeee" stroke="none" font-family="Arial" font-size="24px" font-style="normal" font-weight="normal" text-decoration="none" x="0" y="390">UNREGISTERED</text><text fill="#eeeeee" stroke="none" font-family="Arial" font-size="24px" font-style="normal" font-weight="normal" text-decoration="none" x="0" y="420">UNREGISTERED</text><text fill="#eeeeee" stroke="none" font-family="Arial" font-size="24px" font-style="normal" font-weight="normal" text-decoration="none" x="0" y="450">UNREGISTERED</text><text fill="#eeeeee" stroke="none" font-family="Arial" font-size="24px" font-style="normal" font-weight="normal" text-decoration="none" x="0" y="480">UNREGISTERED</text><text fill="#eeeeee" stroke="none" font-family="Arial" font-size="24px" font-style="normal" font-weight="normal" text-decoration="none" x="0" y="510">UNREGISTERED</text><text fill="#eeeeee" stroke="none" font-family="Arial" font-size="24px" font-style="normal" font-weight="normal" text-decoration="none" x="0" y="540">UNREGISTERED</text><text fill="#eeeeee" stroke="none" font-family="Arial" font-size="24px" font-style="normal" font-weight="normal" text-decoration="none" x="0" y="570">UNREGISTERED</text><text fill="#eeeeee" stroke="none" font-family="Arial" font-size="24px" font-style="normal" font-weight="normal" text-decoration="none" x="0" y="600">UNREGISTERED</text><text fill="#eeeeee" stroke="none" font-family="Arial" font-size="24px" font-style="normal" font-weight="normal" text-decoration="none" x="0" y="630">UNREGISTERED</text><text fill="#eeeeee" stroke="none" font-family="Arial" font-size="24px" font-style="normal" font-weight="normal" text-decoration="none" x="0" y="660">UNREGISTERED</text><text fill="#eeeeee" stroke="none" font-family="Arial" font-size="24px" font-style="normal" font-weight="normal" text-decoration="none" x="0" y="690">UNREGISTERED</text><text fill="#eeeeee" stroke="none" font-family="Arial" font-size="24px" font-style="normal" font-weight="normal" text-decoration="none" x="200" y="0">UNREGISTERED</text><text fill="#eeeeee" stroke="none" font-family="Arial" font-size="24px" font-style="normal" font-weight="normal" text-decoration="none" x="200" y="30">UNREGISTERED</text><text fill="#eeeeee" stroke="none" font-family="Arial" font-size="24px" font-style="normal" font-weight="normal" text-decoration="none" x="200" y="60">UNREGISTERED</text><text fill="#eeeeee" stroke="none" font-family="Arial" font-size="24px" font-style="normal" font-weight="normal" text-decoration="none" x="200" y="90">UNREGISTERED</text><text fill="#eeeeee" stroke="none" font-family="Arial" font-size="24px" font-style="normal" font-weight="normal" text-decoration="none" x="200" y="120">UNREGISTERED</text><text fill="#eeeeee" stroke="none" font-family="Arial" font-size="24px" font-style="normal" font-weight="normal" text-decoration="none" x="200" y="150">UNREGISTERED</text><text fill="#eeeeee" stroke="none" font-family="Arial" font-size="24px" font-style="normal" font-weight="normal" text-decoration="none" x="200" y="180">UNREGISTERED</text><text fill="#eeeeee" stroke="none" font-family="Arial" font-size="24px" font-style="normal" font-weight="normal" text-decoration="none" x="200" y="210">UNREGISTERED</text><text fill="#eeeeee" stroke="none" font-family="Arial" font-size="24px" font-style="normal" font-weight="normal" text-decoration="none" x="200" y="240">UNREGISTERED</text><text fill="#eeeeee" stroke="none" font-family="Arial" font-size="24px" font-style="normal" font-weight="normal" text-decoration="none" x="200" y="270">UNREGISTERED</text><text fill="#eeeeee" stroke="none" font-family="Arial" font-size="24px" font-style="normal" font-weight="normal" text-decoration="none" x="200" y="300">UNREGISTERED</text><text fill="#eeeeee" stroke="none" font-family="Arial" font-size="24px" font-style="normal" font-weight="normal" text-decoration="none" x="200" y="330">UNREGISTERED</text><text fill="#eeeeee" stroke="none" font-family="Arial" font-size="24px" font-style="normal" font-weight="normal" text-decoration="none" x="200" y="360">UNREGISTERED</text><text fill="#eeeeee" stroke="none" font-family="Arial" font-size="24px" font-style="normal" font-weight="normal" text-decoration="none" x="200" y="390">UNREGISTERED</text><text fill="#eeeeee" stroke="none" font-family="Arial" font-size="24px" font-style="normal" font-weight="normal" text-decoration="none" x="200" y="420">UNREGISTERED</text><text fill="#eeeeee" stroke="none" font-family="Arial" font-size="24px" font-style="normal" font-weight="normal" text-decoration="none" x="200" y="450">UNREGISTERED</text><text fill="#eeeeee" stroke="none" font-family="Arial" font-size="24px" font-style="normal" font-weight="normal" text-decoration="none" x="200" y="480">UNREGISTERED</text><text fill="#eeeeee" stroke="none" font-family="Arial" font-size="24px" font-style="normal" font-weight="normal" text-decoration="none" x="200" y="510">UNREGISTERED</text><text fill="#eeeeee" stroke="none" font-family="Arial" font-size="24px" font-style="normal" font-weight="normal" text-decoration="none" x="200" y="540">UNREGISTERED</text><text fill="#eeeeee" stroke="none" font-family="Arial" font-size="24px" font-style="normal" font-weight="normal" text-decoration="none" x="200" y="570">UNREGISTERED</text><text fill="#eeeeee" stroke="none" font-family="Arial" font-size="24px" font-style="normal" font-weight="normal" text-decoration="none" x="200" y="600">UNREGISTERED</text><text fill="#eeeeee" stroke="none" font-family="Arial" font-size="24px" font-style="normal" font-weight="normal" text-decoration="none" x="200" y="630">UNREGISTERED</text><text fill="#eeeeee" stroke="none" font-family="Arial" font-size="24px" font-style="normal" font-weight="normal" text-decoration="none" x="200" y="660">UNREGISTERED</text><text fill="#eeeeee" stroke="none" font-family="Arial" font-size="24px" font-style="normal" font-weight="normal" text-decoration="none" x="200" y="690">UNREGISTERED</text><text fill="#eeeeee" stroke="none" font-family="Arial" font-size="24px" font-style="normal" font-weight="normal" text-decoration="none" x="400" y="0">UNREGISTERED</text><text fill="#eeeeee" stroke="none" font-family="Arial" font-size="24px" font-style="normal" font-weight="normal" text-decoration="none" x="400" y="30">UNREGISTERED</text><text fill="#eeeeee" stroke="none" font-family="Arial" font-size="24px" font-style="normal" font-weight="normal" text-decoration="none" x="400" y="60">UNREGISTERED</text><text fill="#eeeeee" stroke="none" font-family="Arial" font-size="24px" font-style="normal" font-weight="normal" text-decoration="none" x="400" y="90">UNREGISTERED</text><text fill="#eeeeee" stroke="none" font-family="Arial" font-size="24px" font-style="normal" font-weight="normal" text-decoration="none" x="400" y="120">UNREGISTERED</text><text fill="#eeeeee" stroke="none" font-family="Arial" font-size="24px" font-style="normal" font-weight="normal" text-decoration="none" x="400" y="150">UNREGISTERED</text><text fill="#eeeeee" stroke="none" font-family="Arial" font-size="24px" font-style="normal" font-weight="normal" text-decoration="none" x="400" y="180">UNREGISTERED</text><text fill="#eeeeee" stroke="none" font-family="Arial" font-size="24px" font-style="normal" font-weight="normal" text-decoration="none" x="400" y="210">UNREGISTERED</text><text fill="#eeeeee" stroke="none" font-family="Arial" font-size="24px" font-style="normal" font-weight="normal" text-decoration="none" x="400" y="240">UNREGISTERED</text><text fill="#eeeeee" stroke="none" font-family="Arial" font-size="24px" font-style="normal" font-weight="normal" text-decoration="none" x="400" y="270">UNREGISTERED</text><text fill="#eeeeee" stroke="none" font-family="Arial" font-size="24px" font-style="normal" font-weight="normal" text-decoration="none" x="400" y="300">UNREGISTERED</text><text fill="#eeeeee" stroke="none" font-family="Arial" font-size="24px" font-style="normal" font-weight="normal" text-decoration="none" x="400" y="330">UNREGISTERED</text><text fill="#eeeeee" stroke="none" font-family="Arial" font-size="24px" font-style="normal" font-weight="normal" text-decoration="none" x="400" y="360">UNREGISTERED</text><text fill="#eeeeee" stroke="none" font-family="Arial" font-size="24px" font-style="normal" font-weight="normal" text-decoration="none" x="400" y="390">UNREGISTERED</text><text fill="#eeeeee" stroke="none" font-family="Arial" font-size="24px" font-style="normal" font-weight="normal" text-decoration="none" x="400" y="420">UNREGISTERED</text><text fill="#eeeeee" stroke="none" font-family="Arial" font-size="24px" font-style="normal" font-weight="normal" text-decoration="none" x="400" y="450">UNREGISTERED</text><text fill="#eeeeee" stroke="none" font-family="Arial" font-size="24px" font-style="normal" font-weight="normal" text-decoration="none" x="400" y="480">UNREGISTERED</text><text fill="#eeeeee" stroke="none" font-family="Arial" font-size="24px" font-style="normal" font-weight="normal" text-decoration="none" x="400" y="510">UNREGISTERED</text><text fill="#eeeeee" stroke="none" font-family="Arial" font-size="24px" font-style="normal" font-weight="normal" text-decoration="none" x="400" y="540">UNREGISTERED</text><text fill="#eeeeee" stroke="none" font-family="Arial" font-size="24px" font-style="normal" font-weight="normal" text-decoration="none" x="400" y="570">UNREGISTERED</text><text fill="#eeeeee" stroke="none" font-family="Arial" font-size="24px" font-style="normal" font-weight="normal" text-decoration="none" x="400" y="600">UNREGISTERED</text><text fill="#eeeeee" stroke="none" font-family="Arial" font-size="24px" font-style="normal" font-weight="normal" text-decoration="none" x="400" y="630">UNREGISTERED</text><text fill="#eeeeee" stroke="none" font-family="Arial" font-size="24px" font-style="normal" font-weight="normal" text-decoration="none" x="400" y="660">UNREGISTERED</text><text fill="#eeeeee" stroke="none" font-family="Arial" font-size="24px" font-style="normal" font-weight="normal" text-decoration="none" x="400" y="690">UNREGISTERED</text><g transform="translate(-222,-6) scale(1,1)"><path fill="#C0C0C0" stroke="none" d="M 599 32.5 C 599 27.2532944 603.2532944 23 608.5 23 C 613.7467056 23 618 27.2532944 618 32.5 C 618 37.7467056 613.7467056 42 608.5 42 C 603.2532944 42 599 37.7467056 599 32.5 Z" opacity="0.2"/></g><g transform="translate(-222,-6) scale(1,1)"><path fill="#000000" stroke="none" d="M 592 25.5 C 592 20.2532944 596.2532944 16 601.5 16 C 606.7467056 16 611 20.2532944 611 25.5 C 611 30.7467056 606.7467056 35 601.5 35 C 596.2532944 35 592 30.7467056 592 25.5 Z"/></g><g transform="translate(-222,-6) scale(1,1)"><path fill="#C0C0C0" stroke="none" d="M 599 683.5 C 599 676.59644 604.59644 671 611.5 671 C 618.40356 671 624 676.59644 624 683.5 C 624 690.40356 618.40356 696 611.5 696 C 604.59644 696 599 690.40356 599 683.5 Z" opacity="0.2"/></g><g transform="translate(-222,-6) scale(1,1)"><path fill="none" stroke="#000000" d="M 592 676.5 C 592 669.59644 597.59644 664 604.5 664 C 611.40356 664 617 669.59644 617 676.5 C 617 683.40356 611.40356 689 604.5 689 C 597.59644 689 592 683.40356 592 676.5 Z" stroke-miterlimit="10"/></g><g transform="translate(-222,-6) scale(1,1)"><path fill="#000000" stroke="none" d="M 597 676.5 C 597 672.357864 600.357864 669 604.5 669 C 608.642136 669 612 672.357864 612 676.5 C 612 680.642136 608.642136 684 604.5 684 C 600.357864 684 597 680.642136 597 676.5 Z"/></g><g transform="translate(-222,-6) scale(1,1)"><path fill="#C0C0C0" stroke="none" d="M 593 87 L 632 87 Q 642 87 642 97 L 642 116 Q 642 126 632 126 L 593 126 Q 583 126 583 116 L 583 97 Q 583 87 593 87 Z" opacity="0.2"/></g><g transform="translate(-222,-6) scale(1,1)"><path fill="#ffffff" stroke="none" d="M 586 80 L 625 80 Q 635 80 635 90 L 635 109 Q 635 119 625 119 L 586 119 Q 576 119 576 109 L 576 90 Q 576 80 586 80 Z"/></g><g transform="translate(-222,-6) scale(1,1)"><path fill="none" stroke="#000000" d="M 586 80 L 625 80 Q 635 80 635 90 L 635 109 Q 635 119 625 119 L 586 119 Q 576 119 576 109 L 576 90 Q 576 80 586 80 Z" stroke-miterlimit="10"/></g><g transform="translate(-222,-6) scale(1,1)"><g><path fill="none" stroke="none"/><text fill="#000000" stroke="none" font-family="Arial" font-size="13px" font-style="normal" font-weight="bold" text-decoration="none" x="586.707763671875" y="99.5">State1</text></g></g><g transform="translate(-222,-6) scale(1,1)"><path fill="#C0C0C0" stroke="none" d="M 593 207 L 632 207 Q 642 207 642 217 L 642 236 Q 642 246 632 246 L 593 246 Q 583 246 583 236 L 583 217 Q 583 207 593 207 Z" opacity="0.2"/></g><g transform="translate(-222,-6) scale(1,1)"><path fill="#ffffff" stroke="none" d="M 586 200 L 625 200 Q 635 200 635 210 L 635 229 Q 635 239 625 239 L 586 239 Q 576 239 576 229 L 576 210 Q 576 200 586 200 Z"/></g><g transform="translate(-222,-6) scale(1,1)"><path fill="none" stroke="#000000" d="M 586 200 L 625 200 Q 635 200 635 210 L 635 229 Q 635 239 625 239 L 586 239 Q 576 239 576 229 L 576 210 Q 576 200 586 200 Z" stroke-miterlimit="10"/></g><g transform="translate(-222,-6) scale(1,1)"><g><path fill="none" stroke="none"/><text fill="#000000" stroke="none" font-family="Arial" font-size="13px" font-style="normal" font-weight="bold" text-decoration="none" x="586.707763671875" y="219.5">State2</text></g></g><g transform="translate(-222,-6) scale(1,1)"><path fill="#C0C0C0" stroke="none" d="M 593 295 L 632 295 Q 642 295 642 305 L 642 324 Q 642 334 632 334 L 593 334 Q 583 334 583 324 L 583 305 Q 583 295 593 295 Z" opacity="0.2"/></g><g transform="translate(-222,-6) scale(1,1)"><path fill="#ffffff" stroke="none" d="M 586 288 L 625 288 Q 635 288 635 298 L 635 317 Q 635 327 625 327 L 586 327 Q 576 327 576 317 L 576 298 Q 576 288 586 288 Z"/></g><g transform="translate(-222,-6) scale(1,1)"><path fill="none" stroke="#000000" d="M 586 288 L 625 288 Q 635 288 635 298 L 635 317 Q 635 327 625 327 L 586 327 Q 576 327 576 317 L 576 298 Q 576 288 586 288 Z" stroke-miterlimit="10"/></g><g transform="translate(-222,-6) scale(1,1)"><g><path fill="none" stroke="none"/><text fill="#000000" stroke="none" font-family="Arial" font-size="13px" font-style="normal" font-weight="bold" text-decoration="none" x="586.707763671875" y="307.5">State3</text></g></g><g transform="translate(-222,-6) scale(1,1)"><path fill="#C0C0C0" stroke="none" d="M 297 367 L 336 367 Q 346 367 346 377 L 346 396 Q 346 406 336 406 L 297 406 Q 287 406 287 396 L 287 377 Q 287 367 297 367 Z" opacity="0.2"/></g><g transform="translate(-222,-6) scale(1,1)"><path fill="#ffffff" stroke="none" d="M 290 360 L 329 360 Q 339 360 339 370 L 339 389 Q 339 399 329 399 L 290 399 Q 280 399 280 389 L 280 370 Q 280 360 290 360 Z"/></g><g transform="translate(-222,-6) scale(1,1)"><path fill="none" stroke="#000000" d="M 290 360 L 329 360 Q 339 360 339 370 L 339 389 Q 339 399 329 399 L 290 399 Q 280 399 280 389 L 280 370 Q 280 360 290 360 Z" stroke-miterlimit="10"/></g><g transform="translate(-222,-6) scale(1,1)"><g><path fill="none" stroke="none"/><text fill="#000000" stroke="none" font-family="Arial" font-size="13px" font-style="normal" font-weight="bold" text-decoration="none" x="290.707763671875" y="379.5">State4</text></g></g><g transform="translate(-222,-6) scale(1,1)"><path fill="#C0C0C0" stroke="none" d="M 505 455 L 544 455 Q 554 455 554 465 L 554 484 Q 554 494 544 494 L 505 494 Q 495 494 495 484 L 495 465 Q 495 455 505 455 Z" opacity="0.2"/></g><g transform="translate(-222,-6) scale(1,1)"><path fill="#ffffff" stroke="none" d="M 498 448 L 537 448 Q 547 448 547 458 L 547 477 Q 547 487 537 487 L 498 487 Q 488 487 488 477 L 488 458 Q 488 448 498 448 Z"/></g><g transform="translate(-222,-6) scale(1,1)"><path fill="none" stroke="#000000" d="M 498 448 L 537 448 Q 547 448 547 458 L 547 477 Q 547 487 537 487 L 498 487 Q 488 487 488 477 L 488 458 Q 488 448 498 448 Z" stroke-miterlimit="10"/></g><g transform="translate(-222,-6) scale(1,1)"><g><path fill="none" stroke="none"/><text fill="#000000" stroke="none" font-family="Arial" font-size="13px" font-style="normal" font-weight="bold" text-decoration="none" x="498.707763671875" y="467.5">State5</text></g></g><g transform="translate(-222,-6) scale(1,1)"><path fill="#C0C0C0" stroke="none" d="M 417 575 L 456 575 Q 466 575 466 585 L 466 604 Q 466 614 456 614 L 417 614 Q 407 614 407 604 L 407 585 Q 407 575 417 575 Z" opacity="0.2"/></g><g transform="translate(-222,-6) scale(1,1)"><path fill="#ffffff" stroke="none" d="M 410 568 L 449 568 Q 459 568 459 578 L 459 597 Q 459 607 449 607 L 410 607 Q 400 607 400 597 L 400 578 Q 400 568 410 568 Z"/></g><g transform="translate(-222,-6) scale(1,1)"><path fill="none" stroke="#000000" d="M 410 568 L 449 568 Q 459 568 459 578 L 459 597 Q 459 607 449 607 L 410 607 Q 400 607 400 597 L 400 578 Q 400 568 410 568 Z" stroke-miterlimit="10"/></g><g transform="translate(-222,-6) scale(1,1)"><g><path fill="none" stroke="none"/><text fill="#000000" stroke="none" font-family="Arial" font-size="13px" font-style="normal" font-weight="bold" text-decoration="none" x="410.707763671875" y="587.5">State6</text></g></g><g transform="translate(-222,-6) scale(1,1)"><path fill="#C0C0C0" stroke="none" d="M 423 683.5 C 423 676.59644 428.59644 671 435.5 671 C 442.40356 671 448 676.59644 448 683.5 C 448 690.40356 442.40356 696 435.5 696 C 428.59644 696 423 690.40356 423 683.5 Z" opacity="0.2"/></g><g transform="translate(-222,-6) scale(1,1)"><path fill="none" stroke="#000000" d="M 416 676.5 C 416 669.59644 421.59644 664 428.5 664 C 435.40356 664 441 669.59644 441 676.5 C 441 683.40356 435.40356 689 428.5 689 C 421.59644 689 416 683.40356 416 676.5 Z" stroke-miterlimit="10"/></g><g transform="translate(-222,-6) scale(1,1)"><path fill="#000000" stroke="none" d="M 421 676.5 C 421 672.357864 424.357864 669 428.5 669 C 432.642136 669 436 672.357864 436 676.5 C 436 680.642136 432.642136 684 428.5 684 C 424.357864 684 421 680.642136 421 676.5 Z"/></g><g transform="translate(-222,-6) scale(1,1)"><path fill="#C0C0C0" stroke="none" d="M 303 683.5 C 303 676.59644 308.59644 671 315.5 671 C 322.40356 671 328 676.59644 328 683.5 C 328 690.40356 322.40356 696 315.5 696 C 308.59644 696 303 690.40356 303 683.5 Z" opacity="0.2"/></g><g transform="translate(-222,-6) scale(1,1)"><path fill="none" stroke="#000000" d="M 296 676.5 C 296 669.59644 301.59644 664 308.5 664 C 315.40356 664 321 669.59644 321 676.5 C 321 683.40356 315.40356 689 308.5 689 C 301.59644 689 296 683.40356 296 676.5 Z" stroke-miterlimit="10"/></g><g transform="translate(-222,-6) scale(1,1)"><path fill="#000000" stroke="none" d="M 301 676.5 C 301 672.357864 304.357864 669 308.5 669 C 312.642136 669 316 672.357864 316 676.5 C 316 680.642136 312.642136 684 308.5 684 C 304.357864 684 301 680.642136 301 676.5 Z"/></g><g transform="translate(-222,-6) scale(1,1)"><path fill="none" stroke="#000000" d="M 602 36 L 604 79" stroke-miterlimit="10"/></g><g transform="translate(-222,-6) scale(1,1)"><path fill="none" stroke="#000000" d="M 599.322856065764 69.04388004198225 L 604 79 L 607.7327997441373 68.65271987089511" stroke-miterlimit="10"/></g><g transform="translate(-222,-6) scale(1,1)"><path fill="none" stroke="#000000" d="M 578 120 Q 528 160 579 199" stroke-miterlimit="10"/></g><g transform="translate(-222,-6) scale(1,1)"><path fill="none" stroke="#000000" d="M 568.3701276091327 196.17054546707706 L 579 199 L 573.4842716365589 189.4828186619813" stroke-miterlimit="10"/></g><g transform="translate(-222,-6) scale(1,1)"><g><path fill="none" stroke="none"/><text fill="#000000" stroke="none" font-family="Arial" font-size="13px" font-style="normal" font-weight="normal" text-decoration="none" x="478.5" y="163.5">Put Red</text></g></g><g transform="translate(-222,-6) scale(1,1)"><path fill="none" stroke="#000000" d="M 630 199 Q 680 160 631 120" stroke-miterlimit="10"/></g><g transform="translate(-222,-6) scale(1,1)"><path fill="none" stroke="#000000" d="M 641.534629964638 123.16568657768735 L 631 120 L 636.2106298390926 129.68758673148054" stroke-miterlimit="10"/></g><g transform="translate(-222,-6) scale(1,1)"><g><path fill="none" stroke="none"/><text fill="#000000" stroke="none" font-family="Arial" font-size="13px" font-style="normal" font-weight="normal" text-decoration="none" x="669.5" y="163.5">Put Yellow</text></g></g><g transform="translate(-222,-6) scale(1,1)"><path fill="none" stroke="#000000" d="M 605 240 L 605 287" stroke-miterlimit="10"/></g><g transform="translate(-222,-6) scale(1,1)"><path fill="none" stroke="#000000" d="M 600.790482243984 276.83732514237585 L 605 287 L 609.209517756016 276.83732514237585" stroke-miterlimit="10"/></g><g transform="translate(-222,-6) scale(1,1)"><g><path fill="none" stroke="none"/><text fill="#000000" stroke="none" font-family="Arial" font-size="13px" font-style="normal" font-weight="normal" text-decoration="none" x="616.216796875" y="268.5">YellowPiecesOnBoard=&gt;4</text></g></g><g transform="translate(-222,-6) scale(1,1)"><path fill="none" stroke="#000000" d="M 605 328 L 604 663" stroke-miterlimit="10"/></g><g transform="translate(-222,-6) scale(1,1)"><path fill="none" stroke="#000000" d="M 599.8208372063725 652.8248047515362 L 604 663 L 608.2398352090294 652.8499360888576" stroke-miterlimit="10"/></g><g transform="translate(-222,-6) scale(1,1)"><g><path fill="none" stroke="none"/><text fill="#000000" stroke="none" font-family="Arial" font-size="13px" font-style="normal" font-weight="normal" text-decoration="none" x="615.5" y="651.5">Yellow4inLine</text></g></g><g transform="translate(-222,-6) scale(1,1)"><path fill="none" stroke="#000000" d="M 575 314 L 340 371" stroke-miterlimit="10"/></g><g transform="translate(-222,-6) scale(1,1)"><path fill="none" stroke="#000000" d="M 348.8840442409987 364.5135712503738 L 340 371 L 350.86856568171555 372.6953701726274" stroke-miterlimit="10"/></g><g transform="translate(-222,-6) scale(1,1)"><g><path fill="none" stroke="none"/><text fill="#000000" stroke="none" font-family="Arial" font-size="13px" font-style="normal" font-weight="normal" text-decoration="none" x="434.114990234375" y="332.5">Put Red</text></g></g><g transform="translate(-222,-6) scale(1,1)"><path fill="none" stroke="#000000" d="M 340 392 L 487 454" stroke-miterlimit="10"/></g><g transform="translate(-222,-6) scale(1,1)"><path fill="none" stroke="#000000" d="M 476.00022749883897 453.92925452168566 L 487 454 L 479.27201088037407 446.1719616654654" stroke-miterlimit="10"/></g><g transform="translate(-222,-6) scale(1,1)"><g><path fill="none" stroke="none"/><text fill="#000000" stroke="none" font-family="Arial" font-size="13px" font-style="normal" font-weight="normal" text-decoration="none" x="415.114990234375" y="412.5">Put Yellow</text></g></g><g transform="translate(-222,-6) scale(1,1)"><path fill="none" stroke="#000000" d="M 502 488 L 444 567" stroke-miterlimit="10"/></g><g transform="translate(-222,-6) scale(1,1)"><path fill="none" stroke="#000000" d="M 446.62112108467625 556.316848580149 L 444 567 L 453.407541306705 561.2992836798662" stroke-miterlimit="10"/></g><g transform="translate(-222,-6) scale(1,1)"><g><path fill="none" stroke="none"/><text fill="#000000" stroke="none" font-family="Arial" font-size="13px" font-style="normal" font-weight="normal" text-decoration="none" x="466.114990234375" y="555.5">Put Red</text></g></g><g transform="translate(-222,-6) scale(1,1)"><path fill="none" stroke="#000000" d="M 429 608 L 428 663" stroke-miterlimit="10"/></g><g transform="translate(-222,-6) scale(1,1)"><path fill="none" stroke="#000000" d="M 423.97592323218123 652.7624804680675 L 428 663 L 432.3935675130194 652.9155285459009" stroke-miterlimit="10"/></g><g transform="translate(-222,-6) scale(1,1)"><g><path fill="none" stroke="none"/><text fill="#000000" stroke="none" font-family="Arial" font-size="13px" font-style="normal" font-weight="normal" text-decoration="none" x="389.5" y="655.5">Draw</text></g></g><g transform="translate(-222,-6) scale(1,1)"><path fill="none" stroke="#000000" d="M 309 400 L 308 663" stroke-miterlimit="10"/></g><g transform="translate(-222,-6) scale(1,1)"><path fill="none" stroke="#000000" d="M 303.8291537428223 652.8213929489843 L 308 663 L 312.24812839706954 652.8534042594567" stroke-miterlimit="10"/></g><g transform="translate(-222,-6) scale(1,1)"><g><path fill="none" stroke="none"/><text fill="#000000" stroke="none" font-family="Arial" font-size="13px" font-style="normal" font-weight="normal" text-decoration="none" x="231.5" y="648.5">Red4inLine</text></g></g><g transform="translate(-222,-6) scale(1,1)"><path fill="none" stroke="#000000" d="M 431 567 Q 440 488 334 400" stroke-miterlimit="10"/></g><g transform="translate(-222,-6) scale(1,1)"><path fill="none" stroke="#000000" d="M 344.5081145820477 403.25261862666935 L 334 400 L 339.1304103909196 409.73030776598273" stroke-miterlimit="10"/></g><g transform="translate(-222,-6) scale(1,1)"><path fill="none" stroke="#000000" d="M 526 488 L 599 663" stroke-miterlimit="10"/></g><g transform="translate(-222,-6) scale(1,1)"><path fill="none" stroke="#000000" d="M 591.2024220068305 655.2412773319032 L 599 663 L 598.9725251361558 652.0000343122418" stroke-miterlimit="10"/></g></g></svg>