<svg version="1.1" xmlns="http://www.w3.org/2000/svg" xmlns:xlink="http://www.w3.org/1999/xlink" width="325" height="981"><defs/><g><text fill="#eeeeee" stroke="none" font-family="Arial" font-size="24px" font-style="normal" font-weight="normal" text-decoration="none" x="0" y="0">UNREGISTERED</text><text fill="#eeeeee" stroke="none" font-family="Arial" font-size="24px" font-style="normal" font-weight="normal" text-decoration="none" x="0" y="30">UNREGISTERED</text><text fill="#eeeeee" stroke="none" font-family="Arial" font-size="24px" font-style="normal" font-weight="normal" text-decoration="none" x="0" y="60">UNREGISTERED</text><text fill="#eeeeee" stroke="none" font-family="Arial" font-size="24px" font-style="normal" font-weight="normal" text-decoration="none" x="0" y="90">UNREGISTERED</text><text fill="#eeeeee" stroke="none" font-family="Arial" font-size="24px" font-style="normal" font-weight="normal" text-decoration="none" x="0" y="120">UNREGISTERED</text><text fill="#eeeeee" stroke="none" font-family="Arial" font-size="24px" font-style="normal" font-weight="normal" text-decoration="none" x="0" y="150">UNREGISTERED</text><text fill="#eeeeee" stroke="none" font-family="Arial" font-size="24px" font-style="normal" font-weight="normal" text-decoration="none" x="0" y="180">UNREGISTERED</text><text fill="#eeeeee" stroke="none" font-family="Arial" font-size="24px" font-style="normal" font-weight="normal" text-decoration="none" x="0" y="210">UNREGISTERED</text><text fill="#eeeeee" stroke="none" font-family="Arial" font-size="24px" font-style="normal" font-weight="normal" text-decoration="none" x="0" y="240">UNREGISTERED</text><text fill="#eeeeee" stroke="none" font-family="Arial" font-size="24px" font-style="normal" font-weight="normal" text-decoration="none" x="0" y="270">UNREGISTERED</text><text fill="#eeeeee" stroke="none" font-family="Arial" font-size="24px" font-style="normal" font-weight="normal" text-decoration="none" x="0" y="300">UNREGISTERED</text><text fill="#eeeeee" stroke="none" font-family="Arial" font-size="24px" font-style="normal" font-weight="normal" text-decoration="none" x="0" y="330">UNREGISTERED</text><text fill="#eeeeee" stroke="none" font-family="Arial" font-size="24px" font-style="normal" font-weight="normal" text-decoration="none" x="0" y="360">UNREGISTERED</text><text fill="#eeeeee" stroke="none" font-family="Arial" font-size="24px" font-style="normal" font-weight="normal" text-decoration="none" x="0" y="390">UNREGISTERED</text><text fill="#eeeeee" stroke="none" font-family="Arial" font-size="24px" font-style="normal" font-weight="normal" text-decoration="none" x="0" y="420">UNREGISTERED</text><text fill="#eeeeee" stroke="none" font-family="Arial" font-size="24px" font-style="normal" font-weight="normal" text-decoration="none" x="0" y="450">UNREGISTERED</text><text fill="#eeeeee" stroke="none" font-family="Arial" font-size="24px" font-style="normal" font-weight="normal" text-decoration="none" x="0" y="480">UNREGISTERED</text><text fill="#eeeeee" stroke="none" font-family="Arial" font-size="24px" font-style="normal" font-weight="normal" text-decoration="none" x="0" y="510">UNREGISTERED</text><text fill="#eeeeee" stroke="none" font-family="Arial" font-size="24px" font-style="normal" font-weight="normal" text-decoration="none" x="0" y="540">UNREGISTERED</text><text fill="#eeeeee" stroke="none" font-family="Arial" font-size="24px" font-style="normal" font-weight="normal" text-decoration="none" x="0" y="570">UNREGISTERED</text><text fill="#eeeeee" stroke="none" font-family="Arial" font-size="24px" font-style="normal" font-weight="normal" text-decoration="none" x="0" y="600">UNREGISTERED</text><text fill="#eeeeee" stroke="none" font-family="Arial" font-size="24px" font-style="normal" font-weight="normal" text-decoration="none" x="0" y="630">UNREGISTERED</text><text fill="#eeeeee" stroke="none" font-family="Arial" font-size="24px" font-style="normal" font-weight="normal" text-decoration="none" x="0" y="660">UNREGISTERED</text><text fill="#eeeeee" stroke="none" font-family="Arial" font-size="24px" font-style="normal" font-weight="normal" text-decoration="none" x="0" y="690">UNREGISTERED</text><text fill="#eeeeee" stroke="none" font-family="Arial" font-size="24px" font-style="normal" font-weight="normal" text-decoration="none" x="0" y="720">UNREGISTERED</text><text fill="#eeeeee" stroke="none" font-family="Arial" font-size="24px" font-style="normal" font-weight="normal" text-decoration="none" x="0" y="750">UNREGISTERED</text><text fill="#eeeeee" stroke="none" font-family="Arial" font-size="24px" font-style="normal" font-weight="normal" text-decoration="none" x="0" y="780">UNREGISTERED</text><text fill="#eeeeee" stroke="none" font-family="Arial" font-size="24px" font-style="normal" font-weight="normal" text-decoration="none" x="0" y="810">UNREGISTERED</text><text fill="#eeeeee" stroke="none" font-family="Arial" font-size="24px" font-style="normal" font-weight="normal" text-decoration="none" x="0" y="840">UNREGISTERED</text><text fill="#eeeeee" stroke="none" font-family="Arial" font-size="24px" font-style="normal" font-weight="normal" text-decoration="none" x="0" y="870">UNREGISTERED</text><text fill="#eeeeee" stroke="none" font-family="Arial" font-size="24px" font-style="normal" font-weight="normal" text-decoration="none" x="0" y="900">UNREGISTERED</text><text fill="#eeeeee" stroke="none" font-family="Arial" font-size="24px" font-style="normal" font-weight="normal" text-decoration="none" x="0" y="930">UNREGISTERED</text><text fill="#eeeeee" stroke="none" font-family="Arial" font-size="24px" font-style="normal" font-weight="normal" text-decoration="none" x="0" y="960">UNREGISTERED</text><text fill="#eeeeee" stroke="none" font-family="Arial" font-size="24px" font-style="normal" font-weight="normal" text-decoration="none" x="200" y="0">UNREGISTERED</text><text fill="#eeeeee" stroke="none" font-family="Arial" font-size="24px" font-style="normal" font-weight="normal" text-decoration="none" x="200" y="30">UNREGISTERED</text><text fill="#eeeeee" stroke="none" font-family="Arial" font-size="24px" font-style="normal" font-weight="normal" text-decoration="none" x="200" y="60">UNREGISTERED</text><text fill="#eeeeee" stroke="none" font-family="Arial" font-size="24px" font-style="normal" font-weight="normal" text-decoration="none" x="200" y="90">UNREGISTERED</text><text fill="#eeeeee" stroke="none" font-family="Arial" font-size="24px" font-style="normal" font-weight="normal" text-decoration="none" x="200" y="120">UNREGISTERED</text><text fill="#eeeeee" stroke="none" font-family="Arial" font-size="24px" font-style="normal" font-weight="normal" text-decoration="none" x="200" y="150">UNREGISTERED</text><text fill="#eeeeee" stroke="none" font-family="Arial" font-size="24px" font-style="normal" font-weight="normal" text-decoration="none" x="200" y="180">UNREGISTERED</text><text fill="#eeeeee" stroke="none" font-family="Arial" font-size="24px" font-style="normal" font-weight="normal" text-decoration="none" x="200" y="210">UNREGISTERED</text><text fill="#eeeeee" stroke="none" font-family="Arial" font-size="24px" font-style="normal" font-weight="normal" text-decoration="none" x="200" y="240">UNREGISTERED</text><text fill="#eeeeee" stroke="none" font-family="Arial" font-size="24px" font-style="normal" font-weight="normal" text-decoration="none" x="200" y="270">UNREGISTERED</text><text fill="#eeeeee" stroke="none" font-family="Arial" font-size="24px" font-style="normal" font-weight="normal" text-decoration="none" x="200" y="300">UNREGISTERED</text><text fill="#eeeeee" stroke="none" font-family="Arial" font-size="24px" font-style="normal" font-weight="normal" text-decoration="none" x="200" y="330">UNREGISTERED</text><text fill="#eeeeee" stroke="none" font-family="Arial" font-size="24px" font-style="normal" font-weight="normal" text-decoration="none" x="200" y="360">UNREGISTERED</text><text fill="#eeeeee" stroke="none" font-family="Arial" font-size="24px" font-style="normal" font-weight="normal" text-decoration="none" x="200" y="390">UNREGISTERED</text><text fill="#eeeeee" stroke="none" font-family="Arial" font-size="24px" font-style="normal" font-weight="normal" text-decoration="none" x="200" y="420">UNREGISTERED</text><text fill="#eeeeee" stroke="none" font-family="Arial" font-size="24px" font-style="normal" font-weight="normal" text-decoration="none" x="200" y="450">UNREGISTERED</text><text fill="#eeeeee" stroke="none" font-family="Arial" font-size="24px" font-style="normal" font-weight="normal" text-decoration="none" x="200" y="480">UNREGISTERED</text><text fill="#eeeeee" stroke="none" font-family="Arial" font-size="24px" font-style="normal" font-weight="normal" text-decoration="none" x="200" y="510">UNREGISTERED</text><text fill="#eeeeee" stroke="none" font-family="Arial" font-size="24px" font-style="normal" font-weight="normal" text-decoration="none" x="200" y="540">UNREGISTERED</text><text fill="#eeeeee" stroke="none" font-family="Arial" font-size="24px" font-style="normal" font-weight="normal" text-decoration="none" x="200" y="570">UNREGISTERED</text><text fill="#eeeeee" stroke="none" font-family="Arial" font-size="24px" font-style="normal" font-weight="normal" text-decoration="none" x="200" y="600">UNREGISTERED</text><text fill="#eeeeee" stroke="none" font-family="Arial" font-size="24px" font-style="normal" font-weight="normal" text-decoration="none" x="200" y="630">UNREGISTERED</text><text fill="#eeeeee" stroke="none" font-family="Arial" font-size="24px" font-style="normal" font-weight="normal" text-decoration="none" x="200" y="660">UNREGISTERED</text><text fill="#eeeeee" stroke="none" font-family="Arial" font-size="24px" font-style="normal" font-weight="normal" text-decoration="none" x="200" y="690">UNREGISTERED</text><text fill="#eeeeee" stroke="none" font-family="Arial" font-size="24px" font-style="normal" font-weight="normal" text-decoration="none" x="200" y="720">UNREGISTERED</text><text fill="#eeeeee" stroke="none" font-family="Arial" font-size="24px" font-style="normal" font-weight="normal" text-decoration="none" x="200" y="750">UNREGISTERED</text><text fill="#eeeeee" stroke="none" font-family="Arial" font-size="24px" font-style="normal" font-weight="normal" text-decoration="none" x="200" y="780">UNREGISTERED</text><text fill="#eeeeee" stroke="none" font-family="Arial" font-size="24px" font-style="normal" font-weight="normal" text-decoration="none" x="200" y="810">UNREGISTERED</text><text fill="#eeeeee" stroke="none" font-family="Arial" font-size="24px" font-style="normal" font-weight="normal" text-decoration="none" x="200" y="840">UNREGISTERED</text><text fill="#eeeeee" stroke="none" font-family="Arial" font-size="24px" font-style="normal" font-weight="normal" text-decoration="none" x="200" y="870">UNREGISTERED</text><text fill="#eeeeee" stroke="none" font-family="Arial" font-size="24px" font-style="normal" font-weight="normal" text-decoration="none" x="200" y="900">UNREGISTERED</text><text fill="#eeeeee" stroke="none" font-family="Arial" font-size="24px" font-style="normal" font-weight="normal" text-decoration="none" x="200" y="930">UNREGISTERED</text><text fill="#eeeeee" stroke="none" font-family="Arial" font-size="24px" font-style="normal" font-weight="normal" text-decoration="none" x="200" y="960">UNREGISTERED</text><g transform="translate(-470,-6) scale(1,1)"><path fill="#C0C0C0" stroke="none" d="M 623 32.5 C 623 27.2532944 627.2532944 23 632.5 23 C 637.7467056 23 642 27.2532944 642 32.5 C 642 37.7467056 637.7467056 42 632.5 42 C 627.2532944 42 623 37.7467056 623 32.5 Z" opacity="0.2"/></g><g transform="translate(-470,-6) scale(1,1)"><path fill="#000000" stroke="none" d="M 616 25.5 C 616 20.2532944 620.2532944 16 625.5 16 C 630.7467056 16 635 20.2532944 635 25.5 C 635 30.7467056 630.7467056 35 625.5 35 C 620.2532944 35 616 30.7467056 616 25.5 Z"/></g><g transform="translate(-470,-6) scale(1,1)"><path fill="#C0C0C0" stroke="none" d="M 623 971.5 C 623 964.59644 628.59644 959 635.5 959 C 642.40356 959 648 964.59644 648 971.5 C 648 978.40356 642.40356 984 635.5 984 C 628.59644 984 623 978.40356 623 971.5 Z" opacity="0.2"/></g><g transform="translate(-470,-6) scale(1,1)"><path fill="none" stroke="#000000" d="M 616 964.5 C 616 957.59644 621.59644 952 628.5 952 C 635.40356 952 641 957.59644 641 964.5 C 641 971.40356 635.40356 977 628.5 977 C 621.59644 977 616 971.40356 616 964.5 Z" stroke-miterlimit="10"/></g><g transform="translate(-470,-6) scale(1,1)"><path fill="#000000" stroke="none" d="M 621 964.5 C 621 960.357864 624.357864 957 628.5 957 C 632.642136 957 636 960.357864 636 964.5 C 636 968.642136 632.642136 972 628.5 972 C 624.357864 972 621 968.642136 621 964.5 Z"/></g><g transform="translate(-470,-6) scale(1,1)"><path fill="#C0C0C0" stroke="none" d="M 623 88.5 L 634.5 79 L 645 88.5 L 634.5 97 L 623 88.5" opacity="0.2"/></g><g transform="translate(-470,-6) scale(1,1)"><path fill="#cce18d" stroke="none" d="M 616 81 L 627 72 L 638 81 L 627 90 L 616 81"/></g><g transform="translate(-470,-6) scale(1,1)"><path fill="none" stroke="#000000" d="M 616 81 L 627 72 L 638 81 L 627 90 L 616 81 L 616 81" stroke-miterlimit="10"/></g><g transform="translate(-470,-6) scale(1,1)"><path fill="#C0C0C0" stroke="none" d="M 609 119 L 662.2890625 119 Q 672.2890625 119 672.2890625 129 L 672.2890625 149 Q 672.2890625 159 662.2890625 159 L 609 159 Q 599 159 599 149 L 599 129 Q 599 119 609 119 Z" opacity="0.2"/></g><g transform="translate(-470,-6) scale(1,1)"><path fill="#d8e1f8" stroke="none" d="M 602 112 L 655.2890625 112 Q 665.2890625 112 665.2890625 122 L 665.2890625 142 Q 665.2890625 152 655.2890625 152 L 602 152 Q 592 152 592 142 L 592 122 Q 592 112 602 112 Z"/></g><g transform="translate(-470,-6) scale(1,1)"><path fill="none" stroke="#000000" d="M 602 112 L 655.2890625 112 Q 665.2890625 112 665.2890625 122 L 665.2890625 142 Q 665.2890625 152 655.2890625 152 L 602 152 Q 592 152 592 142 L 592 122 Q 592 112 602 112 Z" stroke-miterlimit="10"/></g><g transform="translate(-470,-6) scale(1,1)"><g><path fill="none" stroke="none"/><text fill="#000000" stroke="none" font-family="Arial" font-size="13px" font-style="normal" font-weight="bold" text-decoration="none" x="599.02001953125" y="131.5">Put yellow</text></g></g><g transform="translate(-470,-6) scale(1,1)"><path fill="#C0C0C0" stroke="none" d="M 617 191 L 656 191 Q 666 191 666 201 L 666 221 Q 666 231 656 231 L 617 231 Q 607 231 607 221 L 607 201 Q 607 191 617 191 Z" opacity="0.2"/></g><g transform="translate(-470,-6) scale(1,1)"><path fill="#d8e1f8" stroke="none" d="M 610 184 L 649 184 Q 659 184 659 194 L 659 214 Q 659 224 649 224 L 610 224 Q 600 224 600 214 L 600 194 Q 600 184 610 184 Z"/></g><g transform="translate(-470,-6) scale(1,1)"><path fill="none" stroke="#000000" d="M 610 184 L 649 184 Q 659 184 659 194 L 659 214 Q 659 224 649 224 L 610 224 Q 600 224 600 214 L 600 194 Q 600 184 610 184 Z" stroke-miterlimit="10"/></g><g transform="translate(-470,-6) scale(1,1)"><g><path fill="none" stroke="none"/><text fill="#000000" stroke="none" font-family="Arial" font-size="13px" font-style="normal" font-weight="bold" text-decoration="none" x="606.013671875" y="203.5">Put Red</text></g></g><g transform="translate(-470,-6) scale(1,1)"><path fill="none" stroke="#000000" d="M 625 36 L 627 71" stroke-miterlimit="10"/></g><g transform="translate(-470,-6) scale(1,1)"><path fill="none" stroke="#000000" d="M 622.2175596687065 61.09402884732563 L 627 71 L 630.6228833874167 60.61372463482791" stroke-miterlimit="10"/></g><g transform="translate(-470,-6) scale(1,1)"><path fill="none" stroke="#000000" d="M 627 91 L 628 111" stroke-miterlimit="10"/></g><g transform="translate(-470,-6) scale(1,1)"><path fill="none" stroke="#000000" d="M 623.2882345314658 101.06021800191125 L 628 111 L 631.6967659402035 100.63979143147438" stroke-miterlimit="10"/></g><g transform="translate(-470,-6) scale(1,1)"><path fill="none" stroke="#000000" d="M 628 153 L 629 183" stroke-miterlimit="10"/></g><g transform="translate(-470,-6) scale(1,1)"><path fill="none" stroke="#000000" d="M 624.4542511303202 172.9832057416654 L 629 183 L 632.8686132944972 172.7027270028595" stroke-miterlimit="10"/></g><g transform="translate(-470,-6) scale(1,1)"><path fill="#C0C0C0" stroke="none" d="M 623 272.5 L 634.5 263 L 645 272.5 L 634.5 281 L 623 272.5" opacity="0.2"/></g><g transform="translate(-470,-6) scale(1,1)"><path fill="#cce18d" stroke="none" d="M 616 265 L 627 256 L 638 265 L 627 274 L 616 265"/></g><g transform="translate(-470,-6) scale(1,1)"><path fill="none" stroke="#000000" d="M 616 265 L 627 256 L 638 265 L 627 274 L 616 265 L 616 265" stroke-miterlimit="10"/></g><g transform="translate(-470,-6) scale(1,1)"><path fill="#C0C0C0" stroke="none" d="M 609 311 L 670.24267578125 311 Q 680.24267578125 311 680.24267578125 321 L 680.24267578125 341 Q 680.24267578125 351 670.24267578125 351 L 609 351 Q 599 351 599 341 L 599 321 Q 599 311 609 311 Z" opacity="0.2"/></g><g transform="translate(-470,-6) scale(1,1)"><path fill="#d8e1f8" stroke="none" d="M 602 304 L 663.24267578125 304 Q 673.24267578125 304 673.24267578125 314 L 673.24267578125 334 Q 673.24267578125 344 663.24267578125 344 L 602 344 Q 592 344 592 334 L 592 314 Q 592 304 602 304 Z"/></g><g transform="translate(-470,-6) scale(1,1)"><path fill="none" stroke="#000000" d="M 602 304 L 663.24267578125 304 Q 673.24267578125 304 673.24267578125 314 L 673.24267578125 334 Q 673.24267578125 344 663.24267578125 344 L 602 344 Q 592 344 592 334 L 592 314 Q 592 304 602 304 Z" stroke-miterlimit="10"/></g><g transform="translate(-470,-6) scale(1,1)"><g><path fill="none" stroke="none"/><text fill="#000000" stroke="none" font-family="Arial" font-size="13px" font-style="normal" font-weight="bold" text-decoration="none" x="598.89306640625" y="323.5">Put Yellow2</text></g></g><g transform="translate(-470,-6) scale(1,1)"><path fill="#C0C0C0" stroke="none" d="M 623 392.5 L 634.5 383 L 645 392.5 L 634.5 401 L 623 392.5" opacity="0.2"/></g><g transform="translate(-470,-6) scale(1,1)"><path fill="#cce18d" stroke="none" d="M 616 385 L 627 376 L 638 385 L 627 394 L 616 385"/></g><g transform="translate(-470,-6) scale(1,1)"><path fill="none" stroke="#000000" d="M 616 385 L 627 376 L 638 385 L 627 394 L 616 385 L 616 385" stroke-miterlimit="10"/></g><g transform="translate(-470,-6) scale(1,1)"><path fill="#C0C0C0" stroke="none" d="M 617 439 L 662.341796875 439 Q 672.341796875 439 672.341796875 449 L 672.341796875 469 Q 672.341796875 479 662.341796875 479 L 617 479 Q 607 479 607 469 L 607 449 Q 607 439 617 439 Z" opacity="0.2"/></g><g transform="translate(-470,-6) scale(1,1)"><path fill="#d8e1f8" stroke="none" d="M 610 432 L 655.341796875 432 Q 665.341796875 432 665.341796875 442 L 665.341796875 462 Q 665.341796875 472 655.341796875 472 L 610 472 Q 600 472 600 462 L 600 442 Q 600 432 610 432 Z"/></g><g transform="translate(-470,-6) scale(1,1)"><path fill="none" stroke="#000000" d="M 610 432 L 655.341796875 432 Q 665.341796875 432 665.341796875 442 L 665.341796875 462 Q 665.341796875 472 655.341796875 472 L 610 472 Q 600 472 600 462 L 600 442 Q 600 432 610 432 Z" stroke-miterlimit="10"/></g><g transform="translate(-470,-6) scale(1,1)"><g><path fill="none" stroke="none"/><text fill="#000000" stroke="none" font-family="Arial" font-size="13px" font-style="normal" font-weight="bold" text-decoration="none" x="605.569580078125" y="451.5">Put Red2</text></g></g><g transform="translate(-470,-6) scale(1,1)"><path fill="none" stroke="#000000" d="M 628 225 L 627 255" stroke-miterlimit="10"/></g><g transform="translate(-470,-6) scale(1,1)"><path fill="none" stroke="#000000" d="M 623.1313867055028 244.7027270028595 L 627 255 L 631.5457488696798 244.9832057416654" stroke-miterlimit="10"/></g><g transform="translate(-470,-6) scale(1,1)"><path fill="none" stroke="#000000" d="M 628 275 L 630 303" stroke-miterlimit="10"/></g><g transform="translate(-470,-6) scale(1,1)"><path fill="none" stroke="#000000" d="M 625.0771192885778 293.16306727169956 L 630 303 L 633.4747595042381 292.5632358277239" stroke-miterlimit="10"/></g><g transform="translate(-470,-6) scale(1,1)"><g><path fill="none" stroke="none"/><text fill="#000000" stroke="none" font-family="Arial" font-size="13px" font-style="normal" font-weight="normal" text-decoration="none" x="634.5" y="293.5">No</text></g></g><g transform="translate(-470,-6) scale(1,1)"><path fill="none" stroke="#000000" d="M 630 345 L 628 375" stroke-miterlimit="10"/></g><g transform="translate(-470,-6) scale(1,1)"><path fill="none" stroke="#000000" d="M 624.4758167371174 364.5798209070276 L 628 375 L 632.8762054144906 365.13984681885256" stroke-miterlimit="10"/></g><g transform="translate(-470,-6) scale(1,1)"><path fill="none" stroke="#000000" d="M 628 395 L 630 431" stroke-miterlimit="10"/></g><g transform="translate(-470,-6) scale(1,1)"><path fill="none" stroke="#000000" d="M 625.233239640734 421.0864741046724 L 630 431 L 633.6393128117264 420.6194700396173" stroke-miterlimit="10"/></g><g transform="translate(-470,-6) scale(1,1)"><g><path fill="none" stroke="none"/><text fill="#000000" stroke="none" font-family="Arial" font-size="13px" font-style="normal" font-weight="normal" text-decoration="none" x="634.5" y="418.5">No</text></g></g><g transform="translate(-470,-6) scale(1,1)"><path fill="#C0C0C0" stroke="none" d="M 623 520.5 L 634.5 511 L 645 520.5 L 634.5 529 L 623 520.5" opacity="0.2"/></g><g transform="translate(-470,-6) scale(1,1)"><path fill="#cce18d" stroke="none" d="M 616 513 L 627 504 L 638 513 L 627 522 L 616 513"/></g><g transform="translate(-470,-6) scale(1,1)"><path fill="none" stroke="#000000" d="M 616 513 L 627 504 L 638 513 L 627 522 L 616 513 L 616 513" stroke-miterlimit="10"/></g><g transform="translate(-470,-6) scale(1,1)"><path fill="#C0C0C0" stroke="none" d="M 609 567 L 670.24267578125 567 Q 680.24267578125 567 680.24267578125 577 L 680.24267578125 597 Q 680.24267578125 607 670.24267578125 607 L 609 607 Q 599 607 599 597 L 599 577 Q 599 567 609 567 Z" opacity="0.2"/></g><g transform="translate(-470,-6) scale(1,1)"><path fill="#d8e1f8" stroke="none" d="M 602 560 L 663.24267578125 560 Q 673.24267578125 560 673.24267578125 570 L 673.24267578125 590 Q 673.24267578125 600 663.24267578125 600 L 602 600 Q 592 600 592 590 L 592 570 Q 592 560 602 560 Z"/></g><g transform="translate(-470,-6) scale(1,1)"><path fill="none" stroke="#000000" d="M 602 560 L 663.24267578125 560 Q 673.24267578125 560 673.24267578125 570 L 673.24267578125 590 Q 673.24267578125 600 663.24267578125 600 L 602 600 Q 592 600 592 590 L 592 570 Q 592 560 602 560 Z" stroke-miterlimit="10"/></g><g transform="translate(-470,-6) scale(1,1)"><g><path fill="none" stroke="none"/><text fill="#000000" stroke="none" font-family="Arial" font-size="13px" font-style="normal" font-weight="bold" text-decoration="none" x="598.89306640625" y="579.5">Put Yellow3</text></g></g><g transform="translate(-470,-6) scale(1,1)"><path fill="#C0C0C0" stroke="none" d="M 617 703 L 662.341796875 703 Q 672.341796875 703 672.341796875 713 L 672.341796875 733 Q 672.341796875 743 662.341796875 743 L 617 743 Q 607 743 607 733 L 607 713 Q 607 703 617 703 Z" opacity="0.2"/></g><g transform="translate(-470,-6) scale(1,1)"><path fill="#d8e1f8" stroke="none" d="M 610 696 L 655.341796875 696 Q 665.341796875 696 665.341796875 706 L 665.341796875 726 Q 665.341796875 736 655.341796875 736 L 610 736 Q 600 736 600 726 L 600 706 Q 600 696 610 696 Z"/></g><g transform="translate(-470,-6) scale(1,1)"><path fill="none" stroke="#000000" d="M 610 696 L 655.341796875 696 Q 665.341796875 696 665.341796875 706 L 665.341796875 726 Q 665.341796875 736 655.341796875 736 L 610 736 Q 600 736 600 726 L 600 706 Q 600 696 610 696 Z" stroke-miterlimit="10"/></g><g transform="translate(-470,-6) scale(1,1)"><g><path fill="none" stroke="none"/><text fill="#000000" stroke="none" font-family="Arial" font-size="13px" font-style="normal" font-weight="bold" text-decoration="none" x="605.569580078125" y="715.5">Put Red3</text></g></g><g transform="translate(-470,-6) scale(1,1)"><path fill="#C0C0C0" stroke="none" d="M 617 823 L 656 823 Q 666 823 666 833 L 666 853 Q 666 863 656 863 L 617 863 Q 607 863 607 853 L 607 833 Q 607 823 617 823 Z" opacity="0.2"/></g><g transform="translate(-470,-6) scale(1,1)"><path fill="#d8e1f8" stroke="none" d="M 610 816 L 649 816 Q 659 816 659 826 L 659 846 Q 659 856 649 856 L 610 856 Q 600 856 600 846 L 600 826 Q 600 816 610 816 Z"/></g><g transform="translate(-470,-6) scale(1,1)"><path fill="none" stroke="#000000" d="M 610 816 L 649 816 Q 659 816 659 826 L 659 846 Q 659 856 649 856 L 610 856 Q 600 856 600 846 L 600 826 Q 600 816 610 816 Z" stroke-miterlimit="10"/></g><g transform="translate(-470,-6) scale(1,1)"><g><path fill="none" stroke="none"/><text fill="#000000" stroke="none" font-family="Arial" font-size="13px" font-style="normal" font-weight="bold" text-decoration="none" x="614.332275390625" y="835.5">Draw</text></g></g><g transform="translate(-470,-6) scale(1,1)"><path fill="none" stroke="#000000" d="M 639 265 L 744 264 L 744 80 L 639 81" stroke-miterlimit="10"/></g><g transform="translate(-470,-6) scale(1,1)"><path fill="none" stroke="#000000" d="M 649.122125169442 76.69389014838814 L 639 81 L 649.2023028239404 85.11254387072252" stroke-miterlimit="10"/></g><g transform="translate(-470,-6) scale(1,1)"><g><path fill="none" stroke="none"/><text fill="#000000" stroke="none" font-family="Arial" font-size="13px" font-style="normal" font-weight="normal" text-decoration="none" x="635.5" y="260.5">Yellowonboard&lt;3</text></g></g><g transform="translate(-470,-6) scale(1,1)"><path fill="none" stroke="#000000" d="M 630 473 L 628 503" stroke-miterlimit="10"/></g><g transform="translate(-470,-6) scale(1,1)"><path fill="none" stroke="#000000" d="M 624.4758167371174 492.5798209070276 L 628 503 L 632.8762054144906 493.13984681885256" stroke-miterlimit="10"/></g><g transform="translate(-470,-6) scale(1,1)"><path fill="none" stroke="#000000" d="M 628 523 L 630 559" stroke-miterlimit="10"/></g><g transform="translate(-470,-6) scale(1,1)"><path fill="none" stroke="#000000" d="M 625.233239640734 549.0864741046724 L 630 559 L 633.6393128117264 548.6194700396172" stroke-miterlimit="10"/></g><g transform="translate(-470,-6) scale(1,1)"><g><path fill="none" stroke="none"/><text fill="#000000" stroke="none" font-family="Arial" font-size="13px" font-style="normal" font-weight="normal" text-decoration="none" x="634.5" y="546.5">No</text></g></g><g transform="translate(-470,-6) scale(1,1)"><path fill="#C0C0C0" stroke="none" d="M 623 664.5 L 634.5 655 L 645 664.5 L 634.5 673 L 623 664.5" opacity="0.2"/></g><g transform="translate(-470,-6) scale(1,1)"><path fill="#cce18d" stroke="none" d="M 616 657 L 627 648 L 638 657 L 627 666 L 616 657"/></g><g transform="translate(-470,-6) scale(1,1)"><path fill="none" stroke="#000000" d="M 616 657 L 627 648 L 638 657 L 627 666 L 616 657 L 616 657" stroke-miterlimit="10"/></g><g transform="translate(-470,-6) scale(1,1)"><path fill="#C0C0C0" stroke="none" d="M 623 784.5 L 634.5 775 L 645 784.5 L 634.5 793 L 623 784.5" opacity="0.2"/></g><g transform="translate(-470,-6) scale(1,1)"><path fill="#cce18d" stroke="none" d="M 616 777 L 627 768 L 638 777 L 627 786 L 616 777"/></g><g transform="translate(-470,-6) scale(1,1)"><path fill="none" stroke="#000000" d="M 616 777 L 627 768 L 638 777 L 627 786 L 616 777 L 616 777" stroke-miterlimit="10"/></g><g transform="translate(-470,-6) scale(1,1)"><path fill="none" stroke="#000000" d="M 627 787 L 628 815" stroke-miterlimit="10"/></g><g transform="translate(-470,-6) scale(1,1)"><path fill="none" stroke="#000000" d="M 623.4304429001526 804.9940443779101 L 628 815 L 631.8441142603102 804.6935561150473" stroke-miterlimit="10"/></g><g transform="translate(-470,-6) scale(1,1)"><g><path fill="none" stroke="none"/><text fill="#000000" stroke="none" font-family="Arial" font-size="13px" font-style="normal" font-weight="normal" text-decoration="none" x="632.5" y="805.5">No</text></g></g><g transform="translate(-470,-6) scale(1,1)"><path fill="none" stroke="#000000" d="M 630 737 L 628 767" stroke-miterlimit="10"/></g><g transform="translate(-470,-6) scale(1,1)"><path fill="none" stroke="#000000" d="M 624.4758167371174 756.5798209070276 L 628 767 L 632.8762054144906 757.1398468188526" stroke-miterlimit="10"/></g><g transform="translate(-470,-6) scale(1,1)"><path fill="#C0C0C0" stroke="none" d="M 623 912.5 L 634.5 903 L 645 912.5 L 634.5 921 L 623 912.5" opacity="0.2"/></g><g transform="translate(-470,-6) scale(1,1)"><path fill="#cce18d" stroke="none" d="M 616 905 L 627 896 L 638 905 L 627 914 L 616 905"/></g><g transform="translate(-470,-6) scale(1,1)"><path fill="none" stroke="#000000" d="M 616 905 L 627 896 L 638 905 L 627 914 L 616 905 L 616 905" stroke-miterlimit="10"/></g><g transform="translate(-470,-6) scale(1,1)"><path fill="none" stroke="#000000" d="M 615 777 L 504 776 L 504 856 L 615 900" stroke-miterlimit="10"/></g><g transform="translate(-470,-6) scale(1,1)"><path fill="none" stroke="#000000" d="M 604.0012879940813 900.1683276889271 L 615 900 L 607.1037105059952 892.3417618065988" stroke-miterlimit="10"/></g><g transform="translate(-470,-6) scale(1,1)"><g><path fill="none" stroke="none"/><text fill="#000000" stroke="none" font-family="Arial" font-size="13px" font-style="normal" font-weight="normal" text-decoration="none" x="542.5" y="772.5">4inline?</text></g></g><g transform="translate(-470,-6) scale(1,1)"><path fill="none" stroke="#000000" d="M 627 915 L 628 951" stroke-miterlimit="10"/></g><g transform="translate(-470,-6) scale(1,1)"><path fill="none" stroke="#000000" d="M 623.5099176709792 940.9581296224949 L 628 951 L 631.9257069767938 940.7243576973333" stroke-miterlimit="10"/></g><g transform="translate(-470,-6) scale(1,1)"><path fill="none" stroke="#000000" d="M 628 667 L 630 695" stroke-miterlimit="10"/></g><g transform="translate(-470,-6) scale(1,1)"><path fill="none" stroke="#000000" d="M 625.0771192885778 685.1630672716996 L 630 695 L 633.4747595042381 684.5632358277238" stroke-miterlimit="10"/></g><g transform="translate(-470,-6) scale(1,1)"><g><path fill="none" stroke="none"/><text fill="#000000" stroke="none" font-family="Arial" font-size="13px" font-style="normal" font-weight="normal" text-decoration="none" x="634.5" y="685.5">No</text></g></g><g transform="translate(-470,-6) scale(1,1)"><path fill="none" stroke="#000000" d="M 615 657 L 480 656 L 480 904 L 615 905" stroke-miterlimit="10"/></g><g transform="translate(-470,-6) scale(1,1)"><path fill="none" stroke="#000000" d="M 604.8064231847042 909.1341252654778 L 615 905 L 604.8687846998642 900.7153207188524" stroke-miterlimit="10"/></g><g transform="translate(-470,-6) scale(1,1)"><g><path fill="none" stroke="none"/><text fill="#000000" stroke="none" font-family="Arial" font-size="13px" font-style="normal" font-weight="normal" text-decoration="none" x="550.5" y="652.5">4inline?</text></g></g><g transform="translate(-470,-6) scale(1,1)"><path fill="none" stroke="#000000" d="M 631 601 L 628 647" stroke-miterlimit="10"/></g><g transform="translate(-470,-6) scale(1,1)"><path fill="none" stroke="#000000" d="M 624.4607840884197 636.5849171519753 L 628 647 L 632.8619721372962 637.1328207203803" stroke-miterlimit="10"/></g><g transform="translate(-470,-6) scale(1,1)"><path fill="none" stroke="#000000" d="M 639 513 L 744 512 L 744 856 L 639 900" stroke-miterlimit="10"/></g><g transform="translate(-470,-6) scale(1,1)"><path fill="none" stroke="#000000" d="M 646.7460699135138 892.1898526969745 L 639 900 L 649.9999066834258 899.9546904433555" stroke-miterlimit="10"/></g><g transform="translate(-470,-6) scale(1,1)"><g><path fill="none" stroke="none"/><text fill="#000000" stroke="none" font-family="Arial" font-size="13px" font-style="normal" font-weight="normal" text-decoration="none" x="670.5" y="507.5">4inline?</text></g></g><g transform="translate(-470,-6) scale(1,1)"><path fill="none" stroke="#000000" d="M 615 513 L 480 512 L 480 264 L 615 265" stroke-miterlimit="10"/></g><g transform="translate(-470,-6) scale(1,1)"><path fill="none" stroke="#000000" d="M 604.8064231847042 269.13412526547785 L 615 265 L 604.8687846998642 260.7153207188523" stroke-miterlimit="10"/></g><g transform="translate(-470,-6) scale(1,1)"><g><path fill="none" stroke="none"/><text fill="#000000" stroke="none" font-family="Arial" font-size="13px" font-style="normal" font-weight="normal" text-decoration="none" x="486.5" y="507.5">Yellowonboard&lt;20</text></g></g><g transform="translate(-470,-6) scale(1,1)"><path fill="none" stroke="#000000" d="M 639 385 L 784 384 L 776 904 L 639 905" stroke-miterlimit="10"/></g><g transform="translate(-470,-6) scale(1,1)"><path fill="none" stroke="#000000" d="M 649.1316785496496 900.7164162472795 L 639 905 L 649.1931297265886 909.1352274879304" stroke-miterlimit="10"/></g><g transform="translate(-470,-6) scale(1,1)"><g><path fill="none" stroke="none"/><text fill="#000000" stroke="none" font-family="Arial" font-size="13px" font-style="normal" font-weight="normal" text-decoration="none" x="670.5" y="379.5">4inline?</text></g></g></g></svg>